<?xml version="1.0" encoding="utf-8"?>
<!-- Generator: Adobe Illustrator 19.2.1, SVG Export Plug-In . SVG Version: 6.00 Build 0)  -->
<svg version="1.1" id="Livello_1" xmlns="http://www.w3.org/2000/svg" xmlns:xlink="http://www.w3.org/1999/xlink" x="0px" y="0px"
	 viewBox="0 0 64 64" style="enable-background:new 0 0 64 64;" xml:space="preserve">
<style type="text/css">
	.st0{fill:none;stroke:#242424;stroke-linecap:round;stroke-linejoin:round;}
	.st1{fill:none;}
	.st2{fill:none;stroke:#242424;stroke-linecap:round;}
</style>
<title>icon / outline / map / black</title>
<desc>Created with Sketch.</desc>
<g id="Symbols">
	<g id="icon-_x2F_-outline-_x2F_-map-_x2F_-black">
		<g id="icon_x2F_outline_x2F_map_x2F_black_x2F_Ma-01" transform="translate(4.000000, 4.000000)">
			<polyline id="Stroke-28" class="st0" points="25,47.1 17.4,52.2 0,40.6 0,0 17.4,11.6 34.8,0 52.2,11.6 52.2,25.2 			"/>
			<path id="Stroke-29" class="st0" d="M17,51.6V11"/>
			<path id="Stroke-30" class="st0" d="M35,22.2V0"/>
			<g id="Symbols_1_">
				<g id="icon-_x2F_-outline-_x2F_-wifi-_x2F_-black">
					<g id="icon_x2F_outline_x2F_wifi_x2F_black_x2F_WF-01" transform="translate(4.000000, 13.000000)">
						<path id="Fill-1" class="st1" d="M38,35.9c0,1.2-1,2.2-2.2,2.2s-2.2-1-2.2-2.2c0-1.2,1-2.2,2.2-2.2S38,34.7,38,35.9"/>
						<path id="Stroke-3" class="st2" d="M38,35.9c0,1.2-1,2.2-2.2,2.2s-2.2-1-2.2-2.2c0-1.2,1-2.2,2.2-2.2S38,34.7,38,35.9L38,35.9
							z"/>
						<path id="Stroke-5" class="st2" d="M43.2,31.2c-2-1.6-4.6-2.6-7.4-2.6c-2.8,0-5.3,1-7.4,2.6"/>
						<path id="Stroke-7" class="st2" d="M47.7,26.7c-3.2-2.8-7.3-4.4-11.8-4.4c-4.5,0-8.7,1.7-11.8,4.4"/>
						<path id="Stroke-9" class="st2" d="M52,22.4c-4.3-3.8-9.9-6.2-16.1-6.2c-6.2,0-11.8,2.3-16.1,6.2"/>
					</g>
				</g>
			</g>
		</g>
	</g>
</g>
</svg>
