<?xml version="1.0" encoding="UTF-8" standalone="no"?>
<svg width="56px" height="68px" viewBox="0 0 56 68" version="1.1" xmlns="http://www.w3.org/2000/svg" xmlns:xlink="http://www.w3.org/1999/xlink">
    <!-- Generator: Sketch 3.7.2 (28276) - http://www.bohemiancoding.com/sketch -->
    <title>ICO_POI 03 Pay machines</title>
    <desc>Created with Sketch.</desc>
    <defs>
        <rect id="path-1" x="-4.97379915e-15" y="0" width="31" height="17"></rect>
        <mask id="mask-2" maskContentUnits="userSpaceOnUse" maskUnits="objectBoundingBox" x="0" y="0" width="31" height="17" fill="white">
            <use xlink:href="#path-1"></use>
        </mask>
    </defs>
    <g id="Page-1" stroke="none" stroke-width="1" fill="none" fill-rule="evenodd">
        <g id="POI" transform="translate(-154.000000, 0.000000)">
            <g id="ICO_POI-03-Pay-machines" transform="translate(154.000000, 0.000000)">
                <g id="Group-19">
                    <g id="Page-1">
                        <path d="M28.0175,67.7592 L48.1275,47.2162 C53.0495,41.9292 55.7845,35.1842 55.7845,28.0742 C55.7845,12.5792 43.2055,0.0002 27.8925,0.0002 C12.5785,0.0002 0.0005,12.5792 0.0005,27.8922 C0.0005,35.0022 2.7345,41.9292 7.6565,47.2162 L28.0175,67.7592" id="Fill-1" fill="#719E19"></path>
                        <path d="M46.1225,45.3932 L27.8925,63.6232 L9.6625,45.3932 C5.1045,40.6532 2.7345,34.4552 2.7345,28.0742 C2.7345,14.2192 14.0375,2.9172 27.8925,2.9172 C41.7475,2.9172 53.0495,14.2192 53.0495,28.0742 C53.0495,34.4552 50.6805,40.6532 46.1225,45.3932" id="Path" fill="#FFFFFF"></path>
                    </g>
                </g>
                <g id="Group-6-Copy-3" transform="translate(6.000000, 6.000000)">
                    <circle id="Oval-112" fill="#719E19" cx="22" cy="22" r="22"></circle>
                    <g id="Group-7" transform="translate(7.000000, 14.000000)" stroke="#FFFFFF">
                        <g id="Group-6">
                            <g id="Group-5" transform="translate(4.000000, 7.000000)" stroke-width="1.4" stroke-linecap="round" fill="#FFFFFF">
                                <path d="M20,1.5 L23,1.5" id="Line"></path>
                                <path d="M0,1.5 L3,1.5" id="Line-Copy-7"></path>
                            </g>
                            <use id="Rectangle-215" mask="url(#mask-2)" stroke-width="2.8" stroke-linejoin="round" xlink:href="#path-1"></use>
                        </g>
                        <circle id="Oval-85" stroke-width="1.4" cx="15.5" cy="8.5" r="3.5"></circle>
                    </g>
                </g>
            </g>
        </g>
    </g>
</svg>