<?xml version="1.0" encoding="UTF-8" standalone="no"?>
<svg width="44px" height="44px" viewBox="0 0 44 44" version="1.1" xmlns="http://www.w3.org/2000/svg" xmlns:xlink="http://www.w3.org/1999/xlink">
    <!-- Generator: Sketch 3.7.2 (28276) - http://www.bohemiancoding.com/sketch -->
    <title>ICO_Map 02 Outlets</title>
    <desc>Created with Sketch.</desc>
    <defs></defs>
    <g id="Page-1" stroke="none" stroke-width="1" fill="none" fill-rule="evenodd">
        <g id="Map-Markers-Copy" transform="translate(-94.000000, 0.000000)">
            <g id="ICO_Map-02-Outlets" transform="translate(94.000000, 0.000000)">
                <circle id="Oval-112" fill="#719E19" cx="22" cy="22" r="22"></circle>
                <g id="Group-13" transform="translate(11.000000, 8.000000)" fill="#FFFFFF">
                    <path d="M1.97609398,24.8922414 L4.50043945,6.09605911 L7.02478491,6.09605911 L7.02478491,7.72167488 C7.02478491,8.12807882 7.32770637,8.53448276 7.83257546,8.53448276 C8.33744456,8.53448276 8.64036601,8.2296798 8.64036601,7.72167488 L8.64036601,6.09605911 L14.193926,6.09605911 L14.193926,7.72167488 C14.193926,8.12807882 14.4968475,8.53448276 15.0017166,8.53448276 C15.5065857,8.53448276 15.8095071,8.2296798 15.8095071,7.72167488 L15.8095071,6.09605911 L18.3338526,6.09605911 L20.8581981,24.8922414 L1.97609398,24.8922414 Z M8.53939219,4.16564039 C8.53939219,2.64162562 9.75107802,1.42241379 11.2656853,1.42241379 L11.4676329,1.42241379 C12.9822402,1.42241379 14.193926,2.64162562 14.193926,4.16564039 L14.193926,4.57204433 L8.64036601,4.57204433 L8.64036601,4.16564039 L8.53939219,4.16564039 Z M19.6465122,5.28325123 C19.5455384,4.87684729 19.242617,4.67364532 18.9396955,4.67364532 L15.7085333,4.67364532 L15.7085333,4.26724138 C15.7085333,1.93041872 13.7900308,0 11.4676329,0 L11.2656853,0 C8.94328747,0 7.02478491,1.93041872 7.02478491,4.26724138 L7.02478491,4.67364532 L3.79362272,4.67364532 C3.38972744,4.67364532 3.08680599,4.97844828 3.08680599,5.28325123 L0.360512883,25.6034483 C0.360512883,25.8066502 0.360512883,26.0098522 0.56246052,26.2130542 C0.663434339,26.4162562 0.865381976,26.5178571 1.16830343,26.5178571 L21.6659886,26.5178571 C21.8679363,26.5178571 22.0698839,26.4162562 22.2718315,26.2130542 C22.3728053,26.0098522 22.4737792,25.8066502 22.4737792,25.6034483 L19.6465122,5.28325123 Z" id="Fill-15"></path>
                </g>
            </g>
        </g>
    </g>
</svg>