<?xml version="1.0" encoding="UTF-8" standalone="no"?>
<svg width="56px" height="68px" viewBox="0 0 56 68" version="1.1" xmlns="http://www.w3.org/2000/svg" xmlns:xlink="http://www.w3.org/1999/xlink">
    <!-- Generator: Sketch 3.7.2 (28276) - http://www.bohemiancoding.com/sketch -->
    <title>ICO_POI 02 Outlets</title>
    <desc>Created with Sketch.</desc>
    <defs></defs>
    <g id="Page-1" stroke="none" stroke-width="1" fill="none" fill-rule="evenodd">
        <g id="POI" transform="translate(-77.000000, 0.000000)">
            <g id="ICO_POI-02-Outlets" transform="translate(77.000000, 0.000000)">
                <g id="Group-19">
                    <g id="Page-1">
                        <path d="M28.0175,67.7592 L48.1275,47.2162 C53.0495,41.9292 55.7845,35.1842 55.7845,28.0742 C55.7845,12.5792 43.2055,0.0002 27.8925,0.0002 C12.5785,0.0002 0.0005,12.5792 0.0005,27.8922 C0.0005,35.0022 2.7345,41.9292 7.6565,47.2162 L28.0175,67.7592" id="Fill-1" fill="#719E19"></path>
                        <path d="M46.1225,45.3932 L27.8925,63.6232 L9.6625,45.3932 C5.1045,40.6532 2.7345,34.4552 2.7345,28.0742 C2.7345,14.2192 14.0375,2.9172 27.8925,2.9172 C41.7475,2.9172 53.0495,14.2192 53.0495,28.0742 C53.0495,34.4552 50.6805,40.6532 46.1225,45.3932" id="Path" fill="#FFFFFF"></path>
                    </g>
                </g>
                <g id="Group-6-Copy-2" transform="translate(6.000000, 6.000000)">
                    <circle id="Oval-112" fill="#719E19" cx="22" cy="22" r="22"></circle>
                    <g id="Group-13" transform="translate(11.000000, 8.000000)" fill="#FFFFFF">
                        <path d="M1.97609398,24.8922414 L4.50043945,6.09605911 L7.02478491,6.09605911 L7.02478491,7.72167488 C7.02478491,8.12807882 7.32770637,8.53448276 7.83257546,8.53448276 C8.33744456,8.53448276 8.64036601,8.2296798 8.64036601,7.72167488 L8.64036601,6.09605911 L14.193926,6.09605911 L14.193926,7.72167488 C14.193926,8.12807882 14.4968475,8.53448276 15.0017166,8.53448276 C15.5065857,8.53448276 15.8095071,8.2296798 15.8095071,7.72167488 L15.8095071,6.09605911 L18.3338526,6.09605911 L20.8581981,24.8922414 L1.97609398,24.8922414 Z M8.53939219,4.16564039 C8.53939219,2.64162562 9.75107802,1.42241379 11.2656853,1.42241379 L11.4676329,1.42241379 C12.9822402,1.42241379 14.193926,2.64162562 14.193926,4.16564039 L14.193926,4.57204433 L8.64036601,4.57204433 L8.64036601,4.16564039 L8.53939219,4.16564039 Z M19.6465122,5.28325123 C19.5455384,4.87684729 19.242617,4.67364532 18.9396955,4.67364532 L15.7085333,4.67364532 L15.7085333,4.26724138 C15.7085333,1.93041872 13.7900308,0 11.4676329,0 L11.2656853,0 C8.94328747,0 7.02478491,1.93041872 7.02478491,4.26724138 L7.02478491,4.67364532 L3.79362272,4.67364532 C3.38972744,4.67364532 3.08680599,4.97844828 3.08680599,5.28325123 L0.360512883,25.6034483 C0.360512883,25.8066502 0.360512883,26.0098522 0.56246052,26.2130542 C0.663434339,26.4162562 0.865381976,26.5178571 1.16830343,26.5178571 L21.6659886,26.5178571 C21.8679363,26.5178571 22.0698839,26.4162562 22.2718315,26.2130542 C22.3728053,26.0098522 22.4737792,25.8066502 22.4737792,25.6034483 L19.6465122,5.28325123 Z" id="Fill-15"></path>
                    </g>
                </g>
            </g>
        </g>
    </g>
</svg>