<?xml version="1.0" encoding="UTF-8" standalone="no"?>
<svg width="56px" height="68px" viewBox="0 0 56 68" version="1.1" xmlns="http://www.w3.org/2000/svg" xmlns:xlink="http://www.w3.org/1999/xlink">
    <!-- Generator: Sketch 3.7.2 (28276) - http://www.bohemiancoding.com/sketch -->
    <title>ICO_POI 05 business center</title>
    <desc>Created with Sketch.</desc>
    <defs></defs>
    <g id="Page-1" stroke="none" stroke-width="1" fill="none" fill-rule="evenodd">
        <g id="POI" transform="translate(-308.000000, 0.000000)">
            <g id="ICO_POI-05-business-center" transform="translate(308.000000, 0.000000)">
                <g id="Group-19">
                    <g id="Page-1">
                        <path d="M28.0175,67.7592 L48.1275,47.2162 C53.0495,41.9292 55.7845,35.1842 55.7845,28.0742 C55.7845,12.5792 43.2055,0.0002 27.8925,0.0002 C12.5785,0.0002 0.0005,12.5792 0.0005,27.8922 C0.0005,35.0022 2.7345,41.9292 7.6565,47.2162 L28.0175,67.7592" id="Fill-1" fill="#719E19"></path>
                        <path d="M46.1225,45.3932 L27.8925,63.6232 L9.6625,45.3932 C5.1045,40.6532 2.7345,34.4552 2.7345,28.0742 C2.7345,14.2192 14.0375,2.9172 27.8925,2.9172 C41.7475,2.9172 53.0495,14.2192 53.0495,28.0742 C53.0495,34.4552 50.6805,40.6532 46.1225,45.3932" id="Path" fill="#FFFFFF"></path>
                    </g>
                </g>
                <g id="Group-6-Copy-5" transform="translate(6.000000, 6.000000)">
                    <circle id="Oval-112" fill="#719E19" cx="22" cy="22" r="22"></circle>
                    <g id="Group-16" transform="translate(9.000000, 10.000000)" fill="#FFFFFF">
                        <g id="Group-14" transform="translate(0.000000, 0.496078)">
                            <path d="M7.45975309,19.6627451 L2.6962963,19.6627451 C2.06716049,19.6627451 1.52790123,19.2117647 1.52790123,18.5803922 L1.52790123,9.74117647 L7.45975309,9.74117647 L18.7841975,9.74117647 L24.7160494,9.74117647 L24.7160494,18.5803922 C24.7160494,19.2117647 24.1767901,19.6627451 23.5476543,19.6627451 L18.7841975,19.6627451 L7.45975309,19.6627451 Z M2.6962963,4.69019608 L10.7851852,4.69019608 L15.4587654,4.69019608 L23.5476543,4.69019608 C24.1767901,4.69019608 24.6261728,5.23137255 24.6261728,5.77254902 L24.6261728,8.29803922 L1.43802469,8.29803922 L1.43802469,5.77254902 C1.52790123,5.23137255 2.06716049,4.69019608 2.6962963,4.69019608 L2.6962963,4.69019608 Z M10.6953086,3.24705882 L10.6953086,1.44313725 C10.6953086,1.44313725 10.6953086,1.35294118 10.7851852,1.35294118 L15.4587654,1.35294118 C15.4587654,1.35294118 15.548642,1.35294118 15.548642,1.44313725 L15.548642,3.24705882 C15.548642,3.24705882 15.548642,3.3372549 15.4587654,3.3372549 L10.6953086,3.24705882 C10.7851852,3.3372549 10.6953086,3.3372549 10.6953086,3.24705882 L10.6953086,3.24705882 Z M23.5476543,3.3372549 L16.8069136,3.3372549 L16.8069136,3.24705882 L16.8069136,1.44313725 C16.8069136,0.631372549 16.1777778,-2.30926389e-13 15.3688889,-2.30926389e-13 L10.6953086,-2.30926389e-13 C9.88641975,-2.30926389e-13 9.25728395,0.631372549 9.25728395,1.44313725 L9.25728395,3.24705882 L9.25728395,3.3372549 L2.51654321,3.3372549 C1.16839506,3.3372549 0,4.41960784 0,5.8627451 L0,18.5803922 C0,19.9333333 1.07851852,21.1058824 2.51654321,21.1058824 L23.4577778,21.1058824 C24.8059259,21.1058824 25.974321,20.0235294 25.974321,18.5803922 L25.974321,5.8627451 C26.0641975,4.50980392 24.985679,3.3372549 23.5476543,3.3372549 L23.5476543,3.3372549 Z" id="Fill-12"></path>
                        </g>
                    </g>
                </g>
            </g>
        </g>
    </g>
</svg>