<?xml version="1.0" encoding="UTF-8" standalone="no"?>
<svg width="56px" height="68px" viewBox="0 0 56 68" version="1.1" xmlns="http://www.w3.org/2000/svg" xmlns:xlink="http://www.w3.org/1999/xlink">
    <!-- Generator: Sketch 3.7.2 (28276) - http://www.bohemiancoding.com/sketch -->
    <title>ICO_POI 01 Resellers</title>
    <desc>Created with Sketch.</desc>
    <defs></defs>
    <g id="Page-1" stroke="none" stroke-width="1" fill="none" fill-rule="evenodd">
        <g id="POI">
            <g id="ICO_POI-01-Resellers">
                <g id="Group-19">
                    <g id="Page-1">
                        <path d="M28.0175,67.7592 L48.1275,47.2162 C53.0495,41.9292 55.7845,35.1842 55.7845,28.0742 C55.7845,12.5792 43.2055,0.0002 27.8925,0.0002 C12.5785,0.0002 0.0005,12.5792 0.0005,27.8922 C0.0005,35.0022 2.7345,41.9292 7.6565,47.2162 L28.0175,67.7592" id="Fill-1" fill="#719E19"></path>
                        <path d="M46.1225,45.3932 L27.8925,63.6232 L9.6625,45.3932 C5.1045,40.6532 2.7345,34.4552 2.7345,28.0742 C2.7345,14.2192 14.0375,2.9172 27.8925,2.9172 C41.7475,2.9172 53.0495,14.2192 53.0495,28.0742 C53.0495,34.4552 50.6805,40.6532 46.1225,45.3932" id="Path" fill="#FFFFFF"></path>
                    </g>
                </g>
                <g id="Group-18-Copy" transform="translate(6.000000, 6.000000)" fill="#719E19">
                    <g id="Group-6">
                        <ellipse id="Oval-112" cx="22" cy="22" rx="22" ry="22"></ellipse>
                    </g>
                </g>
                <g id="Group-6-Copy" transform="translate(6.000000, 6.000000)">
                    <circle id="Oval-112" fill="#719E19" cx="22" cy="22" r="22"></circle>
                    <g id="Group-12" transform="translate(7.000000, 12.000000)" fill="#FFFFFF">
                        <path d="M23.2613684,19.4149147 C23.2613684,19.9485411 22.7883158,20.4160095 22.2467368,20.4160095 C21.7058947,20.4160095 21.2328421,19.9485411 21.2328421,19.4149147 C21.2328421,18.8812882 21.7058947,18.4138198 22.2467368,18.4138198 C22.7883158,18.4138198 23.2613684,18.8812882 23.2613684,19.4149147 L23.2613684,19.4149147 Z M11.9685263,19.4149147 C11.9685263,19.9485411 11.4954737,20.4160095 10.9546316,20.4160095 C10.4137895,20.4160095 9.94,19.9485411 9.94,19.4149147 C9.94,18.8812882 10.4137895,18.4138198 10.9546316,18.4138198 C11.4954737,18.4138198 11.9685263,18.8812882 11.9685263,19.4149147 L11.9685263,19.4149147 Z M20.1511579,4.46973937 L21.5710526,4.46973937 L26.7097895,4.46973937 L24.8838947,13.2098716 L8.31747368,13.2098716 L6.42378947,4.46973937 L20.1511579,4.46973937 Z M7.91147368,14.2109664 L25.2898947,14.2109664 C25.3576842,14.2109664 25.4254737,14.2109664 25.4925263,14.1440813 L25.5603158,14.1440813 C25.6281053,14.1440813 25.6281053,14.0771963 25.6281053,14.0771963 C25.6281053,14.0771963 25.6281053,14.0110382 25.6958947,14.0110382 L25.7629474,13.9441532 L25.7629474,13.8772681 L25.7629474,13.810383 L27.7922105,4.06988305 L27.7922105,4.00299799 L27.7922105,3.93611293 L27.7922105,3.86995489 L27.7922105,3.80306983 C27.7922105,3.80306983 27.7922105,3.73618477 27.7244211,3.73618477 C27.7244211,3.73618477 27.7244211,3.66929971 27.6566316,3.66929971 L27.5888421,3.60241466 L27.5217895,3.53625661 C27.5217895,3.53625661 27.454,3.53625661 27.454,3.46937155 L27.3862105,3.46937155 L27.3184211,3.46937155 L27.2506316,3.46937155 L21.5032632,3.46937155 L20.0833684,3.46937155 L6.22115789,3.46937155 L5.54473684,0.400656034 L5.54473684,0.333770977 C5.54473684,0.26688592 5.54473684,0.26688592 5.47694737,0.26688592 C5.47694737,0.26688592 5.47694737,0.200000862 5.40989474,0.200000862 L5.34210526,0.133115805 L5.27431579,0.0669577586 C5.27431579,0.0669577586 5.20652632,0.0669577586 5.20652632,7.270115e-05 L5.07168421,7.270115e-05 L5.00389474,7.270115e-05 L0.540842105,7.270115e-05 C0.270421053,7.270115e-05 0,0.200000862 0,0.533699138 C0,0.867397414 0.202631579,1.06732557 0.540842105,1.06732557 L4.59789474,1.06732557 L7.23505263,13.3436417 C6.08557895,13.6104549 5.20652632,14.6115497 5.20652632,15.8787307 C5.20652632,17.2796819 6.356,18.4807049 7.84368421,18.4807049 L9.12873684,18.4807049 C8.92610526,18.7475181 8.85831579,19.0812164 8.85831579,19.4817997 C8.85831579,20.6159376 9.73736842,21.4832624 10.8868421,21.4832624 C12.0363158,21.4832624 12.9153684,20.6159376 12.9153684,19.4817997 C12.9153684,19.1481014 12.7805263,18.7475181 12.6449474,18.4807049 L20.4215789,18.4807049 C20.2182105,18.7475181 20.1511579,19.0812164 20.1511579,19.4817997 C20.1511579,20.6159376 21.0302105,21.4832624 22.1796842,21.4832624 C23.3291579,21.4832624 24.2082105,20.6159376 24.2082105,19.4817997 C24.2082105,19.1481014 24.0726316,18.7475181 23.9377895,18.4807049 L25.2221053,18.4807049 C25.4925263,18.4807049 25.7629474,18.2807767 25.7629474,17.9470784 C25.7629474,17.6133802 25.5603158,17.413452 25.2221053,17.413452 L7.91147368,17.413452 C7.03242105,17.413452 6.28894737,16.6791704 6.28894737,15.8118457 C6.28894737,14.944521 7.03242105,14.2109664 7.91147368,14.2109664 L7.91147368,14.2109664 Z" id="Fill-9"></path>
                    </g>
                </g>
            </g>
        </g>
    </g>
</svg>