<?xml version="1.0" encoding="UTF-8" standalone="no"?>
<svg width="56px" height="68px" viewBox="0 0 56 68" version="1.1" xmlns="http://www.w3.org/2000/svg" xmlns:xlink="http://www.w3.org/1999/xlink">
    <!-- Generator: Sketch 3.7.2 (28276) - http://www.bohemiancoding.com/sketch -->
    <title>ICO_POI 06 generic</title>
    <desc>Created with Sketch.</desc>
    <defs></defs>
    <g id="Page-1" stroke="none" stroke-width="1" fill="none" fill-rule="evenodd">
        <g id="POI" transform="translate(-385.000000, 0.000000)">
            <g id="ICO_POI-06-generic" transform="translate(385.000000, 0.000000)">
                <g id="Group-19">
                    <g id="Page-1">
                        <path d="M28.0175,67.7592 L48.1275,47.2162 C53.0495,41.9292 55.7845,35.1842 55.7845,28.0742 C55.7845,12.5792 43.2055,0.0002 27.8925,0.0002 C12.5785,0.0002 0.0005,12.5792 0.0005,27.8922 C0.0005,35.0022 2.7345,41.9292 7.6565,47.2162 L28.0175,67.7592" id="Fill-1" fill="#719E19"></path>
                        <path d="M46.1225,45.3932 L27.8925,63.6232 L9.6625,45.3932 C5.1045,40.6532 2.7345,34.4552 2.7345,28.0742 C2.7345,14.2192 14.0375,2.9172 27.8925,2.9172 C41.7475,2.9172 53.0495,14.2192 53.0495,28.0742 C53.0495,34.4552 50.6805,40.6532 46.1225,45.3932" id="Path" fill="#FFFFFF"></path>
                    </g>
                </g>
                <g id="Group-18-Copy" transform="translate(6.000000, 6.000000)" fill="#719E19">
                    <g id="Group-6">
                        <ellipse id="Oval-112" cx="22" cy="22" rx="22" ry="22"></ellipse>
                    </g>
                </g>
            </g>
        </g>
    </g>
</svg>