<?xml version="1.0" encoding="UTF-8" standalone="no"?>
<svg width="56px" height="68px" viewBox="0 0 56 68" version="1.1" xmlns="http://www.w3.org/2000/svg" xmlns:xlink="http://www.w3.org/1999/xlink">
    <!-- Generator: Sketch 3.7.2 (28276) - http://www.bohemiancoding.com/sketch -->
    <title>ICO_POI 04 Wifi</title>
    <desc>Created with Sketch.</desc>
    <defs></defs>
    <g id="Page-1" stroke="none" stroke-width="1" fill="none" fill-rule="evenodd">
        <g id="POI" transform="translate(-231.000000, 0.000000)">
            <g id="ICO_POI-04-Wifi" transform="translate(231.000000, 0.000000)">
                <g id="Group-19">
                    <g id="Page-1">
                        <path d="M28.0175,67.7592 L48.1275,47.2162 C53.0495,41.9292 55.7845,35.1842 55.7845,28.0742 C55.7845,12.5792 43.2055,0.0002 27.8925,0.0002 C12.5785,0.0002 0.0005,12.5792 0.0005,27.8922 C0.0005,35.0022 2.7345,41.9292 7.6565,47.2162 L28.0175,67.7592" id="Fill-1" fill="#719E19"></path>
                        <path d="M46.1225,45.3932 L27.8925,63.6232 L9.6625,45.3932 C5.1045,40.6532 2.7345,34.4552 2.7345,28.0742 C2.7345,14.2192 14.0375,2.9172 27.8925,2.9172 C41.7475,2.9172 53.0495,14.2192 53.0495,28.0742 C53.0495,34.4552 50.6805,40.6532 46.1225,45.3932" id="Path" fill="#FFFFFF"></path>
                    </g>
                </g>
                <g id="Group-6-Copy-4" transform="translate(6.000000, 6.000000)">
                    <circle id="Oval-112" fill="#719E19" cx="22" cy="22" r="22"></circle>
                    <g id="Group-15" transform="translate(7.000000, 11.000000)" fill="#FFFFFF">
                        <path d="M16.4605161,21.2887825 C15.9766452,21.7610794 15.1056774,21.7610794 14.5250323,21.2887825 C14.2347097,21.0054043 14.1379355,20.7220262 14.1379355,20.3441887 C14.1379355,19.9663512 14.2347097,19.682973 14.5250323,19.3995949 C14.8153548,19.1162168 15.1056774,19.0217574 15.4927742,19.0217574 C15.879871,19.0217574 16.1701935,19.1162168 16.4605161,19.3995949 C16.7508387,19.682973 16.8476129,19.9663512 16.8476129,20.3441887 C16.8476129,20.7220262 16.6540645,21.0054043 16.4605161,21.2887825 M13.5572903,18.3605417 C13.0734194,18.8328386 12.7830968,19.5885137 12.7830968,20.2497293 C12.7830968,20.910945 13.0734194,21.66662 13.5572903,22.1389169 C14.0411613,22.6112138 14.8153548,22.8945919 15.4927742,22.8945919 C16.1701935,22.8945919 16.9443871,22.6112138 17.4282581,22.1389169 C17.912129,21.66662 18.2024516,20.910945 18.2024516,20.2497293 C18.2024516,19.5885137 17.912129,18.8328386 17.4282581,18.3605417 C16.3637419,17.3214886 14.5250323,17.3214886 13.5572903,18.3605417" id="Fill-1"></path>
                        <path d="M15.4927742,12.4095064 C13.3637419,12.4095064 11.3314839,13.2596408 9.78309677,14.7709909 C9.49277419,15.054369 9.49277419,15.5266659 9.78309677,15.8100441 C10.0734194,16.0934222 10.5572903,16.0934222 10.8476129,15.8100441 C12.1056774,14.5820721 13.7508387,13.9208565 15.5895484,13.9208565 C17.4282581,13.9208565 19.0734194,14.5820721 20.3314839,15.8100441 C20.4282581,15.9045034 20.6218065,15.9989628 20.8153548,15.9989628 C21.0089032,15.9989628 21.2024516,15.9045034 21.2992258,15.8100441 C21.5895484,15.5266659 21.5895484,15.054369 21.2992258,14.7709909 C19.6540645,13.2596408 17.6218065,12.4095064 15.4927742,12.4095064" id="Fill-3"></path>
                        <path d="M15.4927742,6.17528188 C11.6218065,6.17528188 8.04116129,7.68663194 5.23470968,10.3314945 C4.9443871,10.6148727 4.9443871,11.0871696 5.23470968,11.3705477 C5.52503226,11.6539259 6.00890323,11.6539259 6.29922581,11.3705477 C8.71858065,9.00906325 12.0089032,7.68663194 15.4927742,7.68663194 C18.9766452,7.68663194 22.2669677,9.00906325 24.6863226,11.3705477 C24.7830968,11.4650071 24.9766452,11.5594665 25.1701935,11.5594665 C25.3637419,11.5594665 25.5572903,11.4650071 25.6540645,11.3705477 C25.9443871,11.0871696 25.9443871,10.6148727 25.6540645,10.3314945 C22.9443871,7.68663194 19.3637419,6.17528188 15.4927742,6.17528188" id="Fill-5"></path>
                        <path d="M1.17029032,6.36420064 C0.879967742,6.64757878 0.879967742,7.11987567 1.17029032,7.40325381 C1.4606129,7.68663194 1.94448387,7.68663194 2.23480645,7.40325381 C9.49287097,0.318800403 21.3960968,0.318800403 28.6541613,7.40325381 C28.7509355,7.49771319 28.9444839,7.59217257 29.1380323,7.59217257 C29.3315806,7.59217257 29.525129,7.49771319 29.6219032,7.40325381 C30.009,7.11987567 30.009,6.64757878 29.7186774,6.36420064 C21.8799677,-1.28700904 9.10577419,-1.28700904 1.17029032,6.36420064 Z" id="Fill-7"></path>
                    </g>
                </g>
            </g>
        </g>
    </g>
</svg>