<?xml version="1.0" encoding="UTF-8" standalone="no"?>
<svg width="44px" height="44px" viewBox="0 0 44 44" version="1.1" xmlns="http://www.w3.org/2000/svg" xmlns:xlink="http://www.w3.org/1999/xlink">
    <!-- Generator: Sketch 3.7.2 (28276) - http://www.bohemiancoding.com/sketch -->
    <title>ICO_Map 05 business center</title>
    <desc>Created with Sketch.</desc>
    <defs></defs>
    <g id="Page-1" stroke="none" stroke-width="1" fill="none" fill-rule="evenodd">
        <g id="Map-Markers-Copy" transform="translate(-618.000000, 0.000000)">
            <g id="ICO_Map-05-business-center" transform="translate(618.000000, 0.000000)">
                <circle id="Oval-112" fill="#616B1E" cx="22" cy="22" r="22"></circle>
                <g id="Group-16" transform="translate(9.000000, 10.000000)" fill="#FFFFFF">
                    <g id="Group-14" transform="translate(0.000000, 0.496078)">
                        <path d="M7.45975309,19.6627451 L2.6962963,19.6627451 C2.06716049,19.6627451 1.52790123,19.2117647 1.52790123,18.5803922 L1.52790123,9.74117647 L7.45975309,9.74117647 L18.7841975,9.74117647 L24.7160494,9.74117647 L24.7160494,18.5803922 C24.7160494,19.2117647 24.1767901,19.6627451 23.5476543,19.6627451 L18.7841975,19.6627451 L7.45975309,19.6627451 Z M2.6962963,4.69019608 L10.7851852,4.69019608 L15.4587654,4.69019608 L23.5476543,4.69019608 C24.1767901,4.69019608 24.6261728,5.23137255 24.6261728,5.77254902 L24.6261728,8.29803922 L1.43802469,8.29803922 L1.43802469,5.77254902 C1.52790123,5.23137255 2.06716049,4.69019608 2.6962963,4.69019608 L2.6962963,4.69019608 Z M10.6953086,3.24705882 L10.6953086,1.44313725 C10.6953086,1.44313725 10.6953086,1.35294118 10.7851852,1.35294118 L15.4587654,1.35294118 C15.4587654,1.35294118 15.548642,1.35294118 15.548642,1.44313725 L15.548642,3.24705882 C15.548642,3.24705882 15.548642,3.3372549 15.4587654,3.3372549 L10.6953086,3.24705882 C10.7851852,3.3372549 10.6953086,3.3372549 10.6953086,3.24705882 L10.6953086,3.24705882 Z M23.5476543,3.3372549 L16.8069136,3.3372549 L16.8069136,3.24705882 L16.8069136,1.44313725 C16.8069136,0.631372549 16.1777778,-2.30926389e-13 15.3688889,-2.30926389e-13 L10.6953086,-2.30926389e-13 C9.88641975,-2.30926389e-13 9.25728395,0.631372549 9.25728395,1.44313725 L9.25728395,3.24705882 L9.25728395,3.3372549 L2.51654321,3.3372549 C1.16839506,3.3372549 0,4.41960784 0,5.8627451 L0,18.5803922 C0,19.9333333 1.07851852,21.1058824 2.51654321,21.1058824 L23.4577778,21.1058824 C24.8059259,21.1058824 25.974321,20.0235294 25.974321,18.5803922 L25.974321,5.8627451 C26.0641975,4.50980392 24.985679,3.3372549 23.5476543,3.3372549 L23.5476543,3.3372549 Z" id="Fill-12"></path>
                    </g>
                </g>
            </g>
        </g>
    </g>
</svg>