<?xml version="1.0" encoding="UTF-8" standalone="no"?>
<svg width="64px" height="77px" viewBox="0 0 64 77" version="1.1" xmlns="http://www.w3.org/2000/svg" xmlns:xlink="http://www.w3.org/1999/xlink">
    <!-- Generator: Sketch 3.7.2 (28276) - http://www.bohemiancoding.com/sketch -->
    <title>Pin NO</title>
    <desc>Created with Sketch.</desc>
    <defs></defs>
    <g id="Page-2" stroke="none" stroke-width="1" fill="none" fill-rule="evenodd">
        <g id="Pin-NO">
            <g id="Group-19">
                <g id="Page-1">
                    <path d="M31.7672944,76.7171495 L54.5687681,53.4583094 C60.1495167,47.4723537 63.2505625,39.8356464 63.2505625,31.7856852 C63.2505625,14.2422043 48.9880196,0.000226440541 31.6255647,0.000226440541 C14.261976,0.000226440541 0.00056691879,14.2422043 0.00056691879,31.5796243 C0.00056691879,39.6295855 3.10047886,47.4723537 8.68122743,53.4583094 L31.7672944,76.7171495" id="Fill-1" fill="#FF8000"></path>
                    <path d="M52.2954238,51.3943038 L31.6255647,72.0343592 L10.9557056,51.3943038 C5.78767393,46.027663 3.10047886,39.0102706 3.10047886,31.7856852 C3.10047886,16.0990167 15.916245,3.30286173 31.6255647,3.30286173 C47.3348844,3.30286173 60.1495167,16.0990167 60.1495167,31.7856852 C60.1495167,39.0102706 57.4634555,46.027663 52.2954238,51.3943038" id="Path" fill="#FFFFFF"></path>
                </g>
            </g>
            <g id="Group-18-Copy" transform="translate(6.803025, 6.793216)">
                <g id="Group-6"></g>
            </g>
            <ellipse id="Oval-112" fill="#FF8000" cx="31.9444268" cy="31.9084595" rx="24.9444268" ry="24.9084595"></ellipse>
            <path d="M22.1115566,40.1664205 C23.6901943,36.5158163 27.3871785,34.1571433 31.5303287,34.1571433 C35.7617277,34.1571433 39.4805226,36.5277469 41.0045033,40.1968061 C41.2657827,40.8253233 40.9679659,41.5466379 40.3390759,41.80788 C40.1846124,41.8715594 40.0244072,41.9019451 39.8666628,41.9019451 C39.3835867,41.9019451 38.9251547,41.6160589 38.7283749,41.1415952 C37.5876636,38.3955516 34.7623191,36.6214018 31.5302914,36.6214018 C28.371413,36.6214018 25.5625102,38.3967819 24.374114,41.1449133 C24.1038494,41.7697022 23.3783964,42.057639 22.7544277,41.7865168 C22.1288187,41.5166623 21.8412547,40.7912093 22.1115566,40.1664205 M34.975181,24.633639 C34.975181,23.2275472 36.1171599,22.0864258 37.5232517,22.0864258 C38.9293435,22.0864258 40.0705022,23.2271371 40.0705022,24.633639 C40.0705022,26.0409984 38.9297536,27.1817097 37.5232517,27.1817097 C36.11757,27.1812996 34.975181,26.0409984 34.975181,24.633639 M23.4253115,24.633639 C23.4253115,23.2275472 24.5660601,22.0864258 25.972562,22.0864258 C27.3786538,22.0864258 28.5193651,23.2271371 28.5193651,24.633639 C28.5193651,26.0409984 27.3786538,27.1817097 25.972562,27.1817097 C24.5660601,27.1812996 23.4253115,26.0409984 23.4253115,24.633639" id="Page-1" stroke="#FF8000" stroke-width="1.5" fill="#FFFFFF"></path>
        </g>
    </g>
</svg>