<?xml version="1.0" encoding="UTF-8" standalone="no"?>
<svg width="64px" height="64px" viewBox="0 0 64 64" version="1.1" xmlns="http://www.w3.org/2000/svg" xmlns:xlink="http://www.w3.org/1999/xlink">
    <!-- Generator: Sketch 40.1 (33804) - http://www.bohemiancoding.com/sketch -->
    <title>icon / outline / shopping cart / black</title>
    <desc>Created with Sketch.</desc>
    <defs></defs>
    <g id="Symbols" stroke="none" stroke-width="1" fill="none" fill-rule="evenodd" stroke-linecap="round" stroke-linejoin="round">
        <g id="icon-/-outline-/-shopping-cart-/-black" stroke="#242424">
            <g id="icon/outline/shopping-cart/black" transform="translate(3.000000, 7.000000)">
                <path d="M15,46 C15,48.209 13.209,50 11,50 C8.791,50 7,48.209 7,46 C7,43.791 8.791,42 11,42 C13.209,42 15,43.791 15,46 L15,46 Z" id="Stroke-1"></path>
                <path d="M42,46 C42,48.209 40.209,50 38,50 C35.791,50 34,48.209 34,46 C34,43.791 35.791,42 38,42 C40.209,42 42,43.791 42,46 L42,46 Z" id="Stroke-3"></path>
                <polyline id="Stroke-5" points="58 0 49.174 0 39 42 11 42"></polyline>
                <polyline id="Stroke-7" points="40 38 7.565 38 0 14 45.782 14"></polyline>
            </g>
        </g>
    </g>
</svg>