<?xml version="1.0" encoding="UTF-8" standalone="no"?>
<svg width="64px" height="64px" viewBox="0 0 64 64" version="1.1" xmlns="http://www.w3.org/2000/svg" xmlns:xlink="http://www.w3.org/1999/xlink">
    <!-- Generator: Sketch 40.1 (33804) - http://www.bohemiancoding.com/sketch -->
    <title>icon / outline / wifi / black</title>
    <desc>Created with Sketch.</desc>
    <defs></defs>
    <g id="Symbols" stroke="none" stroke-width="1" fill="none" fill-rule="evenodd">
        <g id="icon-/-outline-/-wifi-/-black">
            <g id="icon/outline/wifi/black/WF-01" transform="translate(4.000000, 13.000000)">
                <path d="M31.633,34.0833 C31.633,36.1543 29.954,37.8333 27.883,37.8333 C25.812,37.8333 24.133,36.1543 24.133,34.0833 C24.133,32.0123 25.812,30.3333 27.883,30.3333 C29.954,30.3333 31.633,32.0123 31.633,34.0833" id="Fill-1"></path>
                <path d="M31.633,34.0833 C31.633,36.1543 29.954,37.8333 27.883,37.8333 C25.812,37.8333 24.133,36.1543 24.133,34.0833 C24.133,32.0123 25.812,30.3333 27.883,30.3333 C29.954,30.3333 31.633,32.0123 31.633,34.0833 L31.633,34.0833 Z" id="Stroke-3" stroke="#242424" stroke-linecap="round"></path>
                <path d="M40.6199,25.855 C37.1349,23.044 32.7089,21.354 27.8829,21.354 C23.0579,21.354 18.6309,23.044 15.1459,25.855" id="Stroke-5" stroke="#242424" stroke-linecap="round"></path>
                <path d="M48.3833,18.0918 C42.8953,13.3158 35.7293,10.4168 27.8833,10.4168 C20.0363,10.4168 12.8713,13.3158 7.3833,18.0918" id="Stroke-7" stroke="#242424" stroke-linecap="round"></path>
                <path d="M55.7659,10.7092 C48.3809,4.0542 38.6069,0.0002 27.8829,0.0002 C17.1599,0.0002 7.3849,4.0532 -0.000100000001,10.7092" id="Stroke-9" stroke="#242424" stroke-linecap="round"></path>
            </g>
        </g>
    </g>
</svg>