<?xml version="1.0" encoding="UTF-8" standalone="no"?>
<svg width="20px" height="20px" viewBox="0 0 20 20" version="1.1" xmlns="http://www.w3.org/2000/svg" xmlns:xlink="http://www.w3.org/1999/xlink">
    <path d="M19.332 14.615l-2.181-2.181c-.43-.431-1.002-.668-1.611-.668s-1.181.236-1.612.668l-.584.584c-2.285-1.89-4.479-4.084-6.365-6.365l.584-.584c.888-.888.888-2.333 0-3.221l-2.181-2.181c-.43-.431-1.003-.668-1.611-.668-.609 0-1.182.236-1.612.668l-1.197 1.196c-1.105 1.104-1.28 2.854-.417 4.16 3.498 5.286 8.141 9.929 13.429 13.426.543.36 1.174.55 1.825.55.883 0 1.712-.344 2.335-.967l1.197-1.196c.43-.429.668-1.002.668-1.611 0-.608-.237-1.181-.668-1.611" fill="#719e19" />
</svg>
