<?xml version="1.0" encoding="UTF-8" standalone="no"?>
<svg width="64px" height="77px" viewBox="0 0 64 77" version="1.1" xmlns="http://www.w3.org/2000/svg" xmlns:xlink="http://www.w3.org/1999/xlink">
    <!-- Generator: Sketch 3.7.2 (28276) - http://www.bohemiancoding.com/sketch -->
    <title>Pin YES business</title>
    <desc>Created with Sketch.</desc>
    <defs></defs>
    <g id="Page-2" stroke="none" stroke-width="1" fill="none" fill-rule="evenodd">
        <g id="Pin-YES-business">
            <g id="Group-19">
                <g id="Page-1">
                    <path d="M31.7672944,76.7171495 L54.5687681,53.4583094 C60.1495167,47.4723537 63.2505625,39.8356464 63.2505625,31.7856852 C63.2505625,14.2422043 48.9880196,0.000226440541 31.6255647,0.000226440541 C14.261976,0.000226440541 0.00056691879,14.2422043 0.00056691879,31.5796243 C0.00056691879,39.6295855 3.10047886,47.4723537 8.68122743,53.4583094 L31.7672944,76.7171495" id="Fill-1" fill="#616B1E"></path>
                    <path d="M52.2954238,51.3943038 L31.6255647,72.0343592 L10.9557056,51.3943038 C5.78767393,46.027663 3.10047886,39.0102706 3.10047886,31.7856852 C3.10047886,16.0990167 15.916245,3.30286173 31.6255647,3.30286173 C47.3348844,3.30286173 60.1495167,16.0990167 60.1495167,31.7856852 C60.1495167,39.0102706 57.4634555,46.027663 52.2954238,51.3943038" id="Path" fill="#FFFFFF"></path>
                </g>
            </g>
            <g id="Group-18-Copy" transform="translate(6.803025, 6.793216)">
                <g id="Group-6"></g>
            </g>
            <ellipse id="Oval-112" fill="#616B1E" cx="31.9444268" cy="31.9084595" rx="24.9444268" ry="24.9084595"></ellipse>
            <path d="M31.578847,41.9019451 C27.3474479,41.9019451 23.6286531,39.5313415 22.1046724,35.8622823 C21.843393,35.2337651 22.1412097,34.5124505 22.7700997,34.2512084 C22.9245633,34.187529 23.0847684,34.1571433 23.2425129,34.1571433 C23.725589,34.1571433 24.184021,34.4430295 24.3808008,34.9174932 C25.521512,37.6635368 28.3468566,39.4376866 31.5788843,39.4376866 C34.7377627,39.4376866 37.5466654,37.6623065 38.7350617,34.9141751 C39.0053263,34.2893862 39.7307793,34.0014494 40.3547479,34.2725716 C40.980357,34.5424261 41.2679209,35.2678791 40.997619,35.8926679 C39.4189814,39.5432721 35.7219972,41.9019451 31.578847,41.9019451 Z M34.975181,24.633639 C34.975181,23.2275472 36.1171599,22.0864258 37.5232517,22.0864258 C38.9293435,22.0864258 40.0705022,23.2271371 40.0705022,24.633639 C40.0705022,26.0409984 38.9297536,27.1817097 37.5232517,27.1817097 C36.11757,27.1812996 34.975181,26.0409984 34.975181,24.633639 M23.4253115,24.633639 C23.4253115,23.2275472 24.5660601,22.0864258 25.972562,22.0864258 C27.3786538,22.0864258 28.5193651,23.2271371 28.5193651,24.633639 C28.5193651,26.0409984 27.3786538,27.1817097 25.972562,27.1817097 C24.5660601,27.1812996 23.4253115,26.0409984 23.4253115,24.633639" id="Page-1" stroke="#616B1E" stroke-width="1.5" fill="#FFFFFF"></path>
        </g>
    </g>
</svg>