<?xml version="1.0" encoding="UTF-8"?>
<svg width="260px" height="281px" viewBox="0 0 260 281" version="1.1" xmlns="http://www.w3.org/2000/svg" xmlns:xlink="http://www.w3.org/1999/xlink">
    <!-- Generator: Sketch 64 (93537) - https://sketch.com -->
    <title>Combined Shape</title>
    <desc>Created with Sketch.</desc>
    <defs>
        <linearGradient x1="7.19405783%" y1="100%" x2="92.8059422%" y2="-3.088675%" id="linearGradient-1">
            <stop stop-color="#B4EC51" stop-opacity="0.237652972" offset="0%"></stop>
            <stop stop-color="#429321" offset="100%"></stop>
        </linearGradient>
    </defs>
    <g id="eLife-Flows---Desktop" stroke="none" stroke-width="1" fill="none" fill-rule="evenodd" opacity="0.049999997">
        <g id="dd_eLifeWS-6.0.1" transform="translate(-1180.000000, -588.000000)" fill="url(#linearGradient-1)">
            <g id="checkAvailability" transform="translate(0.000000, 588.000000)">
                <g id="bg">
                    <path d="M1337.26588,263.501753 C1350.01447,268.720354 1362.86842,273.689975 1375.66969,278.799025 C1377.16581,279.396575 1378.55656,280.263022 1380,281 L1344.84128,281 C1340.30026,278.639679 1335.69601,276.36899 1331.22874,273.879199 C1327.64649,271.877408 1324.34871,269.178475 1326.90897,264.876117 C1329.41654,260.663392 1333.30433,261.87841 1337.26588,263.501753 Z M1328.7813,217.799136 C1335.56434,221.451892 1342.19665,225.388145 1349.13043,228.768308 C1373.76968,240.849663 1399.70757,249.441818 1427.1644,253.825125 C1431.46612,254.512061 1435.72147,255.471591 1440,256.31118 L1440,268 C1422.28293,264.543511 1403.93973,262.7662 1387.01111,257.194384 C1366.51125,250.46677 1347.20567,240.533454 1327.4131,231.919492 C1325.3492,231.01448 1323.45922,229.695127 1321.61563,228.408484 C1318.0096,225.911525 1315.23841,222.803957 1318.34585,218.595109 C1321.19821,214.724278 1325.1173,215.814653 1328.7813,217.799136 Z M1200.20778,0 C1211.92784,13.2225122 1224.19039,26.0252622 1235.25494,39.7669541 C1252.3434,61.0091354 1266.32384,84.2617572 1278.05521,108.740527 C1308.07303,171.417665 1360.68333,205.274808 1427.55662,221.004847 C1431.69311,221.976928 1435.85221,222.893778 1440,223.83272 L1440,237 C1419.19322,230.880308 1397.69702,226.406525 1377.71528,218.342671 C1330.05521,199.099883 1293.07542,167.429923 1270.00826,121.742111 C1255.56444,93.1319972 1240.31819,64.9858308 1219.39839,40.4076439 C1207.24886,26.1357259 1193.20061,13.421347 1180,0 L1200.20778,0 Z M1249.32774,0 C1273.59105,28.3933533 1293.10014,59.7581041 1309.67839,92.9937347 C1329.56782,132.854481 1361.58331,159.927213 1402.82758,176.732117 C1414.85296,181.62942 1427.59428,184.886952 1440,188.892836 L1440,202 C1415.84855,195.958159 1392.42422,188.144484 1370.92395,175.35647 C1340.64236,157.340997 1316.21125,133.690874 1300.23707,102.513212 C1283.92729,70.6752384 1266.08497,39.8717516 1242.95149,12.2707709 C1239.42777,8.06679379 1235.64677,4.08292019 1232,0 L1249.32774,0 Z M1292.26127,0 C1299.82333,11.1065172 1307.62419,22.0699376 1314.87921,33.3635814 C1326.31896,51.1516209 1336.34863,69.8863011 1348.82319,86.9368414 C1370.71335,116.866098 1401.37096,136.28324 1436.05408,150.053561 C1437.27084,150.548896 1438.6809,150.614941 1440,150.879119 L1440,164 C1423.15879,156.338815 1405.47608,150.009531 1389.6583,140.719243 C1358.53446,122.435868 1336.31452,95.973958 1318.72278,65.1090677 C1305.91846,42.6428619 1290.33948,21.6516545 1276,0 L1292.26127,0 Z M1332.21124,0 C1347.29494,25.0505156 1359.48016,51.9443279 1380.07098,73.5143332 C1393.55472,87.6195595 1408.92827,99.3548331 1425.92497,108.994931 C1430.48138,111.570967 1435.30446,113.677591 1440,116.001748 L1440,131 C1414.05279,118.886908 1390.69102,103.23606 1370.80743,82.5705296 C1354.78462,65.9465128 1343.53851,46.2884985 1332.44311,26.4472994 C1327.46932,17.5284915 1322.1593,8.81576647 1317,0 L1332.21124,0 Z M1193.02472,46.7260088 C1210.48343,66.6498381 1223.96649,89.3194725 1234.88085,113.730349 C1235.32851,114.712588 1235.46707,115.839931 1236,117.837895 C1234.95546,119.28893 1233.95356,122.00125 1232.22687,122.704444 C1230.46821,123.407638 1227.45184,122.793738 1225.95964,121.521292 C1223.94518,119.791211 1222.57022,117.023083 1221.4191,114.455867 C1211.79443,93.0698404 1199.54775,73.4920271 1184.52985,55.834045 C1181.80126,52.6082822 1180.75673,49.2485776 1184.07153,45.9111967 C1187.18383,42.7635665 1190.49864,43.8351002 1193.02472,46.7260088 Z M1374.16851,0 C1389.85582,29.8589043 1411.18837,54.5975594 1440,72.5018431 L1440,87 C1423.18585,78.0755053 1408.62537,66.1208847 1395.68885,52.3304945 C1381.20571,36.9144528 1369.3187,19.5852294 1361,0 L1374.16851,0 Z M1411.12428,0 C1420.75721,10.0776606 1430.37861,20.1442953 1440,30.2219559 L1440,46 C1427.86366,34.2905081 1415.60042,22.6912752 1403.67174,10.7833174 C1400.57997,7.68504314 1398.52648,3.61649089 1396,0 L1411.12428,0 Z" id="Combined-Shape"></path>
                </g>
            </g>
        </g>
    </g>
</svg>