<?xml version="1.0" encoding="UTF-8"?>
<svg width="64px" height="64px" viewBox="0 0 64 64" version="1.1" xmlns="http://www.w3.org/2000/svg" xmlns:xlink="http://www.w3.org/1999/xlink">
    <!-- Generator: Sketch 51.3 (57544) - http://www.bohemiancoding.com/sketch -->
    <title>icon-calendar</title>
    <desc>Created with Sketch.</desc>
    <defs></defs>
    <g id="icon-calendar" stroke="none" stroke-width="1" fill="none" fill-rule="evenodd" stroke-linecap="round" stroke-linejoin="round">
        <g id="Icon/Outline-1pt/calendar/calendar_black" stroke="#242424">
            <path d="M21.1135832,9 L43,9 M51.1089651,9 L58,9 C59.1045695,9 60,9.8954305 60,11 L60,58 C60,59.1045695 59.1045695,60 58,60 L6,60 C4.8954305,60 4,59.1045695 4,58 L4,11 C4,9.8954305 4.8954305,9 6,9 L12.8000002,9" id="Rectangle"></path>
            <path d="M4.5,20 L59.5,20" id="Line"></path>
            <polygon id="Line" points="13 14 21 14 21 4 13 4"></polygon>
            <polygon id="Line" points="43 14 51 14 51 4 43 4"></polygon>
        </g>
    </g>
</svg>