<?xml version="1.0" encoding="UTF-8"?>
<svg width="64px" height="64px" viewBox="0 0 64 64" version="1.1" xmlns="http://www.w3.org/2000/svg" xmlns:xlink="http://www.w3.org/1999/xlink">
    <!-- Generator: Sketch 51.3 (57544) - http://www.bohemiancoding.com/sketch -->
    <title>icon-printer</title>
    <desc>Created with Sketch.</desc>
    <defs></defs>
    <g id="icon-printer" stroke="none" stroke-width="1" fill="none" fill-rule="evenodd" stroke-linecap="round" stroke-linejoin="round">
        <g id="Icon/Outline-1pt/printer/printer_consumer" stroke="#719E19">
            <path d="M15.5862069,47 L7.86206897,47 L7.86206897,47 C5.73889655,47 4,45.2 4,43 L4,25 C4,22.8 5.73889655,21 7.86206897,21 L56.137931,21 C58.2611034,21 60,22.8 60,25 L60,43 C60,45.2 58.2611034,47 56.137931,47 L48.4137931,47" id="Line"></path>
            <polyline id="Line" points="15 17 15 4 41 4 49 12 49 17"></polyline>
            <polygon id="Line" points="16 60 48 60 48 40 16 40"></polygon>
            <path d="M20,45 L44,45" id="Line"></path>
            <path d="M20,50 L44,50" id="Line"></path>
            <path d="M20,55 L44,55" id="Line"></path>
            <polyline id="Line" points="41 4 41 12 49 12"></polyline>
            <path d="M15,29 C15,30.657 13.657,32 12,32 C10.343,32 9,30.657 9,29 C9,27.343 10.343,26 12,26 C13.657,26 15,27.343 15,29 L15,29 Z" id="Line"></path>
        </g>
    </g>
</svg>