<?xml version="1.0" encoding="UTF-8"?>
<svg width="64px" height="64px" viewBox="0 0 64 64" version="1.1" xmlns="http://www.w3.org/2000/svg" xmlns:xlink="http://www.w3.org/1999/xlink">
    <!-- Generator: Sketch 51.3 (57544) - http://www.bohemiancoding.com/sketch -->
    <title>icon-shopping-card-white</title>
    <desc>Created with Sketch.</desc>
    <defs></defs>
    <g id="icon-shopping-card-white" stroke="none" stroke-width="1" fill="none" fill-rule="evenodd" stroke-linecap="round" stroke-linejoin="round">
        <g id="Icon/Outline-1pt/cart-cancel/cart_cancel_white" stroke="#FFFFFF">
            <path d="M31.0886,14.75 L19.9572518,25.8804501" id="Line" transform="translate(25.522926, 20.315225) rotate(45.000000) translate(-25.522926, -20.315225) "></path>
            <path d="M31.0880612,25.8797316 L19.957611,14.7501796" id="Line" transform="translate(25.522836, 20.314956) rotate(45.000000) translate(-25.522836, -20.314956) "></path>
            <path d="M40,20.5 C40,28.5088333 33.5069,35 25.5,35 C17.4911667,35 11,28.5088333 11,20.5 C11,12.4921333 17.4911667,6 25.5,6 C33.5069,6 40,12.4921333 40,20.5 L40,20.5 Z" id="Line" transform="translate(25.500000, 20.500000) rotate(45.000000) translate(-25.500000, -20.500000) "></path>
            <path d="M42.7517,22 L47.7517,22" id="Line"></path>
            <polyline id="Line" points="42.5 44 11.2813125 44 4 22 8.209975 22"></polyline>
            <path d="M18,54 C18,56.209 16.209,58 14,58 C11.791,58 10,56.209 10,54 C10,51.791 11.791,50 14,50 C16.209,50 18,51.791 18,54 L18,54 Z" id="Line"></path>
            <path d="M45,54 C45,56.209 43.209,58 41,58 C38.791,58 37,56.209 37,54 C37,51.791 38.791,50 41,50 C43.209,50 45,51.791 45,54 L45,54 Z" id="Line"></path>
            <polyline id="Line" points="60 6 51.3617872 6 41.4042553 50 14 50"></polyline>
        </g>
    </g>
</svg>