<?xml version="1.0" encoding="UTF-8"?>
<svg width="64px" height="64px" viewBox="0 0 64 64" version="1.1" xmlns="http://www.w3.org/2000/svg" xmlns:xlink="http://www.w3.org/1999/xlink">
    <!-- Generator: Sketch 52.6 (67491) - http://www.bohemiancoding.com/sketch -->
    <title>icon-camera</title>
    <desc>Created with Sketch.</desc>
    <g id="icon-camera" stroke="none" stroke-width="1" fill="none" fill-rule="evenodd" stroke-linecap="round" stroke-linejoin="round">
        <path d="M46,34 C46,41.7315779 39.7315779,48 32,48 C24.2684221,48 18,41.7315779 18,34 C18,26.2684221 24.2684221,20 32,20 C39.7315779,20 46,26.2684221 46,34 L46,34 Z" id="Line" stroke="#FFFFFF"></path>
        <path d="M51.9256002,14.7132867 L47.9005119,14.7132867 C44.3881479,13.905007 40.4438036,8 36.3056737,8 L27.6943263,8 C23.568308,8 19.9469397,13.4860979 16.4857136,14.7132867 L12.0743998,14.7132867 C7.63347992,14.7132867 4,18.3384615 4,22.7692308 L4,47.9440559 C4,52.3748252 7.63347992,56 12.0743998,56 L51.9256002,56 C56.3665201,56 60,52.3748252 60,47.9440559 L60,22.7692308 C60,18.3384615 56.3665201,14.7132867 51.9256002,14.7132867 L51.9256002,14.7132867 Z" id="Line" stroke="#FFFFFF"></path>
    </g>
</svg>