<?xml version="1.0" encoding="UTF-8"?>
<svg width="131px" height="131px" viewBox="0 0 131 131" version="1.1" xmlns="http://www.w3.org/2000/svg" xmlns:xlink="http://www.w3.org/1999/xlink">
    <!-- Generator: Sketch 52.3 (67297) - http://www.bohemiancoding.com/sketch -->
    <title>icon-big-plus</title>
    <desc>Created with Sketch.</desc>
    <g id="icon-big-plus" stroke="none" stroke-width="1" fill="none" fill-rule="evenodd" opacity="0.100000001">
        <path d="M65.4998196,0 C29.3816734,0 0,29.3823952 0,65.5001804 C0,101.617605 29.3816734,131 65.4998196,131 C101.617605,131 131,101.617605 131,65.5001804 C131,29.3823952 101.617605,0 65.4998196,0 Z M65.4998196,126.774007 C31.7142511,126.774007 4.22563184,99.2857489 4.22563184,65.4998196 C4.22563184,31.7138902 31.7142511,4.22563184 65.4998196,4.22563184 C99.2857489,4.22563184 126.774368,31.7142511 126.774368,65.5001804 C126.774368,99.2861098 99.2857489,126.774007 65.4998196,126.774007 Z M67.6249093,40 L63.3750907,40 L63.3750907,63.3748941 L40,63.3748941 L40,67.6251059 L63.3750907,67.6251059 L63.3750907,91 L67.6249093,91 L67.6249093,67.6251059 L91,67.6251059 L91,63.3748941 L67.6249093,63.3748941 L67.6249093,40 Z" id="Plus" fill="#030303" fill-rule="nonzero"></path>
    </g>
</svg>