<?xml version="1.0" encoding="UTF-8"?>
<svg width="64px" height="64px" viewBox="0 0 64 64" version="1.1" xmlns="http://www.w3.org/2000/svg" xmlns:xlink="http://www.w3.org/1999/xlink">
    <!-- Generator: Sketch 51.3 (57544) - http://www.bohemiancoding.com/sketch -->
    <title>icon-warranty</title>
    <desc>Created with Sketch.</desc>
    <defs></defs>
    <g id="icon-warranty" stroke="none" stroke-width="1" fill="none" fill-rule="evenodd">
        <g id="Icon/Outline-1pt/modem/modem_black">
            <rect id="Rectangle-11" x="0" y="0" width="64" height="64"></rect>
            <polygon id="Line" stroke="#6B6B6B" stroke-linecap="round" stroke-linejoin="round" points="51.4884052 31.9292268 56.125 28.203125 51.4884052 24.4778233 54.292931 19.3243292 48.5312069 17.592896 49.0771767 11.7969154 43.0657004 12.3233863 41.2701401 6.76663793 35.9266056 9.47180226 32.0625 5 28.1983944 9.47180226 22.8540302 6.76663793 21.0592996 12.3233863 15.0478233 11.7969154 15.5937931 17.592896 9.83206897 19.3243292 12.6365948 24.4778233 8 28.203125 12.6365948 31.9292268 9.83206897 37.0827209 15.5937931 38.8141541 15.0478233 44.6109348 21.0592996 44.0836638 22.8540302 49.6404122 28.1983944 46.9352478 32.0625 51.40625 35.9266056 46.9352478 41.2701401 49.6404122 43.0657004 44.0836638 49.0771767 44.6109348 48.5312069 38.8141541 54.292931 37.0827209"></polygon>
            <circle id="Line" stroke="#6B6B6B" stroke-linecap="round" stroke-linejoin="round" cx="31.890625" cy="27.890625" r="12.890625"></circle>
            <polyline id="Line" stroke="#6B6B6B" stroke-linecap="round" stroke-linejoin="round" points="49.4582353 41.09375 56.5625 53.2753868 48.3919828 52.4348102 45.8779146 60 39.375 49.0111415"></polyline>
            <polyline id="Line" stroke="#6B6B6B" stroke-linecap="round" stroke-linejoin="round" transform="translate(17.031250, 50.546875) scale(-1, 1) translate(-17.031250, -50.546875) " points="18.5207353 41.09375 25.625 53.2753868 17.4544828 52.4348102 14.9404146 60 8.4375 49.0111415"></polyline>
        </g>
    </g>
</svg>