<?xml version="1.0" encoding="UTF-8"?>
<svg width="64px" height="64px" viewBox="0 0 64 64" version="1.1" xmlns="http://www.w3.org/2000/svg" xmlns:xlink="http://www.w3.org/1999/xlink">
    <!-- Generator: Sketch 51.3 (57544) - http://www.bohemiancoding.com/sketch -->
    <title>icon-protection</title>
    <desc>Created with Sketch.</desc>
    <defs></defs>
    <g id="icon-protection" stroke="none" stroke-width="1" fill="none" fill-rule="evenodd" stroke-linecap="round" stroke-linejoin="round">
        <g id="Icon/Outline-1pt/shield-admin/shield_admin_consumer" stroke="#719E19">
            <path d="M32,4 C38.6711441,10.0019753 46.6705408,13.0019753 55.9981903,13 C55.9981903,28.5607116 56.6722967,46.6481481 32,60 C7.32770326,46.6481481 8.00180973,28.5607116 8.00180973,13 C17.3294592,13.0019753 25.3288559,10.0019753 32,4 Z" id="Combined-Shape"></path>
            <path d="M38.2466621,23.4172479 C38.2466621,26.8674193 35.4496121,29.6638479 32.0000621,29.6638479 C28.5498907,29.6638479 25.7534621,26.8674193 25.7534621,23.4172479 C25.7534621,19.9670764 28.5498907,17.1706479 32.0000621,17.1706479 C35.4496121,17.1706479 38.2466621,19.9670764 38.2466621,23.4172479 L38.2466621,23.4172479 Z" id="Line"></path>
            <path d="M36.3619936,28.3674857 C36.3619936,28.3674857 42.9870436,30.8283429 42.9870436,41.9966571" id="Line"></path>
            <path d="M27.6380064,28.3674857 C27.6380064,28.3674857 21.0129564,30.8283429 21.0129564,41.9966571" id="Line"></path>
            <path d="M21.05,42.1123535 L42.95,42.1123535" id="Path-6"></path>
        </g>
    </g>
</svg>