<?xml version="1.0" encoding="UTF-8"?>
<svg width="64px" height="64px" viewBox="0 0 64 64" version="1.1" xmlns="http://www.w3.org/2000/svg" xmlns:xlink="http://www.w3.org/1999/xlink">
    <!-- Generator: Sketch 52.2 (67145) - http://www.bohemiancoding.com/sketch -->
    <title>icon-map</title>
    <desc>Created with Sketch.</desc>
    <g id="icon-map" stroke="none" stroke-width="1" fill="none" fill-rule="evenodd" stroke-linecap="round" stroke-linejoin="round">
        <g id="Icon/Outline-1pt/map/map_consumer" stroke="#719E19">
            <polyline id="Line" points="35.9281057 46.5333333 21.4153304 56.2 4 44.6 4 4 21.4153304 15.6 38.8306608 4 56.2459912 15.6 56.2459912 28.1666667"></polyline>
            <path d="M21,55.6 L21,15.6" id="Line"></path>
            <path d="M39,28.1666667 L39,4.16666667" id="Line"></path>
            <path d="M54,41 C54,43.208 52.209,45 50,45 C47.791,45 46,43.208 46,41 C46,38.791 47.791,37 50,37 C52.209,37 54,38.791 54,41 L54,41 Z" id="Line"></path>
            <path d="M60,42 C60,47.523 50,60 50,60 C50,60 40,47.523 40,42 C40,36.478 44.477,32 50,32 C55.523,32 60,36.478 60,42 L60,42 Z" id="Line"></path>
        </g>
    </g>
</svg>