<?xml version="1.0" encoding="UTF-8"?>
<svg width="64px" height="64px" viewBox="0 0 64 64" version="1.1" xmlns="http://www.w3.org/2000/svg" xmlns:xlink="http://www.w3.org/1999/xlink">
    <!-- Generator: Sketch 51.3 (57544) - http://www.bohemiancoding.com/sketch -->
    <title>icon-spinner</title>
    <desc>Created with Sketch.</desc>
    <defs></defs>
    <g id="icon-spinner" stroke="none" stroke-width="1" fill="none" fill-rule="evenodd">
        <g id="Spinner/Buffering/buffering_consumer" fill="#719E19">
            <path d="M60.1897941,28.8047557 C58.9723431,27.5869707 57.5238137,26.9641042 55.8455784,26.9641042 C54.1673431,26.9641042 52.751951,27.5589251 51.5337157,28.769772 C50.3162647,29.9805212 49.7236176,31.4292182 49.7236176,33.1018893 C49.7236176,34.7745603 50.3078333,36.1953094 51.5007745,37.3991205 C52.7097941,38.6169055 54.1667549,39.2047883 55.8455784,39.2047883 C57.524402,39.2047883 58.9723431,38.6098697 60.1897941,37.3991205 C61.4073431,36.1813355 61.9999902,34.774658 61.9999902,33.1018893 C61.9999902,31.4292182 61.4073431,30.0155049 60.1897941,28.8047557" id="Fill-1" opacity="0.8"></path>
            <path d="M48.440098,44.84557 C46.8602941,44.84557 45.5437255,45.3704235 44.457451,46.4552117 C43.3712745,47.5329642 42.8447059,48.8137785 42.8447059,50.3535505 C42.8447059,51.9001629 43.3628431,53.2159609 44.457451,54.3287948 C45.5352941,55.4135831 46.8602941,55.9314007 48.440098,55.9314007 C49.9868627,55.9314007 51.2703922,55.4065472 52.3566667,54.3287948 C53.4758824,53.2090228 54.0354902,51.9001629 54.0354902,50.3535505 C54.0354902,48.8137785 53.4681373,47.5400977 52.3566667,46.4552117 C51.2619608,45.3774593 49.9868627,44.84557 48.440098,44.84557" id="Fill-3" opacity="0.7"></path>
            <path d="M49.2630392,22.8978827 C51.0731373,22.8978827 52.6529412,22.2400326 53.9695098,20.9312704 C55.2860784,19.61557 55.9440196,18.0408143 55.9440196,16.2071987 C55.9440196,14.3385016 55.2853922,12.7638436 53.9695098,11.4481433 C52.6859804,10.1674267 51.1061765,9.51651466 49.2630392,9.51651466 C47.3868627,9.51651466 45.8070588,10.1674267 44.5235294,11.4481433 C43.2069608,12.7638436 42.5490196,14.3385993 42.5490196,16.2071987 C42.5490196,18.0408143 43.2076471,19.6154723 44.5235294,20.9312704 C45.84,22.2400326 47.419902,22.8978827 49.2630392,22.8978827" id="Fill-5" opacity="0.9"></path>
            <path d="M31.0618627,51.9630945 C29.6793137,51.9630945 28.4863725,52.4460261 27.5076471,53.4398371 C26.545,54.4126384 26.0598039,55.6023779 26.0598039,57.0160912 C26.0598039,58.3948208 26.5456863,59.5845603 27.5076471,60.5224756 C28.4871569,61.488241 29.680098,61.9711726 31.0618627,61.9711726 C32.4773529,61.9711726 33.6535294,61.4672313 34.6161765,60.5224756 C35.5955882,59.5636482 36.0969608,58.3949186 36.0969608,57.0160912 C36.0969608,55.6023779 35.6033333,54.3917264 34.6161765,53.4048534 C33.6619608,52.4530619 32.477451,51.9630945 31.0618627,51.9630945" id="Fill-7" opacity="0.6"></path>
            <path d="M25.9277451,4.09960912 C24.5122549,5.51332248 23.8212745,7.18599349 23.8212745,9.18758958 C23.8212745,11.1891857 24.5121569,12.924886 25.9277451,14.3385016 C27.3432353,15.7452769 29.0544118,16.4381107 31.0618627,16.4381107 C33.0693137,16.4381107 34.7811765,15.7452769 36.1959804,14.3385016 C37.6114706,12.9247883 38.3353922,11.1890879 38.3353922,9.18758958 C38.3353922,7.18609121 37.6114706,5.51332248 36.1959804,4.09960912 C34.7811765,2.69283388 33.0693137,2 31.0618627,2 C29.0544118,2 27.342549,2.69283388 25.9277451,4.09960912 Z" id="Fill-9"></path>
            <path d="M13.7166667,19.517557 C14.6055882,19.517557 15.4271569,19.2236156 16.0863725,18.5657655 C17.4036275,17.2570033 17.4036275,15.1224104 16.0863725,13.8137459 C15.4270588,13.1558958 14.6055882,12.8619544 13.7166667,12.8619544 C12.8607843,12.8619544 12.0498039,13.1629316 11.379902,13.8137459 C10.0086275,15.1364821 10.0086275,17.2430293 11.379902,18.5657655 C12.0498039,19.2166775 12.8614706,19.517557 13.7166667,19.517557" id="Fill-11" opacity="0.3"></path>
            <path d="M13.7166667,45.5314658 C12.4992157,45.5314658 11.4620588,46.0073616 10.5569608,46.8821498 C9.68490196,47.7149186 9.24039216,48.7507492 9.24039216,49.9615961 C9.24039216,51.1792834 9.66803922,52.2290879 10.5569608,53.1110098 C11.4458824,53.9998697 12.4991176,54.4547557 13.7166667,54.4547557 C14.9342157,54.4547557 15.987451,53.9998697 16.8763725,53.1110098 C17.7652941,52.2291857 18.1929412,51.1792834 18.1929412,49.9615961 C18.1929412,48.7507492 17.7485294,47.7150163 16.8763725,46.8821498 C15.9712745,46.0073616 14.935,45.5314658 13.7166667,45.5314658" id="Fill-13" opacity="0.5"></path>
            <path d="M8.64862745,30.34443 C7.89166667,29.5885668 7.0027451,29.1967101 5.91656863,29.1967101 C4.83039216,29.1967101 3.87617647,29.5885668 3.11921569,30.34443 C2.3622549,31.1002932 2,32.017101 2,33.1017915 C2,34.179544 2.3622549,35.1314332 3.11921569,35.8872964 C3.87617647,36.6430619 4.83039216,37.0070684 5.91656863,37.0070684 C7.0027451,37.0070684 7.89098039,36.6430619 8.64862745,35.8872964 C9.4054902,35.1314332 9.80078431,34.179544 9.80078431,33.1017915 C9.80009804,32.017101 9.4054902,31.1001954 8.64862745,30.34443" id="Fill-15" opacity="0.4"></path>
        </g>
    </g>
</svg>