<?xml version="1.0" encoding="UTF-8"?>
<svg width="64px" height="64px" viewBox="0 0 64 64" version="1.1" xmlns="http://www.w3.org/2000/svg" xmlns:xlink="http://www.w3.org/1999/xlink">
    <!-- Generator: Sketch 51.3 (57544) - http://www.bohemiancoding.com/sketch -->
    <title>icon-iphone-4life</title>
    <desc>Created with Sketch.</desc>
    <defs></defs>
    <g id="icon-iphone-4life" stroke="none" stroke-width="1" fill="none" fill-rule="evenodd" stroke-linecap="round" stroke-linejoin="round">
        <g id="Icon/Outline-1pt/modem/modem_black" transform="translate(17.000000, 4.000000)" stroke="#6B6B6B">
            <path d="M30,51.1724138 C30,53.8275862 28.0147059,56 25.5882353,56 L4.41176471,56 C1.98529412,56 0,53.8275862 0,51.1724138 L0,4.82758621 C0,2.17241379 1.98529412,0 4.41176471,0 L25.5882353,0 C28.0147059,0 30,2.17241379 30,4.82758621 L30,51.1724138 L30,51.1724138 Z" id="Line"></path>
            <path d="M0,46 L30,46" id="Line"></path>
            <path d="M0,9 L30,9" id="Line"></path>
            <path d="M10,4 L20,4" id="Line"></path>
            <path d="M16.5,50.75 C16.5,51.44 15.940625,52 15.25,52 C14.56,52 14,51.44 14,50.75 C14,50.059375 14.56,49.5 15.25,49.5 C15.940625,49.5 16.5,50.059375 16.5,50.75 L16.5,50.75 Z" id="Line"></path>
            <path d="M24,24.4387665 C24,18.8169191 16.0147692,18.3846113 15.0003077,24.0064587 C13.9855385,18.3846113 6,18.8169191 6,24.8710743 C6,30.9255373 15.0003077,36 15.0003077,36 C15.0003077,36 24,30.0599986 24,24.4387665 Z" id="Line"></path>
        </g>
    </g>
</svg>