<?xml version="1.0" encoding="UTF-8"?>
<svg width="64px" height="64px" viewBox="0 0 64 64" version="1.1" xmlns="http://www.w3.org/2000/svg" xmlns:xlink="http://www.w3.org/1999/xlink">
    <!-- Generator: Sketch 51.3 (57544) - http://www.bohemiancoding.com/sketch -->
    <title>icon-apple</title>
    <desc>Created with Sketch.</desc>
    <defs></defs>
    <g id="icon-apple" stroke="none" stroke-width="1" fill="none" fill-rule="evenodd">
        <g>
            <rect id="Conteiner" x="0" y="0" width="64" height="64"></rect>
            <path d="M51.6475335,42.2825412 C48.2857621,40.1959245 45.6195296,37.4137688 45.6195296,33.9360742 C45.6195296,31.2698417 48.0539158,28.1399165 51.1838409,25.5896072 C51.6475335,25.2418377 51.6475335,24.5462988 51.2997641,24.0826062 C49.4449936,21.64822 46.0832222,19.3297569 42.3736813,19.3297569 C40.5189108,19.3297569 38.6641404,20.0252958 37.0412162,20.7208347 C35.4182921,21.4163736 34.0272142,21.9959894 33.099829,21.9959894 C32.5202132,21.9959894 31.3609817,21.4163736 29.9699039,20.7208347 C28.578826,20.0252958 26.9559019,19.2138337 24.9852083,19.2138337 C17.3342802,19.2138337 11.885892,25.7055303 12.0018151,32.7768427 C12.0018151,38.6889235 13.9725087,44.4850811 16.4068949,48.890161 C17.6820496,51.0927009 19.0731275,52.9474713 20.4642053,54.3385492 C21.8552831,55.729627 23.3622841,56.5410891 24.8692851,56.5410891 C26.7240556,56.5410891 28.3469797,55.9614733 29.7380576,55.3818575 C31.1291354,54.8022418 32.2883669,54.3385492 32.9839059,54.3385492 C33.6794448,54.3385492 34.7227532,54.8022418 35.8819847,55.3818575 C37.1571394,55.9614733 38.6641404,56.5410891 40.5189108,56.5410891 C43.1851433,56.5410891 45.7354527,54.6863186 47.7061463,52.1360093 C49.6768399,49.5856999 51.2997641,46.4557747 51.8793798,43.2099265 C52.1112261,42.9780801 51.995303,42.5143875 51.6475335,42.2825412 Z M50.6042251,43.7895422 C50.0246094,46.4557747 48.6335315,49.3538536 46.8946842,51.4404703 C44.9239906,53.8748566 42.6055276,55.3818575 40.7507571,55.3818575 C39.127833,55.3818575 37.7367551,54.8022418 36.6934468,54.3385492 L36.113831,54.1067029 C35.1864458,53.6430102 34.2590605,53.1793176 33.2157522,53.1793176 C32.1724438,53.1793176 31.1291354,53.6430102 30.085827,53.9907797 L29.3902881,54.3385492 C28.1151334,54.8022418 26.6081324,55.3818575 24.9852083,55.3818575 C24.0578231,55.3818575 22.6667452,54.6863186 21.3915905,53.5270871 C20.1164358,52.2519324 18.725358,50.5130851 17.5661265,48.4264683 C14.7839708,43.6736191 13.2769698,37.9933846 13.2769698,32.8927658 C13.2769698,29.6469175 14.4362013,26.6329155 16.7546644,24.1985293 C18.9572043,21.8800663 21.9712063,20.6049116 24.9852083,20.6049116 C26.6081324,20.6049116 28.1151334,21.3004505 29.3902881,21.8800663 L29.9699039,22.2278357 C31.0132122,22.8074515 32.0565206,23.2711441 33.099829,23.2711441 C34.4909068,23.1552209 35.7660615,22.5756052 37.0412162,21.9959894 L37.5049088,21.7641431 C39.127833,21.0686042 40.7507571,20.4889884 42.3736813,20.4889884 C45.2717601,20.4889884 48.0539158,22.3437589 49.5609168,23.966683 L50.1405325,24.6622219 L49.4449936,25.3577609 C45.967299,28.487686 44.2284517,31.2698417 44.2284517,33.9360742 C44.2284517,38.341154 47.0106074,40.6596171 50.2564557,42.862157 L50.7201483,43.2099265 L50.6042251,43.7895422 Z M32.8679827,20.952681 C35.5342152,20.3730653 38.0845246,19.3297569 39.939295,17.3590633 C41.7940655,15.3883697 42.7214507,12.606214 42.141835,8.89667309 C42.0259118,8.08521102 41.3303729,7.85336472 40.7507571,8.08521102 C38.2004477,8.89667309 35.7660615,9.82405832 34.0272142,11.5629056 C32.2883669,13.4176761 31.3609817,16.0839086 31.592828,19.9093727 C31.592828,20.6049116 32.2883669,21.0686042 32.8679827,20.952681 Z M32.8679827,18.4023717 C32.8679827,15.7361391 33.5635216,13.8813687 34.9545995,12.4902908 C36.2297541,11.2151362 38.0845246,10.4036741 39.8233719,9.82405832 L40.9826034,9.36036571 L41.0985266,10.5195972 C41.2144497,12.9539835 40.634834,14.9246771 39.127833,16.4316781 C38.0845246,17.5909096 36.4616005,18.5182948 34.0272142,19.2138337 L32.8679827,19.5616032 L32.8679827,18.4023717 Z" id="Shape" fill="#6B6B6B" fill-rule="nonzero"></path>
        </g>
    </g>
</svg>