<?xml version="1.0" encoding="UTF-8"?>
<svg width="64px" height="64px" viewBox="0 0 64 64" version="1.1" xmlns="http://www.w3.org/2000/svg" xmlns:xlink="http://www.w3.org/1999/xlink">
    <!-- Generator: Sketch 51.3 (57544) - http://www.bohemiancoding.com/sketch -->
    <title>icon-shipment</title>
    <desc>Created with Sketch.</desc>
    <defs></defs>
    <g id="icon-shipment" stroke="none" stroke-width="2" fill="none" fill-rule="evenodd" stroke-linecap="round" stroke-linejoin="round">
        <g id="Icon/Outline-1pt/order-delivered/order_delivered_consumer" stroke="#719E19">
            <path d="M28,18 C28,24.6264877 22.6262712,30 16.0005106,30 C9.36862261,30 4,24.6264877 4,18 C4,11.3714865 9.36862261,6 16.0005106,6 C22.6262712,6 28,11.3714865 28,18 L28,18 Z" id="Line"></path>
            <polyline id="Line" points="22 14 14.2861818 22 10 18"></polyline>
            <polyline id="Line" points="21 54 14 54 14 34"></polyline>
            <polyline id="Line" points="29.4185153 27 42 27 42 54 29 54"></polyline>
            <path d="M29,53.9999 C29,56.2092515 27.2089837,57.9998 24.9995234,57.9998 C22.7910163,57.9998 21,56.2092515 21,53.9999 C21,51.7905485 22.7910163,50 24.9995234,50 C27.2089837,50 29,51.7905485 29,53.9999 L29,53.9999 Z" id="Line"></path>
            <path d="M54,54 C54,56.2094068 52.2089837,58 49.9995234,58 C47.7910163,58 46,56.2094068 46,54 C46,51.7905932 47.7910163,50 49.9995234,50 C52.2089837,50 54,51.7905932 54,54 L54,54 Z" id="Line"></path>
            <polyline id="Line" points="54 53 59.9997051 53 59.9997051 43 41.9970949 43"></polyline>
            <path d="M41.9972915,53 L45.9972915,53" id="Line"></path>
            <polyline id="Line" points="59.9973898 43 50.0975373 33 41.9973898 33"></polyline>
            <path d="M7,45 L10,45" id="Line"></path>
            <path d="M4,41 L10,41" id="Line"></path>
            <path d="M8,49 L10,49" id="Line"></path>
        </g>
    </g>
</svg>