<?xml version="1.0" encoding="UTF-8"?>
<svg width="64px" height="64px" viewBox="0 0 64 64" version="1.1" xmlns="http://www.w3.org/2000/svg" xmlns:xlink="http://www.w3.org/1999/xlink">
    <!-- Generator: Sketch 51.3 (57544) - http://www.bohemiancoding.com/sketch -->
    <title>icon-cart</title>
    <desc>Created with Sketch.</desc>
    <defs></defs>
    <g id="icon-cart" stroke="none" stroke-width="1" fill="none" fill-rule="evenodd" stroke-linecap="round" stroke-linejoin="round">
        <g id="Icon/Outline-1pt/shopping-cart/shopping_cart_black" stroke="#242424">
            <path d="M18,54 C18,56.209 16.209,58 14,58 C11.791,58 10,56.209 10,54 C10,51.791 11.791,50 14,50 C16.209,50 18,51.791 18,54 L18,54 Z" id="Line"></path>
            <path d="M45,54 C45,56.209 43.209,58 41,58 C38.791,58 37,56.209 37,54 C37,51.791 38.791,50 41,50 C43.209,50 45,51.791 45,54 L45,54 Z" id="Line"></path>
            <polyline id="Line" points="60 6 51.3617872 6 41.4042553 50 14 50"></polyline>
            <polyline id="Line" points="42.5 44.0099983 11.1053034 44 4 22 47.5 22"></polyline>
        </g>
    </g>
</svg>