<?xml version="1.0" encoding="UTF-8"?>
<svg width="64px" height="64px" viewBox="0 0 64 64" version="1.1" xmlns="http://www.w3.org/2000/svg" xmlns:xlink="http://www.w3.org/1999/xlink">
    <!-- Generator: Sketch 51.3 (57544) - http://www.bohemiancoding.com/sketch -->
    <title>icon-trade-in</title>
    <desc>Created with Sketch.</desc>
    <defs></defs>
    <g id="icon-trade-in" stroke="none" stroke-width="1" fill="none" fill-rule="evenodd">
        <g id="Group-27">
            <g>
                <rect id="Rectangle-11" x="0" y="0" width="64" height="64"></rect>
                <path d="M5.03689479,40.9604156 C4.92091827,40.9604156 4.80359319,40.9307472 4.69638234,40.868039 C4.37542406,40.67924 4.26821321,40.2665793 4.45633792,39.9449468 L5.77388511,37.6968903 C5.96066125,37.3752578 6.37332189,37.2673726 6.69630301,37.4561716 L8.94435948,38.7737188 C9.26531776,38.9625178 9.37252861,39.3751784 9.18440391,39.696811 C8.9962792,40.0177692 8.58361857,40.1263287 8.26198601,39.9375297 L7.35507661,39.4055211 C10.3657461,50.529827 20.4125492,58.2503569 31.9987383,58.2503569 C43.7824921,58.2503569 53.9789858,50.2675312 56.7961363,38.8391242 C56.8858158,38.477709 57.2532996,38.257893 57.6120176,38.3455497 C57.9734328,38.4345549 58.1945974,38.8000158 58.1049179,39.161431 C55.1394252,51.1946691 44.4041801,59.598921 31.9987383,59.598921 C19.8306438,59.598921 9.27475771,51.5102331 6.07731205,39.845153 L5.61880023,40.6273203 C5.49405805,40.8410677 5.26884783,40.9604156 5.03689479,40.9604156 Z M59.252546,24.3353165 C59.5883384,24.4964699 59.7292634,24.8990163 59.56811,25.2361573 L58.4380132,27.5840076 C58.3213624,27.8254006 58.0806437,27.9656512 57.8298108,27.9656512 C57.7313656,27.9656512 57.6322461,27.9440742 57.5378466,27.8988973 L55.1899964,26.7694748 C54.8542039,26.6076471 54.713279,26.2051007 54.8744324,25.8693082 C55.0369344,25.5335157 55.4394808,25.3939394 55.774599,25.5537442 L56.6295886,25.9650563 C53.6047592,14.8643503 43.5727903,7.16674599 31.9987383,7.16674599 C20.2028475,7.16674599 10.0036566,15.1596858 7.19662031,26.6036014 C7.10761508,26.9656909 6.74282847,27.1875297 6.38073899,27.0978502 C6.01932379,27.0095192 5.79815927,26.6447326 5.88649022,26.2826431 C8.84254289,14.2332223 19.5798108,5.81818182 31.9987383,5.81818182 C44.16481,5.81818182 54.713279,13.8974298 57.9167931,25.5557671 L58.3523794,24.6502062 C58.5148814,24.315088 58.918102,24.1741631 59.252546,24.3353165 Z" id="Combined-Shape" fill="#6B6B6B" fill-rule="nonzero"></path>
            </g>
        </g>
    </g>
</svg>