<?xml version="1.0" encoding="UTF-8"?>
<svg width="400px" height="400px" viewBox="0 0 400 400" version="1.1" xmlns="http://www.w3.org/2000/svg" xmlns:xlink="http://www.w3.org/1999/xlink">
    <title>F8CFD86B-A9AC-41B6-8B65-E1FB6D1AA910</title>
    <defs>
        <linearGradient x1="77.3106689%" y1="0%" x2="47.454577%" y2="55.7518379%" id="linearGradient-1">
            <stop stop-color="#7DA830" offset="0%"></stop>
            <stop stop-color="#7DA830" stop-opacity="0.2" offset="100%"></stop>
        </linearGradient>
        <linearGradient x1="100%" y1="6.73336939%" x2="45.3398743%" y2="54.977253%" id="linearGradient-2">
            <stop stop-color="#7DA830" offset="0%"></stop>
            <stop stop-color="#7DA830" stop-opacity="0.2" offset="100%"></stop>
        </linearGradient>
        <linearGradient x1="99.5381087%" y1="0%" x2="45.3829238%" y2="55.7518379%" id="linearGradient-3">
            <stop stop-color="#7DA830" offset="0%"></stop>
            <stop stop-color="#7DA830" stop-opacity="0.2" offset="100%"></stop>
        </linearGradient>
        <linearGradient x1="100%" y1="42.1235503%" x2="45.3398743%" y2="50.9060812%" id="linearGradient-4">
            <stop stop-color="#7DA830" offset="0%"></stop>
            <stop stop-color="#7DA830" stop-opacity="0.2" offset="100%"></stop>
        </linearGradient>
        <linearGradient x1="100%" y1="0.772189171%" x2="45.3398743%" y2="55.6630078%" id="linearGradient-5">
            <stop stop-color="#7DA830" offset="0%"></stop>
            <stop stop-color="#7DA830" stop-opacity="0.2" offset="100%"></stop>
        </linearGradient>
        <linearGradient x1="100%" y1="5.86371011%" x2="45.3398743%" y2="55.0772957%" id="linearGradient-6">
            <stop stop-color="#7DA830" offset="0%"></stop>
            <stop stop-color="#7DA830" stop-opacity="0.2" offset="100%"></stop>
        </linearGradient>
        <linearGradient x1="100%" y1="10.0223717%" x2="45.3398743%" y2="54.5988968%" id="linearGradient-7">
            <stop stop-color="#7DA830" offset="0%"></stop>
            <stop stop-color="#7DA830" stop-opacity="0.2" offset="100%"></stop>
        </linearGradient>
        <linearGradient x1="100%" y1="13.9737696%" x2="45.3398743%" y2="54.1443408%" id="linearGradient-8">
            <stop stop-color="#7DA830" offset="0%"></stop>
            <stop stop-color="#7DA830" stop-opacity="0.2" offset="100%"></stop>
        </linearGradient>
    </defs>
    <g id="ðŸ› ï¸-IOT" stroke="none" stroke-width="1" fill="none" fill-rule="evenodd" opacity="0.2">
        <g id="Products-Promo-Grid" transform="translate(-1040.000000, -410.000000)">
            <g id="Group-11" transform="translate(0.000000, 326.000000)">
                <g id="Fill-/-Background-/-Waves-Copy" transform="translate(1240.000000, 284.000000) scale(-1, -1) translate(-1240.000000, -284.000000) translate(1040.000000, 84.000000)">
                    <path d="M395,165.258662 C393.404178,166.849239 391.873491,170.681778 390.147059,172.093023 C386.548657,172.66902 381.940313,171.801573 380.441176,169.814903 C376.58291,167.558968 374.482287,163.647571 373.161765,160.702421 C358.019266,129.801364 339.309066,102.137689 317.352941,76.4119601 C312.196375,72.6287178 310.600552,67.8814167 314.926471,62.7432368 C320.419743,58.7180216 325.484036,60.232111 329.485294,65.0213574 C356.016346,92.4695976 376.615478,124.502051 392.573529,158.4243 C393.974114,160.382815 394.185805,161.975764 395,165.258662" id="Path" fill="url(#linearGradient-1)" transform="translate(353.750000, 116.279070) scale(-1, 1) translate(-353.750000, -116.279070) "></path>
                    <path d="M70,65.1162791 C50.6921867,48.5406587 31.1824856,32.1211175 12.0689655,15.7177225 C7.28631358,10.8787264 4.0194022,5.11940066 0,0 L24.137931,0 C39.3864709,14.2656469 54.6932354,28.515686 70,42.6623897 L70,65.1162791 Z" id="Path" fill="url(#linearGradient-2)" transform="translate(35.000000, 32.558140) scale(-1, 1) translate(-35.000000, -32.558140) "></path>
                    <path d="M22.0588235,0 C45.6579499,43.1002628 79.4119704,78.8096287 125,105.031712 L125,125.581395 C98.3953293,112.699206 75.3565935,95.4431375 53.9215686,75.3488372 C31.971053,53.2846953 13.1624948,28.2705798 0,0 L22.0588235,0 Z" id="Path" fill="url(#linearGradient-3)" transform="translate(62.500000, 62.790698) scale(-1, 1) translate(-62.500000, -62.790698) "></path>
                    <path d="M187.5,383.72093 C160.492266,378.774256 132.53007,376.230698 107.142857,367.935166 C75.4744633,358.628651 46.045224,344.412814 17.0454545,331.853418 C12.7274365,330.789954 9.84637588,328.901791 7.30519481,327.343199 C1.53902305,323.486977 -2.68535424,319.039652 2.43506494,313.812544 C6.39970822,307.476605 12.3739322,309.037071 17.0454545,311.557435 C28.2993043,317.104675 38.4095295,322.737954 48.7012987,327.343199 C86.5391502,344.865349 126.078615,357.161814 168.019481,363.424947 C174.491039,364.417977 180.977844,365.791186 187.5,367.935166 L187.5,383.72093 Z" id="Path" fill="url(#linearGradient-4)" transform="translate(93.750000, 346.511628) scale(-1, 1) translate(-93.750000, -346.511628) "></path>
                    <path d="M24.3506494,0 C46.1813083,35.5768019 64.756339,73.7714581 94.9675325,104.367555 C116.699265,124.437507 140.134556,141.10397 165.584416,154.282473 C172.989914,158.453352 180.342162,161.445186 187.5,165.626773 L187.5,186.046512 C147.946319,168.843469 112.333867,146.616098 82.7922078,117.980715 C57.5985013,93.6573944 40.4550382,65.7390357 24.3506494,38.5706183 C15.959327,24.8940054 7.86478462,12.5201725 0,0 L24.3506494,0 Z" id="Path" fill="url(#linearGradient-5)" transform="translate(93.750000, 93.023256) scale(-1, 1) translate(-93.750000, -93.023256) "></path>
                    <path d="M24.2718447,0 C36.3160449,15.9069518 48.2075995,31.6089577 58.2524272,47.888914 C76.7057274,73.2602625 91.994869,100.092405 111.650485,125.423346 C144.380114,167.377708 191.11427,195.187284 245.145631,214.359901 C245.839689,215.61881 247.989183,215.7134 250,216.640325 L250,234.883721 C224.327416,223.911235 197.37207,214.846322 172.330097,200.677354 C125.814727,175.354831 91.9428651,137.455612 65.5339806,93.4974035 C45.6074054,61.0738664 21.8589655,31.0098852 0,0 L24.2718447,0 Z" id="Path" fill="url(#linearGradient-6)" transform="translate(125.000000, 117.441860) scale(-1, 1) translate(-125.000000, -117.441860) "></path>
                    <path d="M27.0801527,0 C64.4861246,40.5339145 94.7345918,85.3097502 120.629771,131.697491 C151.277025,189.661014 200.916425,228.30963 265.877863,252.041751 C283.510003,259.291366 303.265166,263.941769 322.5,270.206922 L322.5,288.372093 C285.053646,279.746853 248.734672,268.592171 214.179389,249.771104 C168.447886,224.617587 130.567925,190.855036 105.858779,145.32137 C80.512262,100.894883 52.8480962,56.9202993 17.2328244,18.1651712 C11.5166183,11.5160307 5.6542433,5.82871406 0,0 L27.0801527,0 Z" id="Path" fill="url(#linearGradient-7)" transform="translate(161.250000, 144.186047) scale(-1, 1) translate(-161.250000, -144.186047) "></path>
                    <path d="M31.7073171,0 C49.1197566,18.9430555 67.9852206,37.2847442 85.3658537,56.9689402 C111.297544,87.4039228 132.805912,120.716481 151.219512,154.955517 C197.035427,245.579227 277.974353,294.084211 380.487805,316.747308 C387.22017,318.012281 393.618779,319.325793 400,321.304823 L400,339.534884 C367.989567,330.767588 334.918496,324.358284 304.878049,312.189792 C230.854162,285.237788 173.962182,239.866242 139.02439,175.464336 C116.252988,133.424312 92.797218,93.1010823 60.9756098,56.9689402 C41.9213215,37.4429986 20.3086286,19.2279135 0,0 L31.7073171,0 Z" id="Path" fill="url(#linearGradient-8)" transform="translate(200.000000, 169.767442) scale(-1, 1) translate(-200.000000, -169.767442) "></path>
                </g>
            </g>
        </g>
    </g>
</svg>