<?xml version="1.0" encoding="UTF-8"?>
<svg width="184px" height="184px" viewBox="0 0 184 184" version="1.1" xmlns="http://www.w3.org/2000/svg" xmlns:xlink="http://www.w3.org/1999/xlink">
    <title>4F85A32F-DDE0-4635-A3D3-5F3320850226</title>
    <defs>
        <radialGradient cx="37.3514748%" cy="88.1081676%" fx="37.3514748%" fy="88.1081676%" r="84.3010451%" gradientTransform="translate(0.373515,0.881082),rotate(-109.198055),scale(1.000000,1.377366),translate(-0.373515,-0.881082)" id="radialGradient-1">
            <stop stop-color="#7DA830" offset="0%"></stop>
            <stop stop-color="#7DA830" stop-opacity="0" offset="100%"></stop>
        </radialGradient>
    </defs>
    <g id="✅-Done-" stroke="none" stroke-width="1" fill="none" fill-rule="evenodd" opacity="0.2">
        <g id="ED_Cloud-Adoption-&amp;-Migration_Desktop" transform="translate(-121.000000, -3591.000000)" fill="url(#radialGradient-1)">
            <g id="Module-/-Lets-Work-Together-/-Desktop" transform="translate(0.000000, 3495.000000)">
                <g id="Fill-/-Background-/-Waves-Copy-2" transform="translate(121.000000, 96.000000)">
                    <path d="M78.4090909,148.315152 C80.5579912,147.068831 83.3061342,146.297181 85.1298701,149.430303 C87.485263,152.015108 85.5420494,154.21431 82.8896104,156.121212 C81.7206671,156.891936 80.3953792,157.825632 78.4090909,158.351515 C65.069197,164.562137 51.5317469,171.591868 36.9642857,176.193939 C29.1788739,178.9287 20.867021,180.399304 12.5097773,181.800624 L8.74757731,182.430574 C5.82156427,182.923171 2.89883015,183.429236 3.83693077e-13,184 L3.83693077e-13,184 L3.83693077e-13,176.193939 C3.00019164,175.133742 5.98412208,174.45469 8.96103896,173.963636 C28.2538372,170.866517 46.4419909,164.785915 63.8474026,156.121212 C68.5816165,153.843918 73.23232,151.058262 78.4090909,148.315152 Z M184,0 C174.658031,9.50820322 164.716192,18.5155628 155.95122,28.1711409 C141.31328,46.0384852 130.523625,65.9783221 120.04878,86.7671141 C103.977396,118.613857 77.8070854,141.050086 43.7560976,154.377852 C29.9374918,160.395171 14.724799,163.564572 5.1159077e-13,167.9 L5.1159077e-13,167.9 L5.1159077e-13,158.885235 C2.93536188,157.906605 5.87872202,157.257073 8.97560976,156.631544 C56.1317974,145.424642 93.3637035,121.438928 114.439024,76.6255034 C122.909281,59.6942997 132.80313,43.2212398 144.731707,28.1711409 C152.726799,18.437306 161.404912,9.36734095 169.414634,0 L169.414634,0 Z M148.35,0 C145.749048,2.8822991 143.052356,5.6946772 140.422901,8.98267717 C124.039876,28.147088 111.314359,49.8925197 99.6549618,71.8614173 C88.2887544,94.3778153 70.8639722,111.073397 49.8274809,123.511811 C33.9320507,132.818829 17.2253227,138.334819 3.97903932e-13,142.6 L3.97903932e-13,142.6 L3.97903932e-13,133.617323 C8.84802356,130.519205 17.9353985,128.21958 26.0461832,124.634646 C55.9284447,112.899112 78.7625686,93.7873713 92.8603053,65.1244094 C104.772088,42.1856715 118.686383,20.0440207 135.89313,0 L135.89313,0 Z M115,0 C112.067255,4.4725299 109.060572,8.9052686 106.045136,13.3387724 L103.459854,17.1400519 C96.998891,26.6484485 90.5832593,36.2135666 84.8543689,46.234466 C72.7062821,67.9718001 57.1252254,86.712964 35.7281553,99.2349515 C24.2088476,106.241506 11.8093884,110.724106 6.53699317e-13,116.15 L6.53699317e-13,116.15 L6.53699317e-13,107.128641 C0.924975732,106.670277 1.91374289,106.623502 2.23300971,106.000971 C27.0874359,96.5201121 48.5851477,82.7682764 63.6407767,62.0218447 C72.6823603,49.4956943 79.7153654,36.2271998 88.2038835,23.681068 C92.8245042,15.6306296 98.2946193,7.86598765 103.834951,0 L103.834951,0 Z M86.25,0 C82.6321991,6.19122531 78.9087096,12.3100856 75.0487013,19.0731707 C67.6406824,32.5079532 59.7546894,46.3135815 48.1655844,58.3414634 C34.576421,72.5016605 18.1946932,83.4930956 3.83693077e-13,92 L3.83693077e-13,92 L3.83693077e-13,81.902439 C3.29260534,79.8346443 6.67463946,78.3551827 10.0811688,76.2926829 C21.7881044,69.7759133 32.5683382,61.5343471 42.5649351,51.6097561 C52.2667183,41.0474638 59.3598305,28.6539147 66.1749498,16.147976 L67.2780356,14.1192723 C67.4615998,13.7810813 67.645053,13.442876 67.8284412,13.1046905 L69.4784212,10.0624692 C71.3125424,6.68485053 73.1539649,3.31938274 75.0487013,0 L75.0487013,0 Z M176.635105,32.1677562 C178.362595,29.8039956 180.549036,29.056708 182.920683,31.0433765 C184.788341,33.5793552 184.099366,35.9224134 181.873087,37.7896547 C172.393822,50.4867385 164.315941,64.1403069 157.778368,79.3917037 C157.20825,80.8452998 156.278458,82.7091169 154.635579,83.8892226 C152.95,85.1 151.8,85.1 150.445193,85.0136023 C149.090386,84.9272045 148.35,83.8753348 148.35,81.65 C148.701518,80.0297065 148.792913,79.2339608 149.397596,78.267324 C156.287273,61.5248 165.180675,45.7149954 176.635105,32.1677562 Z M57.5,0 C51.4452524,13.9798017 42.7933156,26.3492818 32.6960784,37.26 C22.835967,47.1966315 12.2381485,55.7297572 7.10542736e-15,62.1 L7.10542736e-15,62.1 L7.10542736e-15,51.9381818 C20.9704936,38.9713614 36.497343,21.31308 47.3529412,0 L47.3529412,0 Z M32.2,0 C30.351075,2.53154362 28.8482958,5.3795302 26.6482759,7.77241379 C17.8560566,15.8838926 8.88159413,24.0033557 2.62900812e-13,32.2 L2.62900812e-13,32.2 L2.62900812e-13,21.0965517 C7.04111169,14.1010067 14.0822234,7.05436242 21.0965517,0 L21.0965517,0 Z" id="Combined-Shape"></path>
                </g>
            </g>
        </g>
    </g>
</svg>