<?xml version="1.0" encoding="UTF-8"?>
<svg width="400px" height="400px" viewBox="0 0 400 400" version="1.1" xmlns="http://www.w3.org/2000/svg" xmlns:xlink="http://www.w3.org/1999/xlink">
    <title>3001CAF9-86E6-4F84-849A-6F84F7992390</title>
    <defs>
        <radialGradient cx="37.3514748%" cy="88.1081676%" fx="37.3514748%" fy="88.1081676%" r="84.3010451%" gradientTransform="translate(0.373515,0.881082),rotate(-109.198055),scale(1.000000,1.377366),translate(-0.373515,-0.881082)" id="radialGradient-1">
            <stop stop-color="#7DA830" offset="0%"></stop>
            <stop stop-color="#7DA830" stop-opacity="0" offset="100%"></stop>
        </radialGradient>
    </defs>
    <g id="✅-Done-" stroke="none" stroke-width="1" fill="none" fill-rule="evenodd" opacity="0.2">
        <g id="ED_Cloud-Adoption-&amp;-Migration_Desktop" transform="translate(0.000000, -2271.000000)" fill="url(#radialGradient-1)">
            <g id="Fill-/-Background-/-Waves" transform="translate(-0.000000, 2271.000000)">
                <path d="M170.454545,322.424242 C175.126068,319.714851 181.100292,318.037351 185.064935,324.848485 C190.185354,330.467626 185.960977,335.248501 180.194805,339.393939 C177.653624,341.069426 174.772563,343.099201 170.454545,344.242424 C141.454776,357.743775 112.025537,373.0258 80.3571429,383.030303 C62.4367576,389.325148 43.2333355,392.539005 23.9882529,395.755304 L20.7805662,396.291906 C13.830665,397.456882 6.88432443,398.644514 8.52651283e-13,400 L8.52651283e-13,400 L8.52651283e-13,383.030303 C6.52215574,380.725525 13.008961,379.249325 19.4805195,378.181818 C61.4213853,371.44895 100.96085,358.23025 138.798701,339.393939 C149.090471,334.443301 159.200696,328.387526 170.454545,322.424242 Z M400,0 C379.691371,20.670007 358.078679,40.2512235 339.02439,61.2416107 C307.202782,100.083663 283.747012,143.431135 260.97561,188.624161 C226.037818,257.856211 169.145838,306.630622 95.1219512,335.604027 C65.081504,348.685155 32.0104325,355.575157 9.66338121e-13,365 L9.66338121e-13,365 L9.66338121e-13,345.402685 C6.38122147,343.275227 12.7798305,341.863202 19.5121951,340.503356 C122.025647,316.140527 202.964573,263.99767 248.780488,166.577181 C267.194088,129.770217 288.702456,93.959217 314.634146,61.2416107 C332.014779,40.0811 350.880243,20.3637847 368.292683,0 L368.292683,0 Z M322.5,0 C316.845757,6.26586761 310.983382,12.379733 305.267176,19.5275591 C269.651904,61.1893217 241.987738,108.461999 216.641221,156.220472 C191.932075,205.169164 154.052114,241.463906 108.320611,268.503937 C73.7653275,288.736584 37.4463537,300.727867 9.66338121e-13,310 L9.66338121e-13,310 L9.66338121e-13,290.472441 C19.2348338,283.737401 38.9899968,278.738218 56.6221374,270.944882 C121.583575,245.432852 171.222975,203.88559 201.870229,141.574803 C227.765408,91.7079815 258.013875,43.573958 295.419847,0 L295.419847,0 Z M250,0 C243.097169,10.52704 236.005914,20.9526769 228.906093,31.3888117 L225.356301,36.608272 C211.160941,57.4937568 197.051225,78.4958335 184.466019,100.509709 C158.057135,147.764783 124.185273,188.506443 77.6699029,215.728155 C60.2493997,226.324079 41.9029544,234.264737 23.7065403,242.087615 L20.2967336,243.553643 C13.4816872,246.485419 6.69719571,249.422933 1.42108547e-12,252.5 L1.42108547e-12,252.5 L1.42108547e-12,232.88835 C2.01081681,231.891905 4.16031064,231.790221 4.85436893,230.436893 C58.8857301,209.826331 105.619886,179.931036 138.349515,134.830097 C158.005131,107.599336 173.294273,78.7547822 191.747573,51.4805825 C201.7924,33.9796295 213.683955,17.0999732 225.728155,0 L225.728155,0 Z M187.5,0 C179.635215,13.4591855 171.540673,26.7610558 163.149351,41.4634146 C147.044962,70.6694634 129.901499,100.681699 104.707792,126.829268 C75.1661325,157.612306 39.5536808,181.50673 8.52651283e-13,200 L8.52651283e-13,200 L8.52651283e-13,178.04878 C7.15783768,173.553575 14.5100858,170.337354 21.9155844,165.853659 C47.3654444,151.686768 70.8007352,133.77032 92.5324675,112.195122 C113.715028,89.1337533 129.177129,62.0566882 144.051858,34.7495612 L145.513233,32.0630057 L145.513233,32.0630057 L146.971905,29.375767 C147.700746,28.0321102 148.42898,26.6884974 149.157219,25.3453789 L150.613882,22.6599342 C154.742135,15.0537978 158.88359,7.47317304 163.149351,0 L163.149351,0 Z M383.989358,69.9299047 C387.744771,64.7912948 392.497904,63.1667564 397.65366,67.485601 C401.713785,72.9985982 400.216014,78.092203 395.376276,82.1514232 C374.769177,109.753779 357.208568,139.43545 342.996453,172.59066 C341.757065,175.750652 339.735778,179.802428 336.164302,182.367875 C332.5,185 330,185 327.054767,184.812179 C324.109535,184.624358 322.5,182.337684 322.5,177.5 C323.264169,173.977623 323.462853,172.247741 324.777384,170.146357 C339.754942,133.749565 359.088424,99.3804249 383.989358,69.9299047 Z M125,0 C111.837505,30.3908733 93.028947,57.2810474 71.0784314,81 C49.6434065,102.601373 26.6046707,121.151646 0,135 L0,135 L0,112.909091 C45.5880296,84.7203508 79.3420501,46.3327825 102.941176,0 L102.941176,0 Z M70,0 C65.9805978,5.5033557 62.7136864,11.6946309 57.9310345,16.8965517 C38.8175144,34.5302013 19.3078133,52.1812081 5.68434189e-13,70 L5.68434189e-13,70 L5.68434189e-13,45.862069 C15.3067646,30.6543624 30.6135291,15.3355705 45.862069,0 L45.862069,0 Z" id="Combined-Shape"></path>
            </g>
        </g>
    </g>
</svg>