<svg width="1010" height="171" viewBox="0 0 1010 171" fill="none" xmlns="http://www.w3.org/2000/svg">
<g clip-path="url(#clip0_829_22257)" filter="url(#filter0_d_829_22257)">
<path d="M267.429 115C278.159 115 286.649 110.66 290.289 102H310.549C306.219 116.92 292.359 132.19 268.289 132.19C238.289 132.19 221.189 109.29 221.189 82.5698C221.189 54.4598 240.409 34.5098 266.909 34.5098C295.479 34.5098 313.319 57.7598 311.589 89.1598H242.139C243.529 106.53 255.649 115 267.429 115ZM290.629 74.0598C290.109 59.4798 279.029 50.6398 266.909 50.6398C257.209 50.6398 243.909 56.3598 242.139 74.0598H290.629Z" fill="#E00700"/>
<path d="M373.36 34.5312C395.87 34.5312 405.05 49.1012 405.05 71.3112V130.001H384.44V76.3412C384.44 63.6812 382.54 51.3413 366.78 51.3413C351.02 51.3413 345.13 63.4812 345.13 80.3412V130.001H324.52V36.6113H345.13V49.6113C350.5 39.9113 360.37 34.5312 373.36 34.5312Z" fill="#E00700"/>
<path d="M446.06 12V36.61H464.76V51.53H446.06V102.37C446.06 111.91 448.31 114.16 457.14 114.16H464.59V130H449.35C429.43 130 425.45 124.62 425.45 105.54V51.54H411.6V36.61H425.45V12H446.06Z" fill="#E00700"/>
<path d="M514.429 115C525.159 115 533.649 110.66 537.289 102H557.549C553.219 116.92 539.359 132.19 515.289 132.19C485.289 132.19 468.189 109.29 468.189 82.5698C468.189 54.4598 487.409 34.5098 513.909 34.5098C542.479 34.5098 560.319 57.7598 558.589 89.1598H489.139C490.529 106.53 502.649 115 514.429 115ZM537.629 74.0598C537.109 59.4798 526.029 50.6398 513.909 50.6398C504.209 50.6398 490.909 56.3598 489.139 74.0598H537.629Z" fill="#E00700"/>
<path d="M612.569 57.0814C599.569 57.0814 592.129 62.2914 592.129 81.0814V130.001H571.529V36.6114H591.789V53.2714C596.789 42.8614 605.789 36.6114 617.069 36.4414C618.864 36.4684 620.656 36.5852 622.439 36.7914V57.6114C619.16 57.2699 615.866 57.093 612.569 57.0814Z" fill="#E00700"/>
<path d="M651.911 49.1012C657.451 39.9113 667.151 34.5312 679.621 34.5312C702.301 34.5312 719.621 53.4412 719.621 83.2812C719.621 113.281 702.301 132.211 679.621 132.211C667.151 132.211 657.451 126.831 651.911 117.631V160.311H631.301V36.6113H651.911V49.1012ZM698.151 83.2812C698.151 63.6812 689.491 51.3613 675.151 51.3613C661.641 51.3613 651.081 61.7712 651.081 83.2812C651.081 104.791 661.641 115.381 675.151 115.381C689.491 115.381 698.151 103.061 698.151 83.2812Z" fill="#E00700"/>
<path d="M774 57.0814C761 57.0814 753.57 62.2914 753.57 81.0814V130.001H733V36.6114H753.26V53.2714C758.26 42.8614 767.26 36.6114 778.55 36.4414C780.1 36.4414 782.36 36.6114 783.92 36.7914V57.6114C780.624 57.2683 777.313 57.0914 774 57.0814Z" fill="#E00700"/>
<path d="M813.38 24.9999H792.77V4.16992H813.38V24.9999ZM813.38 130H792.77V36.6099H813.38V130Z" fill="#E00700"/>
<path d="M865 50.3198C856 50.3198 847.68 54.3198 847.68 60.5598C847.68 66.7998 852.18 70.0998 860.15 71.6598L873.31 74.2598C892.22 77.8998 906.6 83.7998 906.6 102C906.6 121.43 888.24 132.19 867.11 132.19C844.26 132.19 829.02 119.19 826.76 101.48H846.85C848.76 111.02 855.68 116.57 867.85 116.57C878.58 116.57 886.55 112.06 886.55 104.43C886.55 96.7998 879.62 93.3298 870.44 91.5898L856.44 88.8098C840.68 85.6898 828.38 78.5798 828.38 61.5798C828.38 45.0898 846.05 34.5098 866.31 34.5098C884.49 34.5098 901.12 43.3598 904.93 62.0998H885.53C883.22 53.6198 875.43 50.3198 865 50.3198Z" fill="#E00700"/>
<path d="M960 115C970.74 115 979.22 110.66 982.86 102H1003.12C998.79 116.92 984.94 132.19 960.87 132.19C930.87 132.19 913.76 109.29 913.76 82.5698C913.76 54.4598 932.99 34.5098 959.48 34.5098C988.06 34.5098 1005.89 57.7598 1004.16 89.1598H934.67C936.05 106.53 948.18 115 960 115ZM983.21 74.0598C982.69 59.4798 971.6 50.6398 959.48 50.6398C949.78 50.6398 936.48 56.3598 934.72 74.0598H983.21Z" fill="#E00700"/>
<path d="M169.72 98.4698C176.337 86.7225 180.469 73.7406 181.86 60.3298H161.05C160.589 68.3287 158.955 76.2164 156.2 83.7398C153.731 90.5568 150.093 96.8915 145.45 102.46C138.69 110.26 130.02 115.29 120.14 115.29C108.47 115.29 100.45 110.29 97.42 101.92H75.19C71.55 110.59 63.05 114.92 52.31 114.92C40.52 114.92 28.38 106.42 26.99 89.0898H96.54C98.32 80.5598 105.07 74.1698 116 69.9998C116 69.9998 126.08 66.2698 136.11 61.9998C149.98 55.5798 160.38 44.1398 160.38 29.5798C160.38 8.94984 142.7 1.83984 126.75 1.83984C106.64 1.83984 91.75 12.4198 91.75 29.2298C91.75 39.1098 97.13 48.4698 105.1 57.8398C100.9 59.3154 96.8753 61.2504 93.1 63.6098C86.67 45.9998 71.89 34.4898 51.79 34.4898C25.26 34.4898 6 54.4198 6 82.5098C6 109.21 23.16 132.09 53.15 132.09C66.94 132.09 77.37 127.09 84.59 120.03C92 127.5 103 132.1 116.5 132.1C133.14 132.1 146.67 125.51 157.07 115.29L170.41 129.85H198.67L169.72 98.4698ZM126.9 17.4698C134.53 17.4698 140.77 21.8098 140.77 30.2998C140.77 38.0998 136.09 45.7298 125.52 50.4098L125.34 50.2398C119.1 43.6498 113.21 36.0198 113.21 28.7398C113.21 21.6698 119.62 17.5098 126.9 17.5098V17.4698ZM51.79 50.6098C63.92 50.6098 75 59.4498 75.54 73.9998H27C28.73 56.3298 42.08 50.6098 51.79 50.6098Z" fill="#E00700"/>
<path d="M127.631 0H125.631V2H127.631V0Z" fill="#E00700"/>
<path d="M6 81.7188H4V83.7188H6V81.7188Z" fill="#E00700"/>
<path d="M651.91 160.309H649.91V162.309H651.91V160.309Z" fill="#E00700"/>
<path d="M1006.18 85.1289H1004.18V87.1289H1006.18V85.1289Z" fill="#E00700"/>
</g>
<defs>
<filter id="filter0_d_829_22257" x="0" y="0" width="1010" height="172" filterUnits="userSpaceOnUse" color-interpolation-filters="sRGB">
<feFlood flood-opacity="0" result="BackgroundImageFix"/>
<feColorMatrix in="SourceAlpha" type="matrix" values="0 0 0 0 0 0 0 0 0 0 0 0 0 0 0 0 0 0 127 0" result="hardAlpha"/>
<feOffset dy="4"/>
<feGaussianBlur stdDeviation="2"/>
<feComposite in2="hardAlpha" operator="out"/>
<feColorMatrix type="matrix" values="0 0 0 0 0 0 0 0 0 0 0 0 0 0 0 0 0 0 0.25 0"/>
<feBlend mode="normal" in2="BackgroundImageFix" result="effect1_dropShadow_829_22257"/>
<feBlend mode="normal" in="SourceGraphic" in2="effect1_dropShadow_829_22257" result="shape"/>
</filter>
<clipPath id="clip0_829_22257">
<rect width="1002" height="164" fill="white" transform="translate(4)"/>
</clipPath>
</defs>
</svg>
