<svg width="185" height="29" viewBox="0 0 1007 169" fill="none" xmlns="http://www.w3.org/2000/svg">
<g filter="url(#filter0_d_829_22245)">
<path d="M265.429 115C276.159 115 284.649 110.66 288.289 102H308.549C304.219 116.92 290.359 132.19 266.289 132.19C236.289 132.19 219.189 109.29 219.189 82.5698C219.189 54.4598 238.409 34.5098 264.909 34.5098C293.479 34.5098 311.319 57.7598 309.589 89.1598H240.139C241.529 106.53 253.649 115 265.429 115ZM288.629 74.0598C288.109 59.4798 277.029 50.6398 264.909 50.6398C255.209 50.6398 241.909 56.3598 240.139 74.0598H288.629Z" fill="#4B0F1E"/>
<path d="M371.36 34.5312C393.87 34.5312 403.05 49.1012 403.05 71.3112V130.001H382.44V76.3412C382.44 63.6812 380.54 51.3413 364.78 51.3413C349.02 51.3413 343.13 63.4812 343.13 80.3412V130.001H322.52V36.6113H343.13V49.6113C348.5 39.9113 358.37 34.5312 371.36 34.5312Z" fill="#4B0F1E"/>
<path d="M444.06 12V36.61H462.76V51.53H444.06V102.37C444.06 111.91 446.31 114.16 455.14 114.16H462.59V130H447.35C427.43 130 423.45 124.62 423.45 105.54V51.54H409.6V36.61H423.45V12H444.06Z" fill="#4B0F1E"/>
<path d="M512.429 115C523.159 115 531.649 110.66 535.289 102H555.549C551.219 116.92 537.359 132.19 513.289 132.19C483.289 132.19 466.189 109.29 466.189 82.5698C466.189 54.4598 485.409 34.5098 511.909 34.5098C540.479 34.5098 558.319 57.7598 556.589 89.1598H487.139C488.529 106.53 500.649 115 512.429 115ZM535.629 74.0598C535.109 59.4798 524.029 50.6398 511.909 50.6398C502.209 50.6398 488.909 56.3598 487.139 74.0598H535.629Z" fill="#4B0F1E"/>
<path d="M610.569 57.0814C597.569 57.0814 590.129 62.2914 590.129 81.0814V130.001H569.529V36.6114H589.789V53.2714C594.789 42.8614 603.789 36.6114 615.069 36.4414C616.864 36.4684 618.656 36.5852 620.439 36.7914V57.6114C617.16 57.2699 613.866 57.093 610.569 57.0814Z" fill="#4B0F1E"/>
<path d="M649.911 49.1012C655.451 39.9113 665.151 34.5312 677.621 34.5312C700.301 34.5312 717.621 53.4412 717.621 83.2812C717.621 113.281 700.301 132.211 677.621 132.211C665.151 132.211 655.451 126.831 649.911 117.631V160.311H629.301V36.6113H649.911V49.1012ZM696.151 83.2812C696.151 63.6812 687.491 51.3613 673.151 51.3613C659.641 51.3613 649.081 61.7712 649.081 83.2812C649.081 104.791 659.641 115.381 673.151 115.381C687.491 115.381 696.151 103.061 696.151 83.2812Z" fill="#4B0F1E"/>
<path d="M772 57.0814C759 57.0814 751.57 62.2914 751.57 81.0814V130.001H731V36.6114H751.26V53.2714C756.26 42.8614 765.26 36.6114 776.55 36.4414C778.1 36.4414 780.36 36.6114 781.92 36.7914V57.6114C778.624 57.2683 775.313 57.0914 772 57.0814Z" fill="#4B0F1E"/>
<path d="M811.38 24.9999H790.77V4.16992H811.38V24.9999ZM811.38 130H790.77V36.6099H811.38V130Z" fill="#4B0F1E"/>
<path d="M863 50.3198C854 50.3198 845.68 54.3198 845.68 60.5598C845.68 66.7998 850.18 70.0998 858.15 71.6598L871.31 74.2598C890.22 77.8998 904.6 83.7998 904.6 102C904.6 121.43 886.24 132.19 865.11 132.19C842.26 132.19 827.02 119.19 824.76 101.48H844.85C846.76 111.02 853.68 116.57 865.85 116.57C876.58 116.57 884.55 112.06 884.55 104.43C884.55 96.7998 877.62 93.3298 868.44 91.5898L854.44 88.8098C838.68 85.6898 826.38 78.5798 826.38 61.5798C826.38 45.0898 844.05 34.5098 864.31 34.5098C882.49 34.5098 899.12 43.3598 902.93 62.0998H883.53C881.22 53.6198 873.43 50.3198 863 50.3198Z" fill="#4B0F1E"/>
<path d="M958 115C968.74 115 977.22 110.66 980.86 102H1001.12C996.79 116.92 982.94 132.19 958.87 132.19C928.87 132.19 911.76 109.29 911.76 82.5698C911.76 54.4598 930.99 34.5098 957.48 34.5098C986.06 34.5098 1003.89 57.7598 1002.16 89.1598H932.67C934.05 106.53 946.18 115 958 115ZM981.21 74.0598C980.69 59.4798 969.6 50.6398 957.48 50.6398C947.78 50.6398 934.48 56.3598 932.72 74.0598H981.21Z" fill="#4B0F1E"/>
<path d="M167.72 98.4698C174.337 86.7225 178.469 73.7406 179.86 60.3298H159.05C158.589 68.3287 156.955 76.2164 154.2 83.7398C151.731 90.5568 148.093 96.8915 143.45 102.46C136.69 110.26 128.02 115.29 118.14 115.29C106.47 115.29 98.45 110.29 95.42 101.92H73.19C69.55 110.59 61.05 114.92 50.31 114.92C38.52 114.92 26.38 106.42 24.99 89.0898H94.54C96.32 80.5598 103.07 74.1698 114 69.9998C114 69.9998 124.08 66.2698 134.11 61.9998C147.98 55.5798 158.38 44.1398 158.38 29.5798C158.38 8.94984 140.7 1.83984 124.75 1.83984C104.64 1.83984 89.75 12.4198 89.75 29.2298C89.75 39.1098 95.13 48.4698 103.1 57.8398C98.8997 59.3154 94.8753 61.2504 91.1 63.6098C84.67 45.9998 69.89 34.4898 49.79 34.4898C23.26 34.4898 4 54.4198 4 82.5098C4 109.21 21.16 132.09 51.15 132.09C64.94 132.09 75.37 127.09 82.59 120.03C90 127.5 101 132.1 114.5 132.1C131.14 132.1 144.67 125.51 155.07 115.29L168.41 129.85H196.67L167.72 98.4698ZM124.9 17.4698C132.53 17.4698 138.77 21.8098 138.77 30.2998C138.77 38.0998 134.09 45.7298 123.52 50.4098L123.34 50.2398C117.1 43.6498 111.21 36.0198 111.21 28.7398C111.21 21.6698 117.62 17.5098 124.9 17.5098V17.4698ZM49.79 50.6098C61.92 50.6098 73 59.4498 73.54 73.9998H25C26.73 56.3298 40.08 50.6098 49.79 50.6098Z" fill="#4B0F1E"/>
</g>
<defs>
<filter id="filter0_d_829_22245" x="-2" y="0" width="1010" height="172" filterUnits="userSpaceOnUse" color-interpolation-filters="sRGB">
<feFlood flood-opacity="0" result="BackgroundImageFix"/>
<feColorMatrix in="SourceAlpha" type="matrix" values="0 0 0 0 0 0 0 0 0 0 0 0 0 0 0 0 0 0 127 0" result="hardAlpha"/>
<feOffset dy="4"/>
<feGaussianBlur stdDeviation="2"/>
<feComposite in2="hardAlpha" operator="out"/>
<feColorMatrix type="matrix" values="0 0 0 0 0 0 0 0 0 0 0 0 0 0 0 0 0 0 0.25 0"/>
<feBlend mode="normal" in2="BackgroundImageFix" result="effect1_dropShadow_829_22245"/>
<feBlend mode="normal" in="SourceGraphic" in2="effect1_dropShadow_829_22245" result="shape"/>
</filter>
</defs>
</svg>
