<svg xmlns="http://www.w3.org/2000/svg" xmlns:xlink="http://www.w3.org/1999/xlink" width="176" height="64" viewBox="0 0 176 64">
  <defs>
    <linearGradient id="linear-gradient" x1="0.061" y1="0.843" x2="0.735" y2="0.139" gradientUnits="objectBoundingBox">
      <stop offset="0" stop-color="#f7f7f8"/>
      <stop offset="0.01" stop-color="#f1f1f2"/>
      <stop offset="0.17" stop-color="#b7b3b2"/>
      <stop offset="0.31" stop-color="#8d8683"/>
      <stop offset="0.41" stop-color="#736a67"/>
      <stop offset="0.47" stop-color="#69605c"/>
      <stop offset="0.54" stop-color="#6e6662"/>
      <stop offset="0.64" stop-color="#7e7673"/>
      <stop offset="0.75" stop-color="#97908e"/>
      <stop offset="0.87" stop-color="#bbb6b5"/>
      <stop offset="1" stop-color="#e8e5e6"/>
    </linearGradient>
    <linearGradient id="linear-gradient-2" y1="0.498" x2="1" y2="0.498" gradientUnits="objectBoundingBox">
      <stop offset="0" stop-color="#efeeee"/>
      <stop offset="0.16" stop-color="#b5b2b1"/>
      <stop offset="0.3" stop-color="#898582"/>
      <stop offset="0.4" stop-color="#6e6866"/>
      <stop offset="0.47" stop-color="#645e5b"/>
      <stop offset="0.54" stop-color="#6a6461"/>
      <stop offset="0.64" stop-color="#797472"/>
      <stop offset="0.75" stop-color="#938e8d"/>
      <stop offset="0.87" stop-color="#b8b4b4"/>
      <stop offset="0.99" stop-color="#e6e3e5"/>
      <stop offset="1" stop-color="#e8e5e7"/>
    </linearGradient>
    <linearGradient id="linear-gradient-3" x1="-0.001" y1="0.5" x2="1" y2="0.5" gradientUnits="objectBoundingBox">
      <stop offset="0" stop-color="#d7d2d2"/>
      <stop offset="0.16" stop-color="#c3bebd"/>
      <stop offset="0.24" stop-color="#a19b99"/>
      <stop offset="0.32" stop-color="#827c79"/>
      <stop offset="0.4" stop-color="#6d6562"/>
      <stop offset="0.47" stop-color="#605854"/>
      <stop offset="0.54" stop-color="#5b534f"/>
      <stop offset="0.6" stop-color="#605955"/>
      <stop offset="0.67" stop-color="#706966"/>
      <stop offset="0.76" stop-color="#898381"/>
      <stop offset="0.86" stop-color="#aca8a8"/>
      <stop offset="0.96" stop-color="#d9d7d9"/>
      <stop offset="1" stop-color="#ecebed"/>
    </linearGradient>
    <linearGradient id="linear-gradient-4" x1="-0.028" y1="-0.088" x2="0.984" y2="0.772" gradientUnits="objectBoundingBox">
      <stop offset="0" stop-color="#fff"/>
      <stop offset="0.03" stop-color="#fff"/>
      <stop offset="0.07" stop-color="#f5f5f4"/>
      <stop offset="0.21" stop-color="#d3d0ce"/>
      <stop offset="0.34" stop-color="#bab6b3"/>
      <stop offset="0.45" stop-color="#aba6a2"/>
      <stop offset="0.53" stop-color="#a6a09c"/>
      <stop offset="0.63" stop-color="#afaaa7"/>
      <stop offset="0.81" stop-color="#c8c5c3"/>
      <stop offset="1" stop-color="#ebeaeb"/>
    </linearGradient>
    <linearGradient id="linear-gradient-5" x1="-0.03" y1="0.411" x2="0.827" y2="0.911" gradientUnits="objectBoundingBox">
      <stop offset="0" stop-color="#bcb9b8"/>
      <stop offset="0.25" stop-color="#e1e0df"/>
      <stop offset="0.48" stop-color="#a8a19e"/>
      <stop offset="0.81" stop-color="#e1e0df"/>
      <stop offset="1" stop-color="#bcb9b8"/>
    </linearGradient>
    <linearGradient id="linear-gradient-6" y1="0.499" x2="1" y2="0.499" gradientUnits="objectBoundingBox">
      <stop offset="0" stop-color="#fff"/>
      <stop offset="0.03" stop-color="#fff"/>
      <stop offset="0.09" stop-color="#edeceb"/>
      <stop offset="0.22" stop-color="#cbc7c5"/>
      <stop offset="0.35" stop-color="#b2acaa"/>
      <stop offset="0.45" stop-color="#a29c99"/>
      <stop offset="0.53" stop-color="#9d9693"/>
      <stop offset="0.63" stop-color="#a7a09e"/>
      <stop offset="0.8" stop-color="#c0bcba"/>
      <stop offset="1" stop-color="#e7e5e5"/>
    </linearGradient>
  </defs>
  <g id="Group_2" data-name="Group 2" transform="translate(-854 -348)">
    <rect id="Rectangle_1" data-name="Rectangle 1" width="176" height="64" transform="translate(854 348)"/>
    <g id="Group_1" data-name="Group 1" transform="translate(3.003 -131.491)">
      <path id="Path_2" data-name="Path 2" d="M34.882,20.855a2.767,2.767,0,0,0,1.609-.515,1.271,1.271,0,0,0,.08-1.3,4.505,4.505,0,0,0-4.28-2.413,4.988,4.988,0,0,0-5.358,5.133l7.916-.9m1.786,2.22-9.654,1a4.682,4.682,0,0,0,5.036,4.216h6.275a1.4,1.4,0,0,1,1.48,1.448v1.239H32.018c-4.344,0-7.964-2.8-7.964-8.576a7.932,7.932,0,0,1,8.318-8.286,7.1,7.1,0,0,1,7.144,5.39c.483,1.963-.6,3.314-2.832,3.572" transform="translate(834.952 475.011)" fill="#f1f1f2"/>
      <path id="Path_3" data-name="Path 3" d="M57.391,14.12c.917,0,1.609.418,1.609,1.352s-.66,1.352-1.609,1.352H50.6c-1.432.113-1.609,1.609-1.48,2.413a1.062,1.062,0,0,0,.37.708,4.489,4.489,0,0,0,2,.644l5.149.9A3.878,3.878,0,0,1,60.367,25.8c0,3.8-2.333,5.213-6.018,5.213H45.79V29.663c0-.933.627-1.368,1.609-1.368h6.774c2.655,0,3.331-.8,3.331-2.253s-.37-1.8-2.14-2.108l-5.213-.853c-2.655-.434-3.8-1.818-3.942-3.588-.209-2.607.869-5.374,4.425-5.374Z" transform="translate(848.194 475.02)" fill="#f1f1f2"/>
      <path id="Path_4" data-name="Path 4" d="M67.023,24.93c0,2.864-1.609,3.894-4.36,3.894-2.478,0-3.894-.885-3.894-2.88a2.944,2.944,0,0,1,2.751-2.687c1.5-.257,3.781-.37,5.5-.756ZM69.935,20.1c0-2.944-.8-5.953-5.149-5.953h-6.13c-.949,0-1.609.434-1.609,1.352s.628,1.368,1.609,1.368h5.7c2.011,0,2.671.467,2.671,1.882v.418c-.113.869-1.094,1.078-1.609,1.191-4.087.965-9.654,0-9.654,5.792,0,3.138,2.655,4.988,6.339,4.988,0,0,3.685.177,5.02-1.609v.145c.1.933.547,1.416,1.48,1.416h1.207Z" transform="translate(854.266 475.039)" fill="#f1f1f2"/>
      <path id="Path_5" data-name="Path 5" d="M80.743,24.93c0,2.864-1.609,3.894-4.36,3.894-2.478,0-3.894-.885-3.894-2.88a2.944,2.944,0,0,1,2.751-2.687c1.5-.274,3.765-.37,5.5-.756ZM83.655,20.1c0-2.944-.8-5.953-5.165-5.953H72.376c-.949,0-1.609.434-1.609,1.352s.627,1.368,1.609,1.368h5.7c2.011,0,2.671.451,2.671,1.882v.418c-.113.869-1.094,1.078-1.609,1.191-4.087.965-9.654-.1-9.654,5.792,0,3.138,2.687,4.988,6.339,4.988,0,0,3.685.177,5.02-1.609v.145c.1.933.531,1.416,1.48,1.416h1.207Z" transform="translate(862.621 475.039)" fill="#f1f1f2"/>
      <path id="Path_6" data-name="Path 6" d="M69.243,11.272H67.634a1.158,1.158,0,0,0-1.271,1.287V32.736h2.912Z" transform="translate(860.718 473.282)" fill="#f1f1f2"/>
      <path id="Path_7" data-name="Path 7" d="M42.864,30.187c-2.22,0-3.041-.113-3.041-1.722V18.522H42.4c.933,0,1.609-.434,1.609-1.352s-.66-1.352-1.609-1.352H39.824V13.052h0V11.33h-1.85A1.126,1.126,0,0,0,36.927,12.6v3.218h-.788c-.933,0-1.609.418-1.609,1.352s.66,1.352,1.609,1.352H36.9V29.093c0,3.556,2.478,3.6,5.937,3.6h1.722V31.539c0-.837-.66-1.352-1.722-1.352" transform="translate(841.337 473.321)" fill="#f1f1f2"/>
      <path id="Path_8" data-name="Path 8" d="M87.574,30.107c-2.2,0-3.025,0-3.025-1.609V18.522h2.574c.917,0,1.609-.434,1.609-1.368S88.057,15.8,87.124,15.8H84.55V13.036h0V11.33H82.7A1.142,1.142,0,0,0,81.637,12.6v3.218h-.788c-.917,0-1.609.434-1.609,1.352s.66,1.368,1.609,1.368h.788V29.093c0,3.572,2.478,3.6,5.937,3.6H89.3V31.539c0-.821-.66-1.352-1.722-1.352" transform="translate(868.565 473.321)" fill="#f1f1f2"/>
      <path id="Path_9" data-name="Path 9" d="M45.24,31V14.123H43.631a1.158,1.158,0,0,0-1.287,1.3V31Z" transform="translate(846.09 475.017)" fill="#f1f1f2"/>
      <path id="Path_10" data-name="Path 10" d="M43.426,14.542c.708,0,1.078,0,1.464-.354s.306-.788.306-1.368V11.34H43.587A1.13,1.13,0,0,0,42.3,12.627v1.915h1.126" transform="translate(846.069 473.327)" fill="#f1f1f2"/>
      <path id="Path_11" data-name="Path 11" d="M82.08,32.4H75.966c-.949,0-1.609.434-1.609,1.352s.627,1.352,1.609,1.352h5.68c2.027,0,2.687.467,2.687,1.883v.434c-.113.869-1.094,1.062-1.609,1.191-4.087.949-9.654-.1-9.654,5.776,0,3.138,2.671,4.988,6.339,4.988,0,0,3.685.177,5.02-1.609v.257c.1.933.531,1.4,1.48,1.4h1.207V38.353C87.229,35.409,86.441,32.4,82.08,32.4Zm2.253,10.828c0,2.88-1.609,3.894-4.376,3.894-2.462,0-3.878-.885-3.878-2.864a2.928,2.928,0,0,1,2.751-2.687c1.5-.274,3.765-.37,5.5-.772Z" transform="translate(864.807 486.152)" fill="#f1f1f2"/>
      <path id="Path_12" data-name="Path 12" d="M86.589,51.157V29.613H84.98A1.158,1.158,0,0,0,83.693,30.9V51.157Z" transform="translate(871.272 484.45)" fill="#f1f1f2"/>
      <path id="Path_13" data-name="Path 13" d="M74.644,48.521c-2.2,0-3.041-.1-3.025-1.706V36.872h2.59c.917,0,1.609-.434,1.609-1.368s-.676-1.352-1.609-1.352H71.6V31.4h0V29.68H69.769a1.142,1.142,0,0,0-1.062,1.271v3.218h-.788c-.917,0-1.609.434-1.609,1.368s.66,1.352,1.609,1.352h.788V47.443c0,3.572,2.478,3.6,5.937,3.6h1.722V49.889C76.366,49.052,75.706,48.521,74.644,48.521Z" transform="translate(860.691 484.496)" fill="#f1f1f2"/>
      <path id="Path_14" data-name="Path 14" d="M51.361,32.474a1.142,1.142,0,0,0-1.287,1.287V49.417h2.9V32.474Z" transform="translate(850.797 486.191)" fill="#f1f1f2"/>
      <path id="Path_15" data-name="Path 15" d="M52.67,32.544a1.883,1.883,0,0,0,.306-1.368v-1.5H51.367a1.13,1.13,0,0,0-1.287,1.287v1.915h1.142C51.914,32.882,52.284,32.9,52.67,32.544Z" transform="translate(850.807 484.496)" fill="#f1f1f2"/>
      <path id="Path_16" data-name="Path 16" d="M64.646,32.474a1.126,1.126,0,0,0-1.271,1.287V49.417h2.912V32.474Z" transform="translate(858.895 486.191)" fill="#f1f1f2"/>
      <path id="Path_17" data-name="Path 17" d="M65.984,32.548a1.882,1.882,0,0,0,.306-1.368v-1.5H64.681a1.142,1.142,0,0,0-1.287,1.287v1.915h1.142A1.909,1.909,0,0,0,65.984,32.548Z" transform="translate(858.908 484.492)" fill="#f1f1f2"/>
      <path id="Path_18" data-name="Path 18" d="M53.7,45.123V43.852h0V29.532H52.094a1.158,1.158,0,0,0-1.271,1.287v6.436a6.9,6.9,0,0,0-3.733-1.062,7.047,7.047,0,0,0-7.417,7.369c0,4.441,2.413,6.9,5.567,7.5a4.183,4.183,0,0,0,.981,0h0s3.411.145,4.827-1.706v.29a1.335,1.335,0,0,0,1.464,1.416h1.223V48.872h0Zm-6.613,3.7H46.8a4.183,4.183,0,0,1-4.569-3.765h0v-2a4.537,4.537,0,0,1,4.827-4.634,3.636,3.636,0,0,1,3.652,2.4,34.9,34.9,0,0,1,.129,4.827C50.534,47.987,49.327,48.663,47.09,48.824Z" transform="translate(844.465 484.402)" fill="#f1f1f2"/>
      <path id="Path_19" data-name="Path 19" d="M66.787,39.706V35.974h0V33.689H65.628c-.949,0-1.384.483-1.48,1.416v.29c-1.335-1.834-4.7-1.706-4.746-1.706h0a5.2,5.2,0,0,0-.981,0c-3.218.6-5.02,3.057-5.02,7.514s2.4,7.482,6.742,7.482a6.693,6.693,0,0,0,3.733-1.078v.354h0v1.8c0,1.384-.8,1.866-2.784,1.866h-5.68a1.4,1.4,0,0,0-1.48,1.448c0,.418,0,1.239,0,1.239h7.691c4.36,0,5.149-3.009,5.149-5.953v-.627h0V40.977h0ZM63.762,44a3.636,3.636,0,0,1-3.652,2.4c-2.8,0-4.28-1.866-4.28-4.634v-2h0a3.7,3.7,0,0,1,4.006-3.765h.29c2.253.161,3.459.885,3.717,3.218A32.18,32.18,0,0,1,63.762,44Z" transform="translate(852.829 486.923)" fill="#f1f1f2"/>
      <path id="Path_20" data-name="Path 20" d="M103.864,49.576a3.878,3.878,0,0,1-1.85-.4c-1.722-.885-2.639-3.395-3.974-7.433A64.827,64.827,0,0,1,94.934,27.26c-.338-5.6,1.609-9.187,5.454-10.378a11.038,11.038,0,0,1,3.6-.531,30.152,30.152,0,0,1,13.049,3.717c6.339,3.218,11.038,7.771,12.244,11.729s-.563,7.482-5.326,10.458a65.742,65.742,0,0,1-13.58,5.712A25.31,25.31,0,0,1,103.864,49.576Zm.129-32.63a10.941,10.941,0,0,0-3.427.483c-4.569,1.416-5.261,6.114-5.052,9.8a64.071,64.071,0,0,0,3.089,14.3c1.287,3.878,2.156,6.307,3.668,7.1a3.427,3.427,0,0,0,1.609.322,25.357,25.357,0,0,0,6.339-1.432,65.581,65.581,0,0,0,13.451-5.792c3.218-1.963,6.581-5.245,5.084-9.766-1.175-3.829-5.76-8.19-11.971-11.392a29.219,29.219,0,0,0-12.791-3.685Zm1.11,31.359a5.277,5.277,0,0,1-2.413-.5C99.7,46.2,97.38,39.1,97.428,31.523a7.3,7.3,0,0,1,7.932-7.771,19.308,19.308,0,0,1,8.528,2.381c5.2,2.687,8.334,6.339,8.608,10.024a7.273,7.273,0,0,1-3.459,6.516c-4.666,3.3-10.281,5.567-13.934,5.567Zm.257-23.958c-4.586,0-7.337,2.671-7.353,7.176,0,7.256,2.188,14.336,4.956,15.768a4.521,4.521,0,0,0,2.14.418c3.54,0,8.994-2.2,13.6-5.519a6.693,6.693,0,0,0,3.218-6c-.257-3.411-3.347-6.983-8.3-9.525a18.519,18.519,0,0,0-8.254-2.381Z" transform="translate(878.099 476.378)" fill="url(#linear-gradient)"/>
      <path id="Path_21" data-name="Path 21" d="M142.232,44.472l.547-1.609a7.337,7.337,0,0,0-.129-4.65c-1.609-5.647-9.654-12.727-20.756-18.471-8.447-4.36-16.685-6.87-22.622-6.87a14.014,14.014,0,0,0-4.457.644A7.289,7.289,0,0,0,91,16.041L89.94,17.425l.547-1.609a7.707,7.707,0,0,1,5.39-5.165,14.014,14.014,0,0,1,4.618-.66c6.018,0,14.368,2.526,22.9,6.935,11.263,5.808,19.308,13.017,21.045,18.809a7.755,7.755,0,0,1-1.142,7.433Zm-42.96-32.18c6.018,0,14.368,2.526,22.9,6.919,11.263,5.824,19.308,13.033,21.045,18.825a8.383,8.383,0,0,1,.45,3.331,7.208,7.208,0,0,0,.225-5.5c-1.609-5.648-9.654-12.727-20.772-18.471-8.447-4.36-16.685-6.87-22.622-6.87a13.934,13.934,0,0,0-4.441.627,7.224,7.224,0,0,0-4.409,3.266,8.318,8.318,0,0,1,2.928-1.609,14.626,14.626,0,0,1,4.7-.579Z" transform="translate(875.081 472.504)" fill="url(#linear-gradient-2)"/>
      <path id="Path_22" data-name="Path 22" d="M100.909,60.433a.837.837,0,0,1-.418-.08c-.5-.257-.692-1.11-1.078-2.816a62.9,62.9,0,0,0-1.8-6.613C96.967,48.735,96,46.1,95,43.3c-1.609-4.666-3.572-9.943-4.827-15.2-1.609-6.436-1.319-11.263.869-14.111l1.11-1.352-.6,1.609c-.917,2.735-.772,6.549.418,11.343a158.078,158.078,0,0,0,4.827,15.157c1,2.8,1.963,5.454,2.607,7.643a62.332,62.332,0,0,1,1.8,6.677,6.1,6.1,0,0,0,.772,2.413.483.483,0,0,0,.161,0,8.673,8.673,0,0,0,2.253-.8,61.991,61.991,0,0,1,6.516-2.4c2.156-.74,4.827-1.5,7.739-2.3a145.61,145.61,0,0,0,15.173-4.827c4.569-1.786,7.739-3.862,9.445-6.162l1.062-1.432-.547,1.609c-1.094,3.427-4.827,6.436-10.973,8.8a156.806,156.806,0,0,1-15.221,4.827c-2.864.8-5.583,1.609-7.723,2.3a64.361,64.361,0,0,0-6.436,2.349A8.319,8.319,0,0,1,100.909,60.433ZM90.515,16.041c-1.158,2.784-1.078,6.758.209,11.906a156.324,156.324,0,0,0,4.827,15.14c1.014,2.816,1.963,5.471,2.623,7.659a66.5,66.5,0,0,1,1.818,6.661,6.339,6.339,0,0,0,.772,2.478h.145a9.654,9.654,0,0,0,2.285-.788,60.678,60.678,0,0,1,6.436-2.381c2.172-.74,4.827-1.5,7.755-2.3a145.609,145.609,0,0,0,15.173-4.827c5.036-2,8.141-4.119,9.75-6.629a25.744,25.744,0,0,1-8.318,4.827c-5.052,1.979-10.458,3.475-15.221,4.827-2.864.8-5.567,1.609-7.723,2.285a61.644,61.644,0,0,0-6.436,2.4,8.431,8.431,0,0,1-2.478.837,1.078,1.078,0,0,1-.434-.113c-.5-.257-.692-1.11-1.062-2.816a59.952,59.952,0,0,0-1.8-6.581C98.19,46.435,97.224,43.8,96.243,41c-1.609-4.666-3.572-9.943-4.827-15.221a25.5,25.5,0,0,1-.9-9.734Z" transform="translate(874.602 474.113)" fill="url(#linear-gradient-3)"/>
      <path id="Path_23" data-name="Path 23" d="M100.183,10.26a15.945,15.945,0,0,0-3.218.29,12.871,12.871,0,0,0-1.368.37,7.466,7.466,0,0,0-5.2,5A7.514,7.514,0,0,1,94.358,13.3a13.692,13.692,0,0,1,4.537-.66c5.937,0,14.207,2.478,22.751,6.9,11.054,5.7,19.211,12.872,20.917,18.648a7.611,7.611,0,0,1,.129,4.827,7.466,7.466,0,0,0,1.094-7.176c-1.706-5.728-9.863-12.872-20.917-18.632-8.56-4.425-16.846-6.935-22.767-6.935" transform="translate(875.361 472.669)" fill="url(#linear-gradient-4)"/>
      <path id="Path_24" data-name="Path 24" d="M91.136,13.79c-2.269,3.009-2.317,7.8-.8,13.837,2.124,8.5,5.776,17.071,7.482,22.8,1.963,5.857,2,8.753,2.687,9.236a.5.5,0,0,0,.274.08c1.014,0,3.54-1.609,8.882-3.218,5.647-1.931,14.77-3.926,22.928-7.112,5.744-2.236,9.654-5.084,10.8-8.608-1.818,2.462-5.149,4.537-9.557,6.259-8.158,3.218-17.28,5.181-22.944,7.1-5.342,1.609-7.868,3.218-8.865,3.218a.434.434,0,0,1-.29,0c-.5-.37-.66-1.947-1.432-4.972-.29-1.191-.692-2.607-1.255-4.28-1.705-5.792-5.39-14.368-7.482-22.864-1.158-4.6-1.384-8.56-.418-11.472Z" transform="translate(874.689 474.819)" fill="url(#linear-gradient-5)"/>
      <path id="Path_25" data-name="Path 25" d="M103.727,16.541a10.732,10.732,0,0,0-3.508.515c-3.99,1.223-5.551,4.923-5.245,10.088a64.1,64.1,0,0,0,3.089,14.481c1.3,3.942,2.2,6.436,3.813,7.273a3.894,3.894,0,0,0,1.738.354A25.036,25.036,0,0,0,110.05,47.8a64.246,64.246,0,0,0,13.532-5.825c4.392-2.735,6.436-6.162,5.2-10.12s-5.792-8.286-12.1-11.552a29.75,29.75,0,0,0-12.872-3.685m1.046,31.23a5.02,5.02,0,0,1-2.285-.451c-2.88-1.48-5.149-8.656-5.117-16.09,0-4.827,3.073-7.466,7.643-7.466a18.68,18.68,0,0,1,8.4,2.349c8.849,4.569,11.118,11.746,5.117,16.09-4.827,3.411-10.249,5.567-13.757,5.567" transform="translate(878.124 476.493)" fill="url(#linear-gradient-6)"/>
    </g>
  </g>
</svg>
