<?xml version="1.0" encoding="UTF-8"?>
<svg width="261px" height="282px" viewBox="0 0 261 282" version="1.1" xmlns="http://www.w3.org/2000/svg" xmlns:xlink="http://www.w3.org/1999/xlink">
    <!-- Generator: Sketch 58 (84663) - https://sketch.com -->
    <title>ic_wavepattern</title>
    <desc>Created with Sketch.</desc>
    <defs>
        <linearGradient x1="37.1967334%" y1="70.2553868%" x2="75.1439522%" y2="5.09310634%" id="linearGradient-1">
            <stop stop-color="#FFFFFF" stop-opacity="0.5" offset="0%"></stop>
            <stop stop-color="#FFFFFF" offset="100%"></stop>
        </linearGradient>
    </defs>
    <g id="Page-1" stroke="none" stroke-width="1" fill="none" fill-rule="evenodd" fill-opacity="0.08">
        <g id="Artboard" fill="url(#linearGradient-1)">
            <path d="M158.474507,265.422713 C171.459183,270.366651 184.551171,275.074714 197.589503,279.914866 C199.113324,280.480966 200.529834,281.30181 202,282 L166.190195,282 C161.565075,279.763906 156.875568,277.612727 152.325566,275.253978 C148.676979,273.357544 145.318133,270.800661 147.925799,266.724743 C150.47981,262.73374 154.4396,263.884809 158.474507,265.422713 Z M151.589736,219.799136 C158.262484,223.451892 164.78695,227.388145 171.607982,230.768308 C195.846598,242.849663 221.362733,251.441818 248.373106,255.825125 C252.604884,256.512061 256.791035,257.471591 261,258.31118 L261,270 C243.571009,266.543511 225.526072,264.7662 208.872716,259.194384 C188.706187,252.46677 169.714518,242.533454 150.24378,233.919492 C148.213439,233.01448 146.354195,231.695127 144.540576,230.408484 C140.993183,227.911525 138.267051,224.803957 141.323969,220.595109 C144.129945,216.724278 147.985311,217.814653 151.589736,219.799136 Z M20.2855032,0 C32.0506412,13.3340946 44.3603564,26.2448846 55.4674636,40.1025402 C72.6216475,61.5239804 86.6558574,84.9728268 98.4323408,109.658168 C128.565616,172.864227 181.378266,207.007085 248.508759,222.869867 C252.661161,223.850151 256.836253,224.774738 261,225.721603 L261,239 C240.113193,232.828665 218.534319,228.317129 198.475723,220.185225 C150.632341,200.780051 113.510324,168.842834 90.3544447,122.769471 C75.855075,93.9179212 60.5501847,65.5342344 39.5499239,40.7486367 C27.3536622,26.3562806 13.2513801,13.5346073 0,0 L20.2855032,0 Z M67.4110466,0 C91.7910079,28.5339145 111.393891,60.0539363 128.051845,93.4540997 C148.036894,133.512177 180.206303,160.718932 221.648865,177.607028 C233.732064,182.528575 246.534635,185.802234 259,189.827949 L259,203 C234.732441,196.928248 211.195493,189.075892 189.591858,176.224571 C159.164677,158.119913 134.616113,134.35271 118.565129,103.020703 C102.176939,71.0251158 84.2488437,40.0691365 61.0041411,12.3315173 C57.4634828,8.10672841 53.6643003,4.10313266 50,0 L67.4110466,0 Z M113.261268,0 C120.823325,11.2419625 128.624185,22.3390832 135.879212,33.7704544 C147.318957,51.7754212 157.348634,70.7385731 169.823187,87.9970468 C191.713355,118.291295 222.370961,137.945231 257.054084,151.883482 C258.270836,152.384858 259.680904,152.451708 261,152.719109 L261,166 C244.158785,158.245386 226.476078,151.838915 210.6583,142.435331 C179.534461,123.928989 157.314519,97.1443721 139.722785,65.9030807 C126.918458,43.1628968 111.339481,21.915699 97,0 L113.261268,0 Z M154.963899,0 C169.802338,24.8592903 181.789424,51.5478063 202.045433,72.953155 C215.309926,86.9507079 230.4335,98.5963992 247.153832,108.162909 C251.636158,110.71928 256.380809,112.809823 261,115.116238 L261,130 C235.474691,117.979374 212.492789,102.447999 192.93251,81.9402202 C177.170233,65.4431044 166.106985,45.9351512 155.192007,26.2454116 C150.299086,17.3946862 145.075408,8.74847055 140,0 L154.963899,0 Z M13.22888,45.7260088 C31.0108975,65.6498381 44.7436522,88.3194725 55.8601271,112.730349 C56.3160762,113.712588 56.4572034,114.839931 57,116.837895 C55.9361186,118.28893 54.915661,121.00125 53.1569999,121.704444 C51.365771,122.407638 48.2935421,121.793738 46.7737115,120.521292 C44.7219403,118.791211 43.321525,116.023083 42.1490843,113.455867 C32.3461772,92.0698404 19.8727107,72.4920271 4.57670174,54.834045 C1.79758301,51.6082822 0.733701624,48.2485776 4.10989664,44.9111967 C7.27982895,41.7635665 10.656024,42.8351002 13.22888,45.7260088 Z M193.501888,0 C209.586352,29.8589043 231.458957,54.5975594 261,72.5018431 L261,87 C243.760173,78.0755053 228.831073,66.1208847 215.567054,52.3304945 C200.717242,36.9144528 188.529297,19.5852294 180,0 L193.501888,0 Z M230.780545,0 C240.194546,9.85858102 249.597273,19.7063758 259,29.5649569 L259,45 C247.139486,33.5450623 235.154955,22.1979866 223.497378,10.5488974 C220.475878,7.51797699 218.469061,3.53787152 216,0 L230.780545,0 Z" id="ic_wavepattern"></path>
        </g>
    </g>
</svg>