<?xml version="1.0" encoding="UTF-8"?>
<svg width="189px" height="202px" viewBox="0 0 189 202" version="1.1" xmlns="http://www.w3.org/2000/svg" xmlns:xlink="http://www.w3.org/1999/xlink">
    <title>wave-graphic-color</title>
    <defs>
        <linearGradient x1="93.3852505%" y1="0%" x2="45.9563856%" y2="55.7518379%" id="linearGradient-1">
            <stop stop-color="#7DA830" offset="0%"></stop>
            <stop stop-color="#7DA830" stop-opacity="0.2" offset="100%"></stop>
        </linearGradient>
    </defs>
    <g id="Page-1" stroke="none" stroke-width="1" fill="none" fill-rule="evenodd" opacity="0.4">
        <g id="Etisalat-Digital---Template-Home" transform="translate(-119.000000, -5018.000000)" fill="url(#linearGradient-1)">
            <g id="Cross-Promo" transform="translate(119.000000, 5018.000000)">
                <g id="Wave-graphic-color" transform="translate(600.500000, 101.000000) scale(-1, 1) translate(-600.500000, -101.000000) ">
                    <path d="M1126.33798,189.919871 C1135.65745,193.522596 1145.05393,196.953435 1154.41191,200.48053 C1155.5056,200.893056 1156.52227,201.491218 1157.57745,202 L1131.87575,202 C1128.55617,200.370523 1125.19038,198.802925 1121.92471,197.084068 C1119.30602,195.702107 1116.89528,193.838865 1118.76688,190.86868 C1120.59996,187.960373 1123.44201,188.799176 1126.33798,189.919871 Z M1121.28338,157.40701 C1126.14516,160.079069 1130.89891,162.958511 1135.86873,165.431162 C1153.52905,174.268897 1172.12018,180.554217 1191.80001,183.760687 C1194.8833,184.263194 1197.93334,184.965108 1201,185.579282 L1201,194.12987 C1188.30119,191.601385 1175.1536,190.301249 1163.01992,186.225362 C1148.32653,181.303988 1134.48915,174.037584 1120.30271,167.736311 C1118.8234,167.074279 1117.46875,166.109147 1116.14734,165.167945 C1113.5627,163.341373 1111.57643,161.068129 1113.80371,157.989279 C1115.84815,155.157695 1118.65718,155.955324 1121.28338,157.40701 Z M1027.46017,-2.98427949e-13 C1035.94209,9.51348488 1044.81661,18.7249544 1052.82413,28.6119846 C1065.1912,43.8955531 1075.30897,60.6256163 1083.79907,78.2378824 C1105.52324,123.333549 1143.5978,147.693475 1191.99461,159.011104 C1194.98823,159.710509 1197.9982,160.370174 1201,161.045735 L1201,170.519481 C1185.94194,166.116414 1170.38495,162.897566 1155.92398,157.095691 C1121.43194,143.25067 1094.66933,120.464403 1077.97542,87.5924118 C1067.5223,67.0076784 1056.48844,46.7567515 1041.34859,29.0729555 C1032.55587,18.8044321 1022.38902,9.65654481 1012.83562,-2.98427949e-13 L1027.46017,-2.98427949e-13 Z M1062.17539,-2.98427949e-13 C1079.67357,20.4653391 1093.74311,43.0723997 1105.69899,67.0279516 C1120.04283,95.7587493 1143.13171,115.272212 1172.87621,127.384837 C1181.54866,130.914712 1190.73742,133.262673 1199.68417,136.150031 L1199.68417,145.597403 C1182.26666,141.242569 1165.37353,135.610634 1149.86799,126.3933 C1128.02955,113.408121 1110.41035,96.3616043 1098.89011,73.8893928 C1087.12785,50.9412432 1074.26035,28.73873 1057.57697,8.84451669 C1055.03574,5.81437734 1052.30896,2.94288403 1049.67899,-2.98427949e-13 L1062.17539,-2.98427949e-13 Z M1094.3172,-2.98427949e-13 C1099.77779,7.99479264 1105.41083,15.88658 1110.64972,24.0160719 C1118.91041,36.8204177 1126.15288,50.3061828 1135.16081,62.5796554 C1150.9678,84.1236011 1173.1058,98.1006221 1198.15064,108.012897 C1199.02926,108.369454 1200.04747,108.416995 1201,108.607158 L1201,118.051948 C1188.83888,112.537205 1176.07012,107.981203 1164.64803,101.293785 C1142.17337,88.1328826 1126.12825,69.0848336 1113.42518,46.867392 C1104.17912,30.6955666 1092.92947,15.5854877 1082.57486,-2.98427949e-13 L1094.3172,-2.98427949e-13 Z M1123.7418,-2.98427949e-13 C1134.55313,18.0596163 1143.28696,37.4481166 1158.04554,52.9985358 C1167.71009,63.1673874 1178.72916,71.6276738 1190.91164,78.5774896 C1194.17748,80.4346257 1197.63444,81.9533503 1201,83.6288997 L1201,94.4415584 C1182.40219,85.7088921 1165.65751,74.4257588 1151.40584,59.5274008 C1139.9214,47.5426828 1131.86069,33.3706713 1123.908,19.0665967 C1120.34301,12.6367791 1116.53702,6.35553225 1112.83907,-2.98427949e-13 L1123.7418,-2.98427949e-13 Z M1022.21073,33.4267723 C1034.97339,47.6515283 1044.82977,63.8366709 1052.80838,81.2649854 C1053.13563,81.9662619 1053.23692,82.771136 1053.6265,84.1975962 C1052.86292,85.2335728 1052.13051,87.1700522 1050.86827,87.6721024 C1049.58265,88.1741526 1047.37763,87.7358548 1046.2868,86.827383 C1044.81419,85.5921801 1043.80907,83.6158554 1042.96758,81.7829737 C1035.93176,66.514272 1026.9792,52.5365566 1016.00082,39.9295179 C1014.00617,37.6264622 1013.24259,35.2277778 1015.66578,32.8450316 C1017.94093,30.5977592 1020.36412,31.3627881 1022.21073,33.4267723 Z M1152.75407,-2.98427949e-13 C1164.25084,21.6085935 1179.88482,39.5117134 1201,52.4688663 L1201,62.961039 C1188.67741,56.5024705 1178.00647,47.8510299 1168.52569,37.8710609 C1157.91142,26.7146241 1149.19979,14.1736367 1143.10327,-2.98427949e-13 L1152.75407,-2.98427949e-13 Z M1178.95925,-2.98427949e-13 C1185.87307,7.18410305 1192.77862,14.360346 1199.68417,21.5444491 L1199.68417,32.7922078 C1190.97357,24.4448145 1182.1719,16.176022 1173.61035,7.68714746 C1171.3913,5.47846808 1169.91746,2.57810263 1168.10413,-2.98427949e-13 L1178.95925,-2.98427949e-13 Z" id="wave-graphic-color" opacity="0.401060268"></path>
                </g>
            </g>
        </g>
    </g>
</svg>