<?xml version="1.0" encoding="UTF-8"?>
<svg width="189px" height="202px" viewBox="0 0 189 202" version="1.1" xmlns="http://www.w3.org/2000/svg" xmlns:xlink="http://www.w3.org/1999/xlink">
    <!-- Generator: sketchtool 54.1 (76490) - https://sketchapp.com -->
    <title>5FF9C59A-F6B6-4B53-A82F-A82AF237EF0F</title>
    <desc>Created with sketchtool.</desc>
    <defs>
        <linearGradient x1="93.3852505%" y1="0%" x2="45.9563856%" y2="55.7518379%" id="linearGradient-1">
            <stop stop-color="#641DA4" offset="0%"></stop>
            <stop stop-color="#7C6D88" offset="100%"></stop>
        </linearGradient>
    </defs>
    <g id="Guidelines" stroke="none" stroke-width="1" fill="none" fill-rule="evenodd" opacity="0.4">
        <g id="B2B-+-B2C-New-Module-Guidelines" transform="translate(-1131.000000, -419.000000)" fill="url(#linearGradient-1)">
            <g id="--buttons--">
                <g id="Text" transform="translate(120.000000, 220.000000)">
                    <g id="Cross-Promo_Need_help" transform="translate(0.000000, 199.000000)">
                        <g id="Wave-graphic-color" transform="translate(600.000000, 101.000000) scale(-1, 1) translate(-600.000000, -101.000000) ">
                            <path d="M119.04013,202 C115.720552,200.370523 112.354761,198.802925 109.089096,197.084068 C106.470403,195.702107 104.059665,193.838865 105.93126,190.86868 C107.764346,187.960373 110.606398,188.799176 113.502364,189.919871 C122.821831,193.522596 132.218319,196.953435 141.576296,200.48053 C142.669985,200.893056 143.686654,201.491218 144.741834,202 L119.04013,202 Z M40.7908804,84.1975962 C40.0273028,85.2335728 39.2948916,87.1700522 38.0326512,87.6721024 C36.7470359,88.1741526 34.5420109,87.7358548 33.4511858,86.827383 C31.9785719,85.5921801 30.9734545,83.6158554 30.1319608,81.7829737 C23.0961389,66.514272 14.1435815,52.5365566 3.1652061,39.9295179 C1.17055449,37.6264622 0.406976922,35.2277778 2.83016696,32.8450316 C5.10531645,30.5977592 7.52850649,31.3627881 9.37511755,33.4267723 C22.1377712,47.6515283 31.9941551,63.8366709 39.9727615,81.2649854 C40.3000091,81.9662619 40.4013,82.771136 40.7908804,84.1975962 Z M186.848549,32.7922078 C178.137957,24.4448145 169.336284,16.176022 160.774733,7.68714746 C158.555684,5.47846808 157.081839,2.57810263 155.268512,0 L166.123632,0 C173.037458,7.18410305 179.943003,14.360346 186.848549,21.5444491 L186.848549,32.7922078 Z M139.918455,0 C151.415219,21.6085935 167.0492,39.5117134 188.164384,52.4688663 L188.164384,62.961039 C175.841795,56.5024705 165.170855,47.8510299 155.690073,37.8710609 C145.075806,26.7146241 136.364174,14.1736367 130.26765,0 L139.918455,0 Z M188.164384,194.12987 C175.465572,191.601385 162.317981,190.301249 150.1843,186.225362 C135.490911,181.303988 121.653529,174.037584 107.467095,167.736311 C105.987783,167.074279 104.633132,166.109147 103.311725,165.167945 C100.727084,163.341373 98.7408175,161.068129 100.968096,157.989279 C103.012538,155.157695 105.821568,155.955324 108.447762,157.40701 C113.309545,160.079069 118.063289,162.958511 123.033111,165.431162 C140.693435,174.268897 159.284561,180.554217 178.964394,183.760687 C182.047679,184.263194 185.09772,184.965108 188.164384,185.579282 L188.164384,194.12987 Z M110.906187,0 C121.717514,18.0596163 130.451339,37.4481166 145.209923,52.9985358 C154.874469,63.1673874 165.893547,71.6276738 178.076027,78.5774896 C181.341862,80.4346257 184.798828,81.9533503 188.164384,83.6288997 L188.164384,94.4415584 C169.566573,85.7088921 152.821895,74.4257588 138.570222,59.5274008 C127.085783,47.5426828 119.02507,33.3706713 111.072387,19.0665967 C107.507391,12.6367791 103.701405,6.35553225 100.003449,0 L110.906187,0 Z M81.4815813,0 C86.9421774,7.99479264 92.5752133,15.88658 97.8141009,24.0160719 C106.074792,36.8204177 113.317267,50.3061828 122.325197,62.5796554 C138.132186,84.1236011 160.270181,98.1006221 185.31502,108.012897 C186.193642,108.369454 187.211859,108.416995 188.164384,108.607158 L188.164384,118.051948 C176.003267,112.537205 163.234505,107.981203 151.812416,101.293785 C129.337752,88.1328826 113.292632,69.0848336 100.589562,46.867392 C91.3434999,30.6955666 80.0938509,15.5854877 69.7392471,0 L81.4815813,0 Z M49.3397732,0 C66.8379565,20.4653391 80.9074962,43.0723997 92.863378,67.0279516 C107.207209,95.7587493 130.296098,115.272212 160.04059,127.384837 C168.713041,130.914712 177.901806,133.262673 186.848549,136.150031 L186.848549,145.597403 C169.431039,141.242569 152.537911,135.610634 137.032375,126.3933 C115.193932,113.408121 97.5747376,96.3616043 86.0544952,73.8893928 C74.292231,50.9412432 61.4247333,28.73873 44.7413571,8.84451669 C42.2001272,5.81437734 39.4733471,2.94288403 36.8433758,0 L49.3397732,0 Z M14.6245563,0 C23.1064718,9.51348488 31.9809928,18.7249544 39.9885099,28.6119846 C52.3555844,43.8955531 62.4733563,60.6256163 70.9634511,78.2378824 C92.6876242,123.333549 130.762182,147.693475 179.158994,159.011104 C182.152611,159.710509 185.162587,160.370174 188.164384,161.045735 L188.164384,170.519481 C173.106325,166.116414 157.549331,162.897566 143.08836,157.095691 C108.596328,143.25067 81.8337169,120.464403 65.1398022,87.5924118 C54.6866798,67.0076784 43.6528283,46.7567515 28.5129772,29.0729555 C19.720249,18.8044321 9.55340143,9.65654481 0,0 L14.6245563,0 Z" id="wave-graphic-color-copy" opacity="0.401060268" transform="translate(94.082192, 101.000000) scale(-1, -1) translate(-94.082192, -101.000000) "></path>
                        </g>
                    </g>
                </g>
            </g>
        </g>
    </g>
</svg>