<?xml version="1.0" encoding="UTF-8"?>
<svg width="665px" height="685px" viewBox="0 0 665 685" version="1.1" xmlns="http://www.w3.org/2000/svg" xmlns:xlink="http://www.w3.org/1999/xlink">
    <!-- Generator: sketchtool 58 (101010) - https://sketch.com -->
    <title>5A970355-E4B5-44EF-99A4-D96C62A85A07</title>
    <desc>Created with sketchtool.</desc>
    <defs>
        <linearGradient x1="35.9135961%" y1="70.2553868%" x2="97.1229154%" y2="1.11022302e-14%" id="linearGradient-1">
            <stop stop-color="#F7F8F4" stop-opacity="0.4" offset="0%"></stop>
            <stop stop-color="#F7F8F4" offset="100%"></stop>
        </linearGradient>
    </defs>
    <g id="Investor" stroke="none" stroke-width="1" fill="none" fill-rule="evenodd">
        <g id="Subscription-Overlay" transform="translate(-775.000000, -123.000000)" fill="url(#linearGradient-1)">
            <g id="Overlay">
                <g id="texture_right" transform="translate(775.000000, 123.000000)">
                    <path d="M386.044376,558.017236 C403.057412,567.256859 419.69238,577.213588 437.083484,585.763687 C498.882973,616.323396 563.939659,638.057197 632.806101,649.144745 C643.595565,650.882346 654.2687,653.309471 665,655.433205 L665,685 C620.562532,676.256834 574.55463,671.761137 532.094746,657.667263 C480.67757,640.649808 432.255853,615.523548 382.612687,593.734586 C377.436071,591.445366 372.695687,588.108069 368.071631,584.853515 C359.027094,578.537474 352.076469,570.676899 359.870475,560.030646 C367.024675,550.239404 376.854429,552.9975 386.044376,558.017236 Z M51.6852858,0 C81.6615953,33.8329747 113.025429,66.5918866 141.325147,101.753307 C185.032167,156.106532 220.789828,215.603952 250.795045,278.238766 C327.571398,438.613284 462.132363,525.244919 633.173658,565.494005 C643.753532,567.981308 654.391219,570.327287 665,572.729796 L665,606.421446 C611.782656,590.762743 556.802,579.315496 505.694849,558.682186 C383.795045,509.444892 289.212128,428.409688 230.213432,311.506444 C193.270593,238.300593 154.275375,166.281863 100.768963,103.392666 C69.6941969,66.8745347 33.763095,34.3417412 0,0 L51.6852858,0 Z M171.091812,0 C233.069924,72.5134318 282.903869,152.615478 325.251292,237.495542 C376.05677,339.295406 457.837017,408.43612 563.191234,451.353954 C593.908832,463.861115 626.455199,472.180486 658.14433,482.411063 L658.14433,515.885287 C596.451963,500.455103 536.61694,480.499856 481.696733,447.840706 C404.345535,401.831215 341.938806,341.431461 301.134406,261.807216 C259.472771,180.496612 213.896428,101.82797 154.804342,31.3381692 C145.803371,20.6016843 136.145187,10.4273191 126.829897,0 L171.091812,0 Z M289.813923,0 C309.017951,28.4587193 328.828423,56.5507752 347.252739,85.4889774 C376.304248,131.068056 401.774854,179.072754 433.454282,222.762106 C489.044892,299.451162 566.900623,349.204563 654.979251,384.488862 C658.069223,385.758081 661.650124,385.92731 665,386.604227 L665,420.224439 C622.231328,400.593846 577.325667,384.376042 537.156037,360.571127 C458.116298,313.722829 401.688219,245.918309 357.013584,166.831838 C324.496687,109.265687 284.9335,55.47899 248.518041,0 L289.813923,0 Z M394.647241,0 C432.479761,63.0447435 463.042389,130.72852 514.687704,185.013847 C548.507244,220.512533 587.066753,250.046748 629.697402,274.308025 C641.125673,280.791145 653.222774,286.092897 665,291.942112 L665,329.688279 C599.919923,299.203207 541.32459,259.814649 491.453128,207.805617 C451.265163,165.967881 423.05798,116.494469 395.228832,66.5600354 C382.753697,44.1140321 369.435254,22.1866785 356.494845,0 L394.647241,0 Z M35.1988576,116.223238 C80.0830362,166.628722 114.746337,223.980843 142.805799,285.738149 C143.956675,288.223125 144.312899,291.0752 145.68299,296.129868 C142.997611,299.800855 140.421841,306.662778 135.982746,308.441795 C131.461446,310.220813 123.706731,308.667702 119.870477,305.448529 C114.691533,301.071582 111.156698,294.068467 108.197302,287.573643 C83.4534599,233.468934 51.9687705,183.93884 13.3596082,139.265745 C6.34474269,131.104857 3.65936448,122.605109 12.18133,114.161838 C20.182661,106.198619 28.7046266,108.909502 35.1988576,116.223238 Z M493.613041,0 C534.453699,76.2156513 589.991242,139.36173 665,185.062893 L665,222.069825 C621.225717,199.289814 583.318684,168.775326 549.639521,133.574986 C511.933815,94.2251274 480.98695,49.9918216 459.329897,0 L493.613041,0 Z M587.871914,0 C611.886532,25.0739582 635.87239,50.1204832 659.858247,75.1944414 L659.858247,114.451372 C629.602705,85.3172976 599.030802,56.4575558 569.29294,26.8296839 C561.585254,19.1209506 556.46597,8.99809441 550.167526,0 L587.871914,0 Z" id="Fill" transform="translate(332.500000, 342.500000) scale(1, -1) translate(-332.500000, -342.500000) "></path>
                </g>
            </g>
        </g>
    </g>
</svg>