<?xml version="1.0" encoding="UTF-8" standalone="no"?>
<svg width="60px" height="46px" viewBox="0 0 60 46" version="1.1" xmlns="http://www.w3.org/2000/svg" xmlns:xlink="http://www.w3.org/1999/xlink" xmlns:sketch="http://www.bohemiancoding.com/sketch/ns">
    <!-- Generator: sketchtool 3.5.2 (25235) - http://www.bohemiancoding.com/sketch -->
    <title>eLife</title>
    <desc>Created with sketchtool.</desc>
    <defs>
        <path id="path-1" d="M0,0 L60,0 L60,48 L0,48 L0,0 Z"></path>
    </defs>
    <g id="05---Context-Navi" stroke="none" stroke-width="1" fill="none" fill-rule="evenodd" sketch:type="MSPage">
        <g id="ICONs-context-navi---Consumer" sketch:type="MSArtboardGroup" transform="translate(-570.000000, -805.000000)">
            <g id="-05--Context-navigation-HOME" sketch:type="MSLayerGroup" transform="translate(0.000000, 776.000000)">
                <g id="eLife-ICON" transform="translate(570.000000, 18.000000)">
                    <g id="eLife" transform="translate(0.000000, 11.000000)">
                        <g id="Page-1">
                            <path d="M59,35 C59,36.1 58.1,37 57,37 L3,37 C1.9,37 1,36.1 1,35 L1,3 C1,1.9 1.9,1 3,1 L57,1 C58.1,1 59,1.9 59,3 L59,35 L59,35 Z" id="Stroke-1" stroke="#719E19" stroke-width="2" sketch:type="MSShapeGroup"></path>
                            <mask id="mask-2" sketch:name="Clip 4" fill="white">
                                <use xlink:href="#path-1"></use>
                            </mask>
                            <g id="Clip-4"></g>
                            <path d="M27,37 L27,43" id="Stroke-5" stroke="#719E19" stroke-width="2" sketch:type="MSShapeGroup" mask="url(#mask-2)"></path>
                            <path d="M33,37 L33,43" id="Stroke-6" stroke="#719E19" stroke-width="2" sketch:type="MSShapeGroup" mask="url(#mask-2)"></path>
                            <path d="M49.0293,45 C44.0333,42.519 37.3493,43 30.0003,43 C22.6503,43 15.9663,42.519 10.9703,45" id="Stroke-7" stroke="#719E19" stroke-width="2" stroke-linecap="round" stroke-linejoin="round" sketch:type="MSShapeGroup" mask="url(#mask-2)"></path>
                        </g>
                        <g id="logotype" transform="translate(15.000000, 5.000000)">
                            <g id="Group-3" transform="translate(5.749674, 9.324009)"></g>
                            <path d="M9.83267952,22.6117361 C9.3371275,22.6117361 8.91463764,22.5336137 8.59189351,22.3686193 C7.02709271,21.5730212 5.78694202,17.730651 5.80854301,13.7807844 C5.8193435,11.2027465 7.47944276,9.7827945 9.96800334,9.7827945 C11.2964639,9.7827945 12.8631707,10.1884058 14.539153,11.040252 C19.3523609,13.4845444 20.5912409,17.3275396 17.3231389,19.6280869 C14.7316559,21.4574001 11.7399195,22.6117361 9.83267952,22.6117361" id="Fill-1" stroke="#719E19" sketch:type="MSShapeGroup"></path>
                            <path d="M5.12379177,1.68450559 C4.18033697,1.68450559 3.34679306,1.79700179 2.64984362,2.03199385 C1.71337737,2.31010946 1.00372147,2.78759332 0.496733633,3.43632141 C-0.0394790639,5.00126854 0.0894915254,7.11494713 0.719732041,9.59548833 C1.87474944,14.1459596 3.86585203,18.7439293 4.79532973,21.8113256 C5.86648447,24.9549694 5.87347303,26.5624151 6.28770369,26.773033 C6.32899969,26.7936573 6.37855489,26.8049069 6.43763994,26.8049069 C6.98401781,26.8049069 8.35695103,25.9643103 11.2635542,25.0980896 C14.3461419,24.0668744 19.3099213,23.0019104 23.7514651,21.2957181 C26.1504451,20.3726242 27.9668338,19.2626617 28.9598438,17.9414564 C29.2171497,17.1477332 29.2088905,16.2883872 28.8912289,15.3590436 C27.9636572,12.2903973 23.5246547,8.42990271 17.5119569,5.37563089 C12.8594858,3.01258572 8.35313909,1.68450559 5.12379177,1.68450559 M9.15809345,23.2919006 C8.793418,23.2919006 8.48338032,23.2319026 8.21781527,23.0975322 C7.33471616,22.6506723 6.84932931,21.3169673 6.13840276,19.2026638 C5.49291449,17.1202341 4.62379249,14.2547059 4.45479655,11.4941742 C4.28770657,8.73051755 5.14412211,6.74370967 7.30803259,6.08935678 C7.86330498,5.90686294 8.50879325,5.81874092 9.22289641,5.81874092 C11.2108224,5.81874092 13.7241606,6.50809263 16.2527465,7.79242424 C19.6879385,9.53611533 22.1961941,11.8985355 22.8454943,13.9797152 C23.5557855,16.0946438 22.4020388,17.9327067 20.0144946,19.3964072 C17.628221,20.8607327 14.7495721,21.8238252 12.6504645,22.511302 C11.1371249,22.9687865 10.0037085,23.2919006 9.15809345,23.2919006" id="Fill-6" stroke="#719E19" sketch:type="MSShapeGroup"></path>
                        </g>
                    </g>
                </g>
            </g>
        </g>
    </g>
</svg>