<?xml version="1.0" encoding="UTF-8" standalone="no"?>
<svg width="60px" height="53px" viewBox="0 0 60 53" version="1.1" xmlns="http://www.w3.org/2000/svg" xmlns:xlink="http://www.w3.org/1999/xlink" xmlns:sketch="http://www.bohemiancoding.com/sketch/ns">
    <!-- Generator: sketchtool 3.5.2 (25235) - http://www.bohemiancoding.com/sketch -->
    <title>logotype</title>
    <desc>Created with sketchtool.</desc>
    <defs></defs>
    <g id="05---Context-Navi" stroke="none" stroke-width="1" fill="none" fill-rule="evenodd" sketch:type="MSPage">
        <g id="ICONs-context-navi---Consumer" sketch:type="MSArtboardGroup" transform="translate(-570.000000, -959.000000)">
            <g id="-05--Context-navigation-HOME-2" sketch:type="MSLayerGroup" transform="translate(0.000000, 936.000000)">
                <g id="eLife-2-ICON" transform="translate(570.000000, 18.000000)">
                    <g id="logotype" transform="translate(1.000000, 3.000000)">
                        <g id="Group-3" transform="translate(11.307692, 18.461538)"></g>
                        <path d="M19.3376031,44.7712375 C18.3630174,44.7712375 17.5321207,44.6165552 16.8973906,44.2898662 C13.819949,42.7145819 11.380986,35.106689 11.4234679,27.2859532 C11.4447089,22.1814381 14.7095708,19.3699331 19.6037399,19.3699331 C22.2163791,19.3699331 25.2975691,20.1730435 28.5936677,21.859699 C38.059643,26.699398 40.4961071,34.3085284 34.0688398,38.863612 C28.9722567,42.4856522 23.0885083,44.7712375 19.3376031,44.7712375" id="Fill-1" stroke="#719E19" stroke-width="2" sketch:type="MSShapeGroup"></path>
                        <path d="M10.0767905,3.33532107 C8.22132937,3.33532107 6.58202635,3.55806355 5.21135912,4.02334783 C3.36964216,4.57401672 1.97398555,5.51943478 0.976909477,6.80391639 C-0.0776421589,9.90251171 0.176,14.0875953 1.41547301,18.9990669 C3.68700722,28.009 7.60284233,37.1129799 9.43081513,43.1864247 C11.5374195,49.4108395 11.5511636,52.5935819 12.3658173,53.0106054 C12.4470327,53.0514415 12.5444913,53.0737157 12.6606919,53.0737157 C13.735235,53.0737157 16.435337,51.4093344 22.1516566,49.6942174 C28.214079,47.6524114 37.9761785,45.5437826 46.7112146,42.1655217 C51.4292087,40.337796 55.0014399,38.1400702 56.9543595,35.5240836 C57.4603944,33.9525117 57.4441513,32.2510067 56.8194169,30.4109064 C54.9951925,24.3349866 46.2651543,16.6912074 34.4401819,10.6437492 C25.2903221,5.96491973 16.4278402,3.33532107 10.0767905,3.33532107 M18.0109171,46.1179632 C17.2937221,46.1179632 16.6839813,45.9991672 16.1617034,45.7331137 C14.4249418,44.8483311 13.4703476,42.2075953 12.0721921,38.0212742 C10.8027318,33.8980635 9.09345856,28.2243177 8.76109987,22.7584649 C8.43248959,17.2864247 10.1167735,13.3525452 14.3724641,12.0569264 C15.4644998,11.6955886 16.7339601,11.521107 18.1383629,11.521107 C22.0479507,11.521107 26.9908491,12.8860234 31.9637348,15.429 C38.7196124,18.8815084 43.6525151,23.5591003 44.9294722,27.6798361 C46.3263782,31.8673946 44.057343,35.5067592 39.3618394,38.4048863 C34.6688347,41.3042508 29.0074917,43.2111739 24.8792469,44.5723779 C21.9030123,45.4781973 19.6739601,46.1179632 18.0109171,46.1179632" id="Fill-6" stroke="#719E19" stroke-width="2" sketch:type="MSShapeGroup"></path>
                    </g>
                </g>
            </g>
        </g>
    </g>
</svg>