<?xml version="1.0" encoding="UTF-8" standalone="no"?>
<svg width="60px" height="57px" viewBox="0 0 60 57" version="1.1" xmlns="http://www.w3.org/2000/svg" xmlns:xlink="http://www.w3.org/1999/xlink" xmlns:sketch="http://www.bohemiancoding.com/sketch/ns">
    <!-- Generator: sketchtool 3.5.2 (25235) - http://www.bohemiancoding.com/sketch -->
    <title>Mobile solutions</title>
    <desc>Created with sketchtool.</desc>
    <defs></defs>
    <g id="05---Context-Navi" stroke="none" stroke-width="1" fill="none" fill-rule="evenodd" sketch:type="MSPage">
        <g id="ICONs-context-navi---Consumer" sketch:type="MSArtboardGroup" transform="translate(-930.000000, -573.000000)" stroke="#719E19" stroke-width="2">
            <g id="-05--Context-navigation-MOBILE" sketch:type="MSLayerGroup" transform="translate(0.000000, 552.000000)">
                <g id="Mobile-Solutions-ICON" transform="translate(930.000000, 18.000000)" sketch:type="MSShapeGroup">
                    <g id="Mobile-solutions" transform="translate(1.000000, 4.000000)">
                        <path d="M16.3570112,24.3460983 C13.4997039,27.2896662 11.660522,31.2283318 11.403,35.593 C5.517,34.364 0,38.843 0,44.847 C0,54.455 10.087,54.304 10.087,54.304 L46.652,54.304 C46.652,54.304 58,52.827 58,41.695 C58,30.8896336 46.6520004,30.8896336 46.6520004,30.8896336 C46.6520004,30.8896336 45.505073,22.6031765 42.5078046,22.6031765" id="Page-1"></path>
                        <g id="Page-1" transform="translate(16.000000, 0.000000)" stroke-linecap="round" stroke-linejoin="round">
                            <path d="M12.9423077,27.3846622 L16.0576923,27.3846622" id="Stroke-1"></path>
                            <g id="Group-16">
                                <path d="M13.9807692,30.4704808 L15.0192308,30.4704808" id="Stroke-2"></path>
                                <path d="M22.8076923,14.2379793 C22.8076923,9.5591479 19.0884423,5.76567255 14.5,5.76567255 C9.91155769,5.76567255 6.19230769,9.5591479 6.19230769,14.2379793 C6.19230769,18.1839562 8.84142308,21.4908034 12.4230769,22.432818 L12.4230769,24.2988436 L16.5769231,24.2988436 L16.5769231,22.432818 C20.1585769,21.4908034 22.8076923,18.1839562 22.8076923,14.2379793 L22.8076923,14.2379793 Z" id="Stroke-4"></path>
                                <path d="M0,13.7084601 L2.07692308,13.7084601" id="Stroke-6"></path>
                                <path d="M3.11538462,3.17711503 L5.71153846,5.82471089" id="Stroke-8"></path>
                                <path d="M14.5,0 L14.5,2.11807669" id="Stroke-10"></path>
                                <path d="M25.8846154,3.17711503 L23.2884615,5.82471089" id="Stroke-12"></path>
                                <path d="M29,13.7084601 L26.9230769,13.7084601" id="Stroke-14"></path>
                            </g>
                        </g>
                    </g>
                </g>
            </g>
        </g>
    </g>
</svg>