<?xml version="1.0" encoding="UTF-8" standalone="no"?>
<svg width="48px" height="60px" viewBox="0 0 48 60" version="1.1" xmlns="http://www.w3.org/2000/svg" xmlns:xlink="http://www.w3.org/1999/xlink" xmlns:sketch="http://www.bohemiancoding.com/sketch/ns">
    <!-- Generator: sketchtool 3.5.2 (25235) - http://www.bohemiancoding.com/sketch -->
    <title>mobile plans</title>
    <desc>Created with sketchtool.</desc>
    <defs></defs>
    <g id="05---Context-Navi" stroke="none" stroke-width="1" fill="none" fill-rule="evenodd" sketch:type="MSPage">
        <g id="ICONs-context-navi---Consumer" sketch:type="MSArtboardGroup" transform="translate(-816.000000, -1338.000000)" stroke-linecap="round" stroke="#719E19" stroke-width="2">
            <g id="-05--Context-navigation-My-Etisalat-Copy" sketch:type="MSLayerGroup" transform="translate(0.000000, 1320.000000)">
                <g id="Mobile-Plans-ICON" transform="translate(810.000000, 18.000000)" sketch:type="MSShapeGroup">
                    <g id="mobile-plans" transform="translate(7.000000, 1.000000)">
                        <path d="M28,35 L28,53 C27.739,55.785 25.785,58 23,58 L5,58 C2.215,58 0,55.742 0,52.956 L0,15 C0,12.215 2.215,10 5,10 L20.5547466,10" id="Stroke-1"></path>
                        <path d="M14,20 L0,20" id="Stroke-3"></path>
                        <path d="M28,48 L0,48" id="Stroke-5"></path>
                        <path d="M10,15 L14,15" id="Stroke-7"></path>
                        <path d="M15.1299,52.9565 C15.1299,53.6535 14.5669,54.2175 13.8689,54.2175 C13.1719,54.2175 12.6089,53.6535 12.6089,52.9565 C12.6089,52.2595 13.1719,51.6955 13.8689,51.6955 C14.5669,51.6955 15.1299,52.2595 15.1299,52.9565 L15.1299,52.9565 Z" id="Stroke-17"></path>
                        <path d="M25,19 L25,25" id="Stroke-5" stroke-linejoin="round"></path>
                        <path d="M39,4 L39,10" id="Stroke-6" stroke-linejoin="round"></path>
                        <path d="M32,22 C32,25.866 28.866,29 25,29 C21.133,29 18,25.866 18,22 C18,18.134 21.133,15 25,15 C28.866,15 32,18.134 32,22 L32,22 Z" id="Stroke-7" stroke-linejoin="round"></path>
                        <path d="M46,7 C46,10.866 42.866,14 39,14 C35.133,14 32,10.866 32,7 C32,3.134 35.133,0 39,0 C42.866,0 46,3.134 46,7 L46,7 Z" id="Stroke-8" stroke-linejoin="round"></path>
                    </g>
                </g>
            </g>
        </g>
    </g>
</svg>