<?xml version="1.0" encoding="UTF-8" standalone="no"?>
<svg width="36px" height="60px" viewBox="0 0 36 60" version="1.1" xmlns="http://www.w3.org/2000/svg" xmlns:xlink="http://www.w3.org/1999/xlink" xmlns:sketch="http://www.bohemiancoding.com/sketch/ns">
    <!-- Generator: sketchtool 3.5.2 (25235) - http://www.bohemiancoding.com/sketch -->
    <title>offers</title>
    <desc>Created with sketchtool.</desc>
    <defs></defs>
    <g id="05---Context-Navi" stroke="none" stroke-width="1" fill="none" fill-rule="evenodd" sketch:type="MSPage">
        <g id="ICONs-context-navi---Consumer" sketch:type="MSArtboardGroup" transform="translate(-1062.000000, -1178.000000)" stroke="#719E19" stroke-width="2" stroke-linecap="round" stroke-linejoin="round">
            <g id="-05--Context-navigation-My-Etisalat" sketch:type="MSLayerGroup" transform="translate(0.000000, 1160.000000)">
                <g id="Offers-ICON" transform="translate(1050.000000, 18.000000)" sketch:type="MSShapeGroup">
                    <g id="offers" transform="translate(13.000000, 1.000000)">
                        <path d="M28,23 C28,21.342 26.656,20 25,20 C23.343,20 22,21.342 22,23 L22,25 C22,27.764 19.762,30 17,30 C14.238,30 12,27.764 12,25 L12,23 C12,21.342 10.656,20 9,20 C7.343,20 6,21.342 6,23 C6,24.656 4.656,26 3,26 C1.343,26 0,24.656 0,23 L0,17 C0,7.611 7.611,0 17,0 C26.389,0 34,7.611 34,17 L34,23 C34,24.656 32.656,26 31,26 C29.343,26 28,24.656 28,23 L28,23 Z" id="Stroke-1"></path>
                        <path d="M5.7285,24.2383 L16.9995,58.0003 L28.2695,24.2383" id="Stroke-3"></path>
                    </g>
                </g>
            </g>
        </g>
    </g>
</svg>