<?xml version="1.0" encoding="UTF-8" standalone="no"?>
<svg width="54px" height="60px" viewBox="0 0 54 60" version="1.1" xmlns="http://www.w3.org/2000/svg" xmlns:xlink="http://www.w3.org/1999/xlink" xmlns:sketch="http://www.bohemiancoding.com/sketch/ns">
    <!-- Generator: sketchtool 3.5.2 (25235) - http://www.bohemiancoding.com/sketch -->
    <title>Offers 2</title>
    <desc>Created with sketchtool.</desc>
    <defs></defs>
    <g id="05---Context-Navi" stroke="none" stroke-width="1" fill="none" fill-rule="evenodd" sketch:type="MSPage">
        <g id="ICONs-context-navi---Consumer" sketch:type="MSArtboardGroup" transform="translate(-1053.000000, -1338.000000)" stroke="#719E19" stroke-width="2" stroke-linejoin="round">
            <g id="-05--Context-navigation-My-Etisalat-Copy" sketch:type="MSLayerGroup" transform="translate(0.000000, 1320.000000)">
                <g id="Offers-2-ICON" transform="translate(1050.000000, 18.000000)" sketch:type="MSShapeGroup">
                    <g id="Offers-2" transform="translate(4.000000, 1.000000)">
                        <path d="M26,15 L26,0" id="Stroke-1" stroke-linecap="round"></path>
                        <path d="M32,15 C41.523,17.088 49.907,11.523 52,2 C42.478,-0.088 34.089,5.477 32,15 L32,15 Z" id="Stroke-3"></path>
                        <path d="M0,2 C9.523,-0.088 17.911,5.477 20,15 C20,15 2.092,11.523 0,2 Z" id="Stroke-5"></path>
                        <path d="M31,25 C31,27.762 28.762,30 26,30 C23.238,30 21,27.762 21,25 C21,22.238 23.238,20 26,20 C28.762,20 31,22.238 31,25 L31,25 Z" id="Stroke-7"></path>
                        <path d="M31,53 C31,55.762 28.762,58 26,58 C23.238,58 21,55.762 21,53 C21,50.238 23.238,48 26,48 C28.762,48 31,50.238 31,53 L31,53 Z" id="Stroke-9"></path>
                        <path d="M46,27 C46,29.762 43.762,32 41,32 C38.238,32 36,29.762 36,27 C36,24.238 38.238,22 41,22 C43.762,22 46,24.238 46,27 L46,27 Z" id="Stroke-11"></path>
                        <path d="M16,27 C16,29.762 13.762,32 11,32 C8.238,32 6,29.762 6,27 C6,24.238 8.238,22 11,22 C13.762,22 16,24.238 16,27 L16,27 Z" id="Stroke-13"></path>
                        <path d="M24,39 C24,41.762 21.762,44 19,44 C16.238,44 14,41.762 14,39 C14,36.238 16.238,34 19,34 C21.762,34 24,36.238 24,39 L24,39 Z" id="Stroke-15"></path>
                        <path d="M38,39 C38,41.762 35.762,44 33,44 C30.238,44 28,41.762 28,39 C28,36.238 30.238,34 33,34 C35.762,34 38,36.238 38,39 L38,39 Z" id="Stroke-17"></path>
                    </g>
                </g>
            </g>
        </g>
    </g>
</svg>