<?xml version="1.0" encoding="UTF-8" standalone="no"?>
<svg width="36px" height="60px" viewBox="0 0 36 60" version="1.1" xmlns="http://www.w3.org/2000/svg" xmlns:xlink="http://www.w3.org/1999/xlink" xmlns:sketch="http://www.bohemiancoding.com/sketch/ns">
    <!-- Generator: sketchtool 3.5.2 (25235) - http://www.bohemiancoding.com/sketch -->
    <title>Page 1</title>
    <desc>Created with sketchtool.</desc>
    <defs></defs>
    <g id="05---Context-Navi" stroke="none" stroke-width="1" fill="none" fill-rule="evenodd" sketch:type="MSPage">
        <g id="ICONs-context-navi---Consumer" sketch:type="MSArtboardGroup" transform="translate(-462.000000, -570.000000)" stroke-linecap="round" stroke="#353738" stroke-width="2">
            <g id="-05--Context-navigation-MOBILE" sketch:type="MSLayerGroup" transform="translate(0.000000, 552.000000)">
                <g id="Mobile-Devices-ICON" transform="translate(450.000000, 18.000000)" sketch:type="MSShapeGroup">
                    <g id="Page-1" transform="translate(13.000000, 1.000000)">
                        <path d="M34,53 C34,55.75 31.75,58 29,58 L5,58 C2.25,58 0,55.75 0,53 L0,5 C0,2.25 2.25,0 5,0 L29,0 C31.75,0 34,2.25 34,5 L34,53 L34,53 Z" id="Stroke-1"></path>
                        <path d="M0,10 L34,10" id="Stroke-3"></path>
                        <path d="M0,48 L34,48" id="Stroke-5"></path>
                        <path d="M10,6 L24,6" id="Stroke-7"></path>
                        <path d="M19,53 C19,54.104 18.105,55 17,55 C15.896,55 15,54.104 15,53 C15,51.895 15.896,51 17,51 C18.105,51 19,51.895 19,53 L19,53 Z" id="Stroke-9"></path>
                    </g>
                </g>
            </g>
        </g>
    </g>
</svg>