<?xml version="1.0" encoding="UTF-8" standalone="no"?>
<svg width="60px" height="57px" viewBox="0 0 60 57" version="1.1" xmlns="http://www.w3.org/2000/svg" xmlns:xlink="http://www.w3.org/1999/xlink" xmlns:sketch="http://www.bohemiancoding.com/sketch/ns">
    <!-- Generator: sketchtool 3.5.2 (25235) - http://www.bohemiancoding.com/sketch -->
    <title>Pay bill</title>
    <desc>Created with sketchtool.</desc>
    <defs></defs>
    <g id="05---Context-Navi" stroke="none" stroke-width="1" fill="none" fill-rule="evenodd" sketch:type="MSPage">
        <g id="ICONs-context-navi---Consumer" sketch:type="MSArtboardGroup" transform="translate(-810.000000, -1180.000000)" stroke="#719E19" stroke-width="2" stroke-linejoin="round">
            <g id="-05--Context-navigation-My-Etisalat" sketch:type="MSLayerGroup" transform="translate(0.000000, 1160.000000)">
                <g id="Pay-Bill-ICON" transform="translate(810.000000, 18.000000)" sketch:type="MSShapeGroup">
                    <g id="Pay-bill" transform="translate(1.000000, 3.000000)">
                        <path d="M10,51.036 L0,51.036 L0,33.036 L10,33.036 L10,51.036 Z" id="Stroke-1"></path>
                        <path d="M10,48.8813 C36.301,57.6483 27.942,58.0663 58,43.0363 C55.338,40.3753 53.234,39.3273 50.486,40.1133 L39.663,43.7033" id="Stroke-3" stroke-linecap="round"></path>
                        <path d="M10,35.0361 L18,35.0361 C23.895,35.0361 27.748,38.0301 29,39.0231 C32.336,39.0521 32.597,39.0231 37,39.0231 C40.974,39.0231 40.974,45.0361 37,45.0361 L23,45.0361" id="Stroke-4" stroke-linecap="round"></path>
                        <path d="M30,22.0361 L30,28.0361" id="Stroke-5" stroke-linecap="round"></path>
                        <path d="M42,4.0361 L42,10.0361" id="Stroke-6" stroke-linecap="round"></path>
                        <path d="M37,25.0361 C37,28.9021 33.866,32.0361 30,32.0361 C26.133,32.0361 23,28.9021 23,25.0361 C23,21.1701 26.133,18.0361 30,18.0361 C33.866,18.0361 37,21.1701 37,25.0361 L37,25.0361 Z" id="Stroke-7" stroke-linecap="round"></path>
                        <path d="M49,7.0361 C49,10.9021 45.866,14.0361 42,14.0361 C38.133,14.0361 35,10.9021 35,7.0361 C35,3.1701 38.133,0.0361 42,0.0361 C45.866,0.0361 49,3.1701 49,7.0361 L49,7.0361 Z" id="Stroke-8" stroke-linecap="round"></path>
                    </g>
                </g>
            </g>
        </g>
    </g>
</svg>