<?xml version="1.0" encoding="UTF-8" standalone="no"?>
<svg width="60px" height="60px" viewBox="0 0 60 60" version="1.1" xmlns="http://www.w3.org/2000/svg" xmlns:xlink="http://www.w3.org/1999/xlink" xmlns:sketch="http://www.bohemiancoding.com/sketch/ns">
    <!-- Generator: sketchtool 3.5.2 (25235) - http://www.bohemiancoding.com/sketch -->
    <title>Register</title>
    <desc>Created with sketchtool.</desc>
    <defs></defs>
    <g id="05---Context-Navi" stroke="none" stroke-width="1" fill="none" fill-rule="evenodd" sketch:type="MSPage">
        <g id="ICONs-context-navi---Consumer" sketch:type="MSArtboardGroup" transform="translate(-330.000000, -1178.000000)" stroke="#719E19" stroke-width="2">
            <g id="-05--Context-navigation-My-Etisalat" sketch:type="MSLayerGroup" transform="translate(0.000000, 1160.000000)">
                <g id="REGISTER-2-ICON" transform="translate(330.000000, 18.000000)" sketch:type="MSShapeGroup">
                    <g id="Register" transform="translate(1.000000, 1.000000)">
                        <path d="M58,46 C58,52.628 52.626,58 46,58 C39.372,58 34,52.628 34,46 C34,39.373 39.372,34 46,34 C52.626,34 58,39.373 58,46 L58,46 Z" id="Stroke-1"></path>
                        <path d="M46,39.6958 L46,52.3038" id="Stroke-3" stroke-linecap="round" stroke-linejoin="round"></path>
                        <path d="M52.3047,46 L39.6957,46" id="Stroke-5" stroke-linecap="round" stroke-linejoin="round"></path>
                        <path d="M33.957,32.2334 C31.997,31.5854 30.145,30.8094 28,30.0004 L28,24.0004 C28,24.0004 31.521,22.2144 31.521,16.2114 C33.494,16.2114 33.494,10.9874 31.521,10.9874 C31.521,10.3984 33.611,6.9354 32.782,3.6024 C31.588,-1.2006 17.585,-1.2006 16.391,3.6024 C10.418,2.4024 13.87,10.3634 13.87,11.1684 C11.895,11.1684 11.895,16.2114 13.87,16.2114 C13.87,22.2144 18,25.0004 18,25.0004 L18,30.0004 C10.994,32.6624 2.3,34.5084 1.261,37.6464 C0.066,41.2494 0,48.0004 0,48.0004 L26,48.0004" id="Stroke-7" stroke-linejoin="round"></path>
                    </g>
                </g>
            </g>
        </g>
    </g>
</svg>