<?xml version="1.0" encoding="UTF-8" standalone="no"?>
<svg width="60px" height="60px" viewBox="0 0 60 60" version="1.1" xmlns="http://www.w3.org/2000/svg" xmlns:xlink="http://www.w3.org/1999/xlink" xmlns:sketch="http://www.bohemiancoding.com/sketch/ns">
    <!-- Generator: sketchtool 3.5.2 (25235) - http://www.bohemiancoding.com/sketch -->
    <title>USAGE</title>
    <desc>Created with sketchtool.</desc>
    <defs></defs>
    <g id="05---Context-Navi" stroke="none" stroke-width="1" fill="none" fill-rule="evenodd" sketch:type="MSPage">
        <g id="ICONs-context-navi---Consumer" sketch:type="MSArtboardGroup" transform="translate(-570.000000, -1338.000000)" stroke="#719E19" stroke-width="2" stroke-linecap="round" stroke-linejoin="round">
            <g id="-05--Context-navigation-My-Etisalat-Copy" sketch:type="MSLayerGroup" transform="translate(0.000000, 1320.000000)">
                <g id="Usage-ICON" transform="translate(570.000000, 18.000000)" sketch:type="MSShapeGroup">
                    <g id="USAGE" transform="translate(1.000000, 1.000000)">
                        <path d="M32,26 L58,26 C58,11.642 46.359,0 32,0 L32,26 L32,26 Z" id="Stroke-1"></path>
                        <path d="M26,32 L26,32 L26,6 C11.641,6 0,17.642 0,32 C0,46.359 11.641,58 26,58 C33.18,58 39.68,55.09 44.385,50.385 L26,32 L26,32 Z" id="Stroke-3"></path>
                        <path d="M50.3848,48.3848 C55.0898,43.6798 57.9998,37.1798 57.9998,29.9998 L31.9998,29.9998 L50.3848,48.3848 L50.3848,48.3848 Z" id="Stroke-5"></path>
                    </g>
                </g>
            </g>
        </g>
    </g>
</svg>