<?xml version="1.0" encoding="UTF-8"?>
<svg width="48px" height="48px" viewBox="0 0 48 48" version="1.1" xmlns="http://www.w3.org/2000/svg" xmlns:xlink="http://www.w3.org/1999/xlink">
    <title>B2550729-3F69-4431-A051-9384864317F8</title>
    <g id="Page-1" stroke="none" stroke-width="1" fill="none" fill-rule="evenodd" stroke-linecap="round" stroke-linejoin="round">
        <g id="Features-Module--Guidelines" transform="translate(-2175.000000, -1518.000000)" stroke="#242424">
            <g id="Features-2-Copy-3" transform="translate(1137.000000, 1084.000000)">
                <g id="cloudsecurity" transform="translate(1038.000000, 434.000000)">
                    <g id="Group" transform="translate(16.500000, 18.750000)">
                        <path d="M7.5,13.125 C7.5,13.332375 7.332,13.5 7.125,13.5 C6.917625,13.5 6.75,13.332375 6.75,13.125 C6.75,12.917625 6.917625,12.75 7.125,12.75 C7.332,12.75 7.5,12.917625 7.5,13.125 L7.5,13.125 Z" id="Line"></path>
                        <line x1="7.125" y1="12.75" x2="7.125" y2="15.75" id="Line"></line>
                        <polygon id="Line" points="0 20.25 14.25 20.25 14.25 8.25 0 8.25"></polygon>
                        <path d="M11.875,8.25 L11.875,5.15625 C11.875,2.523125 9.8125,0 7.0625,0 C4.3125,0 2.25,2.523125 2.25,5.15625 L2.25,8.25" id="Line"></path>
                    </g>
                    <path d="M35.25,33.000196 L38.25,33.000196 C42.75,32.3090504 45,29.3596696 45,24.1520538 C45,19.2029008 40.7324138,15.1336908 35.4287069,15.3203454 C33.355,11.1311432 28.910819,7.5 23.75,7.5 C16.8657328,7.5 11.2557328,13.3766117 10.8556466,19.870226 C6.54262931,19.0078258 2.5,22.15078 2.5,26.3638404 C2.5,33.1058596 9.89133621,32.9999016 9.89133621,32.9999016 L12,33.000196" id="line"></path>
                </g>
            </g>
        </g>
    </g>
</svg>