<?xml version="1.0" encoding="UTF-8"?>
<svg width="48px" height="48px" viewBox="0 0 48 48" version="1.1" xmlns="http://www.w3.org/2000/svg" xmlns:xlink="http://www.w3.org/1999/xlink">
    <title>AF392D7A-0047-44EF-AFCF-4837D5C6CF20</title>
    <g id="Page-1" stroke="none" stroke-width="1" fill="none" fill-rule="evenodd">
        <g id="Features-Module--Guidelines" transform="translate(-1563.000000, -367.000000)">
            <g id="Features" transform="translate(1135.000000, 207.000000)">
                <rect id="Rectangle" fill="none" x="0" y="0" width="1444" height="722"></rect>
                <g id="cloudassessment" transform="translate(428.000000, 160.000000)" stroke="#000000">
                    <g id="Group" transform="translate(3.000000, 11.250000)">
                        <path d="M42,16.6520538 C42,11.7029008 37.7826207,7.63369083 32.5413103,7.8203454 C30.492,3.63114316 26.1001034,0 21,0 C14.1967241,0 8.65272414,5.8766117 8.25734483,12.370226 C3.99506897,11.5078258 0,14.65078 0,18.8638404 C0,25.6058596 7.30437931,25.5 7.30437931,25.5 L33.7824828,25.5 C33.7824828,25.5 42,24.4634775 42,16.6520538 Z" id="line"></path>
                    </g>
                    <g id="Group-4" transform="translate(17.250000, 17.240189)">
                        <path d="M6.5153976,12.7699427 C10.1137523,12.7699427 13.0307952,9.91129366 13.0307952,6.38497136 C13.0307952,2.85864905 10.1137523,0 6.5153976,0 C2.91704286,0 0,2.85864905 0,6.38497136 C0,9.91129366 2.91704286,12.7699427 6.5153976,12.7699427 Z" id="Oval"></path>
                        <line x1="11.3328431" y1="11.0285869" x2="17.2559318" y2="16.8331063" id="Path-60" stroke-linecap="round"></line>
                    </g>
                </g>
            </g>
        </g>
    </g>
</svg>