 <!--?xml version="1.0" encoding="UTF-8"?-->
                                        <svg width="48px" height="48px" viewBox="0 0 48 48" version="1.1" xmlns="http://www.w3.org/2000/svg" xmlns:xlink="http://www.w3.org/1999/xlink">
                                            <title>E2BCA978-0F84-435D-A580-E986D016E460</title>
                                            <g id="✅-Done-" stroke="none" stroke-width="1" fill="none" fill-rule="evenodd">
                                                <g id="ED_Cloud-Adoption-&amp;-Migration_Desktop" transform="translate(-748.000000, -2591.000000)">
                                                    <g id="Group-4" transform="translate(-0.000000, 2271.000000)">
                                                        <g id="Approach-1.1" transform="translate(732.000000, 304.000000)">
                                                            <g id="Icons-/-Round-/-Icon-Default" transform="translate(16.000000, 16.000000)">
                                                                <circle id="Oval" fill="#F0F5E8" cx="24" cy="24" r="24"></circle>
                                                                <g id="Icons-/-Shield---Security" transform="translate(9.000000, 11.142857)" stroke="#719E19" stroke-linecap="round" stroke-linejoin="round">
                                                                    <line x1="30" y1="2.94642857" x2="22.2321429" y2="2.94642857" id="Path-40"></line>
                                                                    <polyline id="Path-56" points="25.3392857 0 21.9642857 2.94642857 25.3392857 5.89285714"></polyline>
                                                                    <line x1="18.3760608" y1="9.91071429" x2="11.196959" y2="9.91071429" id="Path-40-Copy" transform="translate(14.946959, 9.955357) scale(-1, 1) translate(-14.946959, -9.955357) "></line>
                                                                    <polyline id="Path-56-Copy" transform="translate(16.893564, 9.910714) scale(-1, 1) translate(-16.893564, -9.910714) " points="18.75 6.96428571 15.0371287 9.91071429 18.75 12.8571429"></polyline>
                                                                    <path d="M30,15.6443242 C30,12.1092149 26.9875862,9.20263631 23.2437931,9.335961 C21.78,6.34367369 18.642931,3.75 15,3.75 C10.1405172,3.75 6.18051724,7.94757979 5.89810345,12.5858757 C2.85362069,11.9698756 0,14.2148429 0,17.2241717 C0,22.0398997 5.21741379,21.9642857 5.21741379,21.9642857 L24.1303448,21.9642857 C24.1303448,21.9642857 30,21.2239125 30,15.6443242 Z" id="line"></path>
                                                                </g>
                                                            </g>
                                                        </g>
                                                    </g>
                                                </g>
                                            </g>
                                        </svg>