<?xml version="1.0" encoding="UTF-8"?>
<svg width="48px" height="48px" viewBox="0 0 48 48" version="1.1" xmlns="http://www.w3.org/2000/svg" xmlns:xlink="http://www.w3.org/1999/xlink">
    <title>5D09A357-A99F-49B8-B6A9-27E4DC05F684</title>
    <g id="Page-1" stroke="none" stroke-width="1" fill="none" fill-rule="evenodd">
        <g id="Features-Module--Guidelines" transform="translate(-1257.000000, -1518.000000)">
            <g id="Features-2-Copy-3" transform="translate(1137.000000, 1084.000000)">
                <g id="cloudmanagement" transform="translate(120.000000, 434.000000)">
                    <g id="Group" transform="translate(15.000000, 7.500000)" stroke="#000000" stroke-linecap="round" stroke-linejoin="round">
                        <g id="Group-2">
                            <path d="M17.25,9.51724138 L17.25,7.13793103 L14.8144784,7.13793103 C14.6613103,6.51068534 14.4013707,5.86470259 14.062319,5.30883621 L15.7843448,3.58681034 L13.6625948,1.46565517 L11.9402716,3.18738362 C11.3844052,2.8483319 10.4466595,2.50006034 10.112069,2.43522414 L10.112069,0 L7.13793103,0 L7.13793103,2.43522414 C6.75218534,2.51879741 5.86440517,2.8483319 5.30913362,3.18738362 L3.58651293,1.46565517 L1.46506034,3.58681034 L3.18708621,5.30943103 C2.84803448,5.86470259 2.52325862,6.77092241 2.43403448,7.13793103 L0,7.13793103 L0,9.51724138 L2.43403448,9.51724138 C2.55567672,10.4234612 2.84803448,11.3852974 3.18708621,11.940569 L1.46446552,13.6631897 L3.58651293,15.7843448 L5.30853879,14.0617241 C5.86440517,14.4016681 6.84943966,14.6580388 7.13793103,14.8153707 L7.13793103,17.25 L10.112069,17.25 L10.112069,14.8153707 C10.4002629,14.6580388 11.3852974,14.4016681 11.9402716,14.0626164 L13.6631897,15.7843448 L15.7843448,13.6631897 L14.062319,11.940569 C14.4013707,11.3852974 14.6577414,10.9953879 14.8153707,9.51724138 L17.25,9.51724138 Z" id="Line"></path>
                            <path d="M12.075,8.625 C12.075,10.5303409 10.5303409,12.075 8.625,12.075 C6.71934545,12.075 5.175,10.5303409 5.175,8.625 C5.175,6.71965909 6.71934545,5.175 8.625,5.175 C10.5303409,5.175 12.075,6.71965909 12.075,8.625 L12.075,8.625 Z" id="Line"></path>
                        </g>
                    </g>
                    <path d="M45,19.6520538 C45,14.7029008 40.7324138,10.6336908 35.4287069,10.8203454 C33.355,6.63114316 28.910819,3 23.75,3 C16.8657328,3 11.2557328,8.8766117 10.8556466,15.370226 C6.54262931,14.5078258 2.5,17.65078 2.5,21.8638404 C2.5,28.6058596 9.89133621,28.5 9.89133621,28.5 L36.6846552,28.5 C36.6846552,28.5 45,27.4634775 45,19.6520538 Z" id="line" stroke="#242424" stroke-linecap="round" stroke-linejoin="round"></path>
                    <g id="Group-2" transform="translate(34.875000, 33.750000) rotate(90.000000) translate(-34.875000, -33.750000) translate(30.000000, 30.375000)" stroke="#000000">
                        <path d="M0,6.75 L4.75,6.75 C5.8545695,6.75 6.75,5.8545695 6.75,4.75 L6.75,0 L6.75,0" id="Path-39"></path>
                        <polyline id="Path-55" points="9.75 3.375 6.75 0 3.375 3.375"></polyline>
                    </g>
                    <g id="Group-2-Copy-2" transform="translate(24.916667, 36.187500) rotate(90.000000) translate(-24.916667, -36.187500) translate(17.604167, 32.645833)" stroke="#000000">
                        <line x1="0" y1="3.70833333" x2="14.625" y2="3.70833333" id="Path-39"></line>
                        <polyline id="Path-55" transform="translate(12.750000, 3.541667) rotate(90.000000) translate(-12.750000, -3.541667) " points="16.2916667 5.41666667 12.9583333 1.66666667 9.20833333 5.41666667"></polyline>
                    </g>
                    <g id="Group-2-Copy" transform="translate(15.375000, 33.750000) scale(-1, 1) rotate(90.000000) translate(-15.375000, -33.750000) translate(10.500000, 30.375000)" stroke="#000000">
                        <path d="M0,6.75 L4.75,6.75 C5.8545695,6.75 6.75,5.8545695 6.75,4.75 L6.75,0 L6.75,0" id="Path-39"></path>
                        <polyline id="Path-55" points="9.75 3.375 6.75 0 3.375 3.375"></polyline>
                    </g>
                </g>
            </g>
        </g>
    </g>
</svg>