<?xml version="1.0" encoding="UTF-8"?>
<svg width="48px" height="48px" viewBox="0 0 48 48" version="1.1" xmlns="http://www.w3.org/2000/svg" xmlns:xlink="http://www.w3.org/1999/xlink">
    <title>77183B00-8759-4CCE-91E8-3144A8CC3D58</title>
    <g id="Components" stroke="none" stroke-width="1" fill="none" fill-rule="evenodd">
        <g id="Features-Module" transform="translate(-120.000000, -1205.000000)">
            <g id="Group-3-Copy-9" transform="translate(0.000000, 1061.000000)">
                <g id="Group-5" transform="translate(120.000000, 144.000000)">
                    <g id="Group-16" transform="translate(6.000000, 10.500000)">
                        <path d="M18.5990117,18.75 L2.28,18.75 C1.02079077,18.75 0,17.7426407 0,16.5 L0,2.25 C0,1.00735931 1.02079077,0 2.28,0 L26.22,0 C27.4792092,0 28.5,1.00735931 28.5,2.25 L28.5,4.95807815" id="Path" stroke="#4B0F1E" stroke-width="1.5" stroke-linecap="round"></path>
                        <path d="M28.0136364,7.8 C27.7702273,7.8 27.4456818,7.8821256 27.2022727,7.96425121 L20.4679545,10.4280193 C20.1434091,10.5101449 19.9,10.8386473 19.9,11.1671498 L19.9,13.3024155 C19.9,18.8869565 24.6870455,24.8 28.0136364,24.8 C31.3402273,24.8 36.1272727,18.8869565 36.1272727,13.3024155 L36.1272727,11.1671498 C36.1272727,10.8386473 35.8838636,10.5101449 35.5593182,10.4280193 L28.825,7.96425121 C28.5815909,7.8 28.2570455,7.8 28.0136364,7.8 Z" id="Path-Copy-36" stroke="#E00800" stroke-width="1.5" fill-rule="nonzero"></path>
                        <line x1="0.191326531" y1="15.375" x2="17.6062257" y2="15.375" id="Line-2" stroke="#4B0F1E" stroke-width="1.5" stroke-linecap="round"></line>
                        <g id="Group-4" transform="translate(23.000000, 12.000000)" stroke="#E00800" stroke-linecap="round" stroke-linejoin="round" stroke-width="1.3">
                            <line x1="5.4375" y1="3.9375" x2="-1.6875" y2="3.9375" id="Path-40" transform="translate(1.875000, 3.937500) rotate(-90.000000) translate(-1.875000, -3.937500) "></line>
                            <polyline id="Path-56" transform="translate(1.875000, 0.937500) rotate(90.000000) translate(-1.875000, -0.937500) " points="2.8125 -0.9375 0.9375 0.9375 2.8125 2.8125"></polyline>
                        </g>
                        <g id="Group-4-Copy" transform="translate(30.375000, 15.750000) scale(1, -1) translate(-30.375000, -15.750000) translate(28.500000, 12.000000)" stroke="#E00800" stroke-linecap="round" stroke-linejoin="round" stroke-width="1.3">
                            <line x1="5.4375" y1="3.93750782" x2="-1.6875" y2="3.93749218" id="Path-40" transform="translate(1.875000, 3.937500) rotate(-90.000000) translate(-1.875000, -3.937500) "></line>
                            <polyline id="Path-56" transform="translate(1.875000, 0.937500) rotate(90.000000) translate(-1.875000, -0.937500) " points="2.8125 -0.9375 0.9375 0.9375 2.8125 2.8125"></polyline>
                        </g>
                        <line x1="6.19318182" y1="22.875" x2="17.3129532" y2="22.875" id="Line-3" stroke="#4B0F1E" stroke-width="1.5" stroke-linecap="round"></line>
                        <line x1="10.125" y1="18.9375" x2="10.125" y2="22.3125" id="Line-3-Copy" stroke="#4B0F1E" stroke-width="1.5" stroke-linecap="round"></line>
                    </g>
                </g>
            </g>
        </g>
    </g>
</svg>