<?xml version="1.0" encoding="UTF-8"?>
<svg width="48px" height="48px" viewBox="0 0 48 48" version="1.1" xmlns="http://www.w3.org/2000/svg" xmlns:xlink="http://www.w3.org/1999/xlink">
    <title>FF4999E1-D683-48B3-8BD6-A6396B840D0A</title>
    <g id="Page-1" stroke="none" stroke-width="1" fill="none" fill-rule="evenodd">
        <g id="Features-Module--Guidelines" transform="translate(-1867.000000, -1518.000000)">
            <g id="Features" transform="translate(1137.000000, 1084.000000)">
                <rect id="Rectangle" fill="none" x="0" y="0" width="1440" height="722"></rect>
                <g id="disasterrecovery" transform="translate(730.000000, 434.000000)" stroke="#000000" stroke-linecap="round" stroke-linejoin="round">
                    <g id="Group" transform="translate(3.423810, 2.571429)">
                        <path d="M29.9583333,6.42857143 C29.9583333,9.97907143 23.2520356,12.8571429 14.9791667,12.8571429 C6.70629774,12.8571429 0,9.97907143 0,6.42857143 C0,2.87807143 6.70629774,0 14.9791667,0 C23.2520356,0 29.9583333,2.87807143 29.9583333,6.42857143 L29.9583333,6.42857143 Z" id="Line"></path>
                        <path d="M29.9583333,12.8571429 C29.9583333,16.6443429 23.2520356,19.7142857 14.9791667,19.7142857 C6.70629774,19.7142857 0,16.6443429 0,12.8571429" id="Line"></path>
                        <path d="M29.9583333,18 C29.9583333,21.7872 23.2520356,24.8571429 14.9791667,24.8571429 C6.70629774,24.8571429 0,21.7872 0,18" id="Line"></path>
                        <path d="M0,6 L0,24.6428571 C0,28.0750071 6.70629774,30.8571429 14.9791667,30.8571429 C23.2520356,30.8571429 29.9583333,28.0750071 29.9583333,24.6428571 L29.9583333,6" id="Line"></path>
                        <path d="M27.6326903,34.2857143 C26.954185,35.0218888 26.5345238,35.9604438 26.5345238,36.952967 C26.5345238,39.184059 28.6550847,41.1428571 31.0707861,41.1428571 L37.6619048,41.1428571" id="Line"></path>
                        <polyline id="Line" points="35.95 43.7142857 38.5178571 41.1428571 35.95 38.5714286"></polyline>
                        <path d="M40.8435001,38.5714286 C41.5220054,37.8352541 41.9416667,36.8966991 41.9416667,35.9041759 C41.9416667,33.6730839 39.8208408,31.7142857 37.4054044,31.7142857 L30.8142857,31.7142857" id="Line"></path>
                        <polyline id="Line" points="33.3821429 29.1428571 30.8142857 31.7142857 33.3821429 34.2857143"></polyline>
                    </g>
                </g>
            </g>
        </g>
    </g>
</svg>