<?xml version="1.0" encoding="utf-8"?>
<!-- Generator: Adobe Illustrator 20.1.0, SVG Export Plug-In . SVG Version: 6.00 Build 0)  -->
<svg version="1.1" id="Layer_1" xmlns="http://www.w3.org/2000/svg" xmlns:xlink="http://www.w3.org/1999/xlink" x="0px" y="0px"
	 viewBox="0 0 32 32" style="enable-background:new 0 0 32 32;" xml:space="preserve">
<title>FB_no_bk</title>
<desc>Created with Sketch.</desc>
<g id="Page-1_1_">
	<g id="FACEBOOK_no_bk" transform="translate(-12.000000, -5.000000)">
		<g id="FB_no_bk" transform="translate(12.000000, 5.000000)">
			<g id="Layer_1_1_">
				<g id="_x31_4---Footer_1_">
					<g id="_x31_4---Footer---Desktop_x5F_A">
						<g id="_x31_4---Footer">
							<g id="SOCIAL">
								<g id="Group">
									<g id="Social-bubbles">
										<g id="FB">
											<g id="Page-1">
												<path id="Fill-1" d="M23.5,1h-3.8c-4.3,0-7.2,2.9-7.2,7.4v3.4H8.5c-0.3,0-0.6,0.2-0.6,0.6v4.9c0,0.3,0.3,0.6,0.6,0.6
													h3.9v12.4c0,0.3,0.3,0.6,0.6,0.6h5.1c0.3,0,0.6-0.3,0.6-0.6V18h4.5c0.3,0,0.6-0.3,0.6-0.6v-4.9c0-0.2-0.1-0.3-0.2-0.4
													c-0.1-0.1-0.2-0.2-0.4-0.2h-4.5V8.9c0-1.4,0.3-2.1,2.1-2.1h2.6c0.3,0,0.6-0.2,0.6-0.6V1.6C24.1,1.2,23.8,1,23.5,1"/>
											</g>
										</g>
									</g>
								</g>
							</g>
						</g>
					</g>
				</g>
			</g>
		</g>
	</g>
</g>
</svg>
