<!--?xml version="1.0" encoding="UTF-8"?-->
                        <svg width="48px" height="48px" viewBox="0 0 48 48" version="1.1" xmlns="http://www.w3.org/2000/svg" xmlns:xlink="http://www.w3.org/1999/xlink">
                            <title>2EB38E4C-6060-4875-9380-9F567BE638FD</title>
                            <g id="Page-1" stroke="none" stroke-width="1" fill="none" fill-rule="evenodd" stroke-linecap="round" stroke-linejoin="round">
                                <g id="Features-Module--Guidelines" transform="translate(-1231.000000, -2329.000000)" stroke="#000000">
                                    <g id="Group-3" transform="translate(1081.000000, 2169.000000)">
                                        <g id="cloudStrategy" transform="translate(150.000000, 160.000000)">
                                            <g id="Group-2" transform="translate(14.250000, 18.750000)">
                                                <path d="M21,11.5862069 L21,8.68965517 L18.0350172,8.68965517 C17.8485517,7.92605172 17.5321034,7.13963793 17.1193448,6.46293103 L19.2157241,4.36655172 L16.6327241,1.78427586 L14.5359828,3.8802931 C13.8592759,3.46753448 12.7176724,3.04355172 12.3103448,2.96462069 L12.3103448,0 L8.68965517,0 L8.68965517,2.96462069 C8.22005172,3.06636207 7.13927586,3.46753448 6.4632931,3.8802931 L4.36618966,1.78427586 L1.78355172,4.36655172 L3.87993103,6.46365517 C3.46717241,7.13963793 3.0717931,8.24286207 2.96317241,8.68965517 L0,8.68965517 L0,11.5862069 L2.96317241,11.5862069 C3.11125862,12.689431 3.46717241,13.8603621 3.87993103,14.5363448 L1.78282759,16.6334483 L4.36618966,19.2157241 L6.46256897,17.1186207 C7.13927586,17.5324655 8.33844828,17.844569 8.68965517,18.0361034 L8.68965517,21 L12.3103448,21 L12.3103448,18.0361034 C12.6611897,17.844569 13.8603621,17.5324655 14.5359828,17.1197069 L16.6334483,19.2157241 L19.2157241,16.6334483 L17.1193448,14.5363448 C17.5321034,13.8603621 17.8442069,13.3856897 18.0361034,11.5862069 L21,11.5862069 Z" id="Line"></path>
                                                <path d="M14.625,10.5 C14.625,12.778125 12.778125,14.625 10.5,14.625 C8.2215,14.625 6.375,12.778125 6.375,10.5 C6.375,8.221875 8.2215,6.375 10.5,6.375 C12.778125,6.375 14.625,8.221875 14.625,10.5 L14.625,10.5 Z" id="Line"></path>
                                            </g>
                                            <path d="M35.25,32.250196 L38.25,32.250196 C42.75,31.5590504 45,28.6096696 45,23.4020538 C45,18.4529008 40.7324138,14.3836908 35.4287069,14.5703454 C33.355,10.3811432 28.910819,6.75 23.75,6.75 C16.8657328,6.75 11.2557328,12.6266117 10.8556466,19.120226 C6.54262931,18.2578258 2.5,21.40078 2.5,25.6138404 C2.5,32.3558596 9.89133621,32.2499016 9.89133621,32.2499016 L14.25,32.250196" id="line"></path>
                                        </g>
                                    </g>
                                </g>
                            </g>
                        </svg>