<?xml version="1.0" encoding="UTF-8"?>
<svg width="48px" height="48px" viewBox="0 0 48 48" version="1.1" xmlns="http://www.w3.org/2000/svg" xmlns:xlink="http://www.w3.org/1999/xlink">
    <!-- Generator: Sketch 58 (84663) - https://sketch.com -->
    <title>ic_dynamicConnectivity</title>
    <desc>Created with Sketch.</desc>
    <g id="Page-1" stroke="none" stroke-width="1" fill="none" fill-rule="evenodd">
        <g id="1.2_expoLanding_detailsOverlay" transform="translate(-145.000000, -170.000000)">
            <g id="Group-11">
                <g id="Group-10" transform="translate(145.000000, 170.000000)">
                    <g id="ic_dynamicConnectivity">
                        <path d="M24,7.28306304e-13 C10.744,7.28306304e-13 0,10.7453333 0,24 L0,24 C0,36.3946667 9.39733333,46.596 21.4573333,47.8666667 L21.4573333,47.8666667 L26.5426667,47.8666667 C37.9346667,46.6666667 46.952,37.496 47.9146667,26.0346667 L47.9146667,26.0346667 L47.9146667,21.964 C46.8813333,9.66133333 36.5693333,7.28306304e-13 24,7.28306304e-13 Z" id="Clip-2276" fill="#719E19"></path>
                        <path d="M20.4093333,7.98533333 C18.084,8.94933333 16.252,10.78 15.292,13.108 L15.292,13.108 C14.328,15.4373333 14.328,17.9826667 15.292,20.312 L15.292,20.312 C16.78,23.8506667 20.1933333,26.148 24.008,26.148 L24.008,26.148 C25.2493333,26.148 26.4613333,25.9 27.6066667,25.4346667 L27.6066667,25.4346667 C29.9333333,24.472 31.7346667,22.672 32.6946667,20.3453333 L32.6946667,20.3453333 C33.6573333,18.0146667 33.6573333,15.4693333 32.6946667,13.14 L32.6946667,13.14 C31.2373333,9.56933333 27.8253333,7.272 24.008,7.272 L24.008,7.272 C22.768,7.272 21.5573333,7.52133333 20.4093333,7.98533333 L20.4093333,7.98533333 Z M24.536,8.668 C25.9,9.01066667 27.172,10.624 27.888,12.7653333 L27.888,12.7653333 L24.536,12.7653333 L24.536,8.668 Z M23.4506667,8.668 L23.4506667,12.7653333 L20.1306667,12.7653333 C20.8453333,10.624 22.0853333,9.01066667 23.4506667,8.668 L23.4506667,8.668 Z M26.8626667,8.85466667 C28.7546667,9.56933333 30.3693333,10.9346667 31.36,12.7653333 L31.36,12.7653333 L29.0346667,12.7653333 C28.5693333,11.2146667 27.8253333,9.82 26.8626667,8.85466667 L26.8626667,8.85466667 Z M20.8133333,9.01066667 C20.9373333,8.94933333 21.0306667,8.91733333 21.1546667,8.88666667 L21.1546667,8.88666667 C20.224,9.848 19.48,11.2466667 18.9826667,12.7973333 L18.9826667,12.7973333 L16.6253333,12.7973333 C17.556,11.06 19.0133333,9.75466667 20.8133333,9.01066667 L20.8133333,9.01066667 Z M29.592,16.7106667 C29.592,15.7786667 29.468,14.7853333 29.2826667,13.8533333 L29.2826667,13.8533333 L31.8266667,13.8533333 C32.5106667,15.7173333 32.5106667,17.704 31.8266667,19.5666667 L31.8266667,19.5666667 L29.252,19.5666667 C29.468,18.604 29.592,17.6413333 29.592,16.7106667 L29.592,16.7106667 Z M24.536,13.8533333 L28.1973333,13.8533333 C28.4146667,14.7533333 28.5386667,15.7173333 28.5386667,16.7106667 L28.5386667,16.7106667 C28.5386667,17.6413333 28.384,18.604 28.1346667,19.5666667 L28.1346667,19.5666667 L24.536,19.5666667 L24.536,13.8533333 Z M19.48,16.7106667 C19.48,15.7173333 19.6026667,14.7533333 19.82,13.8533333 L19.82,13.8533333 L23.4506667,13.8533333 L23.4506667,19.5666667 L19.8813333,19.5666667 C19.6346667,18.604 19.48,17.6413333 19.48,16.7106667 L19.48,16.7106667 Z M16.1613333,13.8533333 L18.736,13.8533333 C18.5173333,14.7853333 18.4253333,15.748 18.4253333,16.7106667 L18.4253333,16.7106667 C18.4253333,17.6413333 18.548,18.604 18.7666667,19.5666667 L18.7666667,19.5666667 L16.1906667,19.5666667 C15.508,17.704 15.508,15.7173333 16.1613333,13.8533333 L16.1613333,13.8533333 Z M28.9733333,20.6213333 L31.392,20.6213333 C30.46,22.3613333 29.0026667,23.6653333 27.204,24.4093333 L27.204,24.4093333 C27.0173333,24.472 26.8626667,24.5333333 26.6773333,24.596 L26.6773333,24.596 C27.64,23.6333333 28.4453333,22.204 28.9733333,20.6213333 L28.9733333,20.6213333 Z M24.536,20.6546667 L27.7946667,20.6546667 C27.08,22.672 25.8706667,24.3493333 24.536,24.72 L24.536,24.72 L24.536,20.6546667 Z M20.1933333,20.6546667 L23.4506667,20.6546667 L23.4506667,24.72 C22.1173333,24.3493333 20.9373333,22.672 20.1933333,20.6546667 L20.1933333,20.6546667 Z M16.6573333,20.6546667 L19.076,20.6546667 C19.6026667,22.2373333 20.3786667,23.6653333 21.3706667,24.6266667 L21.3706667,24.6266667 C19.356,23.944 17.68,22.5466667 16.6573333,20.6546667 L16.6573333,20.6546667 Z M23.4506667,28.7573333 L23.4506667,31.1173333 C22.4266667,31.3333333 21.6186667,32.14 21.4026667,33.1653333 L21.4026667,33.1653333 L13.9573333,33.1653333 C13.7386667,32.14 12.9333333,31.3013333 11.8786667,31.1173333 L11.8786667,31.1173333 C10.916,30.9293333 9.95466667,31.2706667 9.33466667,32.0173333 L9.33466667,32.0173333 C8.83866667,32.6373333 8.62,33.4146667 8.776,34.22 L8.776,34.22 C8.96266667,35.276 9.79866667,36.1133333 10.8546667,36.3013333 L10.8546667,36.3013333 C11.0106667,36.3306667 11.1973333,36.364 11.3506667,36.364 L11.3506667,36.364 C12.1266667,36.364 12.8706667,36.0226667 13.368,35.3986667 L13.368,35.3986667 C13.648,35.06 13.832,34.6866667 13.9266667,34.2533333 L13.9266667,34.2533333 L21.3706667,34.2533333 C21.6186667,35.4626667 22.676,36.364 23.9466667,36.364 L23.9466667,36.364 C25.2186667,36.364 26.2746667,35.4626667 26.5226667,34.2533333 L26.5226667,34.2533333 L33.9653333,34.2533333 C34.3093333,35.4306667 35.364,36.3306667 36.6346667,36.3306667 L36.6346667,36.3306667 C38.092,36.3306667 39.272,35.1533333 39.272,33.692 L39.272,33.692 C39.272,32.2333333 38.092,31.0533333 36.6346667,31.0533333 L36.6346667,31.0533333 C35.364,31.0533333 34.3093333,31.9546667 34.06,33.1653333 L34.06,33.1653333 L26.6146667,33.1653333 C26.396,32.14 25.5906667,31.3333333 24.568,31.1173333 L24.568,31.1173333 L24.568,28.7573333 C24.568,28.4453333 24.3173333,28.1986667 24.008,28.1986667 L24.008,28.1986667 C23.6986667,28.1986667 23.4506667,28.4453333 23.4506667,28.7573333 L23.4506667,28.7573333 Z M35.084,33.7866667 L35.084,33.692 L35.084,33.6013333 C35.116,32.792 35.7973333,32.14 36.6346667,32.14 L36.6346667,32.14 C37.504,32.14 38.188,32.8226667 38.188,33.692 L38.188,33.692 C38.188,34.5626667 37.504,35.2453333 36.6346667,35.2453333 L36.6346667,35.2453333 C35.7973333,35.2453333 35.1453333,34.5933333 35.084,33.7866667 L35.084,33.7866667 Z M22.456,33.692 C22.456,32.8226667 23.14,32.14 24.008,32.14 L24.008,32.14 C24.8786667,32.14 25.5586667,32.8226667 25.5586667,33.692 L25.5586667,33.692 C25.5586667,34.5626667 24.8786667,35.2453333 24.008,35.2453333 L24.008,35.2453333 C23.14,35.2453333 22.456,34.5626667 22.456,33.692 L22.456,33.692 Z M11.104,35.2133333 C10.5146667,35.0906667 10.0173333,34.5933333 9.89333333,34.004 L9.89333333,34.004 C9.79866667,33.5386667 9.924,33.072 10.2333333,32.7013333 L10.2333333,32.7013333 C10.5426667,32.3266667 10.9786667,32.14 11.444,32.14 L11.444,32.14 C11.536,32.14 11.66,32.14 11.7533333,32.1706667 L11.7533333,32.1706667 C12.344,32.296 12.84,32.792 12.964,33.3826667 L12.964,33.3826667 C12.9946667,33.8493333 12.9013333,34.312 12.592,34.6866667 L12.592,34.6866667 C12.2906667,35.04 11.8653333,35.248 11.42,35.248 L11.42,35.248 C11.316,35.248 11.2106667,35.2373333 11.104,35.2133333 L11.104,35.2133333 Z" id="Clip-2279" fill="#FFFFFF"></path>
                    </g>
                </g>
            </g>
        </g>
    </g>
</svg>