<?xml version="1.0" encoding="UTF-8"?>
<svg width="48px" height="48px" viewBox="0 0 48 48" version="1.1" xmlns="http://www.w3.org/2000/svg" xmlns:xlink="http://www.w3.org/1999/xlink">
    <title>D12079EE-ECE8-4BCC-A4CF-CB0B1791795E</title>
    <g id="Components" stroke="none" stroke-width="1" fill="none" fill-rule="evenodd">
        <g id="Image-with-Icons" transform="translate(-798.000000, -779.000000)" stroke="#E00800" stroke-width="1.5">
            <g id="Group" transform="translate(0.000000, 332.000000)">
                <g id="Box-1.1-Copy-4" transform="translate(732.000000, 447.000000)">
                    <g id="Icon-Copy-88" transform="translate(66.000000, 0.000000)">
                        <g id="Group-14" transform="translate(6.000000, 9.750000)">
                            <g id="Group-20" transform="translate(15.000000, 6.000000)">
                                <path d="M10.5,0 C10.185,0 9.765,0.105072464 9.45,0.210144928 L0.735,3.36231884 C0.315,3.4673913 0,3.88768116 0,4.30797101 L0,7.03985507 C0,14.1847826 6.195,21.75 10.5,21.75 C14.805,21.75 21,14.1847826 21,7.03985507 L21,4.30797101 C21,3.88768116 20.685,3.4673913 20.265,3.36231884 L11.55,0.210144928 C11.235,0 10.815,0 10.5,0 Z" id="Path-Copy-26" fill-rule="nonzero"></path>
                                <g id="Group-11" transform="translate(5.300000, 5.673913)" stroke-linecap="round" stroke-linejoin="round">
                                    <g id="Group-4" transform="translate(0.000000, 0.000000)">
                                        <line x1="6.88315217" y1="4.96467391" x2="-2.10054348" y2="4.96467391" id="Path-40" transform="translate(2.391304, 4.964674) rotate(-90.000000) translate(-2.391304, -4.964674) "></line>
                                        <polyline id="Path-56" transform="translate(2.391304, 1.182065) rotate(90.000000) translate(-2.391304, -1.182065) " points="3.57336957 -1.20923913 1.20923913 1.18206522 3.57336957 3.57336957"></polyline>
                                    </g>
                                    <g id="Group-4-Copy" transform="translate(8.130435, 4.728261) scale(1, -1) translate(-8.130435, -4.728261) translate(5.739130, 0.000000)">
                                        <line x1="6.88315217" y1="4.96468388" x2="-2.10054348" y2="4.96466395" id="Path-40" transform="translate(2.391304, 4.964674) rotate(-90.000000) translate(-2.391304, -4.964674) "></line>
                                        <polyline id="Path-56" transform="translate(2.391304, 1.182065) rotate(90.000000) translate(-2.391304, -1.182065) " points="3.57336957 -1.20923913 1.20923913 1.18206522 3.57336957 3.57336957"></polyline>
                                    </g>
                                </g>
                            </g>
                            <path d="M19.5,27.7768891 C18.8817663,28.0114252 18.1527852,28.169891 17.3438066,28.2769596 C15.6585789,28.5 13.6261992,28.5 11.5246433,28.5 L10.5037977,28.5 C7.36150715,28.5 4.41860053,28.5 2.528441,27.7768891 C1.2045318,27.2659956 0,26.3935466 0,23.3832046 C-0.0112345736,19.6846773 1.89995284,16.2379841 5.06460442,14.25" id="Path" stroke-linecap="round" fill-rule="nonzero"></path>
                            <path d="M12.0285616,15.4207052 C10.3444127,15.9281936 8.50220861,15.8579471 6.80904136,15.1483813 C3.89431322,13.9268887 1.9959528,11.0516559 2,7.86471724 C2.00559007,3.52349891 5.48898555,0.00564536948 9.7876808,0 C12.9434028,-0.00408723096 15.7904721,1.91305193 17,4.85661283" id="Path" stroke-linecap="round" fill-rule="nonzero"></path>
                        </g>
                    </g>
                </g>
            </g>
        </g>
    </g>
</svg>