<?xml version="1.0" encoding="UTF-8"?>
<svg width="64px" height="64px" viewBox="0 0 64 64" version="1.1" xmlns="http://www.w3.org/2000/svg" xmlns:xlink="http://www.w3.org/1999/xlink">
    <title>EF42649F-EE27-4EC9-B1A2-B783405BFC1A</title>
    <g id="Components" stroke="none" stroke-width="1" fill="none" fill-rule="evenodd">
        <g id="Key-Facts-&amp;-Figures" transform="translate(-841.000000, -979.000000)">
            <g id="Group-3-Copy-2" transform="translate(0.000000, 787.000000)">
                <g id="Box-1.1-Copy-2" transform="translate(732.000000, 192.000000)">
                    <g id="Icons-/-Round-/-Icon-Default-Copy-13" transform="translate(109.000000, 0.000000)">
                        <circle id="Oval" fill="#4B0F1E" cx="32" cy="32" r="32"></circle>
                        <path d="M43.5392157,41.1571429 C47.0686275,40.615072 48.8333333,38.30185 48.8333333,34.2174769 C48.8333333,30.3358181 45.4862069,27.1443053 41.3264368,27.2907 C39.7,24.0050764 36.2143678,21.1571429 32.1666667,21.1571429 C26.7672414,21.1571429 22.3672414,25.7662146 22.0534483,30.8592063 C18.6706897,30.1828192 15.5,32.6478624 15.5,35.952198 C15.5,41.2400157 21.2971264,41.156912 21.2971264,41.156912 L43.5392157,41.1571429 Z" id="line" stroke="#FFFFFF" stroke-linecap="round" stroke-linejoin="round"></path>
                        <g id="Group-4" transform="translate(32.201465, 32.857143) rotate(90.000000) translate(-32.201465, -32.857143) translate(27.701465, 28.855678)" stroke="#FFFFFF" stroke-linecap="round" stroke-linejoin="round">
                            <g id="Group-8" transform="translate(1.500000, 3.001465) rotate(180.000000) translate(-1.500000, -3.001465) ">
                                <line x1="4.35499334" y1="3.14794827" x2="-1.35500665" y2="3.14791032" id="Path-40-Copy-2" transform="translate(1.499993, 3.147929) rotate(-90.000000) translate(-1.499993, -3.147929) "></line>
                                <polyline id="Path-56-Copy-2" transform="translate(1.500000, 0.732323) rotate(90.000000) translate(-1.500000, -0.732323) " points="2.23232323 -0.767676768 0.767676768 0.732323232 2.23232323 2.23232323"></polyline>
                            </g>
                            <g id="Group-8-Copy" transform="translate(6.000000, 2.002929)">
                                <line x1="4.35352871" y1="3.14648361" x2="-1.35354229" y2="3.14644568" id="Path-40-Copy-2" transform="translate(1.499993, 3.146465) rotate(-90.000000) translate(-1.499993, -3.146465) "></line>
                                <polyline id="Path-56-Copy-2" transform="translate(1.500000, 0.732323) rotate(90.000000) translate(-1.500000, -0.732323) " points="2.23232323 -0.767676768 0.767676768 0.732323232 2.23232323 2.23232323"></polyline>
                            </g>
                        </g>
                    </g>
                </g>
            </g>
        </g>
    </g>
</svg>