  <!--?xml version="1.0" encoding="UTF-8"?-->
                                        <svg width="48px" height="48px" viewBox="0 0 48 48" version="1.1" xmlns="http://www.w3.org/2000/svg" xmlns:xlink="http://www.w3.org/1999/xlink">
                                            <title>DAB8FE67-F6FD-459C-BCF8-82DCAD41BBB9</title>
                                            <g id="✅-Done-" stroke="none" stroke-width="1" fill="none" fill-rule="evenodd">
                                                <g id="ED_Cloud-Adoption-&amp;-Migration_Desktop" transform="translate(-748.000000, -2687.000000)">
                                                    <g id="Group-4" transform="translate(-0.000000, 2271.000000)">
                                                        <g id="Approach-1.1-Copy" transform="translate(732.000000, 400.000000)">
                                                            <g id="Icons-/-Round-/-Icon-Default" transform="translate(16.000000, 16.000000)">
                                                                <circle id="Oval" fill="#F0F5E8" cx="24" cy="24" r="24"></circle>
                                                                <g id="Icons-/-Shield---Security" transform="translate(6.857143, 6.857143)" stroke="#719E19" stroke-linecap="round" stroke-linejoin="round">
                                                                    <path d="M23.2947783,13.2081281 L25.7142857,13.2081281 L25.7142857,10.8435961 L23.2938916,10.8435961 C23.1416749,10.2202463 22.8833498,9.57827586 22.5464039,9.02586207 L24.257734,7.31453202 L22.1491626,5.20655172 L20.4375369,6.91758621 C19.8851232,6.58064039 18.953202,6.23453202 18.6206897,6.17009852 L18.6206897,3.75 L15.6650246,3.75 L15.6650246,6.17009852 C15.2816749,6.25315271 14.3994089,6.58064039 13.8475862,6.91758621 L12.135665,5.20655172 L10.0273892,7.31453202 L11.7387192,9.0264532 C11.4017734,9.57827586 11.0790148,10.478867 10.9903448,10.8435961 L8.57142857,10.8435961 L8.57142857,13.2081281 L10.9903448,13.2081281 C11.1112315,14.1087192 11.4017734,15.0645813 11.7387192,15.6164039 L10.026798,17.3283251 L12.135665,19.4363054 L13.8469951,17.7243842 C14.3994089,18.0622167 15.3783251,18.3169951 15.6650246,18.4733498 L15.6650246,20.8928571 L18.6206897,20.8928571 L18.6206897,18.4733498 C18.9070936,18.3169951 19.8860099,18.0622167 20.4375369,17.7252709 L22.1497537,19.4363054 L24.257734,17.3283251 L22.5464039,15.6164039 C22.8833498,15.0645813 23.1381281,14.6770936 23.2947783,13.2081281 L23.2947783,13.2081281 Z" id="Line"></path>
                                                                    <path d="M20.3571429,12.3214286 C20.3571429,14.0965909 18.9180195,15.5357143 17.1428571,15.5357143 C15.3674026,15.5357143 13.9285714,14.0965909 13.9285714,12.3214286 C13.9285714,10.5462662 15.3674026,9.10714286 17.1428571,9.10714286 C18.9180195,9.10714286 20.3571429,10.5462662 20.3571429,12.3214286 L20.3571429,12.3214286 Z" id="Line"></path>
                                                                    <path d="M9.64285714,25.285608 C9.64285714,25.285608 10.4470402,25.285608 11.2509907,24.7959032 C12.0551737,24.3061984 12.5911407,23.5714286 14.7354738,23.5714286 C16.8795743,23.5714286 19.0239074,24.5510508 20.6320409,25.285608 C22.2401744,26.0203778 22.2401744,26.9997875 21.436224,27.4897048 C20.6320409,27.9796222 19.8278578,27.9796222 18.2197243,27.4897048 L15.8074077,26.754935" id="Stroke-3"></path>
                                                                    <path d="M9.64285714,30.0770047 C9.64285714,30.0770047 10.6921046,29.8384131 12.003607,30.3155963 C13.3151094,30.7929867 16.7248791,31.7473532 17.7741265,31.9861519 C18.823374,32.2247436 20.3971313,32.2247436 21.1841238,31.7473532 C21.9708887,31.2701699 28.5284007,26.9746922 29.5776481,26.2589174 C30.6268956,25.5429354 29.5776481,23.156812 28.0036631,23.6339953 C26.4299058,24.1111785 21.7086337,26.0203257 21.7086337,26.0203257" id="Stroke-5"></path>
                                                                    <path d="M8.48048454,32.1428571 L5.44808689,32.1428571 C4.80878196,32.1428571 4.28571429,31.6779059 4.28571429,31.1096321 L4.28571429,24.6046536 C4.28571429,24.0363799 4.80878196,23.5714286 5.44808689,23.5714286 L8.48048454,23.5714286 C9.11978947,23.5714286 9.64285714,24.0363799 9.64285714,24.6046536 L9.64285714,31.1096321 C9.64285714,31.6779059 9.11978947,32.1428571 8.48048454,32.1428571 Z" id="Stroke-1"></path>
                                                                </g>
                                                            </g>
                                                        </g>
                                                    </g>
                                                </g>
                                            </g>
                                        </svg>