<?xml version="1.0" encoding="UTF-8"?>
<svg width="64px" height="64px" viewBox="0 0 64 64" version="1.1" xmlns="http://www.w3.org/2000/svg" xmlns:xlink="http://www.w3.org/1999/xlink">
    <title>0831056F-7AAB-4B1A-ABD9-8222CF98B9E8</title>
    <g id="Components" stroke="none" stroke-width="1" fill="none" fill-rule="evenodd">
        <g id="Key-Facts-&amp;-Figures" transform="translate(-229.000000, -979.000000)">
            <g id="Group-3-Copy-2" transform="translate(0.000000, 787.000000)">
                <g id="Box-1.1" transform="translate(120.000000, 192.000000)">
                    <g id="Icons-/-Round-/-Icon-Default-Copy-11" transform="translate(109.000000, 0.000000)">
                        <circle id="Oval" fill="#4B0F1E" cx="32" cy="32" r="32"></circle>
                        <g id="Icon-Copy-32" transform="translate(12.000000, 12.057143)" stroke="#FFFFFF">
                            <g id="Group-14" transform="translate(5.000000, 11.250000)">
                                <path d="M21.875,3.24352182 C20.1994524,1.3667047 17.7692668,0 15.0605219,0 C10.1814322,0 6.20545436,4.03293782 5.92190109,8.48930555 C2.86513447,7.89746679 0,10.0543796 0,12.9456733 C0,17.5725137 5.23846499,17.499798 5.23846499,17.499798 C13.5662564,17.5 17.8443101,17.5 18.0726263,17.5" id="Path" stroke-linecap="round" fill-rule="nonzero"></path>
                                <path d="M23.4375,5 C23.240625,5 22.978125,5.06642512 22.78125,5.13285024 L17.334375,7.12560386 C17.071875,7.19202899 16.875,7.45772947 16.875,7.72342995 L16.875,9.45048309 C16.875,13.9673913 20.746875,18.75 23.4375,18.75 C26.128125,18.75 30,13.9673913 30,9.45048309 L30,7.72342995 C30,7.45772947 29.803125,7.19202899 29.540625,7.12560386 L24.09375,5.13285024 C23.896875,5 23.634375,5 23.4375,5 Z" id="Path-Copy-4" fill-rule="nonzero"></path>
                                <rect id="Rectangle" x="21.25" y="10.625" width="5" height="3.75" rx="1"></rect>
                                <path d="M22.5,10.625 L22.5,9.375 C22.5,8.68464406 23.0596441,8.125 23.75,8.125 C24.4403559,8.125 25,8.68464406 25,9.375 L25,10.625" id="Path"></path>
                            </g>
                        </g>
                    </g>
                </g>
            </g>
        </g>
    </g>
</svg>