<?xml version="1.0" encoding="UTF-8"?>
<svg width="64px" height="64px" viewBox="0 0 64 64" version="1.1" xmlns="http://www.w3.org/2000/svg" xmlns:xlink="http://www.w3.org/1999/xlink">
    <title>FD6B8266-8994-4B7D-8D01-9D73C41CF8B8</title>
    <g id="Components" stroke="none" stroke-width="1" fill="none" fill-rule="evenodd">
        <g id="Key-Facts-&amp;-Figures" transform="translate(-535.000000, -979.000000)">
            <g id="Group-3-Copy-2" transform="translate(0.000000, 787.000000)">
                <g id="Box-1.1-Copy" transform="translate(426.000000, 192.000000)">
                    <g id="Icons-/-Round-/-Icon-Default-Copy-12" transform="translate(109.000000, 0.000000)">
                        <circle id="Oval" fill="#4B0F1E" cx="32" cy="32" r="32"></circle>
                        <g id="Icon-Copy-40" transform="translate(15.000000, 13.857143)" stroke="#FFFFFF">
                            <g id="Group-12" transform="translate(3.854167, 6.166667)">
                                <path d="M22.0641519,10.3674522 C23.1060314,9.55795792 23.4794306,8.14678465 22.9754154,6.92354975 C22.4714001,5.70031484 21.2149713,4.96839336 19.9091597,5.13732957 C19.4102989,5.19905469 18.9109788,5.02620879 18.5555713,4.668768 C18.2001639,4.31132722 18.0283013,3.80915045 18.0896752,3.30743556 C18.2576504,1.99415317 17.5298926,0.730536196 16.3136162,0.223637365 C15.0973398,-0.283261467 13.6941941,0.0922740634 12.8893048,1.14011428 C12.5681135,1.52184272 12.0961099,1.74199767 11.5988903,1.74199767 C11.1016707,1.74199767 10.6296671,1.52184272 10.3084758,1.14011428 C9.50358641,0.0922740634 8.10044076,-0.283261467 6.88416437,0.223637365 C5.66788797,0.730536196 4.9401301,1.99415317 5.1081053,3.30743556 C5.16947929,3.80915045 4.99761664,4.31132722 4.6422092,4.668768 C4.28680176,5.02620879 3.78748168,5.19905469 3.28862084,5.13732957 C1.98280921,4.96839336 0.72638046,5.70031484 0.222365179,6.92354975 C-0.281650103,8.14678465 0.0917491522,9.55795792 1.13362861,10.3674522 C1.53269677,10.6783958 1.76626479,11.15754 1.76626479,11.6652493 C1.76626479,12.1729587 1.53269677,12.6521028 1.13362861,12.9630465 C0.0917491522,13.7725408 -0.281650103,15.183714 0.222365179,16.4069489 C0.72638046,17.6301838 1.98280921,18.3621053 3.28862084,18.1931691 C3.78748168,18.131444 4.28680176,18.3042899 4.6422092,18.6617307 C4.99761664,19.0191714 5.16947929,19.5213482 5.1081053,20.0230631 C4.91356021,21.3423133 5.64886961,22.6223487 6.88242525,23.1118204 C7.24899186,23.263287 7.64105719,23.3425893 8.03734623,23.3454239 C8.93319113,23.3423666 9.77504293,22.9142219 10.3084758,22.1903844 C10.6296671,21.808656 11.1016707,21.588501 11.5988903,21.588501 C12.0961099,21.588501 12.5681135,21.808656 12.8893048,22.1903844 C13.6941941,23.2382246 15.0973398,23.6137601 16.3136162,23.1068613" id="Shape" stroke-linecap="round" fill-rule="nonzero"></path>
                                <ellipse id="Oval" cx="11.6090604" cy="11.6727119" rx="5.00782998" ry="5.0352875"></ellipse>
                                <ellipse id="Oval-Copy" cx="22.9594519" cy="18.2997329" rx="6.33221477" ry="6.36693378"></ellipse>
                                <g id="Group-4" transform="translate(20.052013, 15.386757)" stroke-linecap="round" stroke-linejoin="round">
                                    <line x1="3.92997696" y1="2.84732442" x2="-1.22232438" y2="2.84732442" id="Path-40" transform="translate(1.353826, 2.847324) rotate(-90.000000) translate(-1.353826, -2.847324) "></line>
                                    <polyline id="Path-56" transform="translate(1.353826, 0.677934) rotate(90.000000) translate(-1.353826, -0.677934) " points="2.03176067 -0.675891899 0.675891899 0.677934387 2.03176067 2.03176067"></polyline>
                                </g>
                                <g id="Group-4-Copy" transform="translate(24.655023, 18.098494) scale(1, -1) translate(-24.655023, -18.098494) translate(23.301197, 15.386757)" stroke-linecap="round" stroke-linejoin="round">
                                    <line x1="3.92997696" y1="2.84732442" x2="-1.22232438" y2="2.84732442" id="Path-40" transform="translate(1.353826, 2.847324) rotate(-90.000000) translate(-1.353826, -2.847324) "></line>
                                    <polyline id="Path-56" transform="translate(1.353826, 0.677934) rotate(90.000000) translate(-1.353826, -0.677934) " points="2.03176067 -0.675891899 0.675891899 0.677934387 2.03176067 2.03176067"></polyline>
                                </g>
                            </g>
                        </g>
                    </g>
                </g>
            </g>
        </g>
    </g>
</svg>