<?xml version="1.0" encoding="UTF-8"?>
<svg width="48px" height="48px" viewBox="0 0 48 48" version="1.1" xmlns="http://www.w3.org/2000/svg" xmlns:xlink="http://www.w3.org/1999/xlink">
    <title>BB49CC94-183B-4AC4-8A49-95E6D2B9FB56</title>
    <g id="Components" stroke="none" stroke-width="1" fill="none" fill-rule="evenodd">
        <g id="Icons-with-intro" transform="translate(-296.000000, -1741.000000)" stroke="#4B0F1E">
            <g id="Group-Copy-2" transform="translate(0.000000, 1565.000000)">
                <g id="Box-1.1-Copy-5" transform="translate(179.000000, 176.000000)">
                    <g id="Icon-Copy-76" transform="translate(117.000000, 0.000000)">
                        <g id="Group-12" transform="translate(5.000000, 8.000000)">
                            <path d="M28.6237647,13.4496677 C29.9753921,12.399513 30.4598019,10.5688017 29.8059443,8.98190237 C29.1520866,7.39500304 27.522125,6.44548328 25.8280991,6.66464376 C25.1809283,6.74471959 24.5331617,6.52048708 24.0720926,6.05678011 C23.6110234,5.59307315 23.3880665,4.94160058 23.4676868,4.29072721 C23.6856006,2.58700952 22.7414823,0.947722633 21.1636102,0.290124149 C19.5857381,-0.367474336 17.765441,0.119706893 16.7212603,1.47906717 C16.3045797,1.97428244 15.6922506,2.25988887 15.047209,2.25988887 C14.4021674,2.25988887 13.7898383,1.97428244 13.3731577,1.47906717 C12.328977,0.119706893 10.5086799,-0.367474336 8.93080783,0.290124149 C7.35293574,0.947722633 6.40881743,2.58700952 6.6267312,4.29072721 C6.70635151,4.94160058 6.48339456,5.59307315 6.02232545,6.05678011 C5.56125634,6.52048708 4.91348974,6.74471959 4.26631893,6.66464376 C2.57229303,6.44548328 0.942331408,7.39500304 0.288473745,8.98190237 C-0.365383917,10.5688017 0.119025927,12.399513 1.47065334,13.4496677 C1.98836338,13.853054 2.29137054,14.4746464 2.29137054,15.1332964 C2.29137054,15.7919464 1.98836338,16.4135388 1.47065334,16.8169252 C0.119025927,17.8670799 -0.365383917,19.6977912 0.288473745,21.2846905 C0.942331408,22.8715898 2.57229303,23.8211096 4.26631893,23.6019491 C4.91348974,23.5218733 5.56125634,23.7461058 6.02232545,24.2098128 C6.48339456,24.6735197 6.70635151,25.3249923 6.6267312,25.9758657 C6.37434838,27.6873254 7.32826328,29.3479118 8.92855167,29.9829021 C9.40409754,30.1793994 9.91272284,30.282278 10.4268275,30.2859553 C11.5890047,30.2819891 12.6811368,29.7265582 13.3731577,28.7875257 C13.7898383,28.2923104 14.4021674,28.006704 15.047209,28.006704 C15.6922506,28.006704 16.3045797,28.2923104 16.7212603,28.7875257 C17.765441,30.146886 19.5857381,30.6340672 21.1636102,29.9764687" id="Shape" stroke-width="1.5" stroke-linecap="round" fill-rule="nonzero"></path>
                            <ellipse id="Oval" stroke-width="1.5" cx="15.0604027" cy="15.1429776" rx="6.4966443" ry="6.53226487"></ellipse>
                            <circle id="Oval" stroke-width="1.5" stroke-linecap="round" stroke-linejoin="round" cx="31.5" cy="24.5" r="8.5"></circle>
                            <g id="Group-4" transform="translate(27.000000, 21.000000)" stroke-linecap="round" stroke-linejoin="round" stroke-width="1.3">
                                <line x1="5.4375" y1="3.9375" x2="-1.6875" y2="3.9375" id="Path-40" transform="translate(1.875000, 3.937500) rotate(-90.000000) translate(-1.875000, -3.937500) "></line>
                                <polyline id="Path-56" transform="translate(1.875000, 0.937500) rotate(90.000000) translate(-1.875000, -0.937500) " points="2.8125 -0.9375 0.9375 0.9375 2.8125 2.8125"></polyline>
                            </g>
                            <g id="Group-4-Copy" transform="translate(34.375000, 24.750000) scale(1, -1) translate(-34.375000, -24.750000) translate(32.500000, 21.000000)" stroke-linecap="round" stroke-linejoin="round" stroke-width="1.3">
                                <line x1="5.4375" y1="3.93750782" x2="-1.6875" y2="3.93749218" id="Path-40" transform="translate(1.875000, 3.937500) rotate(-90.000000) translate(-1.875000, -3.937500) "></line>
                                <polyline id="Path-56" transform="translate(1.875000, 0.937500) rotate(90.000000) translate(-1.875000, -0.937500) " points="2.8125 -0.9375 0.9375 0.9375 2.8125 2.8125"></polyline>
                            </g>
                        </g>
                    </g>
                </g>
            </g>
        </g>
    </g>
</svg>