<?xml version="1.0" encoding="utf-8"?>
<!-- Generator: Adobe Illustrator 20.1.0, SVG Export Plug-In . SVG Version: 6.00 Build 0)  -->
<svg version="1.1" id="Layer_1" xmlns="http://www.w3.org/2000/svg" xmlns:xlink="http://www.w3.org/1999/xlink" x="0px" y="0px"
	 viewBox="0 0 32 32" style="enable-background:new 0 0 32 32;" xml:space="preserve">
<style type="text/css">
	.st0{fill:#030104;}
</style>
<title>INSTAGRAM_v2_no_bk</title>
<desc>Created with Sketch.</desc>
<g id="Page-1_1_">
	<g id="INSTAGRAM_no_bk" transform="translate(-6.000000, -6.000000)">
		<g id="INSTAGRAM_v2_no_bk" transform="translate(6.000000, 6.000000)">
			<g id="Layer_1_1_">
				<g id="_x31_4---Footer_1_">
					<g id="_x31_4---Footer---Desktop_x5F_A">
						<g id="_x31_4---Footer">
							<g id="SOCIAL">
								<g id="Group">
									<g id="Social-bubbles">
										<g id="PINTEREST">
											<g id="Page-1">
												<path id="Fill-1" class="st0" d="M24.1,9.1C23.5,9.1,23,8.6,23,8V5.7c0-0.6,0.5-1.1,1.1-1.1h2.3c0.6,0,1.1,0.5,1.1,1.1
													V8c0,0.6-0.5,1.1-1.1,1.1H24.1L24.1,9.1z"/>
												<path id="Fill-3" class="st0" d="M16.1,11.6c-0.8,0-1.7,0.2-2.3,0.6c0.2-0.1,0.4-0.1,0.6-0.1c1.2,0,2.3,1,2.3,2.3
													s-1,2.3-2.3,2.3s-2.3-1-2.3-2.3c0-0.2,0-0.4,0.1-0.6c-0.4,0.6-0.6,1.5-0.6,2.3c0,2.5,2,4.5,4.5,4.5c2.4,0,4.5-2,4.5-4.5
													S18.4,11.6,16.1,11.6"/>
												<path id="Fill-5" class="st0" d="M16.1,6.8c-5.1,0-9.2,4.2-9.2,9.2s4.2,9.2,9.2,9.2s9.2-4.2,9.2-9.2S21.1,6.8,16.1,6.8
													 M16.1,9.1c3.8,0,7,3.1,7,7s-3.1,7-7,7s-7-3.1-7-7S12.2,9.1,16.1,9.1"/>
												<g id="Group-9">
													<path id="Fill-7" class="st0" d="M28.8,11.4h-7.6c1.1,1.2,1.8,2.8,1.8,4.7c0,3.8-3.1,7-7,7s-7-3.1-7-7
														c0-1.8,0.7-3.4,1.8-4.7H3.3V6.6c0-1.9,1.5-3.3,3.3-3.3h18.8c1.9,0,3.3,1.5,3.3,3.3v4.8H28.8z M25.5,1H6.6
														C3.5,1,1,3.5,1,6.6v18.8C1,28.5,3.5,31,6.6,31h18.8c3.1,0,5.6-2.5,5.6-5.6V6.6C31.1,3.5,28.6,1,25.5,1L25.5,1L25.5,1z"
														/>
												</g>
											</g>
										</g>
									</g>
								</g>
							</g>
						</g>
					</g>
				</g>
			</g>
		</g>
	</g>
</g>
</svg>
