<?xml version="1.0" encoding="utf-8"?>
<!-- Generator: Adobe Illustrator 20.1.0, SVG Export Plug-In . SVG Version: 6.00 Build 0)  -->
<svg version="1.1" id="Layer_1" xmlns="http://www.w3.org/2000/svg" xmlns:xlink="http://www.w3.org/1999/xlink" x="0px" y="0px"
	 viewBox="0 0 32 32" style="enable-background:new 0 0 32 32;" xml:space="preserve">
<title>LINKED IN_no_bk</title>
<desc>Created with Sketch.</desc>
<g id="Page-1_1_">
	<g id="LINKED-IN_no_bk" transform="translate(-6.000000, -6.000000)">
		<g id="Layer_1_1_" transform="translate(6.000000, 6.000000)">
			<g>
				<g id="_x31_4---Footer_1_">
					<g id="_x31_4---Footer---Desktop_x5F_A">
						<g id="_x31_4---Footer">
							<g id="SOCIAL">
								<g id="Group">
									<g id="Social-bubbles">
										<g id="LINKED-IN">
											<g id="Page-1">
												<path id="Fill-1" d="M1.4,30.4h6.4V10.9H1.4V30.4L1.4,30.4z M4.6,1.5C2.5,1.5,1,3,1,4.8s1.3,3.4,3.5,3.4l0,0
													c2.3,0,3.7-1.6,3.7-3.4C8.2,3,6.8,1.5,4.6,1.5L4.6,1.5L4.6,1.5z M31,19.3v11.2h-6.4V20c0-2.6-0.9-4.5-3.2-4.5
													c-1.8,0-2.8,1.2-3.3,2.4c-0.2,0.4-0.2,1-0.2,1.6v10.9h-6.4c0,0,0.1-17.6,0-19.5h6.4v2.8c0,0,0,0,0,0.1l0,0v-0.1
													c0.8-1.3,2.4-3.2,5.8-3.2C27.9,10.4,31,13.2,31,19.3L31,19.3L31,19.3z"/>
											</g>
										</g>
									</g>
								</g>
							</g>
						</g>
					</g>
				</g>
			</g>
		</g>
	</g>
</g>
</svg>
