<svg xmlns="http://www.w3.org/2000/svg" width="50" height="50" viewBox="0 0 50 50">
  <g id="Group_5" data-name="Group 5" transform="translate(-626 -451)">
    <rect id="Rectangle_2" data-name="Rectangle 2" width="48" height="48" rx="7" transform="translate(627 452)" fill="#fff"/>
    <g id="Group_4" data-name="Group 4" transform="translate(-9 3)">
      <g id="Group_3" data-name="Group 3">
        <g id="Group_2" data-name="Group 2">
          <g id="Group_1" data-name="Group 1">
            <path id="Path_1" data-name="Path 1" d="M22,48V26H16V48Z" transform="translate(628 441)" fill-rule="evenodd"/>
            <path id="Path_2" data-name="Path 2" d="M19.358,23c2.512,0,4.076-1.474,4.076-3.554C23.387,17.32,21.87,15.8,19.406,15.8s-4.076,1.475-4.076,3.6c0,2.08,1.563,3.6,3.981,3.6h.047Z" transform="translate(628 441)" fill-rule="evenodd"/>
            <path id="Path_4" data-name="Path 4" d="M50,57H14a7.009,7.009,0,0,1-7-7V14a7.009,7.009,0,0,1,7-7H50a7.009,7.009,0,0,1,7,7V50A7.009,7.009,0,0,1,50,57ZM14,9a5.006,5.006,0,0,0-5,5V50a5.006,5.006,0,0,0,5,5H50a5.006,5.006,0,0,0,5-5V14a5.006,5.006,0,0,0-5-5Z" transform="translate(628 441)" fill="#fff"/>
            <path id="Path_3" data-name="Path 3" d="M26.946,48H34V35.911a4.844,4.844,0,0,1,.313-1.758,4.182,4.182,0,0,1,3.867-2.635c2.607,0,3.821,1.988,3.821,4.9V48h6V35.588c0-6.657-3.085-9.5-7.826-9.5C36.289,26.09,35.051,28,34.1,30H34V26H26.946c.095,2-.175,22-.175,22Z" transform="translate(628 441)" fill-rule="evenodd"/>
          </g>
        </g>
      </g>
    </g>
  </g>
</svg>
