<?xml version="1.0" encoding="UTF-8"?>
<svg width="48px" height="48px" viewBox="0 0 48 48" version="1.1" xmlns="http://www.w3.org/2000/svg" xmlns:xlink="http://www.w3.org/1999/xlink">
    <title>AF176615-F0C4-4BA4-9896-E905AD5D26D6</title>
    <g id="Page-1" stroke="none" stroke-width="1" fill="none" fill-rule="evenodd">
        <g id="Features-Module--Guidelines" transform="translate(-1869.000000, -367.000000)">
            <g id="Features-2-Copy-2" transform="translate(1135.000000, 207.000000)">
                <g id="migrate" transform="translate(734.000000, 160.000000)">
                    <g id="Group" transform="translate(12.000000, 16.500000)">
                        <path d="M2,0.375 L12.75,0.375 L12.75,0.375 L19.125,6.375 L19.2666058,24.6094688 C19.2751834,25.714005 18.3867335,26.6163621 17.2821973,26.6249397 C17.2770203,26.6249799 17.2718432,26.625 17.2666661,26.625 L2,26.625 C0.8954305,26.625 1.3527075e-16,25.7295695 0,24.625 L0,2.375 C-1.3527075e-16,1.2704305 0.8954305,0.375 2,0.375 Z" id="Rectangle" stroke="#000000"></path>
                        <path d="M12.375,0 L12.375,4.75 C12.375,5.8545695 13.2704305,6.75 14.375,6.75 L17.625,6.75 L17.625,6.75" id="Path" stroke="#000000"></path>
                        <path d="M9.65625,17.625 C9.65625,17.7286875 9.57225,17.8125 9.46875,17.8125 C9.3650625,17.8125 9.28125,17.7286875 9.28125,17.625 C9.28125,17.5213125 9.3650625,17.4375 9.46875,17.4375 C9.57225,17.4375 9.65625,17.5213125 9.65625,17.625 L9.65625,17.625 Z" id="Line" stroke="#242424" stroke-linecap="round" stroke-linejoin="round"></path>
                        <line x1="9.46875" y1="17.8125" x2="9.46875" y2="19.3125" id="Line" stroke="#242424" stroke-linecap="round" stroke-linejoin="round"></line>
                        <polygon id="Line" stroke="#242424" stroke-linecap="round" stroke-linejoin="round" points="5.90625 21.375 13.03125 21.375 13.03125 15.375 5.90625 15.375"></polygon>
                        <path d="M12.09375,15.375 L12.09375,13.6875 C12.09375,12.25125 10.96875,10.875 9.46875,10.875 C7.96875,10.875 6.84375,12.25125 6.84375,13.6875 L6.84375,15.375" id="Line" stroke="#242424" stroke-linecap="round" stroke-linejoin="round"></path>
                    </g>
                    <path d="M35.25,28.500196 L38.25,28.500196 C42.75,27.8090504 45,24.8596696 45,19.6520538 C45,14.7029008 40.7324138,10.6336908 35.4287069,10.8203454 C33.355,6.63114316 28.910819,3 23.75,3 C16.8657328,3 11.2557328,8.8766117 10.8556466,15.370226 C6.54262931,14.5078258 2.5,17.65078 2.5,21.8638404 C2.5,28.6058596 9.89133621,28.4999016 9.89133621,28.4999016" id="line" stroke="#242424" stroke-linecap="round" stroke-linejoin="round"></path>
                    <g id="Group-2" transform="translate(33.000000, 31.875000)" stroke="#000000">
                        <path d="M0,6.75 L4.75,6.75 C5.8545695,6.75 6.75,5.8545695 6.75,4.75 L6.75,0 L6.75,0" id="Path-39"></path>
                        <polyline id="Path-55" points="9.75 3.375 6.75 0 3.375 3.375"></polyline>
                    </g>
                </g>
            </g>
        </g>
    </g>
</svg>