<?xml version="1.0" encoding="UTF-8"?>
<svg width="48px" height="48px" viewBox="0 0 48 48" version="1.1" xmlns="http://www.w3.org/2000/svg" xmlns:xlink="http://www.w3.org/1999/xlink">
    <title>C1E21649-8E22-45E8-8FF5-938DA63829D3</title>
    <g id="Page-1" stroke="none" stroke-width="1" fill="none" fill-rule="evenodd">
        <g id="Features-Module--Guidelines" transform="translate(-1563.000000, -1518.000000)">
            <g id="Features" transform="translate(1137.000000, 1084.000000)">
                <rect id="Rectangle" fill="none" x="0" y="0" width="1440" height="722"></rect>
                <g id="Group-11" transform="translate(426.000000, 434.000000)" stroke="#242424" stroke-linecap="round" stroke-linejoin="round">
                    <g id="secure&amp;privatecloud" transform="translate(0.000000, 0.000000)">
                        <path d="M35.2010417,32.250196 L38.196875,32.250196 C42.690625,31.5590504 44.9375,28.6096696 44.9375,23.4020538 C44.9375,18.4529008 40.675841,14.3836908 35.3795004,14.5703454 C33.3086736,10.3811432 28.8706651,6.75 23.7170139,6.75 C16.8423081,6.75 11.2400998,12.6266117 10.8405693,19.120226 C6.53354233,18.2578258 2.49652778,21.40078 2.49652778,25.6138404 C2.49652778,32.3558596 9.87759824,32.2499016 9.87759824,32.2499016 L14.2302083,32.250196" id="line"></path>
                        <g id="Icon-Copy" transform="translate(17.975000, 16.500000)">
                            <path d="M14.2302083,21 L0,21 L0,13.9768472 C0,12.0563404 1.62216197,10.5 3.62297833,10.5 L10.60723,10.5 C12.6080464,10.5 14.2302083,12.0563404 14.2302083,13.9768472 L14.2302083,21 L14.2302083,21 Z" id="Line"></path>
                            <path d="M11.234375,4.125 C11.234375,6.40302223 9.38996247,8.25 7.11510417,8.25 C4.84024586,8.25 2.99583333,6.40302223 2.99583333,4.125 C2.99583333,1.84697777 4.84024586,0 7.11510417,0 C9.38996247,0 11.234375,1.84697777 11.234375,4.125 L11.234375,4.125 Z" id="Line"></path>
                        </g>
                    </g>
                </g>
            </g>
        </g>
    </g>
</svg>