<?xml version="1.0" encoding="UTF-8"?>
<svg width="144px" height="90px" viewBox="0 0 144 90" version="1.1" xmlns="http://www.w3.org/2000/svg" xmlns:xlink="http://www.w3.org/1999/xlink">
    <!-- Generator: Sketch 51.3 (57544) - http://www.bohemiancoding.com/sketch -->
    <title>supericon-success</title>
    <desc>Created with Sketch.</desc>
    <defs>
        <radialGradient cx="50%" cy="100%" fx="50%" fy="100%" r="100.260417%" gradientTransform="translate(0.500000,1.000000),scale(1.000000,0.997403),rotate(90.000000),translate(-0.500000,-1.000000)" id="radialGradient-2">
            <stop stop-color="#BEE70D" offset="0%"></stop>
            <stop stop-color="#719E19" offset="100%"></stop>
        </radialGradient>
        <path d="M47.7816343,0 C24.6457676,0 5.89090909,18.8037818 5.89090909,42 L5.89090909,42 C5.89090909,65.1958364 24.6457676,84 47.7816343,84 L47.7816343,84 C70.9171202,84 89.7687083,65.1958364 89.6723596,42 L89.6723596,42 C89.5752493,18.6193636 70.3051348,0 47.7816343,0 L47.7816343,0 Z" id="path-2"></path>
        <filter x="-13.7%" y="-13.1%" width="127.4%" height="139.2%" filterUnits="objectBoundingBox" id="filter-4">
            <feOffset dx="0" dy="2" in="SourceAlpha" result="shadowOffsetOuter1"></feOffset>
            <feGaussianBlur stdDeviation="2" in="shadowOffsetOuter1" result="shadowBlurOuter1"></feGaussianBlur>
            <feColorMatrix values="0 0 0 0 0   0 0 0 0 0   0 0 0 0 0  0 0 0 0.15 0" type="matrix" in="shadowBlurOuter1" result="shadowMatrixOuter1"></feColorMatrix>
            <feMerge>
                <feMergeNode in="shadowMatrixOuter1"></feMergeNode>
                <feMergeNode in="SourceGraphic"></feMergeNode>
            </feMerge>
        </filter>
        <linearGradient x1="36.5487099%" y1="141.223955%" x2="36.5487099%" y2="65.7671388%" id="linearGradient-5">
            <stop stop-color="#000000" offset="0%"></stop>
            <stop stop-color="#000000" stop-opacity="0" offset="100%"></stop>
        </linearGradient>
        <linearGradient x1="36.5487099%" y1="152.877735%" x2="36.5487099%" y2="30.2397428%" id="linearGradient-6">
            <stop stop-color="#000000" offset="0%"></stop>
            <stop stop-color="#000000" stop-opacity="0" offset="100%"></stop>
        </linearGradient>
    </defs>
    <g id="supericon-success" stroke="none" stroke-width="1" fill="none" fill-rule="evenodd">
        <g id="Icon/Supericon/Consumer/success/success_consumer_expanded" transform="translate(0.000000, 3.000000)">
            <path d="M131.763595,57.19875 C131.183433,57.19875 130.71312,57.6698936 130.71312,58.2510788 C130.71312,58.8322639 131.183433,59.3034075 131.763595,59.3034075 C133.197166,59.3034075 134.494831,60.6033195 134.494831,62.0394623 C134.494831,62.6206475 134.965145,63.0917911 135.545306,63.0917911 C136.125468,63.0917911 136.595782,62.6206475 136.595782,62.0394623 C136.595782,59.4409339 134.357474,57.19875 131.763595,57.19875 Z" id="conf" fill="#E2E1DA" fill-rule="nonzero" transform="translate(133.654451, 60.145271) scale(-1, 1) translate(-133.654451, -60.145271) "></path>
            <path d="M138.109091,31.6359075 C138.109091,32.7980994 137.168285,33.7405651 136.00814,33.7405651 C134.847995,33.7405651 133.907189,32.7980994 133.907189,31.6359075 C133.907189,30.4737156 134.847995,29.53125 136.00814,29.53125 C137.168285,29.53125 138.109091,30.4737156 138.109091,31.6359075" id="conf" fill="#E2E1DA" fill-rule="evenodd" transform="translate(136.008140, 31.635908) scale(-1, 1) translate(-136.008140, -31.635908) "></path>
            <path d="M122.520436,54.0865126 C122.520436,54.5945895 122.109476,55.0062752 121.602294,55.0062752 C121.095112,55.0062752 120.684151,54.5945895 120.684151,54.0865126 C120.684151,53.5784357 121.095112,53.16675 121.602294,53.16675 C122.109476,53.16675 122.520436,53.5784357 122.520436,54.0865126" id="conf" fill="#BEE70D" fill-rule="evenodd" transform="translate(121.602294, 54.086513) scale(-1, 1) translate(-121.602294, -54.086513) "></path>
            <path d="M131.97369,42.5572868 C133.334266,42.5572868 134.441047,43.7662021 134.441047,45.0289966 L136.595782,45.0289966 C136.595782,42.5034075 134.522143,40.39875 131.97369,40.39875 C129.425237,40.39875 127.351598,42.5034075 127.351598,45.0289966 L129.506333,45.0289966 C129.506333,43.7662021 130.613114,42.5572868 131.97369,42.5572868" id="conf" fill="#719E19" fill-rule="evenodd" transform="translate(131.973690, 42.713873) scale(-1, 1) translate(-131.973690, -42.713873) "></path>
            <path d="M14.2626856,58.4429881 C14.2626856,59.0241732 14.7329994,59.4953168 15.313161,59.4953168 C15.8933225,59.4953168 16.3636364,59.0241732 16.3636364,58.4429881 C16.3636364,51.898798 11.0679317,46.59375 4.53526729,46.59375 C3.95510575,46.59375 3.4847919,47.0648936 3.4847919,47.6460788 C3.4847919,48.2272639 3.95510575,48.6984075 4.53526729,48.6984075 C9.90760859,48.6984075 14.2626856,53.0611683 14.2626856,58.4429881 Z" id="conf" fill="#E2E1DA" fill-rule="nonzero" transform="translate(9.924214, 53.044533) scale(-1, 1) translate(-9.924214, -53.044533) "></path>
            <path d="M27.6077415,34.5816854 C30.0861209,34.5816854 32.2034285,32.3534516 32.2034285,29.7953006 C32.2034285,27.2368545 30.0861923,25.0085479 27.6077415,25.0085479 L11.5641794,25.0085479 C11.0089224,25.0085479 10.5587976,25.4598449 10.5587976,26.0165479 C10.5587976,26.573251 11.0089224,27.0245479 11.5641794,27.0245479 L27.6077415,27.0245479 C28.9532663,27.0245479 30.1926649,28.3289655 30.1926649,29.7953006 C30.1926649,31.2613124 28.9532263,32.5656854 27.6077415,32.5656854 L25.5962744,32.5656854 C25.0410174,32.5656854 24.5908926,33.0169824 24.5908926,33.5736854 C24.5908926,34.1303885 25.0410174,34.5816854 25.5962744,34.5816854 L27.6077415,34.5816854 Z" id="conf" fill="#719E19" fill-rule="nonzero" transform="translate(21.381113, 29.795117) scale(-1, 1) translate(-21.381113, -29.795117) "></path>
            <path d="M29.8091657,16.4158749 C32.3131587,16.4158749 34.4499463,14.1671406 34.4499463,11.5851613 C34.4499463,9.00288755 32.3132308,6.75407987 29.8091657,6.75407987 L29.8091657,8.85873741 C31.1290762,8.85873741 32.3489955,10.1426538 32.3489955,11.5851613 C32.3489955,13.0273448 31.1290369,14.3112174 29.8091657,14.3112174 L29.8091657,16.4158749 Z" id="conf" fill="#BEE70D" fill-rule="nonzero" transform="translate(32.129556, 11.584977) scale(-1, 1) rotate(90.000000) translate(-32.129556, -11.584977) "></path>
            <path d="M30.8168764,70.3546575 C31.5104637,70.3546575 32.0727273,69.8835139 32.0727273,69.3023288 C32.0727273,68.7211436 31.5104637,68.25 30.8168764,68.25 L11.3125821,68.25 C10.6189948,68.25 10.0567312,68.7211436 10.0567312,69.3023288 C10.0567312,69.8835139 10.6189948,70.3546575 11.3125821,70.3546575 L30.8168764,70.3546575 Z" id="conf" fill="#E2E1DA" fill-rule="nonzero" transform="translate(21.064729, 69.302329) scale(-1, 1) translate(-21.064729, -69.302329) "></path>
            <path d="M19.9714909,59.8966575 C19.9714909,61.0588494 19.0306851,62.0013151 17.8705401,62.0013151 C16.7103951,62.0013151 15.7695893,61.0588494 15.7695893,59.8966575 C15.7695893,58.7344656 16.7103951,57.792 17.8705401,57.792 C19.0306851,57.792 19.9714909,58.7344656 19.9714909,59.8966575" id="conf" fill="#BEE70D" fill-rule="evenodd" transform="translate(17.870540, 59.896658) scale(-1, 1) translate(-17.870540, -59.896658) "></path>
            <path d="M6.59781818,69.5963288 C6.59781818,70.1776352 6.12762539,70.6486575 5.54734279,70.6486575 C4.96706018,70.6486575 4.49686739,70.1776352 4.49686739,69.5963288 C4.49686739,69.0150224 4.96706018,68.544 5.54734279,68.544 C6.12762539,68.544 6.59781818,69.0150224 6.59781818,69.5963288" id="conf" fill="#E2E1DA" fill-rule="evenodd" transform="translate(5.547343, 69.596329) scale(-1, 1) translate(-5.547343, -69.596329) "></path>
            <g id="icon-/-supericon-/-thank-you-/-regular" stroke-width="1" fill-rule="evenodd" transform="translate(24.218182, 0.000000)">
                <mask id="mask-3" fill="white">
                    <use xlink:href="#path-2"></use>
                </mask>
                <use id="Mask" fill="url(#radialGradient-2)" xlink:href="#path-2"></use>
                <g id="confetti" mask="url(#mask-3)">
                    <g transform="translate(48.436364, 39.375000) scale(-1, 1) translate(-48.436364, -39.375000) translate(-24.218182, 6.562500)" id="conf">
                        <path d="M9.10923903,50.63625 C8.52907749,50.63625 8.05876364,51.1073936 8.05876364,51.6885788 C8.05876364,52.2697639 8.52907749,52.7409075 9.10923903,52.7409075 C10.5428103,52.7409075 11.8404751,54.0408195 11.8404751,55.4769623 C11.8404751,56.0581475 12.3107889,56.5292911 12.8909505,56.5292911 C13.471112,56.5292911 13.9414259,56.0581475 13.9414259,55.4769623 C13.9414259,52.8784339 11.7031181,50.63625 9.10923903,50.63625 Z" fill="#E2E1DA" fill-rule="nonzero"></path>
                        <path d="M4.20190158,25.1889075 C4.20190158,26.3510994 3.26109582,27.2935651 2.10095079,27.2935651 C0.940805765,27.2935651 0,26.3510994 0,25.1889075 C0,24.0267156 0.940805765,23.08425 2.10095079,23.08425 C3.26109582,23.08425 4.20190158,24.0267156 4.20190158,25.1889075" fill="#E2E1DA" fill-rule="evenodd"></path>
                        <path d="M23.9703945,47.5240126 C23.9703945,48.0320895 23.5594338,48.4437752 23.0522518,48.4437752 C22.5450698,48.4437752 22.1341091,48.0320895 22.1341091,47.5240126 C22.1341091,47.0159357 22.5450698,46.60425 23.0522518,46.60425 C23.5594338,46.60425 23.9703945,47.0159357 23.9703945,47.5240126" fill="#BEE70D" fill-rule="evenodd"></path>
                        <path d="M12.6808554,35.9947868 C14.0414311,35.9947868 15.148212,37.2037021 15.148212,38.4664966 L17.3029471,38.4664966 C17.3029471,35.9409075 15.2293087,33.83625 12.6808554,33.83625 C10.1324021,33.83625 8.05876364,35.9409075 8.05876364,38.4664966 L10.2134988,38.4664966 C10.2134988,37.2037021 11.3202796,35.9947868 12.6808554,35.9947868" fill="#719E19" fill-rule="evenodd"></path>
                        <path d="M142.609847,51.9085109 C142.609847,52.489696 143.080161,52.9608397 143.660322,52.9608397 C144.240484,52.9608397 144.710798,52.489696 144.710798,51.9085109 C144.710798,45.3643208 139.415093,40.0592728 132.882429,40.0592728 C132.302267,40.0592728 131.831953,40.5304165 131.831953,41.1116016 C131.831953,41.6927867 132.302267,42.1639304 132.882429,42.1639304 C138.25477,42.1639304 142.609847,46.5266911 142.609847,51.9085109 Z" fill="#E2E1DA" fill-rule="nonzero"></path>
                        <path d="M129.500061,28.0191854 C131.97844,28.0191854 134.095748,25.7909516 134.095748,23.2328006 C134.095748,20.6743545 131.978512,18.4460479 129.500061,18.4460479 L113.456499,18.4460479 C112.901242,18.4460479 112.451117,18.8973449 112.451117,19.4540479 C112.451117,20.010751 112.901242,20.4620479 113.456499,20.4620479 L129.500061,20.4620479 C130.845586,20.4620479 132.084984,21.7664655 132.084984,23.2328006 C132.084984,24.6988124 130.845546,26.0031854 129.500061,26.0031854 L127.488594,26.0031854 C126.933337,26.0031854 126.483212,26.4544824 126.483212,27.0111854 C126.483212,27.5678885 126.933337,28.0191854 127.488594,28.0191854 L129.500061,28.0191854 Z" fill="#719E19" fill-rule="nonzero"></path>
                        <path d="M110.204599,9.85337489 C112.708592,9.85337489 114.84538,7.60464055 114.84538,5.02266134 C114.84538,2.44038755 112.708664,0.191579875 110.204599,0.191579875 L110.204599,2.29623741 C111.52451,2.29623741 112.744429,3.58015381 112.744429,5.02266134 C112.744429,6.46484481 111.52447,7.74871736 110.204599,7.74871736 L110.204599,9.85337489 Z" fill="#719E19" fill-rule="nonzero" transform="translate(112.524989, 5.022477) rotate(90.000000) translate(-112.524989, -5.022477) "></path>
                        <path d="M133.341963,63.7921575 C134.035551,63.7921575 134.597814,63.3210139 134.597814,62.7398288 C134.597814,62.1586436 134.035551,61.6875 133.341963,61.6875 L113.837669,61.6875 C113.144082,61.6875 112.581818,62.1586436 112.581818,62.7398288 C112.581818,63.3210139 113.144082,63.7921575 113.837669,63.7921575 L133.341963,63.7921575 Z" fill="#E2E1DA" fill-rule="nonzero"></path>
                        <path d="M128.884956,53.3341575 C128.884956,54.4963494 127.94415,55.4388151 126.784005,55.4388151 C125.62386,55.4388151 124.683055,54.4963494 124.683055,53.3341575 C124.683055,52.1719656 125.62386,51.2295 126.784005,51.2295 C127.94415,51.2295 128.884956,52.1719656 128.884956,53.3341575" fill="#BEE70D" fill-rule="evenodd"></path>
                        <path d="M140.157678,63.0338288 C140.157678,63.6151352 139.687485,64.0861575 139.107203,64.0861575 C138.52692,64.0861575 138.056727,63.6151352 138.056727,63.0338288 C138.056727,62.4525224 138.52692,61.9815 139.107203,61.9815 C139.687485,61.9815 140.157678,62.4525224 140.157678,63.0338288" fill="#E2E1DA" fill-rule="evenodd"></path>
                        <path d="M39.0475636,35.7735 C38.3072209,35.7735 37.7070545,36.3752293 37.7070545,37.1175 C37.7070545,37.8597707 38.3072209,38.4615 39.0475636,38.4615 L42.0637091,38.4615 C42.8040519,38.4615 43.4042182,37.8597707 43.4042182,37.1175 C43.4042182,36.3752293 42.8040519,35.7735 42.0637091,35.7735 L39.0475636,35.7735 Z" fill="#BEE70D" fill-rule="nonzero"></path>
                        <path d="M65.3604666,65.205 C65.9157237,65.205 66.3658484,64.753703 66.3658484,64.197 C66.3658484,63.640297 65.9157237,63.189 65.3604666,63.189 L61.8983341,63.189 C61.343077,63.189 60.8929523,63.640297 60.8929523,64.197 C60.8929523,64.753703 61.343077,65.205 61.8983341,65.205 L65.3604666,65.205 Z" fill="#719E19" fill-rule="nonzero"></path>
                        <path d="M95.0452364,21.9975 C94.4899793,21.9975 94.0398545,22.448797 94.0398545,23.0055 C94.0398545,23.562203 94.4899793,24.0135 95.0452364,24.0135 L102.040749,24.0135 C102.596006,24.0135 103.046131,23.562203 103.046131,23.0055 C103.046131,22.448797 102.596006,21.9975 102.040749,21.9975 L95.0452364,21.9975 Z" fill="#719E19" fill-rule="nonzero"></path>
                        <path d="M82.3463237,0.4725 C79.6471268,0.4725 77.31561,2.80845592 77.31561,5.5125 C77.31561,8.21654408 79.6471268,10.5525 82.3463237,10.5525 L92.8216499,10.5525 C93.3874666,10.5525 93.8461517,10.0930056 93.8461517,9.52619064 C93.8461517,8.95937563 93.3874666,8.49988128 92.8216499,8.49988128 L82.3463237,8.49988128 C80.7788242,8.49988128 79.3646137,7.08297811 79.3646137,5.5125 C79.3646137,3.94202189 80.7788242,2.52511872 82.3463237,2.52511872 L85.4104038,2.52511872 C85.9762205,2.52511872 86.4349056,2.06562437 86.4349056,1.49880936 C86.4349056,0.931994351 85.9762205,0.4725 85.4104038,0.4725 L82.3463237,0.4725 Z" fill="#BEE70D" fill-rule="nonzero" transform="translate(85.580881, 5.512500) scale(-1, 1) translate(-85.580881, -5.512500) "></path>
                        <path d="M79.0726491,1.57601261 C79.0726491,2.08408947 78.6616884,2.49577521 78.1545063,2.49577521 C77.6473243,2.49577521 77.2363636,2.08408947 77.2363636,1.57601261 C77.2363636,1.06793574 77.6473243,0.65625 78.1545063,0.65625 C78.6616884,0.65625 79.0726491,1.06793574 79.0726491,1.57601261" fill="#BEE70D" fill-rule="evenodd"></path>
                    </g>
                </g>
                <g id="thank-you" filter="url(#filter-4)" mask="url(#mask-3)">
                    <g transform="translate(22.254545, 21.656250)">
                        <path d="M50.9890909,16.38 C50.9890909,14.8215215 49.728976,13.558125 48.1745455,13.558125 L33.2247273,13.558125 L34.416,8.47875 L34.416,3.22875 C34.416,1.44556061 32.9741941,0 31.1956364,0 C29.4170786,0 27.9752727,1.44556061 27.9752727,3.22875 L27.3207273,8.47875 L19.6363636,19.201875 L17.0181818,19.201875 L17.0181818,36.1396875 L42.8923636,36.1396875 C44.4467942,36.1396875 45.7069091,34.876291 45.7069091,33.3178125 C45.7069091,31.759334 44.4467942,30.4959375 42.8923636,30.4959375 L44.6596364,30.4959375 C46.2140669,30.4959375 47.4741818,29.232541 47.4741818,27.6740625 C47.4741818,26.115584 46.2140669,24.8521875 44.6596364,24.8521875 L46.4269091,24.8521875 C47.9813396,24.8521875 49.2414545,23.588791 49.2414545,22.0303125 C49.2414545,20.471834 47.9813396,19.2084375 46.4269091,19.2084375 L48.1941818,19.2084375 C49.7434945,19.1976042 50.9927317,17.9333808 50.9890909,16.38 L50.9890909,16.38 Z" id="Shape" fill="#FFFFFF"></path>
                        <path d="M50.9890909,16.38 C50.9890909,14.8215215 49.728976,13.558125 48.1745455,13.558125 L33.2247273,13.558125 L34.416,8.47875 L34.416,3.22875 C34.416,1.44556061 32.9741941,0 31.1956364,0 C29.4170786,0 27.9752727,1.44556061 27.9752727,3.22875 L27.3207273,8.47875 L19.6363636,19.201875 L17.0181818,19.201875 L17.0181818,36.1396875 L42.8923636,36.1396875 C44.4467942,36.1396875 45.7069091,34.876291 45.7069091,33.3178125 C45.7069091,31.759334 44.4467942,30.4959375 42.8923636,30.4959375 L44.6596364,30.4959375 C46.2140669,30.4959375 47.4741818,29.232541 47.4741818,27.6740625 C47.4741818,26.115584 46.2140669,24.8521875 44.6596364,24.8521875 L46.4269091,24.8521875 C47.9813396,24.8521875 49.2414545,23.588791 49.2414545,22.0303125 C49.2414545,20.471834 47.9813396,19.2084375 46.4269091,19.2084375 L48.1941818,19.2084375 C49.7434945,19.1976042 50.9927317,17.9333808 50.9890909,16.38 L50.9890909,16.38 Z" id="Shape" fill="url(#linearGradient-5)" opacity="0.150338153"></path>
                        <rect id="Rectangle-path" fill="#FFFFFF" x="0" y="17.71875" width="14.4" height="20.34375"></rect>
                        <rect id="Rectangle-path" fill="url(#linearGradient-6)" opacity="0.150338153" x="0" y="17.71875" width="14.4" height="20.34375"></rect>
                        <ellipse id="Oval" fill="#FFCC00" cx="3.6" cy="34.453125" rx="1.63636364" ry="1.640625"></ellipse>
                    </g>
                </g>
                <path d="M0.204218182,44.366091 C0.204218182,39.9048745 3.81435533,36.288 8.268082,36.288 C12.7214414,36.288 16.3319458,39.9048745 16.3319458,44.366091" id="conf" fill="#A9D30F"></path>
                <path d="M83.5965088,75.6046575 C84.2900961,75.6046575 84.8523597,75.1335139 84.8523597,74.5523288 C84.8523597,73.9711436 84.2900961,73.5 83.5965088,73.5 L64.0922145,73.5 C63.3986272,73.5 62.8363636,73.9711436 62.8363636,74.5523288 C62.8363636,75.1335139 63.3986272,75.6046575 64.0922145,75.6046575 L83.5965088,75.6046575 Z" id="conf" fill="#719E19" fill-rule="nonzero"></path>
            </g>
            <path d="M40.0156123,61.9593151 C41.1759354,61.9593151 42.1165631,61.0170278 42.1165631,59.8546575 C42.1165631,58.6922873 41.1759354,57.75 40.0156123,57.75 L23.7009508,57.75 C22.5406277,57.75 21.6,58.6922873 21.6,59.8546575 C21.6,61.0170278 22.5406277,61.9593151 23.7009508,61.9593151 L40.0156123,61.9593151 Z" id="conf" fill="#BEE70D" fill-rule="nonzero"></path>
            <path d="M120.74153,19.0679881 C120.74153,19.6491732 121.211844,20.1203168 121.792005,20.1203168 C122.372167,20.1203168 122.842481,19.6491732 122.842481,19.0679881 C122.842481,12.523798 117.546776,7.21875 111.014112,7.21875 C110.43395,7.21875 109.963636,7.68989364 109.963636,8.27107877 C109.963636,8.8522639 110.43395,9.32340753 111.014112,9.32340753 C116.386453,9.32340753 120.74153,13.6861683 120.74153,19.0679881 Z" id="conf" fill="#E2E1DA" fill-rule="nonzero"></path>
        </g>
    </g>
</svg>