<?xml version="1.0" encoding="UTF-8"?>
<svg width="144px" height="90px" viewBox="0 0 144 90" version="1.1" xmlns="http://www.w3.org/2000/svg" xmlns:xlink="http://www.w3.org/1999/xlink">
    <!-- Generator: Sketch 51.3 (57544) - http://www.bohemiancoding.com/sketch -->
    <title>supericon-error</title>
    <desc>Created with Sketch.</desc>
    <defs>
        <radialGradient cx="50%" cy="100%" fx="50%" fy="100%" r="100.260417%" gradientTransform="translate(0.500000,1.000000),scale(1.000000,0.997403),rotate(90.000000),translate(-0.500000,-1.000000)" id="radialGradient-1">
            <stop stop-color="#E70D0D" offset="0%"></stop>
            <stop stop-color="#7B1111" offset="100%"></stop>
        </radialGradient>
        <path d="M41.8907252,0 C18.7548585,0 -1.42108547e-14,18.8037818 -1.42108547e-14,42 L-1.42108547e-14,42 C-1.42108547e-14,65.1958364 18.7548585,84 41.8907252,84 L41.8907252,84 C65.0262112,84 83.8777992,65.1958364 83.7814505,42 L83.7814505,42 C83.6843402,18.6193636 64.4142257,0 41.8907252,0 L41.8907252,0 Z" id="path-2"></path>
        <filter x="-13.7%" y="-13.1%" width="127.4%" height="139.2%" filterUnits="objectBoundingBox" id="filter-4">
            <feOffset dx="0" dy="2" in="SourceAlpha" result="shadowOffsetOuter1"></feOffset>
            <feGaussianBlur stdDeviation="2" in="shadowOffsetOuter1" result="shadowBlurOuter1"></feGaussianBlur>
            <feColorMatrix values="0 0 0 0 0   0 0 0 0 0   0 0 0 0 0  0 0 0 0.15 0" type="matrix" in="shadowBlurOuter1" result="shadowMatrixOuter1"></feColorMatrix>
            <feMerge>
                <feMergeNode in="shadowMatrixOuter1"></feMergeNode>
                <feMergeNode in="SourceGraphic"></feMergeNode>
            </feMerge>
        </filter>
        <linearGradient x1="36.5487099%" y1="4.79436084%" x2="36.5487099%" y2="65.7671388%" id="linearGradient-5">
            <stop stop-color="#000000" offset="0%"></stop>
            <stop stop-color="#000000" stop-opacity="0" offset="100%"></stop>
        </linearGradient>
        <linearGradient x1="36.5487099%" y1="-11.5918528%" x2="36.5487099%" y2="30.2397428%" id="linearGradient-6">
            <stop stop-color="#000000" offset="0%"></stop>
            <stop stop-color="#000000" stop-opacity="0" offset="100%"></stop>
        </linearGradient>
    </defs>
    <g id="supericon-error" stroke="none" stroke-width="1" fill="none" fill-rule="evenodd">
        <g id="Icon/Supericon/All/failure/failure_consumer_expanded" transform="translate(0.000000, 3.000000)">
            <g id="icon-/-supericon-/-travel-/-regular" stroke-width="1" fill-rule="evenodd" transform="translate(30.109091, 0.000000)">
                <mask id="mask-3" fill="white">
                    <use xlink:href="#path-2"></use>
                </mask>
                <use id="Mask" fill="url(#radialGradient-1)" xlink:href="#path-2"></use>
            </g>
            <path d="M89.0489438,73.8856375 C91.5273233,73.8856375 93.6446309,71.6574037 93.6446309,69.0992527 C93.6446309,66.5408065 91.5273947,64.3125 89.0489438,64.3125 L73.0053818,64.3125 C72.4501248,64.3125 72,64.763797 72,65.3205 C72,65.877203 72.4501248,66.3285 73.0053818,66.3285 L89.0489438,66.3285 C90.3944687,66.3285 91.6338673,67.6329175 91.6338673,69.0992527 C91.6338673,70.5652644 90.3944287,71.8696375 89.0489438,71.8696375 L87.0374768,71.8696375 C86.4822197,71.8696375 86.032095,72.3209345 86.032095,72.8776375 C86.032095,73.4343405 86.4822197,73.8856375 87.0374768,73.8856375 L89.0489438,73.8856375 Z" id="conf-copy-8" fill="#FFFFFF" fill-rule="nonzero"></path>
            <path d="M54.8675144,66.3285 C55.4227714,66.3285 55.8728962,65.877203 55.8728962,65.3205 C55.8728962,64.763797 55.4227714,64.3125 54.8675144,64.3125 L51.4053818,64.3125 C50.8501248,64.3125 50.4,64.763797 50.4,65.3205 C50.4,65.877203 50.8501248,66.3285 51.4053818,66.3285 L54.8675144,66.3285 Z" id="conf-copy-15" fill="#FFFFFF" fill-rule="nonzero"></path>
            <path d="M28.8,19.234341 C28.8,14.7731245 32.4101371,11.15625 36.8638638,11.15625 C41.3172232,11.15625 44.9277276,14.7731245 44.9277276,19.234341" id="conf-copy-19" fill="#E8E8E8" fill-rule="evenodd"></path>
            <path d="M60.6141118,5.90625 C60.0339502,5.90625 59.5636364,6.37739364 59.5636364,6.95857877 C59.5636364,7.5397639 60.0339502,8.01090753 60.6141118,8.01090753 C62.047683,8.01090753 63.3453478,9.31081949 63.3453478,10.7469623 C63.3453478,11.3281475 63.8156616,11.7992911 64.3958232,11.7992911 C64.9759847,11.7992911 65.4462986,11.3281475 65.4462986,10.7469623 C65.4462986,8.1484339 63.2079908,5.90625 60.6141118,5.90625 Z" id="conf-copy-3" fill="#F3F3F3" fill-rule="nonzero"></path>
            <path d="M101.454545,51.661795 C102.514051,51.661795 103.418182,50.7102964 103.418182,49.617793 C103.418182,48.5251651 102.514081,47.5736354 101.454545,47.5736354 L101.454545,48.4641714 C102.013034,48.4641714 102.529214,49.0074302 102.529214,49.617793 C102.529214,50.2280188 102.013018,50.7712591 101.454545,50.7712591 L101.454545,51.661795 Z" id="conf-copy-9" fill="#FFFFFF" fill-rule="nonzero" transform="translate(102.436364, 49.617715) scale(-1, 1) translate(-102.436364, -49.617715) "></path>
            <path d="M43.792473,57.0138151 C43.792473,57.5704327 43.3344942,58.0218151 42.7697424,58.0218151 C42.2049906,58.0218151 41.7470118,57.5704327 41.7470118,57.0138151 C41.7470118,56.4571975 42.2049906,56.0058151 42.7697424,56.0058151 C43.3344942,56.0058151 43.792473,56.4571975 43.792473,57.0138151" id="conf-copy-12" fill="#000000" fill-rule="evenodd"></path>
            <path d="M37.2600596,58.0218151 C37.8248982,58.0218151 38.2827903,57.5705181 38.2827903,57.0138151 C38.2827903,56.457112 37.8248982,56.0058151 37.2600596,56.0058151 L29.3181774,56.0058151 C28.7533388,56.0058151 28.2954467,56.457112 28.2954467,57.0138151 C28.2954467,57.5705181 28.7533388,58.0218151 29.3181774,58.0218151 L37.2600596,58.0218151 Z" id="conf-copy-18" fill="#000000" fill-rule="nonzero"></path>
            <path d="M67.1144727,72.1875 C66.5592157,72.1875 66.1090909,72.638797 66.1090909,73.1955 C66.1090909,73.752203 66.5592157,74.2035 67.1144727,74.2035 L74.1099857,74.2035 C74.6652427,74.2035 75.1153675,73.752203 75.1153675,73.1955 C75.1153675,72.638797 74.6652427,72.1875 74.1099857,72.1875 L67.1144727,72.1875 Z" id="conf-copy-16" fill="#FF0000" fill-rule="nonzero"></path>
            <path d="M14.4762075,70.875 C13.9209505,70.875 13.4708257,71.326297 13.4708257,71.883 C13.4708257,72.439703 13.9209505,72.891 14.4762075,72.891 L21.4717205,72.891 C22.0269775,72.891 22.4771023,72.439703 22.4771023,71.883 C22.4771023,71.326297 22.0269775,70.875 21.4717205,70.875 L14.4762075,70.875 Z" id="conf-copy" fill="#D01A1A" fill-rule="nonzero"></path>
            <path d="M8.78371977,36.2296575 C8.78371977,37.3918494 7.842914,38.3343151 6.68276897,38.3343151 C5.52262395,38.3343151 4.58181818,37.3918494 4.58181818,36.2296575 C4.58181818,35.0674656 5.52262395,34.125 6.68276897,34.125 C7.842914,34.125 8.78371977,35.0674656 8.78371977,36.2296575" id="conf" fill="#E2E1DA" fill-rule="evenodd"></path>
            <path d="M126.981818,41.6710504 C126.981818,42.214167 126.54216,42.6546008 126,42.6546008 C125.45784,42.6546008 125.018182,42.214167 125.018182,41.6710504 C125.018182,41.1279339 125.45784,40.6875 126,40.6875 C126.54216,40.6875 126.981818,41.1279339 126.981818,41.6710504" id="conf" fill="#000000" fill-rule="evenodd"></path>
            <path d="M14.4402736,20.5335368 C15.8008493,20.5335368 16.9076302,21.7424521 16.9076302,23.0052466 L19.0623653,23.0052466 C19.0623653,20.4796575 16.9887269,18.375 14.4402736,18.375 C11.8918203,18.375 9.81818182,20.4796575 9.81818182,23.0052466 L11.972917,23.0052466 C11.972917,21.7424521 13.0796978,20.5335368 14.4402736,20.5335368" id="conf" fill="#C90808" fill-rule="evenodd" transform="translate(14.440274, 20.690123) scale(1, -1) rotate(-180.000000) translate(-14.440274, -20.690123) "></path>
            <path d="M122.869236,42.7921575 C123.562823,42.7921575 124.125087,42.3210139 124.125087,41.7398288 C124.125087,41.1586436 123.562823,40.6875 122.869236,40.6875 L109.910396,40.6875 C109.216809,40.6875 108.654545,41.1586436 108.654545,41.7398288 C108.654545,42.3210139 109.216809,42.7921575 109.910396,42.7921575 L122.869236,42.7921575 Z" id="conf" fill="#EE0C0C" fill-rule="nonzero"></path>
            <path d="M115.854545,67.9194013 C115.854545,66.2898709 117.173205,64.96875 118.8,64.96875 C120.42666,64.96875 121.745455,66.2898709 121.745455,67.9194013" id="conf" fill="#000000" fill-rule="evenodd"></path>
            <g id="thank-you1" filter="url(#filter-4)" stroke-width="1" fill-rule="evenodd" transform="translate(72.000000, 43.968750) rotate(180.000000) translate(-72.000000, -43.968750) translate(46.472727, 24.937500)">
                <path d="M50.9890909,16.38 C50.9890909,14.8215215 49.728976,13.558125 48.1745455,13.558125 L33.2247273,13.558125 L34.416,8.47875 L34.416,3.22875 C34.416,1.44556061 32.9741941,0 31.1956364,0 C29.4170786,0 27.9752727,1.44556061 27.9752727,3.22875 L27.3207273,8.47875 L19.6363636,19.201875 L17.0181818,19.201875 L17.0181818,36.1396875 L42.8923636,36.1396875 C44.4467942,36.1396875 45.7069091,34.876291 45.7069091,33.3178125 C45.7069091,31.759334 44.4467942,30.4959375 42.8923636,30.4959375 L44.6596364,30.4959375 C46.2140669,30.4959375 47.4741818,29.232541 47.4741818,27.6740625 C47.4741818,26.115584 46.2140669,24.8521875 44.6596364,24.8521875 L46.4269091,24.8521875 C47.9813396,24.8521875 49.2414545,23.588791 49.2414545,22.0303125 C49.2414545,20.471834 47.9813396,19.2084375 46.4269091,19.2084375 L48.1941818,19.2084375 C49.7434945,19.1976042 50.9927317,17.9333808 50.9890909,16.38 L50.9890909,16.38 Z" id="Shape" fill="#FFFFFF"></path>
                <path d="M50.9890909,16.38 C50.9890909,14.8215215 49.728976,13.558125 48.1745455,13.558125 L33.2247273,13.558125 L34.416,8.47875 L34.416,3.22875 C34.416,1.44556061 32.9741941,0 31.1956364,0 C29.4170786,0 27.9752727,1.44556061 27.9752727,3.22875 L27.3207273,8.47875 L19.6363636,19.201875 L17.0181818,19.201875 L17.0181818,36.1396875 L42.8923636,36.1396875 C44.4467942,36.1396875 45.7069091,34.876291 45.7069091,33.3178125 C45.7069091,31.759334 44.4467942,30.4959375 42.8923636,30.4959375 L44.6596364,30.4959375 C46.2140669,30.4959375 47.4741818,29.232541 47.4741818,27.6740625 C47.4741818,26.115584 46.2140669,24.8521875 44.6596364,24.8521875 L46.4269091,24.8521875 C47.9813396,24.8521875 49.2414545,23.588791 49.2414545,22.0303125 C49.2414545,20.471834 47.9813396,19.2084375 46.4269091,19.2084375 L48.1941818,19.2084375 C49.7434945,19.1976042 50.9927317,17.9333808 50.9890909,16.38 L50.9890909,16.38 Z" id="Shape" fill="url(#linearGradient-5)" opacity="0.150338153"></path>
                <rect id="Rectangle-path" fill="#FFFFFF" x="0" y="17.71875" width="14.4" height="20.34375"></rect>
                <rect id="Rectangle-path" fill="url(#linearGradient-6)" opacity="0.150338153" x="0" y="17.71875" width="14.4" height="20.34375"></rect>
                <ellipse id="Oval" fill="#BE1218" cx="3.6" cy="34.453125" rx="1.63636364" ry="1.640625"></ellipse>
            </g>
            <g id="Group-2" stroke-width="1" fill-rule="evenodd" transform="translate(124.363636, 19.687500) rotate(45.000000) translate(-124.363636, -19.687500) translate(117.818182, 13.125000)" stroke="#979797" stroke-linecap="square">
                <path d="M6.54545455,0 L6.54545455,13.125" id="Line"></path>
                <path d="M13.0909091,6.5625 L0,6.5625" id="Line"></path>
            </g>
            <path d="M16.0363636,44.0765152 L16.0363636,50.8215672" id="Line" stroke="#000000" stroke-width="1" stroke-linecap="square" transform="translate(16.036364, 47.449041) rotate(45.000000) translate(-16.036364, -47.449041) "></path>
            <path d="M19.3277199,47.25 L12.6001874,47.25" id="Line" stroke="#000000" stroke-width="1" stroke-linecap="square" transform="translate(15.963954, 47.578125) rotate(45.000000) translate(-15.963954, -47.578125) "></path>
            <path d="M84.1090909,14.109375 L87.446631,17.4556066" id="Line" stroke="#FFFFFF" stroke-width="1" stroke-linecap="square"></path>
            <path d="M87.3818182,14.109375 L84.1090909,17.390625" id="Line" stroke="#FFFFFF" stroke-width="1" stroke-linecap="square"></path>
        </g>
    </g>
</svg>