<?xml version="1.0" encoding="utf-8"?>
<!-- Generator: Adobe Illustrator 20.1.0, SVG Export Plug-In . SVG Version: 6.00 Build 0)  -->
<svg version="1.1" id="Layer_1" xmlns="http://www.w3.org/2000/svg" xmlns:xlink="http://www.w3.org/1999/xlink" x="0px" y="0px"
	 viewBox="0 0 32 32" style="enable-background:new 0 0 32 32;" xml:space="preserve">
<style type="text/css">
	.st0{fill:#010002;}
</style>
<title>TWITTER_no_bk</title>
<desc>Created with Sketch.</desc>
<g id="Page-1">
	<g id="TWITTER_no_bk" transform="translate(-7.000000, -9.000000)">
		<g id="Fill-1" transform="translate(7.000000, 9.000000)">
			<path class="st0" d="M31,6.7c-1.1,0.5-2.3,0.8-3.5,1c1.3-0.8,2.2-2,2.7-3.4c-1.2,0.7-2.5,1.2-3.9,1.5c-1.1-1.2-2.7-1.9-4.5-1.9
				c-3.4,0-6.2,2.8-6.2,6.2c0,0.5,0.1,1,0.2,1.4c-5.1-0.3-9.6-2.7-12.7-6.4C2.6,5.8,2.3,6.9,2.3,8c0,2.1,1.1,4,2.7,5.1
				c-1,0-2-0.3-2.8-0.8v0.1c0,3,2.1,5.5,4.9,6.1c-0.5,0.1-1.1,0.2-1.6,0.2c-0.4,0-0.8,0-1.2-0.1c0.8,2.5,3.1,4.2,5.7,4.3
				c-2.1,1.7-4.8,2.6-7.6,2.6c-0.5,0-1,0-1.5-0.1c2.7,1.8,6,2.8,9.4,2.8c11.3,0,17.5-9.4,17.5-17.6l0-0.8C29.1,9,30.2,7.9,31,6.7"/>
		</g>
	</g>
</g>
</svg>
