<?xml version="1.0" encoding="UTF-8" standalone="no"?>
<svg width="31px" height="25px" viewBox="0 0 31 25" version="1.1" xmlns="http://www.w3.org/2000/svg" xmlns:xlink="http://www.w3.org/1999/xlink">
    <!-- Generator: Sketch 40.1 (33804) - http://www.bohemiancoding.com/sketch -->
    <title>wifi</title>
    <desc>Created with Sketch.</desc>
    <defs></defs>
    <g id="Page-1" stroke="none" stroke-width="1" fill="" fill-rule="evenodd">
        <g id="wifi">
            <g id="Group">
                <path d="M17.009,22.538 C16.509,23.038 15.609,23.038 15.009,22.538 C14.709,22.238 14.609,21.938 14.609,21.538 C14.609,21.138 14.709,20.838 15.009,20.538 C15.309,20.238 15.609,20.138 16.009,20.138 C16.409,20.138 16.709,20.238 17.009,20.538 C17.309,20.838 17.409,21.138 17.409,21.538 C17.409,21.938 17.209,22.238 17.009,22.538 M14.009,19.438 C13.509,19.938 13.209,20.738 13.209,21.438 C13.209,22.138 13.509,22.938 14.009,23.438 C14.509,23.938 15.309,24.238 16.009,24.238 C16.709,24.238 17.509,23.938 18.009,23.438 C18.509,22.938 18.809,22.138 18.809,21.438 C18.809,20.738 18.509,19.938 18.009,19.438 C16.909,18.338 15.009,18.338 14.009,19.438 M16.009,13.137 C13.809,13.137 11.709,14.037 10.109,15.637 C9.809,15.937 9.809,16.437 10.109,16.737 C10.409,17.037 10.909,17.037 11.209,16.737 C12.509,15.437 14.209,14.737 16.109,14.737 C18.009,14.737 19.709,15.437 21.009,16.737 C21.109,16.837 21.309,16.937 21.509,16.937 C21.709,16.937 21.909,16.837 22.009,16.737 C22.309,16.437 22.309,15.937 22.009,15.637 C20.309,14.037 18.209,13.137 16.009,13.137 M16.009,6.537 C12.009,6.537 8.309,8.137 5.409,10.937 C5.109,11.237 5.109,11.737 5.409,12.037 C5.709,12.337 6.209,12.337 6.509,12.037 C9.009,9.537 12.409,8.137 16.009,8.137 C19.609,8.137 23.009,9.537 25.509,12.037 C25.609,12.137 25.809,12.237 26.009,12.237 C26.209,12.237 26.409,12.137 26.509,12.037 C26.809,11.737 26.809,11.237 26.509,10.937 C23.709,8.137 20.009,6.537 16.009,6.537 M30.709,6.737 C22.609,-1.363 9.409,-1.363 1.209,6.737 C0.909,7.037 0.909,7.537 1.209,7.837 C1.509,8.137 2.009,8.137 2.309,7.837 C9.809,0.337 22.109,0.337 29.609,7.837 C29.709,7.937 29.909,8.037 30.109,8.037 C30.309,8.037 30.509,7.937 30.609,7.837 C31.009,7.537 31.009,7.037 30.709,6.737" id="Shape"></path>
            </g>
        </g>
    </g>
</svg>
