<?xml version="1.0" encoding="utf-8"?>
<!-- Generator: Adobe Illustrator 20.1.0, SVG Export Plug-In . SVG Version: 6.00 Build 0)  -->
<svg version="1.1" id="Layer_1" xmlns="http://www.w3.org/2000/svg" xmlns:xlink="http://www.w3.org/1999/xlink" x="0px" y="0px"
	 viewBox="0 0 32 32" style="enable-background:new 0 0 32 32;" xml:space="preserve">
<title>YOUTUBE_no_bk</title>
<desc>Created with Sketch.</desc>
<g id="Page-1">
	<g id="YOUTUBE_no_bk" transform="translate(-1.000000, -1.000000)">
		<g id="Shape" transform="translate(1.000000, 1.000000)">
			<path d="M7.9,22.6v-4.8h1h1V17v-0.7h-3h-3V17v0.7h1h1v4.8v4.8c0,0,0.2,0.1,0.9,0h0.9L7.9,22.6L7.9,22.6z M25,22.3
				c-0.1-0.1,0-1.2,0.1-1.4c0.2-0.4,0.4-0.6,0.8-0.6c0.3,0,0.6,0.1,0.7,0.4c0.1,0.2,0.1,0.2,0.1,0.9v0.7h-0.9
				C25.2,22.4,25,22.4,25,22.3L25,22.3L25,22.3z M26.7,27.5c0.8-0.2,1.5-0.7,1.7-1.5c0-0.2,0.1-0.5,0.1-0.8v-0.6h-0.8h-0.8v0.5
				c0,0.6-0.1,0.7-0.3,1c-0.2,0.2-0.7,0.2-1,0c-0.3-0.2-0.4-0.6-0.4-1.7v-0.8h1.7h1.7v-1.2c0-1.4-0.1-1.6-0.3-2.1
				c-0.5-0.9-1.9-1.4-3.1-1c-0.9,0.2-1.4,0.8-1.6,1.6c-0.1,0.2-0.1,0.5-0.1,2.6c0,2.5,0,2.6,0.3,3.1C24.2,27.3,25.5,27.8,26.7,27.5
				L26.7,27.5L26.7,27.5z M19.8,26.1l0.2-0.2c0.1-0.2,0.1-0.4,0.1-2.6c0-2.2,0-2.3-0.1-2.5c-0.2-0.3-0.7-0.4-1.2-0.1l-0.2,0.1v2.6
				v2.6l0.2,0.1C19.1,26.2,19.5,26.3,19.8,26.1L19.8,26.1L19.8,26.1z M20.9,27.5c0.2-0.1,0.6-0.3,0.7-0.7c0.2-0.6,0.2-0.6,0.2-3.6
				c0-2.5,0-2.8-0.1-3.1C21.5,19.4,21,19,20.2,19c-0.5,0-0.8,0.2-1.2,0.6c-0.2,0.2-0.3,0.3-0.4,0.3v-1.8v-1.8h-0.8h-0.8v5.7v5.7h0.8
				h0.8v-0.4c0-0.2,0-0.4,0.1-0.4c0,0,0.2,0.2,0.4,0.3C19.6,27.5,20.2,27.7,20.9,27.5L20.9,27.5L20.9,27.5z M12.2,27.5
				c0.3-0.1,0.7-0.3,1-0.7c0.2-0.2,0.3-0.2,0.3-0.2c0.1,0,0.1,0.1,0.1,0.4v0.4h0.8h0.8v-4.2v-4.2h-0.8h-0.8v3.2v3.2l-0.3,0.3
				c-0.2,0.2-0.4,0.3-0.6,0.3c-0.2,0.1-0.5,0-0.6-0.2C12,25.9,12,25.9,12,22.5v-3.4h-0.8h-0.8v3.6c0,3.9,0,4,0.2,4.4
				C10.9,27.6,11.5,27.7,12.2,27.5L12.2,27.5L12.2,27.5z M12.9,31c-1.1,0-2.3-0.1-2.7-0.1c-3.2-0.1-5.3-0.2-5.8-0.2
				c-0.6-0.1-1.3-0.5-1.7-0.9c-0.7-0.7-1-1.6-1.2-2.8c-0.4-3-0.4-6.6,0-9.5c0.2-1.2,0.6-2.2,1.3-2.8C3.2,14.3,3.6,14,4.1,14
				c1.2-0.2,10.3-0.5,15.8-0.3c3.2,0.1,6.6,0.2,7.6,0.2c1.2,0.1,2,0.7,2.6,1.7c0.4,0.7,0.6,1.4,0.7,3.2c0.2,1.5,0.2,2.4,0.2,4.1
				c0,2.1-0.2,3.8-0.4,4.8c-0.2,1.1-0.7,2-1.5,2.5c-0.6,0.4-1.2,0.6-2.1,0.6c-0.2,0-0.6,0-0.7,0.1c-0.5,0-3.4,0.2-4.9,0.2
				C19.1,31,15.1,31,12.9,31L12.9,31z M10,12.5V8.6c0.1-0.6-0.1-1.1-0.6-2.2C9.3,6,9.1,5.2,8.8,4.7C7.5,0.9,7.5,1.1,7.6,1.1h2
				c0,0,0.3,0.9,0.7,2.1S11,5.2,11,5.2s0.2-0.7,0.4-1.5C11.9,2,12.2,1,12.2,1h1.1h0.9v0.2c0,0.1-0.7,2-1.3,3.8
				c-0.1,0.2-0.2,0.7-0.4,1.2c-0.2,0.4-0.3,1-0.4,1.2l-0.2,0.3V10c0,2.2,0,2.3-0.1,2.3C11.8,12.5,10,12.5,10,12.5L10,12.5z
				 M21.9,12.6c-0.4-0.1-0.7-0.2-0.9-0.5c-0.2-0.4-0.2-0.4-0.2-4.4V3.9h0.9h0.9v3.4c0,3.7,0,3.7,0.2,3.7c0.2,0.1,0.5-0.1,0.8-0.3
				l0.3-0.2V7.1V3.9h0.9h0.9v4.2v4.2h-0.2H24c-0.1,0-0.1-0.1-0.1-0.4v-0.4l-0.2,0.2C23.2,12.4,22.5,12.6,21.9,12.6L21.9,12.6
				L21.9,12.6z M17.3,11c0.3-0.2,0.3-0.2,0.3-2.6c0-1.8,0-2.2-0.1-2.4c-0.1-0.3-0.2-0.5-0.5-0.6c-0.4-0.1-0.7,0.1-0.8,0.5
				c-0.1,0.2-0.1,4.5,0,4.7c0.1,0.2,0.3,0.4,0.5,0.5C16.9,11.1,17.2,11.1,17.3,11L17.3,11L17.3,11z M16.6,12.6
				c-0.8-0.1-1.6-0.5-1.9-1.1c-0.3-0.6-0.4-0.9-0.4-3.5c0-2,0-2.2,0.1-2.4c0.2-0.7,0.7-1.2,1.2-1.4c0.9-0.4,1.8-0.3,2.7,0.2
				c0.5,0.3,0.8,0.7,1,1.4c0.1,0.2,0.1,0.5,0.1,2.6c0,2.5,0,2.7-0.3,3.2c-0.2,0.5-0.9,1-1.6,1.2C17.4,12.6,16.9,12.6,16.6,12.6
				L16.6,12.6L16.6,12.6z"/>
		</g>
	</g>
</g>
</svg>
