<?xml version="1.0" encoding="UTF-8"?>
<svg width="45px" height="36px" viewBox="0 0 45 36" version="1.1" xmlns="http://www.w3.org/2000/svg" xmlns:xlink="http://www.w3.org/1999/xlink">
    <!-- Generator: sketchtool 59 (101010) - https://sketch.com -->
    <title>08EAA91D-34BC-4341-AB30-174228CA8C1A</title>
    <desc>Created with sketchtool.</desc>
    <defs>
        <rect id="path-1" x="0" y="0" width="45.8181818" height="36"></rect>
        <linearGradient x1="100%" y1="100%" x2="-8.52363641%" y2="100%" id="linearGradient-3">
            <stop stop-color="#719E19" offset="0%"></stop>
            <stop stop-color="#F8E71C" offset="60.4277533%"></stop>
            <stop stop-color="#D0021B" offset="100%"></stop>
        </linearGradient>
    </defs>
    <g id="Statesheet" stroke="none" stroke-width="1" fill="none" fill-rule="evenodd">
        <g id="eLife.Assetsheet" transform="translate(-772.000000, -416.000000)">
            <g id="50iconGrpah" transform="translate(772.000000, 416.000000)">
                <mask id="mask-2" fill="white">
                    <use xlink:href="#path-1"></use>
                </mask>
                <g id="Mask"></g>
                <g id="graph" mask="url(#mask-2)" stroke-linecap="round" stroke-width="4">
                    <g transform="translate(2.636364, 2.188025)" id="Path">
                        <path d="M4.62307927,32.6714277 C4.86861842,32.8296662 5.11784095,32.9826694 5.37058956,33.1302797 C8.3252064,34.8558353 11.7616788,35.8444255 15.4287298,35.8444255 L15.4287298,35.8444255 C26.470962,35.8444255 35.4224599,26.8805437 35.4224599,15.8230351 C35.4224599,4.76552654 26.470962,-4.19835526 15.4287298,-4.19835526 C11.7501668,-4.19835526 8.30363239,-3.20354839 5.34277746,-1.46793649 C5.09860826,-1.32480791 4.85774197,-1.1766414 4.62032086,-1.02357943" stroke="#EAEEF0" transform="translate(20.021390, 15.823035) rotate(-90.000000) translate(-20.021390, -15.823035) "></path>
                        <path d="M25.4117647,25.8337303 C25.4117647,14.7762217 16.4602669,5.81233993 5.41803466,5.81233993 C1.73947163,5.81233993 -1.7070628,6.80714679 -4.66791773,8.5427587 C-4.91208693,8.68588728 -5.15295321,8.83405378 -5.39037433,8.98711576" stroke="url(#linearGradient-3)" transform="translate(10.010695, 15.823035) rotate(-90.000000) translate(-10.010695, -15.823035) "></path>
                    </g>
                </g>
                <g id="line-39" mask="url(#mask-2)">
                    <g transform="translate(21.272727, 11.818182)" id="Oval">
                        <path d="M1.67312269,16.3631467 C2.5766287,16.3850356 3.29260746,15.6703744 3.27230599,14.7669061 C3.25200453,13.8634379 2.5031106,13.1132877 1.59960459,13.0913988 C0.696098571,13.0695098 -0.0198801841,13.7841711 0.000421278484,14.6876393 C0.0207227411,15.5911076 0.76961667,16.3412577 1.67312269,16.3631467 Z" stroke="#EAEEF0" stroke-width="4" fill="none" stroke-linecap="round" stroke-dasharray="75,46.68999862670898"></path>
                        <path d="M1.63474663,16.3636364 C2.53849214,16.362605 3.27185361,15.5477695 3.27272727,14.5436178 C3.27334711,13.8741834 2.72844202,9.02631078 1.63801201,0 C0.546607354,9.02872242 0.000603351749,13.8778008 0,14.5472353 C-0.000898387687,15.5513869 0.731001124,16.3646029 1.63474663,16.3636364 Z" stroke="#353738" stroke-width="1" fill="#353738" fill-rule="evenodd" stroke-linejoin="round"></path>
                    </g>
                </g>
            </g>
        </g>
    </g>
</svg>