<?xml version="1.0" encoding="UTF-8"?>
<svg width="22px" height="18px" viewBox="0 0 22 18" version="1.1" xmlns="http://www.w3.org/2000/svg" xmlns:xlink="http://www.w3.org/1999/xlink">
    <!-- Generator: sketchtool 59.1 (101010) - https://sketch.com -->
    <title>B081FFD2-A343-4387-8E48-C8A2A0AC8609</title>
    <desc>Created with sketchtool.</desc>
    <g id="eLife-Flows---Desktop" stroke="none" stroke-width="1" fill="none" fill-rule="evenodd" stroke-linecap="round" stroke-linejoin="round">
        <g id="dd_eLifeCheckout-4.0.7" transform="translate(-331.000000, -594.000000)" stroke="#719E19">
            <g id="eLifeON" transform="translate(324.000000, 532.000000)">
                <g id="eLifeON-Title">
                    <g id="Group-3" transform="translate(0.000000, 51.000000)">
                        <g id="Group" transform="translate(0.000000, 2.000000)">
                            <g id="Icon/Outline-1pt/elife-tv/elife_tv_consumer" transform="translate(6.000000, 6.000000)">
                                <path d="M22.5,16.5 C22.5,16.9125 22.1741379,17.25 21.7758621,17.25 L2.22413793,17.25 C1.82586207,17.25 1.5,16.9125 1.5,16.5 L1.5,4.5 C1.5,4.0875 1.82586207,3.75 2.22413793,3.75 L21.7758621,3.75 C22.1741379,3.75 22.5,4.0875 22.5,4.5 L22.5,16.5 L22.5,16.5 Z" id="Line"></path>
                                <line x1="10.875" y1="17.25" x2="10.875" y2="19.5" id="Line"></line>
                                <line x1="13.125" y1="17.25" x2="13.125" y2="19.5" id="Line"></line>
                                <path d="M19.125,20.25 C17.2544043,19.3367713 14.75179,19.5138221 12.0001872,19.5138221 C9.24821002,19.5138221 6.74559565,19.3367713 4.875,20.25" id="Line"></path>
                                <path d="M7.43524873,7.29699304 C7.12493717,7.95908863 7.13843604,8.53546363 7.39328836,9.53820261 C7.75190314,10.9505133 8.37106253,12.3775372 8.65958072,13.3308589 C8.99168566,14.3056107 8.99379994,14.8055409 9.12260851,14.8703111 C9.1352942,14.877028 9.15009418,14.879267 9.16830953,14.879267 C9.33777738,14.879267 9.76469973,14.6189067 10.6676608,14.3503901 C11.6244548,14.0302173 13.1664171,13.6998093 14.5455796,13.1699729 C15.49229,12.8053405 16.1456032,12.3468313 16.3549172,11.7795721 C16.3676029,11.7640592 16.3802885,11.7485464 16.3921611,11.7328736 C16.39086,11.7375114 16.3898841,11.7421493 16.3884204,11.7466273 C16.6504287,11.3986273 16.727844,11.0021695 16.5748025,10.5540556 C16.2870975,9.6021732 14.9080976,8.40336437 13.0413491,7.45548017 C11.5953428,6.72141767 10.1945496,6.30880737 9.19189191,6.30880737 C8.89995834,6.30880737 8.64136537,6.3439912 8.42603387,6.41595811 C7.97048738,6.55173568 7.72994713,6.77483311 7.49623764,7.18456473 L7.43524873,7.29699304 L7.43524873,7.29699304 Z" id="Line"></path>
                                <path d="M10.2491469,13.3863856 C10.1357888,13.3863856 10.0395077,13.3678341 9.95688802,13.3256135 C9.6826819,13.187597 9.53191732,12.7732275 9.3112188,12.1168893 C9.11084991,11.4704665 8.84087235,10.5806357 8.78850321,9.72390958 C8.73662198,8.86590409 9.00269625,8.24890779 9.67471268,8.04644088 C9.84694535,7.98950706 10.0473142,7.96215963 10.2691512,7.96215963 C10.8866842,7.96215963 11.6671796,8.17598132 12.4522288,8.57499785 C13.5191281,9.11602908 14.2976718,9.84929193 14.4996671,10.4955548 C14.7198777,11.1517331 14.3619135,11.7225106 13.620451,12.1770216 C12.8794764,12.6315326 11.9854604,12.9304352 11.3332857,13.1437771 C10.8635898,13.2859517 10.5118058,13.3863856 10.2491469,13.3863856" id="Line"></path>
                                <path d="M10.4308612,13.1874053 C10.2771692,13.1874053 10.145921,13.1632565 10.0457366,13.1119201 C9.55977697,12.8646737 9.17481498,11.6719421 9.18164574,10.4461057 C9.18506112,9.64551375 9.70029542,9.20443654 10.4731469,9.20443654 C10.8857572,9.20443654 11.3720421,9.33093838 11.8926434,9.59561669 C13.3872782,10.3543079 13.7720776,11.5467197 12.7567342,12.2614311 C11.9524938,12.82917 11.0235108,13.1874053 10.4308612,13.1874053 L10.4308612,13.1874053 Z" id="Line"></path>
                            </g>
                        </g>
                    </g>
                </g>
            </g>
        </g>
    </g>
</svg>