<?xml version="1.0" encoding="UTF-8"?>
<svg width="26px" height="26px" viewBox="0 0 26 26" version="1.1" xmlns="http://www.w3.org/2000/svg" xmlns:xlink="http://www.w3.org/1999/xlink">
    <!-- Generator: sketchtool 59.1 (101010) - https://sketch.com -->
    <title>5A94EA0B-ED20-4963-B7DA-58F85C1F5647</title>
    <desc>Created with sketchtool.</desc>
    <g id="eLife-Flows---Desktop" stroke="none" stroke-width="1" fill="none" fill-rule="evenodd" stroke-linecap="round" stroke-linejoin="round">
        <g id="dd_eLifeConfig-X.0.1" transform="translate(-131.000000, -963.000000)" stroke="#719E19">
            <g id="footerSummary" transform="translate(0.000000, 888.000000)">
                <g id="Footer">
                    <g id="instInfo" transform="translate(120.000000, 64.000000)">
                        <g id="mapIcon">
                            <g id="Arrow-Icon/Outline-1pt/map/map_consumer" transform="translate(10.000000, 10.000000)">
                                <polyline id="Line" points="15.7185461 20.3583336 9.36920698 24.5875003 1.75 19.5125003 1.75 1.75 9.36920698 6.82500007 16.988414 1.75 24.607621 6.82500007 24.607621 12.3229168"></polyline>
                                <line x1="9.1875" y1="24.3250002" x2="9.1875" y2="6.82500017" id="Line"></line>
                                <line x1="17.0625" y1="12.3229166" x2="17.0625" y2="1.8229166" id="Line"></line>
                                <path d="M23.625,17.9375 C23.625,18.9035 22.8414375,19.6875 21.875,19.6875 C20.9085625,19.6875 20.125,18.9035 20.125,17.9375 C20.125,16.9710625 20.9085625,16.1875 21.875,16.1875 C22.8414375,16.1875 23.625,16.9710625 23.625,17.9375 L23.625,17.9375 Z" id="Line"></path>
                                <path d="M26.25,18.375 C26.25,20.7913125 21.875,26.25 21.875,26.25 C21.875,26.25 17.5,20.7913125 17.5,18.375 C17.5,15.959125 19.4586875,14 21.875,14 C24.2913125,14 26.25,15.959125 26.25,18.375 L26.25,18.375 Z" id="Line"></path>
                            </g>
                        </g>
                    </g>
                </g>
            </g>
        </g>
    </g>
</svg>