<?xml version="1.0" encoding="UTF-8"?>
<svg width="20px" height="16px" viewBox="0 0 20 16" version="1.1" xmlns="http://www.w3.org/2000/svg" xmlns:xlink="http://www.w3.org/1999/xlink">
    <!-- Generator: sketchtool 59.1 (101010) - https://sketch.com -->
    <title>9B5097FE-69ED-4283-AA0F-A48F331EB9DB</title>
    <desc>Created with sketchtool.</desc>
    <g id="eLife-Flows---Desktop" stroke="none" stroke-width="1" fill="none" fill-rule="evenodd" stroke-linecap="round" stroke-linejoin="round">
        <g id="dd_eLifeWS-1.0.1A" transform="translate(-144.000000, -1631.000000)" stroke="#719E19">
            <g id="planModule" transform="translate(120.000000, 934.000000)">
                <g id="prodCards" transform="translate(0.000000, 134.000000)">
                    <g id="eLife_Card">
                        <g id="spec" transform="translate(24.000000, 312.000000)">
                            <g id="thirdAction" transform="translate(0.000000, 235.000000)">
                                <g id="DLS-Button-/-Third-Action-/-14pt-/-Icon-Left-/-Consumer-/-Default" transform="translate(0.000000, 14.000000)">
                                    <g id="Icon-Icon/Outline-1pt/tv-blank/tv_blank_consumer">
                                        <path d="M18.75,13.75 C18.75,14.09375 18.4784483,14.375 18.1465517,14.375 L1.85344828,14.375 C1.52155172,14.375 1.25,14.09375 1.25,13.75 L1.25,3.75 C1.25,3.40625 1.52155172,3.125 1.85344828,3.125 L18.1465517,3.125 C18.4784483,3.125 18.75,3.40625 18.75,3.75 L18.75,13.75 L18.75,13.75 Z" id="Line"></path>
                                        <line x1="9.0625" y1="14.375" x2="9.0625" y2="16.25" id="Line"></line>
                                        <line x1="10.9375" y1="14.375" x2="10.9375" y2="16.25" id="Line"></line>
                                        <path d="M15.9375,16.875 C14.3786703,16.1139761 12.2931583,16.2615184 10.000156,16.2615184 C7.70684168,16.2615184 5.62132971,16.1139761 4.0625,16.875" id="Line"></path>
                                        <rect id="Line" x="2.5" y="4.375" width="15" height="8.75"></rect>
                                    </g>
                                </g>
                            </g>
                        </g>
                    </g>
                </g>
            </g>
        </g>
    </g>
</svg>