<?xml version="1.0" encoding="UTF-8"?>
<svg width="34px" height="26px" viewBox="0 0 34 26" version="1.1" xmlns="http://www.w3.org/2000/svg" xmlns:xlink="http://www.w3.org/1999/xlink">
    <!-- Generator: sketchtool 59.1 (101010) - https://sketch.com -->
    <title>FB222D89-91B3-43E4-A9D6-78C8B17CDA2F</title>
    <desc>Created with sketchtool.</desc>
    <g id="eLife-Flows---Desktop" stroke="none" stroke-width="1" fill="none" fill-rule="evenodd" stroke-linecap="round" stroke-linejoin="round">
        <g id="dd_eLifeWS-1.0.1A" transform="translate(-749.000000, -2157.000000)" stroke="#719E19">
            <g id="planModule" transform="translate(120.000000, 934.000000)">
                <g id="prodCards" transform="translate(0.000000, 134.000000)">
                    <g id="eLife_Card" transform="translate(408.000000, 755.000000)">
                        <g id="spec" transform="translate(24.000000, 312.000000)">
                            <g id="mainSpecs">
                                <g id="mainSpec" transform="translate(0.000000, 17.000000)">
                                    <g id="mainSpec_right" transform="translate(168.000000, 0.000000)">
                                        <g id="copy">
                                            <g id="title" transform="translate(28.000000, 0.000000)">
                                                <g id="Icon/Outline-1pt/tv-picture-pixelated/tv_picture_pixelated_consumer-Icon/Outline-1pt/tv-blank/tv_blank_consumer">
                                                    <path d="M33.75,24.75 C33.75,25.36875 33.2612069,25.875 32.6637931,25.875 L3.3362069,25.875 C2.7387931,25.875 2.25,25.36875 2.25,24.75 L2.25,6.75 C2.25,6.13125 2.7387931,5.625 3.3362069,5.625 L32.6637931,5.625 C33.2612069,5.625 33.75,6.13125 33.75,6.75 L33.75,24.75 L33.75,24.75 Z" id="Line"></path>
                                                    <line x1="16.3125" y1="25.875" x2="16.3125" y2="29.25" id="Line"></line>
                                                    <line x1="19.6875" y1="25.875" x2="19.6875" y2="29.25" id="Line"></line>
                                                    <path d="M28.6875,30.375 C25.8816065,29.005157 22.127685,29.2707331 18.0002808,29.2707331 C13.872315,29.2707331 10.1183935,29.005157 7.3125,30.375" id="Line"></path>
                                                    <rect id="Line" x="4.5" y="7.875" width="27" height="15.75"></rect>
                                                </g>
                                            </g>
                                        </g>
                                    </g>
                                </g>
                            </g>
                        </g>
                    </g>
                </g>
            </g>
        </g>
    </g>
</svg>