<svg xmlns="http://www.w3.org/2000/svg" xmlns:xlink="http://www.w3.org/1999/xlink" viewBox="0 0 208.51 81.51"><defs><style>.cls-1{fill:none;}.cls-2{fill:#0a0203;}.cls-3{fill:#8dc63f;}.cls-4{fill:#fff;}.cls-5{fill:#e6e7e8;}.cls-6{clip-path:url(#clip-path);}.cls-7{fill:url(#linear-gradient);}.cls-8{clip-path:url(#clip-path-2);}.cls-9{fill:url(#linear-gradient-2);}.cls-10{clip-path:url(#clip-path-3);}.cls-11{fill:url(#linear-gradient-3);}.cls-12{clip-path:url(#clip-path-4);}.cls-13{fill:url(#linear-gradient-4);}.cls-14{clip-path:url(#clip-path-5);}.cls-15{fill:url(#linear-gradient-5);}.cls-16{clip-path:url(#clip-path-6);}.cls-17{fill:url(#linear-gradient-6);}</style><clipPath id="clip-path"><path class="cls-1" d="M178.92,59.79c-1.15-.59-2.07-3.52-2.06-6.53a2.77,2.77,0,0,1,3-3,7.81,7.81,0,0,1,3.43,1c2,1.06,3.33,2.54,3.43,4a2.77,2.77,0,0,1-1.33,2.48A11.26,11.26,0,0,1,179.8,60a1.86,1.86,0,0,1-.88-.18m-2.3-6.53c0,3.15.94,6.11,2.18,6.75a2.25,2.25,0,0,0,1,.2,11.43,11.43,0,0,0,5.77-2.33,3,3,0,0,0,1.43-2.7c-.11-1.52-1.41-3-3.56-4.14a7.87,7.87,0,0,0-3.54-1,3,3,0,0,0-3.28,3.21m2,7.1c-.63-.33-1-1.33-1.52-2.94a26.27,26.27,0,0,1-1.28-5.93c-.09-1.53.2-3.48,2.09-4.06a4.63,4.63,0,0,1,1.42-.2,12.21,12.21,0,0,1,5.29,1.51c2.57,1.33,4.47,3.13,5,4.72.62,1.87-.8,3.23-2.1,4a26.72,26.72,0,0,1-5.57,2.4,10.34,10.34,0,0,1-2.62.59,1.44,1.44,0,0,1-.66-.13m-.78-13.16c-1.62.5-2.4,2-2.26,4.3a27.13,27.13,0,0,0,1.29,6c.55,1.67.93,2.72,1.64,3.08a1.65,1.65,0,0,0,.77.17,10.78,10.78,0,0,0,2.69-.61,27.71,27.71,0,0,0,5.63-2.42c2-1.23,2.73-2.73,2.2-4.33s-2.44-3.5-5.07-4.85a12.26,12.26,0,0,0-5.4-1.54,4.74,4.74,0,0,0-1.49.21"/></clipPath><linearGradient id="linear-gradient" x1="-451.25" y1="410.19" x2="-450.25" y2="410.19" gradientTransform="translate(6357.31 -5565.88) scale(13.7)" gradientUnits="userSpaceOnUse"><stop offset="0" stop-color="#eceded"/><stop offset="0.16" stop-color="#aeafaf"/><stop offset="0.3" stop-color="#7f8080"/><stop offset="0.4" stop-color="#636464"/><stop offset="0.47" stop-color="#585959"/><stop offset="0.54" stop-color="#5e5f5f"/><stop offset="0.65" stop-color="#6e7070"/><stop offset="0.76" stop-color="#8a8b8b"/><stop offset="0.89" stop-color="#afb2b2"/><stop offset="1" stop-color="#d6d9d9"/></linearGradient><clipPath id="clip-path-2"><path class="cls-1" d="M174.81,43.23a5.81,5.81,0,0,1,1.83-.26c2.46,0,5.87,1,9.37,2.84,4.61,2.38,7.9,5.31,8.59,7.65a2.94,2.94,0,0,1-.09,2.28,3.33,3.33,0,0,0-.18-1.38c-.72-2.4-4.06-5.38-8.72-7.79-3.53-1.82-7-2.87-9.47-2.87a5.76,5.76,0,0,0-1.92.28,3.45,3.45,0,0,0-1.22.63,3,3,0,0,1,1.81-1.38m-.08-.23a3.24,3.24,0,0,0-2.23,2.14l-.23.68.44-.57a3,3,0,0,1,1.58-1,5.6,5.6,0,0,1,1.85-.27c2.45,0,5.87,1,9.36,2.84,4.61,2.38,7.9,5.31,8.6,7.65a3.09,3.09,0,0,1,.05,1.92l-.23.7.44-.59a3.21,3.21,0,0,0,.48-3.08c-.72-2.39-4.06-5.38-8.72-7.78-3.53-1.83-7-2.87-9.48-2.87a6,6,0,0,0-1.91.27"/></clipPath><linearGradient id="linear-gradient-2" x1="-451.27" y1="410.3" x2="-450.27" y2="410.3" gradientTransform="translate(10442.97 -9288.23) scale(22.76)" gradientUnits="userSpaceOnUse"><stop offset="0" stop-color="#e2e3e2"/><stop offset="0.15" stop-color="#adaead"/><stop offset="0.29" stop-color="#7e7f7f"/><stop offset="0.4" stop-color="#626363"/><stop offset="0.47" stop-color="#575858"/><stop offset="0.54" stop-color="#5d5e5e"/><stop offset="0.64" stop-color="#6e6e6f"/><stop offset="0.76" stop-color="#898a8a"/><stop offset="0.89" stop-color="#afafb1"/><stop offset="1" stop-color="#d8d8da"/></linearGradient><clipPath id="clip-path-3"><path class="cls-1" d="M176.56,64.07c-.11,0-.21-.47-.33-1a23,23,0,0,0-.75-2.76c-.27-.91-.66-2-1.08-3.17-.69-1.92-1.47-4.1-2-6.27A8.13,8.13,0,0,1,172.3,46a10.56,10.56,0,0,0,.36,4c.54,2.18,1.33,4.37,2,6.3.42,1.15.81,2.25,1.08,3.15a27.37,27.37,0,0,1,.75,2.74c.16.7.24,1.06.44,1.16a.32.32,0,0,0,.18,0,3.52,3.52,0,0,0,1-.34,23.9,23.9,0,0,1,2.67-1c.89-.31,2-.62,3.2-1,2-.55,4.21-1.18,6.3-2a10.67,10.67,0,0,0,3.45-2,8.29,8.29,0,0,1-4,2.74,65.43,65.43,0,0,1-6.28,2c-1.19.33-2.32.65-3.21,1a28.43,28.43,0,0,0-2.69,1,3.28,3.28,0,0,1-.95.33h-.05m-4.05-19c-.91,1.19-1,3.15-.36,5.84a65.45,65.45,0,0,0,2,6.29c.42,1.17.81,2.26,1.08,3.16a27.37,27.37,0,0,1,.75,2.74c.16.71.24,1.06.44,1.17a.41.41,0,0,0,.17,0,3.71,3.71,0,0,0,1-.35,25.08,25.08,0,0,1,2.66-1c.9-.3,2-.62,3.2-1a64.87,64.87,0,0,0,6.3-2c2.56-1,4.09-2.23,4.55-3.64l.22-.7-.44.59a8.8,8.8,0,0,1-3.9,2.55c-2.09.81-4.32,1.44-6.29,2-1.19.33-2.31.64-3.2.95a24.91,24.91,0,0,0-2.7,1,3.33,3.33,0,0,1-.93.33l-.06,0a2.4,2.4,0,0,1-.32-1,25.63,25.63,0,0,0-.76-2.76c-.27-.91-.66-2-1.08-3.17-.69-1.92-1.47-4.1-2-6.27a8.74,8.74,0,0,1-.17-4.69l.25-.68Z"/></clipPath><linearGradient id="linear-gradient-3" x1="-451.27" y1="410.3" x2="-450.27" y2="410.3" gradientTransform="translate(10492.06 -9328.84) scale(22.87)" gradientUnits="userSpaceOnUse"><stop offset="0" stop-color="#c7c5c5"/><stop offset="0.16" stop-color="#b1b1b1"/><stop offset="0.22" stop-color="#969696"/><stop offset="0.31" stop-color="#767676"/><stop offset="0.39" stop-color="#5f5f5f"/><stop offset="0.47" stop-color="#525151"/><stop offset="0.54" stop-color="#4d4c4c"/><stop offset="0.6" stop-color="#535252"/><stop offset="0.68" stop-color="#636263"/><stop offset="0.77" stop-color="#7e7e7e"/><stop offset="0.87" stop-color="#a3a4a5"/><stop offset="0.98" stop-color="#d2d4d6"/><stop offset="1" stop-color="#dddfe1"/></linearGradient><clipPath id="clip-path-4"><path class="cls-1" d="M175.32,43.08a4.14,4.14,0,0,0-.56.15,3.09,3.09,0,0,0-2.15,2.07,3.15,3.15,0,0,1,1.63-1.09,5.92,5.92,0,0,1,1.88-.27c2.46,0,5.89,1,9.43,2.86,4.57,2.36,7.94,5.34,8.65,7.72a3.1,3.1,0,0,1,.05,2,3.1,3.1,0,0,0,.46-3c-.71-2.37-4.08-5.35-8.66-7.72-3.54-1.82-7-2.86-9.42-2.86a6.71,6.71,0,0,0-1.31.12"/></clipPath><linearGradient id="linear-gradient-4" x1="-451.27" y1="410.34" x2="-450.27" y2="410.34" gradientTransform="translate(10610.31 11501.94) rotate(90) scale(25.41)" gradientUnits="userSpaceOnUse"><stop offset="0" stop-color="#fff"/><stop offset="0.03" stop-color="#fff"/><stop offset="0.08" stop-color="#eee"/><stop offset="0.22" stop-color="#c8c8c9"/><stop offset="0.34" stop-color="#adadad"/><stop offset="0.45" stop-color="#9c9c9d"/><stop offset="0.53" stop-color="#969697"/><stop offset="0.64" stop-color="#a1a1a2"/><stop offset="0.83" stop-color="#bdbdbe"/><stop offset="1" stop-color="#ddddde"/></linearGradient><clipPath id="clip-path-5"><path class="cls-1" d="M172.27,51c.88,3.52,2.39,7.07,3.1,9.44s.83,3.63,1.11,3.83a.21.21,0,0,0,.12,0c.41,0,1.46-.65,3.67-1.32s6.12-1.62,9.5-2.94c2.37-.93,4-2.1,4.47-3.56a8.94,8.94,0,0,1-4,2.59c-3.38,1.32-7.16,2.14-9.5,2.94s-3.25,1.32-3.67,1.32a.16.16,0,0,1-.12,0c-.21-.15-.27-.8-.59-2-.13-.5-.29-1.08-.52-1.77-.71-2.38-2.22-5.93-3.1-9.45a8.86,8.86,0,0,1-.17-4.75c-.94,1.25-1,3.24-.34,5.73m.34-5.73h0m0,0h0"/></clipPath><linearGradient id="linear-gradient-5" x1="-451.29" y1="410.34" x2="-450.29" y2="410.34" gradientTransform="translate(8971.83 9709.34) rotate(90) scale(21.42)" gradientUnits="userSpaceOnUse"><stop offset="0" stop-color="#a7a9ac"/><stop offset="0.25" stop-color="#d1d3d4"/><stop offset="0.48" stop-color="#969697"/><stop offset="0.81" stop-color="#d1d3d4"/><stop offset="1" stop-color="#a7a9ac"/></linearGradient><clipPath id="clip-path-6"><path class="cls-1" d="M178.76,59.93c-1.19-.61-2.13-3.58-2.11-6.64a2.89,2.89,0,0,1,3.16-3.09,7.72,7.72,0,0,1,3.47,1c3.66,1.89,4.61,4.86,2.12,6.63a11.27,11.27,0,0,1-5.69,2.31,2.06,2.06,0,0,1-1-.19m-1-12.58c-1.65.51-2.3,2-2.17,4.18a26.44,26.44,0,0,0,1.28,6c.54,1.63.91,2.66,1.58,3a1.58,1.58,0,0,0,.71.15,10.18,10.18,0,0,0,2.66-.61,26.85,26.85,0,0,0,5.6-2.4c1.81-1.14,2.69-2.56,2.15-4.19s-2.4-3.44-5-4.78a12.26,12.26,0,0,0-5.35-1.53,4.61,4.61,0,0,0-1.45.21"/></clipPath><linearGradient id="linear-gradient-6" x1="-451.33" y1="410.28" x2="-450.33" y2="410.28" gradientTransform="translate(6565.85 -5755.17) scale(14.16)" gradientUnits="userSpaceOnUse"><stop offset="0" stop-color="#fff"/><stop offset="0.03" stop-color="#fff"/><stop offset="0.11" stop-color="#e3e3e3"/><stop offset="0.24" stop-color="#bebebd"/><stop offset="0.35" stop-color="#a2a2a2"/><stop offset="0.46" stop-color="#929291"/><stop offset="0.53" stop-color="#8c8c8b"/><stop offset="0.63" stop-color="#969695"/><stop offset="0.81" stop-color="#b1b2b2"/><stop offset="1" stop-color="#d6d7d8"/></linearGradient></defs><title>FN-logo</title><g id="Layer_2" data-name="Layer 2"><g id="Layer_1-2" data-name="Layer 1"><path class="cls-2" d="M0,41.44V5.92A5.94,5.94,0,0,1,5.92,0H202.59a6,6,0,0,1,5.92,5.92V75.58a5.94,5.94,0,0,1-5.92,5.93h-163A11.92,11.92,0,0,1,31.13,78L3.5,49.9A12,12,0,0,1,0,41.44"/><polygon class="cls-3" points="167.49 32.7 128.39 32.7 128.39 36.4 171.13 36.4 171.13 36.38 167.49 32.7"/><polygon class="cls-3" points="28.08 14.35 28.08 18.04 17.06 18.04 13.39 14.35 28.08 14.35"/><polygon class="cls-4" points="17.06 25.35 28.08 25.35 28.08 29.07 17.06 29.07 17.06 36.4 13.4 36.4 13.4 25.35 17.06 25.35"/><path class="cls-4" d="M90.9,27.22a8.77,8.77,0,0,1-2.7,6.5,9.16,9.16,0,0,1-15.65-6.5V14.35h3.66V27.22a5.48,5.48,0,0,0,9.37,3.86,5.32,5.32,0,0,0,1.66-3.86Z"/><path class="cls-4" d="M100.12,28.49l4.52,7.91h-4.22L94,25.35l3.28,0A3.72,3.72,0,0,0,101,21.68a3.4,3.4,0,0,0-1.11-2.56A3.48,3.48,0,0,0,97.31,18H90.92l-3.68-3.69H97.31a7.34,7.34,0,0,1,7.33,7.33,7,7,0,0,1-1.29,4.16,7.18,7.18,0,0,1-3.23,2.65"/><path class="cls-4" d="M112.07,32.7h11v3.7H108.41Zm0-9.15h11v3.67H108.41V23.55Zm11-9.2V18h-11l-3.66-3.69Z"/><path class="cls-4" d="M46.63,14.35V27.22a5.54,5.54,0,0,1-9.45,3.86,5.25,5.25,0,0,1-1.57-3.86V14.35H32V27.22a9.17,9.17,0,0,0,15.65,6.5,8.77,8.77,0,0,0,2.7-6.5V14.35Z"/><polygon class="cls-4" points="87.24 27.22 87.24 20.78 90.92 25.02 90.9 27.22 87.24 27.22"/><polygon class="cls-4" points="57.75 14.35 54.06 14.35 54.06 18.04 57.75 18.04 57.75 36.4 61.44 36.4 61.44 18.04 68.77 18.04 68.77 14.35 57.75 14.35"/><path class="cls-4" d="M71,48.57a7.06,7.06,0,0,0-2.12,5.18,7.24,7.24,0,0,0,7.33,7.33A7.33,7.33,0,1,0,71,48.57M84,46a10.84,10.84,0,0,1,0,15.54,11,11,0,0,1-18.79-7.77A11,11,0,0,1,84,46"/><polygon class="cls-4" points="123.1 42.73 118.99 42.73 112.07 56.53 107.2 46.83 105.16 42.73 98.25 56.53 93.37 46.83 93.37 46.84 91.3 42.73 87.19 42.73 91.31 50.95 91.3 50.97 95.74 59.79 98.24 64.77 98.24 64.76 98.25 64.77 105.13 50.97 112.07 64.77 123.1 42.73"/><polygon class="cls-4" points="57.75 42.73 57.75 55.93 46.84 46.1 43.09 42.73 43.09 48.29 43.09 58.63 46.84 58.63 46.84 51.66 61.42 64.77 61.42 64.75 61.42 64.72 61.42 42.73 57.75 42.73"/><path class="cls-5" d="M133.61,49.23l-4,.41a2,2,0,0,0,2.12,1.75h2.58a.58.58,0,0,1,.62.6c0,.17,0,.51,0,.51h-3.21a3.2,3.2,0,0,1-3.3-3.55,3.28,3.28,0,0,1,3.45-3.43,2.93,2.93,0,0,1,2.95,2.23c.2.82-.24,1.37-1.17,1.48m-.74-.92a1.16,1.16,0,0,0,.68-.21.52.52,0,0,0,0-.54,1.86,1.86,0,0,0-1.77-1,2.06,2.06,0,0,0-2.22,2.12l3.28-.37"/><path class="cls-5" d="M147.66,45.52c.38,0,.65.18.65.57s-.27.56-.65.56h-2.8c-.59,0-.67.63-.62,1a.4.4,0,0,0,.16.28,1.76,1.76,0,0,0,.82.27l2.14.38a1.6,1.6,0,0,1,1.54,1.78c0,1.57-1,2.16-2.49,2.16h-3.54V52c0-.38.26-.56.66-.56h2.8c1.1,0,1.38-.34,1.38-.94s-.15-.75-.89-.87l-2.16-.36c-1.09-.17-1.57-.75-1.63-1.48-.08-1.08.36-2.22,1.84-2.23Z"/><path class="cls-5" d="M155.37,48c0-1.22-.33-2.47-2.13-2.47h-2.53c-.4,0-.66.18-.66.56s.26.56.66.56h2.35c.84,0,1.11.2,1.11.78v.18c0,.36-.45.44-.65.49-1.69.4-4,0-4,2.4,0,1.3,1.11,2.06,2.63,2.06,0,0,1.52.08,2.07-.69v.07c0,.39.22.58.61.58h.5Zm-1.2,2c0,1.19-.67,1.61-1.81,1.61s-1.61-.37-1.61-1.19a1.21,1.21,0,0,1,1.14-1.11c.62-.11,1.56-.16,2.28-.32Z"/><path class="cls-5" d="M164.51,48c0-1.22-.33-2.46-2.13-2.46h-2.53c-.4,0-.66.18-.66.56s.26.56.66.56h2.35c.84,0,1.11.19,1.11.78v.18c-.05.36-.46.44-.66.49-1.69.4-4,0-4,2.4,0,1.3,1.1,2.06,2.62,2.06,0,0,1.52.07,2.08-.69v.07a.54.54,0,0,0,.61.58h.5Zm-1.2,2c0,1.18-.67,1.61-1.81,1.61s-1.61-.37-1.61-1.19A1.21,1.21,0,0,1,161,49.32c.62-.11,1.56-.16,2.28-.32Z"/><path class="cls-5" d="M157.76,43.63h-.68a.48.48,0,0,0-.53.53v8.35h1.21Z"/><path class="cls-5" d="M138.82,51.47c-.92,0-1.26,0-1.26-.71V46.65h1.07c.38,0,.65-.18.65-.56s-.27-.57-.65-.56h-1.07V44.38h0v-.7h-.76a.48.48,0,0,0-.44.53v1.31H136c-.38,0-.66.17-.66.56s.28.56.66.56h.33V51c0,1.48,1,1.49,2.46,1.49h.71V52c0-.34-.27-.56-.71-.56"/><path class="cls-5" d="M168.6,51.47c-.91,0-1.26,0-1.26-.71V46.64h1.07c.38,0,.66-.17.66-.56s-.28-.56-.66-.56h-1.07V44.38h0v-.7h-.76a.47.47,0,0,0-.44.53v1.31h-.33c-.38,0-.65.18-.65.56s.27.56.65.56h.33V51c0,1.47,1,1.49,2.46,1.49h.71V52c0-.34-.27-.56-.71-.56"/><path class="cls-5" d="M141.77,52.52v-7h-.68a.47.47,0,0,0-.53.53v6.46Z"/><path class="cls-5" d="M141,45c.3,0,.45,0,.61-.14s.13-.33.13-.57v-.62h-.68a.48.48,0,0,0-.53.54V45Z"/><path class="cls-5" d="M165.7,62.19c0,1.19-.67,1.61-1.81,1.61s-1.61-.37-1.61-1.19a1.21,1.21,0,0,1,1.14-1.11c.62-.11,1.56-.16,2.28-.32Zm-.93-4.49h-2.53c-.4,0-.66.18-.66.56s.26.56.66.56h2.35c.84,0,1.11.19,1.11.78v.18c0,.36-.45.44-.66.49-1.68.4-4,0-4,2.4,0,1.29,1.1,2.06,2.62,2.06,0,0,1.53.07,2.08-.69v.11c0,.38.22.58.61.58h.5V60.16c0-1.22-.33-2.46-2.13-2.46"/><path class="cls-5" d="M169.31,64.73V55.85h-.67a.49.49,0,0,0-.54.53v8.35Z"/><path class="cls-5" d="M160,63.69c-.92,0-1.26,0-1.26-.71V58.87h1.07c.38,0,.65-.18.65-.57s-.27-.56-.65-.56h-1.07V56.6h0v-.7H158a.48.48,0,0,0-.44.53v1.31h-.33c-.38,0-.66.17-.65.56s.27.56.65.56h.33v4.37c0,1.48,1,1.49,2.46,1.49h.71v-.48c0-.34-.28-.56-.71-.56"/><path class="cls-5" d="M146.25,57.75a.47.47,0,0,0-.53.53v6.45h1.21v-7Z"/><path class="cls-5" d="M146.8,57.07c.12-.11.12-.33.12-.56v-.62h-.67c-.46,0-.53.29-.53.53v.8h.47c.29,0,.44,0,.61-.15"/><path class="cls-5" d="M155.11,57.75a.47.47,0,0,0-.53.53v6.45h1.2v-7Z"/><path class="cls-5" d="M155.65,57.07c.13-.11.13-.33.13-.56v-.62h-.68a.47.47,0,0,0-.53.53v.8H155c.3,0,.45,0,.61-.15"/><path class="cls-5" d="M141.86,63.78h-.12a1.74,1.74,0,0,1-1.89-1.56h0c0-.07,0-.83,0-.83a1.87,1.87,0,0,1,2-1.91,1.49,1.49,0,0,1,1.51,1,13,13,0,0,1,.06,2c-.11,1-.61,1.28-1.54,1.35m2.74-1.53V55.79h-.68a.48.48,0,0,0-.53.53V59a2.81,2.81,0,0,0-1.54-.44,2.93,2.93,0,0,0-3.08,3.05,2.87,2.87,0,0,0,2.31,3.11,2,2,0,0,0,.41,0h0s1.41.05,2-.71v.12c0,.39.22.58.61.58h.51v-.94h0Z"/><path class="cls-5" d="M152.23,62.83a1.52,1.52,0,0,1-1.51,1,1.71,1.71,0,0,1-1.78-1.92s0-.76,0-.83h0a1.53,1.53,0,0,1,1.66-1.55h.12c.93.06,1.43.36,1.54,1.34a14.29,14.29,0,0,1-.05,2M153.48,61V59.5h0v-.94H153a.55.55,0,0,0-.61.58v.12c-.55-.76-2-.71-2-.71h0a2,2,0,0,0-.41,0c-1.3.25-2.07,1.27-2.07,3.11a2.75,2.75,0,0,0,2.84,3,2.81,2.81,0,0,0,1.54-.44v.14h0v.75c0,.57-.32.77-1.15.77h-2.35a.57.57,0,0,0-.61.6v.52h3.19c1.8,0,2.13-1.25,2.13-2.47v-.26h0V61Z"/><g class="cls-6"><rect class="cls-7" x="172.77" y="43.74" width="20.25" height="20.25" transform="translate(15.48 145.1) rotate(-45)"/></g><g class="cls-8"><rect class="cls-9" x="172.27" y="42.73" width="22.93" height="14.33"/></g><g class="cls-10"><rect class="cls-11" x="171.48" y="44.53" width="23.11" height="19.8"/></g><g class="cls-12"><rect class="cls-13" x="172.66" y="36.64" width="22.38" height="26.19" transform="translate(55.08 190.07) rotate(-62.6)"/></g><g class="cls-14"><rect class="cls-15" x="169.4" y="40.47" width="27.09" height="28.69" transform="translate(52.5 194.31) rotate(-63.6)"/></g><g class="cls-16"><rect class="cls-17" x="175.49" y="47.14" width="14.65" height="13.51"/></g></g></g></svg>