<?xml version="1.0" encoding="UTF-8"?>
<svg width="64px" height="64px" viewBox="0 0 64 64" version="1.1" xmlns="http://www.w3.org/2000/svg" xmlns:xlink="http://www.w3.org/1999/xlink">
    <!-- Generator: Sketch 52.4 (67378) - http://www.bohemiancoding.com/sketch -->
    <title>icon-chat</title>
    <desc>Created with Sketch.</desc>
    <g id="icon-chat" stroke="none" stroke-width="1" fill="none" fill-rule="evenodd" stroke-linecap="round" stroke-linejoin="round">
        <g id="Icon/Outline-1pt/sms/sms_black" stroke="#242424">
            <path d="M4,43.7241277 C4,45.0874894 5.09006897,46.1914894 6.43406897,46.1914894 L9.79310345,46.1914894 L9.79310345,55 L21.0433103,46.1914894 L57.565931,46.1914894 C58.9089655,46.1914894 60,45.0874894 60,43.7241277 L60,11.9361702 C60,9.9787234 59.0344828,9 57.565931,9 L6.43406897,9 C4.96551724,9 4,9.9787234 4,11.9361702 L4,43.7241277 L4,43.7241277 Z" id="Line"></path>
            <path d="M23.9136,28.1164255 C23.9136,29.2218974 23.018717,30.1164255 21.9128067,30.1164255 C20.8068963,30.1164255 19.9136,29.2218974 19.9136,28.1164255 C19.9136,27.0109537 20.8068963,26.1164255 21.9128067,26.1164255 C23.018717,26.1164255 23.9136,27.0109537 23.9136,28.1164255 L23.9136,28.1164255 Z" id="Line"></path>
            <path d="M44.0874,28.1164255 C44.0874,29.2218974 43.1941037,30.1164255 42.0866067,30.1164255 C40.9806963,30.1164255 40.0874,29.2218974 40.0874,28.1164255 C40.0874,27.0109537 40.9806963,26.1164255 42.0866067,26.1164255 C43.1941037,26.1164255 44.0874,27.0109537 44.0874,28.1164255 L44.0874,28.1164255 Z" id="Line"></path>
            <path d="M34.0005,28.1164255 C34.0005,29.2218974 33.1072037,30.1164255 31.9997067,30.1164255 C30.895383,30.1164255 30.0005,29.2218974 30.0005,28.1164255 C30.0005,27.0109537 30.895383,26.1164255 31.9997067,26.1164255 C33.1072037,26.1164255 34.0005,27.0109537 34.0005,28.1164255 L34.0005,28.1164255 Z" id="Line"></path>
        </g>
    </g>
</svg>