<?xml version="1.0" encoding="UTF-8"?>
<svg width="24px" height="24px" viewBox="0 0 24 24" version="1.1" xmlns="http://www.w3.org/2000/svg" xmlns:xlink="http://www.w3.org/1999/xlink">
    <!-- Generator: Sketch 52.2 (67145) - http://www.bohemiancoding.com/sketch -->
    <title>icon- plus</title>
    <desc>Created with Sketch.</desc>
    <g id="icon--plus" stroke="none" stroke-width="1" fill="none" fill-rule="evenodd">
        <path d="M24,13.0815451 C24,13.6480715 23.6476942,13.9313305 22.943072,13.9313305 L13.8689581,13.9313305 L13.8689581,22.944206 C13.8689581,23.6480722 13.5853949,24 13.0182599,24 L10.9301826,24 C10.3630476,24 10.0794844,23.6480722 10.0794844,22.944206 L10.0794844,13.9313305 L1.05692803,13.9313305 C0.352305822,13.9313305 0,13.6480715 0,13.0815451 L0,10.9699571 C0,10.4205981 0.352305822,10.1459227 1.05692803,10.1459227 L10.0794844,10.1459227 L10.0794844,1.05579399 C10.0794844,0.351927811 10.3630476,0 10.9301826,0 L13.0182599,0 C13.5853949,0 13.8689581,0.351927811 13.8689581,1.05579399 L13.8689581,10.1459227 L22.943072,10.1459227 C23.6476942,10.1459227 24,10.4205981 24,10.9699571 L24,13.0815451 Z" id="+" fill="#353738"></path>
    </g>
</svg>