<?xml version="1.0" encoding="UTF-8"?>
<svg width="64px" height="64px" viewBox="0 0 64 64" version="1.1" xmlns="http://www.w3.org/2000/svg" xmlns:xlink="http://www.w3.org/1999/xlink">
    <!-- Generator: Sketch 52.4 (67378) - http://www.bohemiancoding.com/sketch -->
    <title>icon-call</title>
    <desc>Created with Sketch.</desc>
    <g id="icon-call" stroke="none" stroke-width="1" fill="none" fill-rule="evenodd" stroke-linecap="round" stroke-linejoin="round">
        <g id="Icon/Outline-1pt/call-center-agent/call_center_agent_black" stroke="#242424">
            <path d="M42.9564,17.3913379 C33.2172276,17.3913379 33.2172276,13.7387862 31.9997103,12.5222345 C30.7831586,13.7387862 30.7831586,17.3913379 21.0439862,17.3913379" id="Line"></path>
            <path d="M46.4827586,21.3793103 L47.8257931,16.1742069 C47.8257931,16.1742069 49.0433103,4 32,4 C14.9566897,4 16.1732414,16.1742069 16.1732414,16.1742069 L17.3917241,23.4783448 C14.9566897,24.6958621 16.1732414,30.7824828 19.8257931,30.7824828 C19.8257931,38.0866207 28.3474483,42.9566897 32,42.9566897 C33.512,42.9566897 36.1082759,42.1041379 38.4168276,40.4608276" id="Line"></path>
            <path d="M25.6694897,40.4605379 L10.3196966,44.7937793 C6.51845517,46.2188828 4.00038621,49.8530897 4.00038621,53.9130897 L4.00038621,59.9997103 L60.0003862,59.9997103 L60.0003862,53.9130897 C60.0003862,49.8530897 57.4813517,46.2188828 53.6801103,44.7937793 L38.4162483,40.4605379" id="Line"></path>
            <path d="M50.3448276,28.5292552 L50.3448276,31.0347724 C50.3448276,33.9313241 47.7118621,34.8968414 45.3917241,34.8968414 L36.8275862,34.8968414" id="Line"></path>
            <path d="M52.2758621,25.2413793 C52.2758621,27.2583448 50.4297931,29.1034483 48.4137931,29.1034483 L46.4827586,29.1034483 L46.4827586,21.3793103 L48.4137931,21.3793103 C50.4297931,21.3793103 52.2758621,23.2244138 52.2758621,25.2413793 L52.2758621,25.2413793 Z" id="Line"></path>
            <path d="M24.6954759,24.6954759 C24.6954759,23.3505103 25.7865103,23.4779586 27.1295448,23.4779586 C28.4754759,23.4779586 29.5655448,23.3505103 29.5655448,24.6954759" id="Line"></path>
            <path d="M34.4345517,24.6954759 C34.4345517,23.3505103 35.5246207,23.4779586 36.8695862,23.4779586 C38.2145517,23.4779586 39.3046207,23.3505103 39.3046207,24.6954759" id="Line"></path>
            <path d="M36.8275862,34.8965517 C36.8275862,35.4295172 36.3950345,35.862069 35.862069,35.862069 L31.0344828,35.862069 C30.5015172,35.862069 30.0689655,35.4295172 30.0689655,34.8965517 C30.0689655,34.3635862 30.5015172,33.9310345 31.0344828,33.9310345 L35.862069,33.9310345 C36.3950345,33.9310345 36.8275862,34.3635862 36.8275862,34.8965517 L36.8275862,34.8965517 Z" id="Line"></path>
        </g>
    </g>
</svg>