<?xml version="1.0" encoding="UTF-8"?>
<svg width="64px" height="64px" viewBox="0 0 64 64" version="1.1" xmlns="http://www.w3.org/2000/svg" xmlns:xlink="http://www.w3.org/1999/xlink">
    <!-- Generator: Sketch 52.4 (67378) - http://www.bohemiancoding.com/sketch -->
    <title>icon-corporate</title>
    <desc>Created with Sketch.</desc>
    <g id="icon-corporate" stroke="none" stroke-width="1" fill="none" fill-rule="evenodd" stroke-linecap="round" stroke-linejoin="round">
        <g id="Icon/Outline-1pt/corporate-building/corporate_building_black" stroke="#242424">
            <polygon id="Line" points="9 60 26 60 26 20 9 20"></polygon>
            <polyline id="Line" points="14 20 14 9 21 9 21 20"></polyline>
            <path d="M14,27 L14,32" id="Line"></path>
            <path d="M14,38 L14,43" id="Line"></path>
            <path d="M14,48 L14,53" id="Line"></path>
            <path d="M21,38 L21,43" id="Line"></path>
            <path d="M21,48 L21,53" id="Line"></path>
            <path d="M21,27 L21,32" id="Line"></path>
            <path d="M17.5,4 L17.5,9" id="Line"></path>
            <polygon id="Line" points="38 60 55 60 55 20 38 20"></polygon>
            <polyline id="Line" points="43 20 43 9 50 9 50 20"></polyline>
            <path d="M43,27 L43,32" id="Line"></path>
            <path d="M43,38 L43,43" id="Line"></path>
            <path d="M43,48 L43,53" id="Line"></path>
            <path d="M50,38 L50,43" id="Line"></path>
            <path d="M50,48 L50,53" id="Line"></path>
            <path d="M50,27 L50,32" id="Line"></path>
            <path d="M46.5,4 L46.5,9" id="Line"></path>
            <path d="M26,27 L38,27" id="Line"></path>
        </g>
    </g>
</svg>