<?xml version="1.0" encoding="UTF-8"?>
<svg width="64px" height="64px" viewBox="0 0 64 64" version="1.1" xmlns="http://www.w3.org/2000/svg" xmlns:xlink="http://www.w3.org/1999/xlink">
    <!-- Generator: Sketch 52.4 (67378) - http://www.bohemiancoding.com/sketch -->
    <title>icon-smile</title>
    <desc>Created with Sketch.</desc>
    <g id="icon-smile" stroke="none" stroke-width="1" fill="none" fill-rule="evenodd" stroke-linecap="round" stroke-linejoin="round">
        <g id="Icon/Outline-1pt/happy-face/happy_face_black" stroke="#242424">
            <circle id="Line" cx="32" cy="32" r="28"></circle>
            <g id="Page-1" fill-rule="evenodd" transform="translate(14.000000, 22.000000)">
                <path d="M36,13 C36,21.6506099 27.9407815,29.0002 18,29.0002 C8.05921853,29.0002 0,21.6506099 0,13" id="Stroke-3"></path>
                <path d="M10,0 C10,2.208 8.208,4 6,4 C3.792,4 2,2.208 2,0" id="Combined-Shape" transform="translate(6.000000, 2.000000) scale(1, -1) translate(-6.000000, -2.000000) "></path>
                <path d="M34,0 C34,2.208 32.208,4 30,4 C27.792,4 26,2.208 26,0" id="Combined-Shape" transform="translate(30.000000, 2.000000) scale(1, -1) translate(-30.000000, -2.000000) "></path>
            </g>
        </g>
    </g>
</svg>