<?xml version="1.0" encoding="UTF-8"?>
<svg width="24px" height="24px" viewBox="0 0 24 24" version="1.1" xmlns="http://www.w3.org/2000/svg" xmlns:xlink="http://www.w3.org/1999/xlink">
    <!-- Generator: Sketch 51.3 (57544) - http://www.bohemiancoding.com/sketch -->
    <title>icon-share-black</title>
    <desc>Created with Sketch.</desc>
    <defs></defs>
    <g id="icon-share-black" stroke="none" stroke-width="1" fill="none" fill-rule="evenodd" stroke-linecap="round" stroke-linejoin="round">
        <g id="Icon/Outline-1pt/share/share_black" stroke="#242424">
            <path d="M22,37 L42,46" id="Stroke-1"></path>
            <path d="M42,18 L23,28" id="Stroke-2"></path>
            <path d="M23,31.5 C23,36.7478 18.7459,41 13.5,41 C8.2541,41 4,36.7478 4,31.5 C4,26.2522 8.2541,22 13.5,22 C18.7459,22 23,26.2522 23,31.5 L23,31.5 Z" id="Stroke-3"></path>
            <path d="M60,13.5 C60,18.7478 55.7459,23 50.5,23 C45.2541,23 41,18.7478 41,13.5 C41,8.2522 45.2541,4 50.5,4 C55.7459,4 60,8.2522 60,13.5 L60,13.5 Z" id="Stroke-5"></path>
            <path d="M60,50.5 C60,55.7478 55.7459,60 50.5,60 C45.2541,60 41,55.7478 41,50.5 C41,45.2522 45.2541,41 50.5,41 C55.7459,41 60,45.2522 60,50.5 L60,50.5 Z" id="Stroke-7"></path>
        </g>
    </g>
</svg>