<?xml version="1.0" encoding="UTF-8"?>
<svg width="64px" height="64px" viewBox="0 0 64 64" version="1.1" xmlns="http://www.w3.org/2000/svg" xmlns:xlink="http://www.w3.org/1999/xlink">
    <!-- Generator: Sketch 52.4 (67378) - http://www.bohemiancoding.com/sketch -->
    <title>icon-rocket</title>
    <desc>Created with Sketch.</desc>
    <g id="icon-rocket" stroke="none" stroke-width="1" fill="none" fill-rule="evenodd" stroke-linecap="round" stroke-linejoin="round">
        <g id="Icon/Outline-1pt/rocket-launch/rocket_launch_black" stroke="#242424">
            <path d="M38.8145795,42.6838667 L39.5317551,46 L47.4828038,46 C47.4828038,46 48.9773901,37.4488 46.8851575,34.5984 C44.4079842,31.2234667 40.4879892,29.3045333 40.4879892,29.3045333 C42.8795155,9.99106667 31.9995294,4 31.9995294,4 C31.9995294,4 21.1195433,9.99106667 23.5110696,29.3045333 C23.5110696,29.3045333 19.5910746,31.2234667 17.1148425,34.5984 C15.0226099,37.4488 16.5171962,46 16.5171962,46 L24.4673037,46 L25.1844793,42.6838667 L38.8145795,42.6838667 L38.8145795,42.6838667 Z" id="Line"></path>
            <path d="M36,22 C36,24.209 34.209,26 32,26 C29.791,26 28,24.209 28,22 C28,19.791 29.791,18 32,18 C34.209,18 36,19.791 36,22 L36,22 Z" id="Line"></path>
            <path d="M35.0735341,48 C34.6585341,50.676 32.0005341,52.403 32.0005341,52.403 C32.0005341,52.403 29.3425341,50.676 28.9265341,48 C28.9265341,48 25.4375341,51.798 32.0005341,60 C38.5625341,51.798 35.0735341,48 35.0735341,48 L35.0735341,48 Z" id="Line"></path>
        </g>
    </g>
</svg>