<?xml version="1.0" encoding="UTF-8"?>
<svg width="64px" height="64px" viewBox="0 0 64 64" version="1.1" xmlns="http://www.w3.org/2000/svg" xmlns:xlink="http://www.w3.org/1999/xlink">
    <!-- Generator: Sketch 51.3 (57544) - http://www.bohemiancoding.com/sketch -->
    <title>icon-social-twitter</title>
    <desc>Created with Sketch.</desc>
    <defs></defs>
    <g id="icon-social-twitter" stroke="none" stroke-width="1" fill="none" fill-rule="evenodd">
        <path d="M32.0007317,3.46343248 C16.2649821,3.46343248 3.46345033,16.2648081 3.46345033,32.0003659 C3.46345033,47.7351919 16.2649821,60.5365675 32.0007317,60.5365675 C47.7357497,60.5365675 60.5365497,47.7351919 60.5365497,32.0003659 C60.5365497,16.2648081 47.7357497,3.46343248 32.0007317,3.46343248 M32.0007317,62 C15.4586209,62 2,48.5422749 2,32.0003659 C2,15.4577251 15.4586209,2 32.0007317,2 C48.5421108,2 62,15.4577251 62,32.0003659 C62,48.5422749 48.5421108,62 32.0007317,62 Z M45.171053,25.2559178 C44.2015171,25.6854352 43.1595405,25.9759265 42.0670748,26.1069037 C43.1844191,25.4381151 44.0412693,24.3793217 44.4429864,23.1178429 C43.3980829,23.7368748 42.2434206,24.1861486 41.0097319,24.427615 C40.027025,23.3776022 38.6206493,22.7212527 37.0657333,22.7212527 C34.0824898,22.7212527 31.6626747,25.14177 31.6626747,28.1249771 C31.6626747,28.5493726 31.7087734,28.9605971 31.8017025,29.3564556 C27.3118369,29.1296235 23.3297885,26.9805729 20.6619186,23.7090696 C20.1965414,24.5095672 19.9316569,25.4381151 19.9316569,26.4281272 C19.9316569,28.3013207 20.8858265,29.9557312 22.3346423,30.9267186 C21.4507183,30.8989134 20.6158199,30.6537885 19.8855582,30.2513445 L19.8855582,30.317199 C19.8855582,32.9374748 21.7492622,35.1216478 24.2224932,35.616288 C23.7695554,35.7436066 23.2932023,35.8065342 22.7985561,35.8065342 C22.4502549,35.8065342 22.1114661,35.7743387 21.7821898,35.7114111 C22.4700115,37.8575348 24.4639625,39.4204807 26.8303617,39.4621886 C24.9798288,40.9124502 22.6485524,41.776607 20.1182468,41.776607 C19.6821386,41.776607 19.2511525,41.7517287 18.828947,41.701972 C21.2209566,43.2334541 24.0615137,44.128343 27.1120759,44.128343 C37.0554892,44.128343 42.4892802,35.8958036 42.4892802,28.7527897 C42.4892802,28.5179088 42.4848899,28.2837596 42.473914,28.0540007 C43.5312569,27.2908206 44.4495719,26.3388578 45.171053,25.2559178 Z" id="Combined-Shape" fill="#000000"></path>
    </g>
</svg>