<?xml version="1.0" encoding="UTF-8"?>
<svg width="64px" height="64px" viewBox="0 0 64 64" version="1.1" xmlns="http://www.w3.org/2000/svg" xmlns:xlink="http://www.w3.org/1999/xlink">
    <!-- Generator: Sketch 52.2 (67145) - http://www.bohemiancoding.com/sketch -->
    <title>icon-data</title>
    <desc>Created with Sketch.</desc>
    <g id="icon-data" stroke="none" stroke-width="1" fill="none" fill-rule="evenodd" stroke-linecap="round" stroke-linejoin="round">
        <g id="Icon/Outline-1pt/mobile-data-auto-renewal/mobile_data_auto_renewal_consumer" stroke="#719E19">
            <path d="M46.03625,50.5 C45.396,51.25025 45,52.20675 45,53.21825 C45,55.492 47.001,57.48825 49.2805,57.48825 L55.5,57.48825" id="Line"></path>
            <polyline id="Line" points="52.982025 60 55.500025 57.48825 52.982025 54.9765"></polyline>
            <path d="M58.9638,55.5 C59.60405,54.74975 60.00005,53.79325 60.00005,52.78175 C60.00005,50.508 57.9988,48.51175 55.71955,48.51175 L49.50005,48.51175" id="Line"></path>
            <polyline id="Line" points="52.018025 46 49.500025 48.51175 52.018025 51.0235"></polyline>
            <path d="M58.3250068,41.5614269 C59.4088749,38.5779373 60,35.358001 60,32 C60,16.536027 47.463973,4 32,4 C16.536027,4 4,16.536027 4,32 C4,47.463973 16.536027,60 32,60 C35.3316508,60 38.5273952,59.4181156 41.4911491,58.350431" id="Oval-3"></path>
            <polyline id="line" points="24.5226668 42 24.5226668 22 15 35.7226672 28 35.7226672"></polyline>
            <path d="M45,22.2895032 C37.8268502,21.3651245 33.9858551,22.6543896 33.4770146,26.1572985 C32.9681742,29.6602073 32.866426,32.9198587 33.17177,35.9362524 C33.4709301,39.9256764 35.358135,41.9447142 38.8333848,41.9933657 C42.3086346,42.0420172 44.364173,41.8230854 45,41.3365703 L45,32.0559257 L40.9495605,32.0559257" id="line"></path>
        </g>
    </g>
</svg>