<?xml version="1.0" encoding="UTF-8"?>
<svg width="64px" height="64px" viewBox="0 0 64 64" version="1.1" xmlns="http://www.w3.org/2000/svg" xmlns:xlink="http://www.w3.org/1999/xlink">
    <!-- Generator: Sketch 52.2 (67145) - http://www.bohemiancoding.com/sketch -->
    <title>icon-call us</title>
    <desc>Created with Sketch.</desc>
    <g id="icon-call-us" stroke="none" stroke-width="1" fill="none" fill-rule="evenodd" stroke-linecap="round">
        <g id="icon-/-2pt" transform="translate(2.000000, 2.000000)" stroke="#719E19" stroke-width="2">
            <path d="M39.6428571,48.3683223 C36.4919339,45.5525364 31.092328,43.49078 26.9104702,43.5366896 C25.658127,44.4771398 23.1825004,47.1371115 22.2954816,48.4197966 C19.9305594,47.6045543 17.3552989,45.0113601 15.073405,42.2233981 C12.7928949,39.434045 10.758702,36.3928848 10.4196698,33.9026394 C11.8436048,33.2738176 14.9184188,31.3470076 16.0780472,30.2938702 C16.9304709,26.1773136 15.9618076,20.4539226 13.8224455,16.8020263 C11.3426675,16.3846667 5.36047989,16.5070922 1.03609025,18.4839854 C-0.737947351,23.7830608 -1.33021576,35.7348479 8.55845252,48.3057184 C18.9176144,60.4884444 30.8487784,60.4661852 36.3646238,59.7413708 C39.1280818,55.8585355 39.5695155,50.8947389 39.6428571,48.3683223 Z" id="Stroke"></path>
            <path d="M32.6785714,35.3571429 L23.0645563,35.3571429 L23.0645563,33.8751896 L27.5405671,29.9429776 C28.6928755,28.8466199 29.6899862,28.0078055 30.1528323,27.4265345 C30.6170519,26.8452635 31.0524294,26.2898908 31.2708049,25.7604162 C31.487807,25.2309416 31.6443781,24.6755688 31.6443781,24.0957366 C31.6443781,23.2497283 31.1362087,21.603753 28.9455867,21.022482 C26.7535913,20.4426498 24.3226189,21.8785618 23.0357143,23.9245206" id="Stroke"></path>
            <polyline id="Stroke" points="45.5357143 30.7792208 35.8928571 30.7792208 35.8928571 29.0321591 41.0752041 20.8928571 42.7806122 20.8928571 42.7806122 36.4285714"></polyline>
            <path d="M29.4642857,0 L29.4642857,5.35714286" id="Stroke"></path>
            <path d="M19.8214286,1.60714286 L21.4285714,6.96428571" id="Stroke"></path>
            <path d="M10.1785714,6.96428571 L13.9285714,11.25" id="Stroke"></path>
            <path d="M49.2857143,54.1071429 L45.5357143,49.8214286" id="Stroke"></path>
            <path d="M56.25,46.0714286 L51.4285714,42.8571429" id="Stroke"></path>
            <path d="M60,35.565 L54.6428571,34.8214286" id="Stroke"></path>
            <path d="M60,25.1785714 L54.6428571,25.9221429" id="Stroke"></path>
            <path d="M56.25,15.5357143 L51.4285714,18.75" id="Stroke"></path>
            <path d="M49.2857143,6.96428571 L45.5357143,11.25" id="Stroke"></path>
            <path d="M40.1785714,1.60714286 L38.5714286,6.96428571" id="Stroke"></path>
        </g>
    </g>
</svg>