<?xml version="1.0" encoding="UTF-8"?>
<svg width="64px" height="64px" viewBox="0 0 64 64" version="1.1" xmlns="http://www.w3.org/2000/svg" xmlns:xlink="http://www.w3.org/1999/xlink">
    <!-- Generator: Sketch 51.3 (57544) - http://www.bohemiancoding.com/sketch -->
    <title>icon-social-instagram</title>
    <desc>Created with Sketch.</desc>
    <defs></defs>
    <g id="icon-social-instagram" stroke="none" stroke-width="1" fill="none" fill-rule="evenodd">
        <path d="M32,21.34325 C35.471,21.34325 35.8826667,21.35625 37.2541667,21.4190833 C40.7771667,21.5794167 42.42275,23.251 42.5830833,26.748 C42.6459167,28.1184167 42.6578333,28.5300833 42.6578333,32.0010833 C42.6578333,35.4731667 42.6448333,35.88375 42.5830833,37.2541667 C42.4216667,40.7479167 40.7804167,42.42275 37.2541667,42.5830833 C35.8826667,42.6459167 35.4731667,42.6589167 32,42.6589167 C28.529,42.6589167 28.1173333,42.6459167 26.7469167,42.5830833 C23.21525,42.4216667 21.5783333,40.7425 21.418,37.2530833 C21.3551667,35.8826667 21.3421667,35.4720833 21.3421667,32 C21.3421667,28.529 21.35625,28.1184167 21.418,26.7469167 C21.5794167,23.251 23.2206667,21.5783333 26.7469167,21.418 C28.1184167,21.35625 28.529,21.34325 32,21.34325 Z M32,19 C28.4694167,19 28.0274167,19.0151667 26.64075,19.078 C21.9195833,19.2946667 19.29575,21.9141667 19.0790833,26.6396667 C19.0151667,28.0274167 19,28.4694167 19,32 C19,35.5305833 19.0151667,35.9736667 19.078,37.3603333 C19.2946667,42.0815 21.9141667,44.7053333 26.6396667,44.922 C28.0274167,44.9848333 28.4694167,45 32,45 C35.5305833,45 35.9736667,44.9848333 37.3603333,44.922 C42.0771667,44.7053333 44.7075,42.0858333 44.9209167,37.3603333 C44.9848333,35.9736667 45,35.5305833 45,32 C45,28.4694167 44.9848333,28.0274167 44.922,26.64075 C44.7096667,21.9239167 42.0869167,19.29575 37.3614167,19.0790833 C35.9736667,19.0151667 35.5305833,19 32,19 Z M32,25.3245 C28.3134167,25.3245 25.3245,28.3134167 25.3245,32 C25.3245,35.6865833 28.3134167,38.6765833 32,38.6765833 C35.6865833,38.6765833 38.6755,35.6876667 38.6755,32 C38.6755,28.3134167 35.6865833,25.3245 32,25.3245 Z M32,36.3333333 C29.6069167,36.3333333 27.6666667,34.3941667 27.6666667,32 C27.6666667,29.6069167 29.6069167,27.6666667 32,27.6666667 C34.3930833,27.6666667 36.3333333,29.6069167 36.3333333,32 C36.3333333,34.3941667 34.3930833,36.3333333 32,36.3333333 Z M38.9398333,23.50125 C38.0775,23.50125 37.37875,24.2 37.37875,25.06125 C37.37875,25.9225 38.0775,26.62125 38.9398333,26.62125 C39.8010833,26.62125 40.49875,25.9225 40.49875,25.06125 C40.49875,24.2 39.8010833,23.50125 38.9398333,23.50125 Z" id="Shape" fill="#000000" fill-rule="nonzero"></path>
        <path d="M32,3.46341463 C16.2646341,3.46341463 3.46341463,16.2646341 3.46341463,32 C3.46341463,47.7353659 16.2646341,60.5365854 32,60.5365854 C47.7353659,60.5365854 60.5365854,47.7353659 60.5365854,32 C60.5365854,16.2646341 47.7353659,3.46341463 32,3.46341463 M32,62 C15.4582927,62 2,48.5417073 2,32 C2,15.4582927 15.4582927,2 32,2 C48.5417073,2 62,15.4582927 62,32 C62,48.5417073 48.5417073,62 32,62" id="Fill-3" fill="#000000"></path>
    </g>
</svg>