<?xml version="1.0" encoding="UTF-8"?>
<svg width="64px" height="64px" viewBox="0 0 64 64" version="1.1" xmlns="http://www.w3.org/2000/svg" xmlns:xlink="http://www.w3.org/1999/xlink">
    <!-- Generator: Sketch 52.2 (67145) - http://www.bohemiancoding.com/sketch -->
    <title>icon- account</title>
    <desc>Created with Sketch.</desc>
    <g id="icon--account" stroke="none" stroke-width="1" fill="none" fill-rule="evenodd" stroke-linecap="round" stroke-linejoin="round">
        <g id="Icon/Outline-1pt/account-linked/account_linked_consumer" stroke="#719E19">
            <path d="M38.7469949,59.1818686 C36.5860234,59.7169334 34.3260937,60 32.0005753,60 C16.5366265,60 4,47.4656749 4,32.0005753 C4,16.5366265 16.5366265,4 32.0005753,4 C47.4633735,4 60,16.5366265 60,32.0005753 C60,33.7219882 59.8446586,35.4077301 59.5466332,37.0439928" id="Line"></path>
            <path d="M41.1766235,23.6809922 C41.1766235,29.1682471 36.7276824,33.616051 31.2415647,33.616051 C25.7543098,33.616051 21.3076431,29.1682471 21.3076431,23.6809922 C21.3076431,18.1937373 25.7543098,13.7459333 31.2415647,13.7459333 C36.7276824,13.7459333 41.1766235,18.1937373 41.1766235,23.6809922 L41.1766235,23.6809922 Z" id="Line"></path>
            <path d="M38.1791608,31.5538667 C38.1791608,31.5538667 43.9370824,33.6930431 46.9394353,41.9836314" id="Line"></path>
            <path d="M24.3044235,31.5538667 C24.3044235,31.5538667 13.7677569,35.4671608 13.7677569,53.2299451" id="Line"></path>
            <path d="M55.030651,51.7751569 L58.2524941,48.5533137 C60.2358667,46.5699412 60.2347294,43.343549 58.2524941,41.3613137 C56.2702588,39.3790784 53.0450039,39.3802157 51.0627686,41.362451 L47.8409255,44.5854314" id="Line"></path>
            <path d="M45.8584627,53.7568235 L53.9397961,45.6754902" id="Line"></path>
            <path d="M52.2294784,54.5763294 L49.0076353,57.7981725 C47.0242627,59.7815451 43.7978706,59.7804078 41.8156353,57.7981725 C39.8334,55.8159373 39.8345373,52.5906824 41.8167725,50.6084471 L45.0397529,47.3866039" id="Line"></path>
        </g>
    </g>
</svg>