<?xml version="1.0" encoding="UTF-8"?>
<svg width="64px" height="64px" viewBox="0 0 64 64" version="1.1" xmlns="http://www.w3.org/2000/svg" xmlns:xlink="http://www.w3.org/1999/xlink">
    <!-- Generator: Sketch 51.3 (57544) - http://www.bohemiancoding.com/sketch -->
    <title>icon-social-instagram copy</title>
    <desc>Created with Sketch.</desc>
    <defs></defs>
    <g id="icon-social-instagram-copy" stroke="none" stroke-width="1" fill="none" fill-rule="evenodd">
        <path d="M32,3.46341463 C16.2646341,3.46341463 3.46341463,16.2646341 3.46341463,32 C3.46341463,47.7353659 16.2646341,60.5365854 32,60.5365854 C47.7353659,60.5365854 60.5365854,47.7353659 60.5365854,32 C60.5365854,16.2646341 47.7353659,3.46341463 32,3.46341463 M32,62 C15.4582927,62 2,48.5417073 2,32 C2,15.4582927 15.4582927,2 32,2 C48.5417073,2 62,15.4582927 62,32 C62,48.5417073 48.5417073,62 32,62 Z M45.1707317,42.9077073 L45.1707317,33.763561 C45.1707317,28.6694146 42.3031707,26.3052683 38.6541463,26.3052683 C35.7134146,26.3052683 33.8709756,27.9150244 33.53,29.0418537 L33.53,26.4625854 L27.7619512,26.4625854 C27.8387805,27.8330732 27.7619512,42.9077073 27.7619512,42.9077073 L33.53,42.9077073 L33.53,34.0086829 C33.53,33.5125854 33.505122,33.0201463 33.6558537,32.666 C34.0531707,31.6745366 34.9041463,30.6501463 36.4356098,30.6501463 C38.4382927,30.6501463 39.3470732,32.1691707 39.3470732,34.3964878 L39.3470732,42.9077073 L45.1707317,42.9077073 Z M21.9287805,24.4057561 C23.8582927,24.4057561 25.0612195,23.143561 25.0612195,21.5506341 C25.0231707,19.9299024 23.8582927,18.6999024 21.9660976,18.6999024 C20.0687805,18.6999024 18.8292683,19.9328293 18.8292683,21.553561 C18.8292683,23.1464878 20.0336585,24.4057561 21.8914634,24.4057561 L21.9287805,24.4057561 Z M19.4914634,42.9077073 L24.6287805,42.9077073 L24.6287805,26.4625854 L19.4914634,26.4625854 L19.4914634,42.9077073 Z" id="Combined-Shape" fill="#000000"></path>
    </g>
</svg>