<?xml version="1.0" encoding="UTF-8"?>
<svg width="64px" height="64px" viewBox="0 0 64 64" version="1.1" xmlns="http://www.w3.org/2000/svg" xmlns:xlink="http://www.w3.org/1999/xlink">
    <!-- Generator: Sketch 52.2 (67145) - http://www.bohemiancoding.com/sketch -->
    <title>icon-live chat</title>
    <desc>Created with Sketch.</desc>
    <g id="icon-live-chat" stroke="none" stroke-width="1" fill="none" fill-rule="evenodd">
        <g id="icon-/-2pt" transform="translate(2.000000, 5.000000)" stroke="#719E19" stroke-width="2">
            <path d="M56.0655738,27.1437579 L56.0655738,46.7213115 L3.93442623,46.7213115 L3.93442623,15.3972257 C3.93442623,13.9563178 5.10216393,12.7868852 6.54098361,12.7868852 L18.2704918,12.7868852" id="Stroke"></path>
            <path d="M60,46.7213115 L0,46.7213115 L0,49.3442623 C0,52.2413115 2.33608696,54.5901639 5.2173913,54.5901639 L54.7826087,54.5901639 C57.663913,54.5901639 60,52.2413115 60,49.3442623 L60,46.7213115 Z" id="Stroke"></path>
            <path d="M27.5409836,50.1639344 L33.9344262,50.1639344" id="Stroke"></path>
            <path d="M20.6557377,16.8324679 L20.6557377,3.88441566 C20.6557377,1.73892341 22.4170492,0 24.5901639,0 L56.0655738,0 C58.2386885,0 60,1.73892341 60,3.88441566 L60,20.7168835 C60,22.8623758 58.2386885,24.6012992 56.0655738,24.6012992 L45.5737705,24.6012992 L36.0091803,34.0443137 C35.1829508,34.860041 33.7704918,34.2825578 33.7704918,33.1288864 L33.7704918,24.6012992 L28.5245902,24.6012992" id="Stroke"></path>
            <path d="M30.9836066,44.2622951 L30.9836066,40.7808899 C30.9836066,37.0592037 23.5333402,34.9180328 20.6557377,34.9180328 C17.7781352,34.9180328 10.3278689,37.0592037 10.3278689,40.7808899 L10.3278689,44.2622951" id="Stroke"></path>
            <path d="M20.9016393,19.1803279 C18.0627664,19.1803279 15.7377049,21.5173902 15.7377049,24.3997233 L15.7377049,25.7642111 C15.7377049,28.647855 18.0627664,30.9836066 20.9016393,30.9836066 C23.7405123,30.9836066 26.0655738,28.647855 26.0655738,25.7642111 L26.0655738,24.3997233 C26.0655738,21.5173902 23.7405123,19.1803279 20.9016393,19.1803279 Z" id="Stroke"></path>
            <path d="M33.9344262,12.7868852 L36.3934426,12.7868852" id="Stroke"></path>
            <path d="M39.3442623,12.7868852 L41.8032787,12.7868852" id="Stroke"></path>
            <path d="M43.7704918,12.7868852 L46.2295082,12.7868852" id="Stroke"></path>
        </g>
    </g>
</svg>