<?xml version="1.0" encoding="UTF-8"?>
<svg width="64px" height="64px" viewBox="0 0 64 64" version="1.1" xmlns="http://www.w3.org/2000/svg" xmlns:xlink="http://www.w3.org/1999/xlink">
    <!-- Generator: Sketch 52.2 (67145) - http://www.bohemiancoding.com/sketch -->
    <title>icon-pay</title>
    <desc>Created with Sketch.</desc>
    <g id="icon-pay" stroke="none" stroke-width="1" fill="none" fill-rule="evenodd" stroke-linecap="round" stroke-linejoin="round">
        <g id="Icon/Outline-2pt" transform="translate(0.000000, 18.000000)" stroke="#7DA830">
            <path d="M5.64705882,19.2941176 L16.9411765,19.2941176" id="line"></path>
            <path d="M0,11.7647059 L17.8823529,11.7647059" id="line"></path>
            <path d="M12.2352941,26.3529412 L16,26.3529412" id="line"></path>
            <path d="M57.2463263,23.4258824 C56.8885315,24.9552941 56.2057675,26.3529412 54.0481914,26.3529412 L22.6163791,26.3529412 C21.3026301,26.3529412 20.4292439,24.9552941 20.7861212,23.4258824 L25.5769015,2.928 C25.9346963,1.39858824 26.7940028,0 28.7750364,0 L59.6763557,0 C61.6175322,0 62.3949014,1.39858824 62.0371066,2.928 L57.2463263,23.4258824 Z" id="line"></path>
            <path d="M24.9411765,6.21176506 L61.0533647,6.21411765" id="line"></path>
            <path d="M27.7323294,13.6470588 L42.4269176,13.6470588" id="line"></path>
            <path d="M26.5770353,18.3768471 L46.6146824,18.3768471" id="line"></path>
        </g>
    </g>
</svg>