<?xml version="1.0" encoding="UTF-8"?>
<svg width="64px" height="64px" viewBox="0 0 64 64" version="1.1" xmlns="http://www.w3.org/2000/svg" xmlns:xlink="http://www.w3.org/1999/xlink">
    <!-- Generator: Sketch 52.2 (67145) - http://www.bohemiancoding.com/sketch -->
    <title>icon-tweet us</title>
    <desc>Created with Sketch.</desc>
    <g id="icon-tweet-us" stroke="none" stroke-width="1" fill="none" fill-rule="evenodd" stroke-linecap="round" stroke-linejoin="round">
        <g id="icon-/-2pt" transform="translate(2.000000, 5.000000)" stroke="#719E19" stroke-width="2">
            <polyline id="Stroke" points="53 10.6666667 53 0 0 0 0 44 10.6 44"></polyline>
            <path d="M0,8 L53,8" id="Stroke"></path>
            <path d="M4,4 L7,4" id="Stroke"></path>
            <path d="M9,4 L12,4" id="Stroke"></path>
            <path d="M60,18.4975714 C58.3070761,19.2602857 56.4886515,19.776 54.5794393,20.0080714 C56.5287049,18.8205714 58.0253672,16.9422857 58.728972,14.7002857 C56.9065421,15.8009286 54.8865154,16.5989286 52.7369826,17.0291429 C51.0146862,15.1644286 48.5620828,14 45.8477971,14 C40.635514,14 36.411215,18.2953571 36.411215,23.5922857 C36.411215,24.3441429 36.493992,25.077 36.6542056,25.7786429 C28.811749,25.3782857 21.8571429,21.5592857 17.2029372,15.7547857 C16.3898531,17.1716429 15.9252336,18.8192143 15.9252336,20.5780714 C15.9252336,23.9057857 17.5914553,26.8426429 20.1228304,28.5635 C18.576769,28.5132857 17.1214953,28.0817143 15.8491322,27.3624286 C15.8477971,27.4031429 15.8477971,27.4438571 15.8477971,27.4832143 C15.8477971,32.1314286 19.1014686,36.0087857 23.4178905,36.8909286 C22.6261682,37.1094286 21.7930574,37.2275 20.9319092,37.2275 C20.3244326,37.2275 19.7329773,37.1664286 19.1562083,37.0551429 C20.3578104,40.8646429 23.8424566,43.6386429 27.9719626,43.7173571 C24.7423231,46.2905 20.6728972,47.8227143 16.2510013,47.8227143 C15.4899866,47.8227143 14.7383178,47.7779286 14,47.6897143 C18.176235,50.4121429 23.1375167,52 28.4672897,52 C45.8264352,52 55.3190921,37.3822143 55.3190921,24.7037857 C55.3190921,24.2898571 55.3097463,23.8745714 55.2910547,23.4633571 C57.1348465,22.1116429 58.7356475,20.422 60,18.4975714 Z" id="Stroke"></path>
        </g>
    </g>
</svg>