<?xml version="1.0" encoding="UTF-8"?>
<svg width="64px" height="64px" viewBox="0 0 64 64" version="1.1" xmlns="http://www.w3.org/2000/svg" xmlns:xlink="http://www.w3.org/1999/xlink">
    <!-- Generator: Sketch 52.2 (67145) - http://www.bohemiancoding.com/sketch -->
    <title>icon-filter</title>
    <desc>Created with Sketch.</desc>
    <g id="icon-filter" stroke="none" stroke-width="1" fill="none" fill-rule="evenodd" stroke-linecap="round" stroke-linejoin="round">
        <g id="Icon/Outline-1pt/filter-sliders/filter_sliders_black" stroke="#242424">
            <path d="M55.5,23.5 L55.5,60" id="Line"></path>
            <path d="M55.5,4.5 L55.5,13.5" id="Line"></path>
            <path d="M60,18.4185208 C60,20.8586489 57.985125,22.8370416 55.5,22.8370416 C53.014875,22.8370416 51,20.8586489 51,18.4185208 C51,15.9783927 53.014875,14 55.5,14 C57.985125,14 60,15.9783927 60,18.4185208 L60,18.4185208 Z" id="Line"></path>
            <path d="M32.5,4.5 L32.5,27.5" id="Line"></path>
            <path d="M32.5,37.5 L32.5,60" id="Line"></path>
            <path d="M37,32.4185208 C37,34.8586489 34.985125,36.8370416 32.5,36.8370416 C30.014875,36.8370416 28,34.8586489 28,32.4185208 C28,29.9783927 30.014875,28 32.5,28 C34.985125,28 37,29.9783927 37,32.4185208 L37,32.4185208 Z" id="Line"></path>
            <path d="M8.5,13.5 L8.5,60" id="Line"></path>
            <path d="M13,8.41852082 C13,10.8586489 10.985125,12.8370416 8.5,12.8370416 C6.014875,12.8370416 4,10.8586489 4,8.41852082 C4,5.9783927 6.014875,4 8.5,4 C10.985125,4 13,5.9783927 13,8.41852082 L13,8.41852082 Z" id="Line"></path>
        </g>
    </g>
</svg>