<?xml version="1.0" encoding="UTF-8"?>
<svg width="64px" height="64px" viewBox="0 0 64 64" version="1.1" xmlns="http://www.w3.org/2000/svg" xmlns:xlink="http://www.w3.org/1999/xlink">
    <!-- Generator: Sketch 52.2 (67145) - http://www.bohemiancoding.com/sketch -->
    <title>icon-faqs</title>
    <desc>Created with Sketch.</desc>
    <g id="icon-faqs" stroke="none" stroke-width="1" fill="none" fill-rule="evenodd" stroke-linecap="round" stroke-linejoin="round">
        <g id="icon-/-2pt" transform="translate(2.000000, 2.000000)" stroke="#719E19" stroke-width="2">
            <path d="M25.5652174,46.9565217 C25.5652174,49.261913 27.4337391,51.1304348 29.7391304,51.1304348 C32.0445217,51.1304348 33.9130435,49.261913 33.9130435,46.9565217 C33.9130435,44.6511304 32.0445217,42.7826087 29.7391304,42.7826087 C27.4337391,42.7826087 25.5652174,44.6511304 25.5652174,46.9565217 Z" id="Stroke"></path>
            <path d="M26.0277779,33.8729981 C26.0277779,30.1085286 31.9644502,26.1431938 34.3133264,23.8662516 C36.3086395,21.9320447 36.0391201,18.6577991 33.5844648,17.0326158 C32.1267415,16.0662147 30.1183871,16.0184565 28.6229891,16.9286715 C27.3203119,17.723705 26.5871032,18.965418 26.4465473,20.2548893 C26.4465473,21.8899051 26.1089235,22.6357758 24.4208046,22.6357758 L21.5227464,22.6357758 C19.8375255,22.6357758 18.7768362,21.8885005 18.7826323,20.2548893 C18.9188411,16.9188389 20.5011809,13.6263328 23.5311007,11.339558 C27.6173629,8.25774977 33.4337657,8.02738671 37.728688,10.8310737 C44.3275666,15.1391438 45.1709016,24.0418332 39.7138579,29.1027972 C38.0097997,30.681627 33.2729235,33.3336115 33.2729235,35.2776509 L33.2729235,36.6823037 C33.2729235,37.4590767 32.4658143,38.0869565 31.6659502,38.0869565 L27.3188629,38.0869565 C26.5175498,38.0869565 26.0277779,37.4590767 26.0277779,36.6823037 L26.0277779,33.8729981 Z" id="Stroke"></path>
            <path d="M60,30 C60,46.5685714 46.5685714,60 30,60 C13.4314286,60 0,46.5685714 0,30 C0,13.4314286 13.4314286,0 30,0 C46.5685714,0 60,13.4314286 60,30 Z" id="Stroke"></path>
        </g>
    </g>
</svg>