<?xml version="1.0" encoding="UTF-8"?>
<svg width="64px" height="64px" viewBox="0 0 64 64" version="1.1" xmlns="http://www.w3.org/2000/svg" xmlns:xlink="http://www.w3.org/1999/xlink">
    <!-- Generator: Sketch 51.3 (57544) - http://www.bohemiancoding.com/sketch -->
    <title>icon-social-facebook</title>
    <desc>Created with Sketch.</desc>
    <defs></defs>
    <g id="icon-social-facebook" stroke="none" stroke-width="1" fill="none" fill-rule="evenodd">
        <path d="M31.9992683,3.46343248 C16.2646341,3.46343248 3.46341463,16.2648081 3.46341463,32.0003659 C3.46341463,47.7351919 16.2646341,60.5365675 31.9992683,60.5365675 C47.7346341,60.5365675 60.5365854,47.7351919 60.5365854,32.0003659 C60.5365854,16.2648081 47.7346341,3.46343248 31.9992683,3.46343248 M31.9992683,62 C15.457561,62 2,48.5422749 2,32.0003659 C2,15.4577251 15.457561,2 31.9992683,2 C48.5417073,2 62,15.4577251 62,32.0003659 C62,48.5422749 48.5417073,62 31.9992683,62 Z M25.6454146,27.5396773 L25.6454146,31.480701 L28.3680976,31.480701 L28.3680976,45.1703801 L33.4724878,45.1703801 L33.4724878,31.480701 L37.5129756,31.480701 L37.8159024,27.5396773 L33.4724878,27.5396773 L33.4724878,24.4628105 C33.4724878,23.4047488 34.4207805,23.0249881 35.4802927,23.0249881 C36.5390732,23.0249881 37.6732195,23.3535287 37.6732195,23.3535287 L38.354439,19.3188454 C38.354439,19.3188454 36.9085854,18.8285955 33.4724878,18.8285955 C31.3637073,18.8285955 30.1380976,19.6305565 29.2446829,20.8115465 C28.3973659,21.9259503 28.3680976,23.7259723 28.3680976,24.8937914 L28.3680976,27.5396773 L25.6454146,27.5396773 Z" id="Combined-Shape" fill="#000000"></path>
    </g>
</svg>