<?xml version="1.0" encoding="UTF-8"?>
<svg width="64px" height="64px" viewBox="0 0 64 64" version="1.1" xmlns="http://www.w3.org/2000/svg" xmlns:xlink="http://www.w3.org/1999/xlink">
    <!-- Generator: Sketch 52.4 (67378) - http://www.bohemiancoding.com/sketch -->
    <title>icon-people</title>
    <desc>Created with Sketch.</desc>
    <g id="icon-people" stroke="none" stroke-width="1" fill="none" fill-rule="evenodd" stroke-linecap="round" stroke-linejoin="round">
        <g id="Icon/Outline-1pt/family/family_black" stroke="#242424">
            <path d="M43,30 L52.6510623,30 C56.7095494,30 60,33.175 60,37.094 L60,51.422 L47.5273465,51.422" id="Line"></path>
            <path d="M4,30 L13.6510623,30 C17.7095494,30 21,33.175 21,37.094 L21,51.422 L8.52734649,51.422" id="Line" transform="translate(12.500000, 40.711000) scale(-1, 1) translate(-12.500000, -40.711000) "></path>
            <path d="M56,18 C56,22.4180144 52.4184564,26 48.0004813,26 C43.5825062,26 40,22.4180144 40,18 C40,13.5819856 43.5825062,10 48.0004813,10 C52.4184564,10 56,13.5819856 56,18 Z" id="Line"></path>
            <path d="M43,54 L21,54 L21,43.2983798 C21,40.3719886 23.5071505,38 26.600286,38 L37.3987308,38 C40.4918663,38 43,40.3719886 43,43.2983798 L43,54 Z" id="Line"></path>
            <path d="M38,28 C38,31.3139253 35.3141472,34 32.0004692,34 C28.6867913,34 26,31.3139253 26,28 C26,24.6860747 28.6867913,22 32.0004692,22 C35.3141472,22 38,24.6860747 38,28 Z" id="Line"></path>
            <path d="M24,18 C24,22.4180144 20.4184564,26 16.0004813,26 C11.5825062,26 8,22.4180144 8,18 C8,13.5819856 11.5825062,10 16.0004813,10 C20.4184564,10 24,13.5819856 24,18 Z" id="Line"></path>
        </g>
    </g>
</svg>