<?xml version="1.0" encoding="UTF-8"?>
<svg width="64px" height="64px" viewBox="0 0 64 64" version="1.1" xmlns="http://www.w3.org/2000/svg" xmlns:xlink="http://www.w3.org/1999/xlink">
    <!-- Generator: Sketch 52.4 (67378) - http://www.bohemiancoding.com/sketch -->
    <title>icon-etisalat</title>
    <desc>Created with Sketch.</desc>
    <g id="icon-etisalat" stroke="none" stroke-width="1" fill="none" fill-rule="evenodd" stroke-linecap="round" stroke-linejoin="round">
        <g id="Icon/Outline-1pt/etisalat-logo/etisalat_logo_black" stroke="#242424">
            <path d="M5.23854962,26.7256248 C7.3721405,35.5096138 10.8062058,43.440274 12.5227546,49.3695412 C14.4986243,55.432095 14.5112033,58.5414541 15.2775543,58.9442981 C15.3530282,58.9860745 15.4410812,59 15.5494541,59 C16.5577088,59 19.0976979,57.3806665 24.4698959,55.7106045 C30.1623744,53.7192619 39.3363314,51.6642601 47.5417058,48.3688965 C53.1741922,46.1010339 61.9452827,40.3687517 59.614637,32.0989714 C57.9029263,26.1786563 49.297038,19.2581653 38.5922355,12.8271123 C10.2677202,-4.18921862 5.2385496,11.8413878 5.2385496,11.8413878 C3.45730974,16.0304761 3.72229706,20.4890025 5.23854962,26.7256248 Z" id="Line"></path>
            <path d="M21.6264309,49 C20.9598246,49 20.3936396,48.8871362 19.9077916,48.6302739 C18.295312,47.7906065 17.4087352,45.2696583 16.1109091,41.2766164 C14.9326322,37.3438983 13.3450188,31.9303299 13.0370601,26.7181649 C12.7319705,21.4982162 14.2966304,17.7445234 18.2484488,16.5127517 C19.2612696,16.1663767 20.4395465,16 21.7440673,16 C25.3754938,16 29.9652266,17.3008521 34.5817385,19.7283958 C40.8556804,23.019931 45.4339365,27.4809682 46.6217774,31.4127134 C47.9167343,35.4047823 45.811712,38.8772887 41.4515136,41.6424507 C37.0941844,44.4076127 31.8368889,46.2260813 28.0017506,47.5240145 C25.2396859,48.388979 23.1710066,49 21.6264309,49" id="Line"></path>
            <path d="M19.6633487,48.5407339 C16.7303061,47.0039697 14.959477,38.3368273 15.0007045,30.7176179 C15.0213182,25.7415237 18.1310502,23 22.7956482,23 C25.2859859,23 28.2209918,23.7862746 31.3631168,25.4313876 C40.384088,30.147047 42.7065709,37.5585049 36.5783965,42.0008072 C31.7243483,45.5295995 24.6322783,49.2275244 21.1018256,48.9890475 C21.1018256,48.9890475 20.2680188,48.8598163 19.6633487,48.5407339 Z" id="Line"></path>
        </g>
    </g>
</svg>