<?xml version="1.0" encoding="UTF-8"?>
<svg width="64px" height="64px" viewBox="0 0 64 64" version="1.1" xmlns="http://www.w3.org/2000/svg" xmlns:xlink="http://www.w3.org/1999/xlink">
    <!-- Generator: Sketch 52.4 (67378) - http://www.bohemiancoding.com/sketch -->
    <title>icon-questions</title>
    <desc>Created with Sketch.</desc>
    <g id="icon-questions" stroke="none" stroke-width="1" fill="none" fill-rule="evenodd" stroke-linecap="round" stroke-linejoin="round">
        <g id="Icon/Outline-1pt/question-mark-circle/question_mark_circle_black" stroke="#242424">
            <path d="M33,43.5 C33,44.3295 32.328,45 31.5,45 C30.6705,45 30,44.3295 30,43.5 C30,42.672 30.6705,42 31.5,42 C32.328,42 33,42.672 33,43.5 L33,43.5 Z" id="Line"></path>
            <path d="M24.4346,27.4742 C24.4346,23.2982 27.8216,19.7522 31.9996,19.7522 C36.1776,19.7522 39.5656,23.0632 39.5656,27.2392 C39.5656,31.4182 35.9166,34.2472 31.7396,34.2472 L31.7396,38.2472" id="Line"></path>
            <path d="M59.9999237,32.0646895 C59.9641996,47.529337 47.396096,60.0356477 31.9353105,59.9999237 C16.470663,59.9641996 3.9643523,47.399958 4.00007634,31.9353105 C4.03580038,16.4716285 16.600042,3.9643523 32.0646895,4.00007634 C47.5254749,4.03580038 60.0356477,16.6010075 59.9999237,32.0646895 L59.9999237,32.0646895 Z" id="Line"></path>
        </g>
    </g>
</svg>