<?xml version="1.0" encoding="UTF-8"?>
<svg width="64px" height="64px" viewBox="0 0 64 64" version="1.1" xmlns="http://www.w3.org/2000/svg" xmlns:xlink="http://www.w3.org/1999/xlink">
    <!-- Generator: Sketch 51.3 (57544) - http://www.bohemiancoding.com/sketch -->
    <title>icon-social-youtube</title>
    <desc>Created with Sketch.</desc>
    <defs></defs>
    <g id="icon-social-youtube" stroke="none" stroke-width="1" fill="none" fill-rule="evenodd">
        <path d="M31.9992683,3.46345033 C16.2646341,3.46345033 3.46341463,16.2649821 3.46341463,31.9992683 C3.46341463,47.7350179 16.2646341,60.5365497 31.9992683,60.5365497 C47.7346341,60.5365497 60.5365854,47.7350179 60.5365854,31.9992683 C60.5365854,16.2649821 47.7346341,3.46345033 31.9992683,3.46345033 M31.9992683,62 C15.457561,62 2,48.5413791 2,31.9992683 C2,15.4578892 15.457561,2 31.9992683,2 C48.5417073,2 62,15.4578892 62,31.9992683 C62,48.5413791 48.5417073,62 31.9992683,62 Z M45.17,36.7090173 L45.17,27.290251 C45.17,27.290251 45.17,22.7506281 40.6304878,22.7506281 L23.3658537,22.7506281 C23.3658537,22.7506281 18.8285366,22.7506281 18.8285366,27.290251 L18.8285366,36.7090173 C18.8285366,36.7090173 18.8285366,41.2486402 23.3658537,41.2486402 L40.6304878,41.2486402 C40.6304878,41.2486402 45.17,41.2486402 45.17,36.7090173 Z M37.1146341,32.0128052 L28.4907317,37.0778068 L28.4907317,26.9463402 L37.1146341,32.0128052 Z" id="Combined-Shape" fill="#000000"></path>
    </g>
</svg>