<?xml version="1.0" encoding="UTF-8"?>
<svg width="64px" height="64px" viewBox="0 0 64 64" version="1.1" xmlns="http://www.w3.org/2000/svg" xmlns:xlink="http://www.w3.org/1999/xlink">
    <!-- Generator: Sketch 52.4 (67378) - http://www.bohemiancoding.com/sketch -->
    <title>icon-autopay</title>
    <desc>Created with Sketch.</desc>
    <g id="icon-autopay" stroke="none" stroke-width="1" fill="none" fill-rule="evenodd" stroke-linecap="round" stroke-linejoin="round">
        <g id="Icon/Outline-1pt/credit-card-auto/credit_card_auto_black" stroke="#242424">
            <path d="M30.2265744,40.7945825 L8.36573339,40.7945825 C5.93314674,40.7945825 4,38.840982 4,36.3786682 L4,13.4159142 C4,10.9553668 5.93314674,9 8.36573339,9 L50.2767739,9 C52.7093605,9 54.6425073,10.9553668 54.6425073,13.4159142 L54.5989139,24.0083944" id="Stroke-1"></path>
            <path d="M4,16 L54.6425073,16" id="Stroke-3"></path>
            <path d="M47.6663301,23 L38.9348633,23" id="Stroke-5"></path>
            <path d="M28.4499062,23 L10.9869727,23" id="Stroke-7"></path>
            <path d="M17.9721461,28 L10.9869727,28" id="Stroke-9"></path>
            <polyline id="Stroke-5" points="58.1476887 34.9534738 58.1476887 41.1357537 52.9088086 41.1357537"></polyline>
            <path d="M39.9330022,44.9739717 C39.9330022,39.4381816 44.3685874,34.9516127 49.8414707,34.9516127 C53.7322123,34.9516127 56.3813394,37.4810484 58.0036459,40.7806195" id="Stroke-7"></path>
            <polyline id="Stroke-9" points="40.9311412 53.3414723 40.9311412 48.9255581 46.1700213 48.9255581"></polyline>
            <path d="M59.7177651,44.9330022 C59.7177651,50.467026 55.28218,54.9535948 49.8092966,54.9535948 C45.9168087,54.9535948 42.5517014,52.6873476 40.9311412,49.3860102" id="Stroke-11"></path>
        </g>
    </g>
</svg>