<svg xmlns="http://www.w3.org/2000/svg" width="60" height="53" viewBox="0 0 60 53">
  <path fill="#668C18" d="M45.0140641,-0.000214719755 L30,8.63753158 L14.9857211,-0.000214719755 L0,8.63753158 L0,8.85225134 L0,26.1852888 L0,43.4893392 L0,43.7311136 L14.9857211,52.3688599 L30,43.7311136 L45.0144936,52.3682158 L60,43.7306842 L60,8.63753158 L45.0140641,-0.000214719755 Z M15.2004409,17.3946621 L15.2004409,10.1049264 L15.2004409,0.585755491 L29.7852802,8.97635935 L29.7852802,10.1049264 L29.7852802,25.8131795 L15.2004409,17.3946621 Z M30.2147198,8.97635935 L44.7993444,0.585970211 L44.7995591,4.28838295 L44.7997738,17.3946621 L30.2147198,25.8131795 L30.2147198,8.97635935 Z M45.2292133,17.3946621 L45.2289986,10.1049264 L45.2289986,4.28795351 L45.2287839,0.586184931 L59.7852802,8.97635935 L59.7852802,10.1049264 L59.7852802,25.8127501 L45.2292133,17.3946621 Z M0.214719755,10.1049264 L0.214719755,8.97635935 L14.7707867,0.586184931 L14.7707867,17.3946621 L0.214719755,25.8129648 L0.214719755,10.1049264 Z M30.4300837,26.18443 L45.0144936,17.7665567 L59.5705605,26.18443 L45.0144936,34.5746044 L30.4300837,26.18443 Z M0.42943951,26.1850741 L14.9859359,17.7665567 L29.5699163,26.18443 L14.9859359,34.5746044 L0.42943951,26.1850741 Z M30.2147198,43.3652311 L30.2147198,26.5561099 L44.7997738,34.9467137 L44.7997738,42.5546641 L44.7997738,51.7551909 L30.2147198,43.3652311 Z M15.2004409,42.5546641 L15.2004409,34.9467137 L29.7852802,26.5561099 L29.7852802,42.5546641 L29.7852802,43.3652311 L15.2004409,51.755835 L15.2004409,42.5546641 Z M45.2292133,34.9462843 L59.7852802,26.5565393 L59.7852802,42.5546641 L59.7852802,43.3648017 L45.2292133,51.7547614 L45.2292133,34.9462843 Z M0.214719755,43.3654459 L0.214719755,42.5546641 L0.214719755,26.556754 L14.7707867,34.9462843 L14.7707867,51.7554056 L0.214719755,43.3654459 Z"/>
</svg>
