<?xml version="1.0" encoding="UTF-8"?>
<svg width="335px" height="360px" viewBox="0 0 335 360" version="1.1" xmlns="http://www.w3.org/2000/svg" xmlns:xlink="http://www.w3.org/1999/xlink">
    <!-- Generator: Sketch 52.6 (67491) - http://www.bohemiancoding.com/sketch -->
    <title>pattern-2@2x</title>
    <desc>Created with Sketch.</desc>
    <defs>
        <linearGradient x1="35.0535522%" y1="70.2553868%" x2="79.3528817%" y2="5.09310634%" id="linearGradient-1">
            <stop stop-color="#719E19" offset="0%"></stop>
            <stop stop-color="#FFFFFF" offset="100%"></stop>
        </linearGradient>
    </defs>
    <g id="pattern-2" stroke="none" stroke-width="1" fill="none" fill-rule="evenodd" opacity="0.08">
        <g id="wave-graphic" transform="translate(168.000000, 180.000000) scale(-1, -1) translate(-168.000000, -180.000000) " fill="url(#linearGradient-1)">
            <path d="M26.0722768,0 C41.193614,16.9207804 57.0148782,33.3043931 71.2904705,50.889565 C93.3381676,78.0730743 111.375867,107.829334 126.511786,139.154688 C165.241074,219.362297 233.119401,262.689107 319.399972,282.818757 C324.736915,284.062724 330.103021,285.236012 335.454545,286.437571 L335.454545,303.287671 C308.609433,295.456333 280.87483,289.731257 255.094189,279.411984 C193.602695,254.787089 145.891012,214.259205 116.129537,155.792749 C97.4939835,119.180534 77.8231215,83.1620308 50.8321906,51.7094524 C35.1567446,33.445753 17.0315544,17.1752282 0,0 L26.0722768,0 Z M86.5285324,0 C117.890839,36.3918607 143.107926,76.5921719 164.536667,119.190396 C190.245372,170.280055 231.628001,204.979271 284.939584,226.518175 C300.483374,232.795065 316.952561,236.970256 332.987968,242.104611 L332.987968,258.90411 C301.770255,251.16026 271.492399,241.145446 243.701549,224.755003 C204.560118,201.664509 172.980921,171.352063 152.332985,131.391543 C131.251268,90.5847013 108.188622,51.103764 78.2867091,15.7274902 C73.7320172,10.3392379 68.8447606,5.23309314 64.131016,0 L86.5285324,0 Z M146.584007,0 C156.25141,14.1939286 166.2241,28.204982 175.498993,42.6380551 C190.123667,65.3708486 202.945697,89.3134319 218.893279,111.103715 C246.877868,149.352765 286.070831,174.167523 330.410051,191.765743 C331.965558,192.398773 333.768201,192.483177 335.454545,192.820792 L335.454545,209.589041 C313.924583,199.798184 291.31885,191.709474 271.097258,179.836654 C231.30826,156.470831 202.902085,122.652987 180.412651,83.2082138 C164.043483,54.4968082 144.127178,27.6704238 125.795455,0 L146.584007,0 Z M197.116024,0 C216.474787,32.0629835 232.113572,66.4852634 258.540292,94.0934265 C275.845627,112.147172 295.576387,127.167537 317.390335,139.506217 C323.23814,142.80337 329.428182,145.499709 335.454545,148.474474 L335.454545,167.671233 C302.153307,152.167286 272.170289,132.135248 246.651244,105.684752 C226.087209,84.407123 211.653696,59.2461803 197.413623,33.8507733 C191.030141,22.4352961 184.215143,11.2835911 177.593583,0 L197.116024,0 Z M335.454545,345.205479 C312.716055,340.780154 289.173979,338.504671 267.447411,331.371103 C241.13743,322.757772 216.360214,310.040197 190.957987,299.011783 C188.309132,297.853102 185.883494,296.16394 183.517382,294.516658 C178.889325,291.319814 175.332716,287.341209 179.32088,281.952643 C182.981658,276.996836 188.011507,278.392838 192.71397,280.933561 C201.419478,285.610167 209.931531,290.649733 218.830495,294.977338 C250.453069,310.445037 283.742337,321.445531 318.981045,327.057457 C324.501974,327.936938 329.963379,329.16542 335.454545,330.240341 L335.454545,345.205479 Z M249.126746,0 C269.69823,38.9279999 297.672552,71.1805687 335.454545,94.5229509 L335.454545,113.424658 C313.405391,101.789511 294.311577,86.2038931 277.347346,68.2249243 C258.35494,48.1265421 242.76697,25.5338844 231.858289,0 L249.126746,0 Z M332.987968,56.7123288 C317.34001,42.275969 301.528433,27.9755447 286.148217,13.2945008 C282.161855,9.47471073 279.514197,4.4586874 276.256684,0 L295.757134,0 C308.177328,12.4245131 320.582648,24.8354326 332.987968,37.2599456 L332.987968,56.7123288 Z M214.884453,360 C208.869211,356.936858 202.77023,353.990037 196.852683,350.758875 C192.107481,348.16102 187.739103,344.658439 191.130528,339.07499 C194.452169,333.607863 199.60211,335.18467 204.849745,337.291388 C221.737083,344.063905 238.763986,350.513306 255.721107,357.143652 C257.702927,357.919131 259.545182,359.043576 261.457219,360 L214.884453,360 Z M73.9973262,151.2023 C72.6136856,153.059182 71.2865202,156.530124 68.9992776,157.429997 C66.6696786,158.329871 62.6740634,157.544267 60.697434,155.915924 C58.0289843,153.701949 56.2076615,150.159589 54.6828331,146.874336 C41.9335734,119.506749 25.7110935,94.453123 5.81773036,71.8562948 C2.20332229,67.7283029 0.819681706,63.4289064 5.21062275,59.1580773 C9.33330695,55.1300712 13.724248,56.5013073 17.0703992,60.200788 C40.1969633,85.6972092 58.0572219,114.707423 72.5148541,145.945895 C73.107843,147.202861 73.2913871,148.645516 73.9973262,151.2023 Z"></path>
        </g>
    </g>
</svg>